<?xml version="1.0" encoding="UTF-8"?>
<svg id="LOGO" xmlns="http://www.w3.org/2000/svg" xmlns:xlink="http://www.w3.org/1999/xlink" viewBox="0 0 258.33 91.86">
  <defs>
    <style>
      .cls-1 {
        fill: none;
      }

      .cls-2 {
        fill: #f4bf3d;
      }

      .cls-3 {
        fill: #12a578;
      }

      .cls-4 {
        fill: #fff;
      }

      .cls-5 {
        clip-path: url(#clippath);
      }

      .cls-6 {
        fill: #19572b;
      }
    </style>
    <clipPath id="clippath">
      <rect class="cls-1" width="258.33" height="91.86"/>
    </clipPath>
  </defs>
  <g class="cls-5">
    <g>
      <polygon class="cls-4" points="47.21 64.67 47.21 64.68 47.22 64.67 47.21 64.67"/>
      <polygon class="cls-4" points="34.5 50.24 34.51 50.24 34.5 50.24 34.5 50.24"/>
      <g>
        <polygon class="cls-4" points="52.3 51.96 53.38 51.96 52.83 50.1 52.3 51.96"/>
        <polygon class="cls-4" points="197.36 51.96 198.44 51.96 197.88 50.1 197.36 51.96"/>
        <path class="cls-4" d="M206.27,51c.15-.14.22-.35.22-.64s-.07-.49-.21-.61c-.14-.12-.37-.19-.69-.19h-.37v1.64h.33c.32,0,.56-.07.71-.2Z"/>
        <path class="cls-4" d="M205.61,52h-.38v1.95h.39c.37,0,.64-.08.8-.23.16-.15.24-.41.24-.76,0-.32-.08-.56-.25-.72-.17-.15-.43-.23-.79-.23Z"/>
        <path class="cls-4" d="M105.5,49.59h-.44v1.75h.4c.42,0,.72-.07.9-.21.17-.14.26-.37.26-.7,0-.31-.08-.53-.25-.66-.17-.13-.46-.19-.87-.19Z"/>
        <path class="cls-4" d="M157.1,49.43c-.41,0-.71.18-.9.55s-.28.95-.28,1.76.09,1.41.28,1.78.49.55.9.55.72-.18.91-.54c.19-.36.28-.95.28-1.76s-.09-1.41-.28-1.78c-.19-.37-.49-.55-.9-.55Z"/>
        <path class="cls-4" d="M114.97,55.67l.3-.07-2.86-6.58c-.18-.5-1.01-2.22-1.63-4.22H18.17v14.03h87.97c-.18-.55-.23-.94-.23-.94l1.62-.39,7.44-1.83ZM29.8,51h-.9v-.03c0-.43-.09-.76-.27-.99-.18-.23-.44-.34-.78-.34h-.27v3.77c0,.23.03.38.09.44s.2.09.42.09h.51v.87h-4.03v-.87h.48c.21,0,.34-.02.41-.07.07-.05.1-.2.1-.45v-3.77h-.27c-.34,0-.59.11-.77.34-.18.23-.27.56-.27.99v.03h-.91v-2.32h6.45v2.32ZM38.45,54.13c-.63.57-1.5.86-2.62.86s-1.97-.29-2.6-.87-.94-1.37-.94-2.38.31-1.81.95-2.39c.63-.58,1.5-.87,2.61-.87s1.97.29,2.6.87c.63.58.94,1.37.94,2.39s-.32,1.81-.95,2.38ZM48.33,51h-.9v-.03c0-.43-.09-.76-.27-.99-.18-.23-.44-.34-.78-.34h-.27v3.77c0,.23.03.38.09.44s.2.09.42.09h.51v.87h-4.03v-.87h.48c.21,0,.34-.02.41-.07.07-.05.1-.2.1-.45v-3.77h-.27c-.34,0-.59.11-.77.34-.18.23-.27.56-.27.99v.03h-.91v-2.32h6.45v2.32ZM56.87,54.81h-3.72v-.87h.28c.23,0,.37-.01.43-.04.05-.03.08-.07.08-.15,0-.05,0-.09-.01-.14,0-.04-.02-.09-.03-.13l-.22-.66h-1.65l-.19.58c-.03.09-.06.16-.07.21-.01.05-.02.1-.02.14,0,.05.04.1.11.12s.18.04.32.04h.3v.87h-2.74v-.87h.23c.16,0,.29-.05.39-.15s.2-.26.27-.48l1.61-4.63h2.22l1.44,4.61c.1.3.19.49.27.55s.21.1.39.1h.32v.87ZM64.4,54.81h-5.77v-.87h.31c.21,0,.35-.03.41-.08.06-.06.09-.2.09-.44v-3.35c0-.24-.03-.38-.09-.44-.06-.05-.2-.08-.42-.08h-.31v-.87h3.69v.87h-.35c-.2,0-.33.02-.4.07-.06.05-.09.18-.09.41v3.9h.41c.38,0,.65-.02.81-.06.16-.04.28-.11.37-.21.12-.12.2-.29.26-.51.06-.21.1-.51.12-.89h.95v2.56ZM79.32,49.55h-.31c-.21,0-.35.03-.41.08-.06.06-.09.2-.09.44v3.35c0,.24.03.39.09.44.06.06.2.08.41.08h.31v.87h-3.4v-.87h.1c.18,0,.3-.03.36-.09.06-.06.09-.21.09-.44v-1.37h-1.7v1.37c0,.23.03.38.09.44.06.06.18.09.36.09h.1v.87h-3.4v-.87h.31c.21,0,.34-.02.41-.07.07-.05.1-.2.1-.45v-3.35c0-.24-.03-.39-.09-.44-.06-.05-.2-.08-.42-.08h-.31v-.87h3.4v.87h-.1c-.18,0-.3.03-.36.09-.06.06-.08.2-.08.44v1.11h1.7v-1.11c0-.23-.03-.38-.09-.44-.06-.06-.18-.09-.36-.09h-.1v-.87h3.4v.87ZM88.1,54.81h-6.47v-.87h.31c.2,0,.33-.02.4-.07.06-.05.1-.18.1-.41v-3.39c0-.24-.03-.38-.09-.44-.06-.05-.2-.08-.42-.08h-.3v-.87h6.43v2.28h-.97c-.06-.3-.13-.53-.2-.7-.07-.17-.16-.3-.26-.4-.12-.12-.26-.2-.42-.25-.17-.05-.44-.07-.81-.07h-.97v1.68h.24c.28,0,.47-.07.58-.2.11-.13.17-.37.17-.71v-.05h.77v2.8h-.77c-.01-.43-.07-.71-.17-.83-.1-.13-.29-.19-.57-.19h-.25v1.91h1.08c.42,0,.71-.02.87-.08s.28-.14.37-.26c.09-.15.17-.32.23-.53.05-.21.09-.47.11-.79h1.01v2.53ZM99.9,49.55h-.3c-.21,0-.35.03-.41.08-.06.05-.09.2-.09.44v3.35c0,.25.03.4.09.45.06.05.2.08.41.08h.3v.87h-3.36v-.87h.23c.21,0,.34-.02.41-.07.07-.05.1-.2.1-.45v-3.73l-1.57,5.13h-1.44l-1.49-5.12v3.72c0,.24.03.39.09.44.06.06.2.08.41.08h.23v.87h-2.75v-.87h.28c.21,0,.35-.03.41-.08.06-.06.09-.2.09-.44v-3.35c0-.24-.03-.38-.09-.44-.06-.05-.2-.08-.41-.08h-.28v-.87h3.44l1.04,3.65,1.12-3.65h3.55v.87ZM105.05,52.1v1.32c0,.24.03.39.09.44.06.06.2.08.41.08h.35v.87h-3.69v-.87h.31c.21,0,.35-.03.41-.08.06-.06.09-.2.09-.44v-3.35c0-.24-.03-.38-.09-.44-.06-.05-.2-.08-.42-.08h-.31v-.87h4.02c.86,0,1.49.14,1.89.41.4.28.6.71.6,1.29s-.2,1.02-.6,1.3c-.4.28-1.03.41-1.89.41h-1.18Z"/>
        <path class="cls-4" d="M35.85,49.43c-.41,0-.71.18-.9.55s-.28.95-.28,1.76.09,1.41.28,1.78.49.55.9.55.72-.18.91-.54c.19-.36.28-.95.28-1.76s-.09-1.41-.28-1.78c-.19-.37-.49-.55-.9-.55Z"/>
        <path class="cls-4" d="M146.02,44.8c-.62,2-1.45,3.72-1.63,4.22l-2.78,6.47,7.66,2,1.62.39s-.05.39-.23.94h89.51v-14.03h-94.14ZM151.44,54.33c-.5.44-1.19.66-2.1.66-1.06,0-1.87-.28-2.44-.84-.57-.56-.85-1.36-.85-2.4,0-.98.29-1.77.88-2.36.59-.59,1.38-.89,2.37-.89.33,0,.64.04.93.1s.56.18.82.32l.16-.34h1v2.52h-1.1c-.11-.59-.27-1.02-.49-1.28-.22-.27-.52-.4-.89-.4-.43,0-.75.18-.94.55s-.29.95-.29,1.76.1,1.43.3,1.8c.2.37.53.55.99.55.41,0,.75-.15,1.02-.44.26-.3.41-.69.45-1.2h.99c-.02.82-.28,1.45-.78,1.89ZM159.7,54.13c-.63.57-1.5.86-2.62.86s-1.97-.29-2.6-.87-.94-1.37-.94-2.38.31-1.81.95-2.39c.63-.58,1.5-.87,2.61-.87s1.97.29,2.6.87c.63.58.94,1.37.94,2.39s-.32,1.81-.95,2.38ZM168.96,49.55h-.22c-.21,0-.35.03-.41.08-.06.06-.09.2-.09.44v4.74h-2.1l-2.38-4.39v3c0,.24.03.39.09.44.06.06.2.08.41.08h.27v.87h-2.7v-.87h.3c.22,0,.36-.03.42-.09s.09-.2.09-.44v-3.35c0-.23-.03-.38-.09-.44-.06-.06-.2-.09-.42-.09h-.3v-.87h3.03l2.26,4.13v-2.74c0-.25-.03-.4-.1-.45-.06-.05-.2-.08-.41-.08h-.35v-.87h2.7v.87ZM175.34,54.44c-.47.37-1.1.55-1.89.55-.36,0-.71-.04-1.05-.12-.34-.08-.67-.21-1-.37l-.23.34h-.84v-2.28h.88c.15.47.39.84.72,1.11s.74.4,1.19.4c.28,0,.5-.06.67-.18.17-.12.25-.27.25-.46,0-.29-.36-.54-1.08-.74-.23-.06-.42-.11-.55-.16-.43-.13-.77-.24-1-.33-.24-.09-.4-.18-.51-.26-.25-.18-.43-.39-.55-.61-.12-.22-.18-.48-.18-.77,0-.62.23-1.11.68-1.49.46-.38,1.06-.57,1.81-.57.38,0,.74.04,1.07.11.33.07.65.19.96.34l.17-.31h.88v2.13h-1.03c-.1-.43-.29-.76-.57-.97-.28-.21-.65-.32-1.12-.32-.27,0-.5.06-.68.19s-.27.28-.27.46c0,.27.34.48,1.02.62.17.04.3.06.39.08.95.22,1.61.49,1.99.81s.57.76.57,1.32c0,.62-.23,1.11-.7,1.48ZM184.07,49.55h-.28c-.21,0-.35.03-.41.08-.06.06-.09.19-.09.41v2.96c0,.65-.24,1.15-.71,1.49-.47.34-1.17.51-2.08.51-.83,0-1.47-.17-1.93-.5-.46-.34-.68-.81-.68-1.42v-3.01c0-.23-.03-.38-.09-.44-.06-.06-.2-.09-.42-.09h-.31v-.87h3.69v.87h-.34c-.22,0-.36.03-.42.09-.06.06-.09.2-.09.44v2.7c0,.47.07.8.22,1s.4.29.75.29c.42,0,.72-.09.9-.28.18-.19.27-.5.27-.92v-2.78c0-.24-.03-.39-.09-.44-.06-.05-.2-.08-.41-.08h-.31v-.87h2.84v.87ZM194.18,49.55h-.3c-.21,0-.35.03-.41.08-.06.05-.09.2-.09.44v3.35c0,.25.03.4.09.45.06.05.2.08.41.08h.3v.87h-3.36v-.87h.23c.21,0,.34-.02.41-.07.07-.05.1-.2.1-.45v-3.73l-1.57,5.13h-1.44l-1.49-5.12v3.72c0,.24.03.39.09.44.06.06.2.08.41.08h.23v.87h-2.75v-.87h.28c.21,0,.35-.03.41-.08.06-.06.09-.2.09-.44v-3.35c0-.24-.03-.38-.09-.44-.06-.05-.2-.08-.41-.08h-.28v-.87h3.44l1.04,3.65,1.12-3.65h3.55v.87ZM201.92,54.81h-3.72v-.87h.28c.23,0,.37-.01.43-.04.05-.03.08-.07.08-.15,0-.05,0-.09-.01-.14,0-.04-.02-.09-.03-.13l-.22-.66h-1.65l-.19.58c-.03.09-.06.16-.07.21-.01.05-.02.1-.02.14,0,.05.04.1.11.12s.18.04.32.04h.3v.87h-2.74v-.87h.23c.16,0,.29-.05.39-.15s.2-.26.27-.48l1.61-4.63h2.22l1.44,4.61c.1.3.19.49.27.55s.21.1.39.1h.32v.87ZM208.1,54.42c-.42.26-1.12.39-2.1.39h-3.59v-.87h.31c.2,0,.33-.02.4-.07.06-.05.1-.18.1-.41v-3.39c0-.24-.03-.38-.09-.44-.06-.05-.2-.08-.42-.08h-.3v-.87h3.69c.8,0,1.39.12,1.76.35s.56.6.56,1.09c0,.34-.11.63-.33.88s-.53.44-.94.57c.53.12.93.3,1.19.56.26.26.39.59.39,1,0,.6-.21,1.03-.63,1.29ZM215.74,54.81h-5.77v-.87h.31c.21,0,.35-.03.41-.08.06-.06.09-.2.09-.44v-3.35c0-.24-.03-.38-.09-.44-.06-.05-.2-.08-.42-.08h-.31v-.87h3.69v.87h-.35c-.2,0-.33.02-.4.07-.06.05-.09.18-.09.41v3.9h.41c.38,0,.65-.02.81-.06.16-.04.28-.11.37-.21.12-.12.2-.29.26-.51.06-.21.1-.51.12-.89h.95v2.56ZM223.47,54.81h-6.47v-.87h.31c.2,0,.33-.02.4-.07.06-.05.1-.18.1-.41v-3.39c0-.24-.03-.38-.09-.44-.06-.05-.2-.08-.42-.08h-.3v-.87h6.43v2.28h-.97c-.06-.3-.13-.53-.2-.7-.07-.17-.16-.3-.26-.4-.12-.12-.26-.2-.42-.25-.17-.05-.44-.07-.81-.07h-.97v1.68h.24c.28,0,.47-.07.58-.2.11-.13.17-.37.17-.71v-.05h.77v2.8h-.77c-.01-.43-.07-.71-.17-.83-.1-.13-.29-.19-.57-.19h-.25v1.91h1.08c.42,0,.71-.02.87-.08s.28-.14.37-.26c.09-.15.17-.32.23-.53.05-.21.09-.47.11-.79h1.01v2.53ZM230.2,54.44c-.47.37-1.1.55-1.89.55-.36,0-.71-.04-1.05-.12-.34-.08-.67-.21-1-.37l-.23.34h-.84v-2.28h.88c.15.47.39.84.72,1.11s.74.4,1.19.4c.28,0,.5-.06.67-.18.17-.12.25-.27.25-.46,0-.29-.36-.54-1.08-.74-.23-.06-.42-.11-.55-.16-.43-.13-.77-.24-1-.33-.24-.09-.4-.18-.51-.26-.25-.18-.43-.39-.55-.61-.12-.22-.18-.48-.18-.77,0-.62.23-1.11.68-1.49.46-.38,1.06-.57,1.81-.57.38,0,.74.04,1.07.11.33.07.65.19.96.34l.17-.31h.88v2.13h-1.03c-.1-.43-.29-.76-.57-.97-.28-.21-.65-.32-1.12-.32-.27,0-.5.06-.68.19s-.27.28-.27.46c0,.27.34.48,1.02.62.17.04.3.06.39.08.95.22,1.61.49,1.99.81s.57.76.57,1.32c0,.62-.23,1.11-.7,1.48ZM234,49.03h-.53v1.92h-.64v-1.92h-.53v-.54h1.69v.54ZM236.62,50.95l-.21-1.42-.58,1.42h-.25l-.55-1.42-.21,1.42h-.64l.42-2.46h.63l.49,1.31.49-1.31h.63l.42,2.46h-.64Z"/>
        <path class="cls-4" d="M135.35,65.83s.06-.01.09-.04c-.03.03-.06.04-.1.04,0,0,0,0,0,0Z"/>
        <polygon class="cls-4" points="127.28 59.69 127.29 59.69 127.29 59.69 127.28 59.69"/>
        <path class="cls-4" d="M147.28,58.16s0,0,0,0c0,0-5.05-1.25-8.01-2.11,0,0,.03-.02.08-.05l.06-.14,1.22-2.6,2.44-5.22.02-.05s.05-.07.08-.11c.04-.06.09-.13.13-.2.01-.02.02-.03.03-.05.01-.02.02-.04.03-.06.39-.65.9-1.69,1.2-2.75.02-.08.05-.16.07-.24.02-.08.04-.16.05-.24.07-.34.12-.68.13-1,0-.42-.06-.82-.22-1.15,0,0,0,0,0-.01,0,0,0,0,0,0l-1.88,1.11h0l-1.82,1.07-1.54.91-5.87,3.46h0c.04-.08.08-.18.11-.29,1.06-3.53-3.49-18.29-4.98-19.86,0,0,0,0,0,0-.04-.04-.08-.08-.12-.11-.04-.02-.07-.04-.11-.04-.03,0-.07.02-.11.04-.04.03-.08.06-.12.11,0,0,0,0,0,0t0,0c-.05.05-.1.11-.15.19,0,0,0,0,0,0-.05.08-.11.16-.17.26,0,0,0,0,0,0-.06.1-.12.21-.18.33,0,0,0,0,0,0-.06.12-.13.26-.19.4,0,0,0,0,0,.01-.07.14-.14.3-.21.46h0c-.07.17-.14.35-.22.53,0,0,0,0,0,0-.07.18-.15.38-.23.58,0,0,0,0,0,0-.28.72-.57,1.55-.87,2.44-.34,1.03-.68,2.13-1.01,3.27-.03.09-.05.18-.08.27-.05.16-.09.33-.13.49-.03.12-.07.24-.1.36,0,0,0,0,0,.01-.04.15-.08.29-.12.44-.04.14-.08.29-.11.43-.03.14-.07.27-.1.41-.04.15-.08.31-.11.46-.03.13-.06.26-.09.39-.04.16-.07.32-.11.47-.03.12-.06.25-.08.37-.04.16-.07.32-.1.47-.03.12-.05.24-.08.36-.03.16-.06.31-.09.47-.02.12-.05.23-.07.35-.03.15-.06.31-.08.46-.02.11-.04.22-.06.33-.03.15-.05.3-.07.44-.02.11-.03.21-.05.32-.02.14-.04.28-.06.42-.01.1-.03.21-.04.31-.02.13-.03.27-.04.39,0,.04,0,.09-.01.13,0,.05-.01.1-.02.15-.01.13-.02.25-.03.37,0,.09-.01.18-.02.27,0,.12,0,.23-.01.34,0,.08,0,.16,0,.24,0,.11,0,.21,0,.31,0,.07,0,.15,0,.21,0,.1.02.19.03.29,0,.06.01.12.02.18.01.1.04.18.06.27,0,.04.02.09.03.13.03.12.07.23.12.32l-1.24-.73-4.88-2.87-1.29-.76-3.7-2.18c-.17.34-.24.74-.23,1.17,0,.32.06.66.15,1,.02.08.04.16.06.24.02.08.05.16.07.24.41,1.31,1.18,2.58,1.45,3.18l1.89,4.04,1.31,2.79.17.36.31.66.1.22.06.12c-2.97.87-7.61,1.89-7.98,1.97-.01,0-.04,0-.04,0,0,0-.01.28.12.67.03.08.06.16.1.24.04.08.08.16.13.24.4.68,1.25,1.48,3.12,1.89.18.03,5.34,1.41,5.78,1.52,1.12.27,1.93.73,1.46,2.04-.08.29-.58,1.03-.32,3.16l1.42-.47.57-.19c1.06-.35,3.18-1.06,3.63-1.19.75-.23,1.34-.71,1.74-1.14.15-.15.21-.44.23-.71.02-.28,0-.53,0-.53,0-.15,0-.3,0-.44,0-.13,0-.26-.01-.39l-.64.98c-.24.34-.87,1.13-1.79,1.41-.34.1-.71.22-1.24.4-.49.16-1.12.37-1.99.64-.07.02-.16.04-.24.04-.18,0-.32-.06-.37-.09-.06-.03-.11-.07-.15-.12-.15-.18-.19-.41-.09-.67.21-.63.29-1.14.38-1.63.06-.34.11-.66.2-.99.07-.24.14-.44.21-.61l-.25.05s-.56.12-1.04.14c-.05,0-.09,0-.13,0-.12,0-.22,0-.31-.02-.31-.05-.69-.17-1.17-.34-.13-.05-.27-.09-.42-.15-1.36-.49-3.41-1.22-6.54-1.73-.03,0-.06-.01-.09-.02-.35-.13-.59-.43-.62-.8,0-.01,0-.02,0-.04,0-.08,0-.16.03-.24.03-.09.06-.17.12-.24.11-.16.28-.28.51-.33,3.39-.68,5-1.11,7.84-2.11.09-.03.18-.05.28-.07l-.34-.21s-.02-.01-.03-.02c-.02-.01-.05-.04-.1-.07,0,0,0,0-.01-.01-.16-.12-.45-.34-.72-.58-.09-.08-.17-.16-.25-.24-.02-.02-.03-.03-.05-.05-.08-.08-.16-.17-.21-.25-1.29-1.77-1.88-3.38-2.44-4.95-.46-1.27-.93-2.59-1.8-3.98-.05-.07-.08-.15-.11-.23-.02-.06-.02-.12-.03-.17,0-.02,0-.03,0-.05,0-.15.05-.29.14-.42,0,0,0,0,0,0,.02-.02.02-.05.04-.07.11-.12.25-.18.4-.21.05-.01.1-.03.15-.03.07,0,.13.01.2.03.09.02.18.06.26.11,1.79,1.25,3.03,1.98,4.1,2.56.32.17.62.33.91.49.07.04.14.07.21.11.23.12.47.25.7.37.3.16.59.32.9.5.4.23.82.48,1.3.78.05.03.1.07.16.11.02.02.05.04.07.06.03.03.06.05.1.08.04.03.08.06.11.1.02.02.04.03.05.05.05.04.1.09.15.13.15.14.3.29.41.41.11.12.2.2.22.23.01.02.03.03.04.05l-.16-.69-.3-1.27c-.18-.75-.2-1.53-.05-2.31.54-2.85,1.56-6.87,2.39-10.1.55-2.14,1.02-3.99,1.09-4.51.06-.42.39-.73.79-.73h0c.08,0,.15.02.22.04.04.01.08.03.12.05h0s0,0,0,0c.09.04.17.11.24.19.03.03.06.06.08.1.02.03.04.06.05.09.04.08.07.16.09.25.08.41.47,1.83.98,3.63,1,3.56,2.36,8.42,2.84,11.15.11.63.11,1.6,0,2.22l-.24,1.36-.03.2c.28-.29.72-.7,1-.88.54-.34,1.02-.62,1.47-.88.46-.26.9-.49,1.35-.73.03-.01.05-.03.08-.04,1.36-.72,2.77-1.46,5.22-3.16.06-.04.23-.1.42-.11.02,0,.04,0,.06,0,.2,0,.41.04.58.21.35.35.07.9.04.95-.86,1.39-1.33,2.7-1.79,3.97-.57,1.57-1.15,3.19-2.44,4.95-.13.17-.32.36-.52.54-.37.33-.77.62-.83.66l-.45.28c.1.02.19.05.29.08,3,1.05,4.77,1.42,7.91,2.05.23.05.4.17.51.33.05.08.09.16.12.24.02.08.03.16.03.24,0,.01,0,.02,0,.04-.03.37-.27.68-.62.8-.03.01-.06.02-.09.02-3.14.5-5.19,1.24-6.54,1.73-.69.25-1.19.43-1.59.49-.09.01-.19.02-.31.02-.51,0-1.16-.14-1.19-.14l-.13-.03c.07.17.14.36.2.59.09.33.14.65.2.99.08.49.17.99.37,1.6.1.29.07.52-.09.71,0,0,0,0,0,0-.12.13-.29.21-.47.21-.12,0-.21-.03-.27-.05-.87-.28-1.5-.48-1.99-.64-.52-.17-.9-.29-1.24-.4-.92-.28-1.55-1.07-1.78-1.4l-.89-1.38c0,.11,0,.22,0,.33,0,.09,0,.68,0,1.19,0,.38.03.55.24.8.41.46,1.03,1.02,1.86,1.27.45.14,2.57.84,3.63,1.19l1.6.53s0,0,0,0l.39.13c.12-.97.07-1.65-.01-2.13,0-.05-.02-.1-.03-.16-.1-.47-.24-.73-.28-.87-.15-.41-.16-.72-.09-.99.05-.18.13-.33.26-.46.29-.29.75-.47,1.29-.6.44-.11,5.6-1.49,5.78-1.52,1.87-.41,2.73-1.21,3.13-1.89.05-.08.09-.17.13-.24.04-.09.07-.17.1-.24.11-.32.12-.57.11-.64,0,0,0,0,0,0,0-.01,0-.02,0-.02Z"/>
        <path class="cls-4" d="M114.42,45.35s0,0,0,.01c-.08.09-.05.21.02.32,1.95,3.17,1.93,5.77,4.22,8.9.11.15.29.33.48.49.36.32.75.6.75.6l2.04,1.25c.25.06.9.18,1.51.29.72.13,1.39.42,1.98.85.05.04.1.08.16.12.03.03.07.05.1.07.01,0,.35.3.68.58.1.09.2.17.29.24.15.13.26.22.29.24,0,0,.02.02.02.02,0,0,0,0,.01-.02.02-.03.09-.11.13-.24.03-.07.04-.15.05-.24,0-.22-.07-.48-.36-.78-.15-.16-2.96-3.04-5.86-6.02-2.96-3.04-6-6.17-6.44-6.62-.04-.04-.06-.06-.06-.06Z"/>
        <polygon class="cls-4" points="114.59 45.28 114.6 45.28 114.59 45.28 114.59 45.28"/>
        <path class="cls-4" d="M131.48,58.16s-.45.37-.82.67c-.12.1-.22.18-.3.24-.07.06-.13.11-.14.12-.07.06-.05.11-.01.13.02,0,.04.02.06.02.02,0,11.21-.01,14.11-.02.32,0,.54,0,.63,0h.02c.05,0,.08,0,.08,0,0,0,0,0,0,0,0-.08-.05-.17-.14-.24-.04-.03-.06-.07-.11-.08-.29-.06-.56-.11-.83-.17-2.77-.56-4.44-.96-7.13-1.9-.35-.11-.65-.14-.92-.14-.48,0-2.34.36-2.34.36-.75.13-1.44.45-2.03.91-.04.03-.09.06-.13.1Z"/>
        <path class="cls-4" d="M111.69,59.32s0,0,0,0c0,.1.06.28.28.36,4.73.76,7.06,2.05,8.13,2.22.07.01.15.01.23.01.46,0,1.08-.13,1.08-.13l1.81-.35h0l.04-.03c.14-.1.64-.45,1.13-.79.42-.29.82-.58.99-.69.13-.08.19-.18.2-.28.02-.16-.11-.31-.32-.31-.04,0-.32,0-.75,0-.19,0-.42,0-.67,0-2.95,0-9.6-.01-11.57-.02-.35,0-.58,0-.58,0Z"/>
        <path class="cls-4" d="M128.88,61.03s.01,0,.01-.01c.08-.09.16-.17.27-.23.03-.01.05-.03.08-.04.08-.04.17-.06.27-.07.03,0,.05-.01.08-.01.11,0,.23,0,.35.03.04,0,.07.03.11.04.07.02.13.05.19.09.07.04.14.09.2.15.01,0,.02.01.03.03.07.07.22.21.42.41,1.24,1.2,4.55,4.38,4.55,4.38h0s0,0,0,0c.05-.06.02-.13,0-.21-.36-1.08-.37-1.86-.58-2.62-.32-1.15-.72-1.21-1.18-1.54l-.32-.22c-.25-.14-.67-.36-1.08-.59-.39-.22-.79-.43-1.05-.58-.2-.11-.43-.17-.66-.17,0,0,0,0,0,0h-.48s-.03,0-.05,0c0,0-.02,0-.02,0-.19,0-.65-.03-.79-.47,0-.02-.02-.04-.02-.07,0,0,0,0,0,0,0-.02,0-.05,0-.07,0-.04-.01-.08-.01-.12,0-.01.01-.03.01-.05.01-.08.04-.16.09-.24.04-.07.09-.15.18-.23l.16-.16.37-.38.06-.07c.03-.08.05-.16.08-.24-.03.08-.05.16-.08.24l10.14-10.4,2.18-2.24s0,0,0,0c-.04-.05-.21-.14-.4-.02-4.1,2.85-5.35,3.05-8.13,4.82-.38.24-1.18,1.09-1.18,1.09l-.96,1.43v.02s-.01,0-.01,0v.06s-.01,0-.01,0l-.95,1.37-1.52,2.19-.46-.54c-.33-.38-.5-.86-.5-1.36v-22.57s0,0-.01,0c-.15,0-.26.13-.28.29-.17,1.32-2.56,9.79-3.48,14.63-.13.7-.12,1.41.04,2.1l.33,1.38.5,2.11.1.42.1.42.05.22v.02s1.85,2.67,1.85,2.67l.48.67v.02s.31.44.31.44l.07.1s.05.08.08.12c0,0,.01.02.02.03.02.02.03.05.05.08.04.07.08.14.11.21.05.1.08.2.1.3.03.12.03.23.02.34,0,.02,0,.03,0,.05-.02.11-.05.22-.1.32,0,.02-.03.04-.04.06-.03.06-.07.11-.12.17l-.07.08-.05.05-.03.03-.15.16-.15.16-.1.11-.18.18-.86.83-5.37,5.18h0s0,0,0,0c0,0,.05.03.12.03.03,0,.06,0,.09-.01,1.79-.57,2.57-.84,3.24-1.04.15-.05.29-.11.44-.19.43-.24.81-.63,1.07-1.01l1.48-2.29.02-.02c.03.47.06,1,.07,1.44,0,.18.01.36.02.54,0,0,0,0,0,0,0,.07,0,.14,0,.2,0,0,0,0,0,0,0-.05.01-.1.01-.15,0,.05,0,.1-.01.15,0,0,0,0,0,0,0,.16,0,.33,0,.49,0,.18,0,1.3,0,2.17,0,0,0,0,0,0,0,.31,0,.59-.02.78,0,.07-.12,2.08-.21,2.86,0,.03,0,.06,0,.09,0,.22,0,.42.01.59.13,1.43,1.01,1.48,1.18.32.04-.26.04-.58-.01-.95-.12-.63-.18-1.82-.22-2.87,0,0-.03-.94-.03-.94,0,0-.03-1.42-.03-1.88,0-.17,0-.31,0-.37h0c0-.43,0-.86,0-.94,0-.69.03-.53.03-1.22,0-.2.07-.37.17-.51,0,0,0,0,0-.01h0s0,0,0,0c0,0,.01-.01.02-.02Z"/>
        <polygon class="cls-4" points="121.46 65.79 121.46 65.79 121.46 65.79 121.46 65.79 121.46 65.79"/>
        <path d="M146.17,44.31c.28-.98.5-2,.57-2.96.07-1.03-.02-1.98-.38-2.69,0,0-7.37,4.1-10.87,6.18,0-5.12-7.09-24.53-7.09-24.53,0,0-6.12,16.77-6.98,23.24-.07.49-.1.93-.1,1.29-3.5-2.08-10.88-6.18-10.88-6.18-.36.71-.45,1.66-.38,2.69.07.96.29,1.99.57,2.96H17.68v15h88.63c.54,1.34,1.73,3.2,4.31,3.58,4.12.6,8.52,1.69,8.52,1.69.79.15-.38,1.72-.15,3.62l.24,2.75s1.98-.61,3.89-1.2c1.66-.51,3.25-1.01,3.44-1.06.53-.16,1.43-1.02,1.43-1.84,0-.19.01-.46.02-.75.01-.86,0-1.98,0-2.17,0-.16,0-.33,0-.49,0,0,0,.01,0,.02-.05.5-.36,1.03-.56,1.33.21-.3.51-.83.56-1.33,0,0,0-.01,0-.02,0-.07,0-.14,0-.2,0,0,0,0,0,0,0-.18-.01-.36-.02-.54-.02-.44-.04-.97-.07-1.44l-.02.02-1.48,2.29c-.27.39-.65.77-1.07,1.01-.14.08-.29.15-.44.19-.67.2-1.44.47-3.24,1.04-.03.01-.06.01-.09.01-.07,0-.12-.03-.12-.03,0,0,0,0,0,0h0s0,0,0,0c0,0,0,0,0,0,0,0,0,0,0,0h0s5.37-5.18,5.37-5.18l.86-.83.18-.18.1-.11.15-.16.15-.16.03-.03.05-.05.07-.08c.05-.06.08-.11.12-.17.01-.02.03-.04.04-.06.06-.11.09-.21.1-.32,0-.02,0-.03,0-.05.01-.11,0-.22-.02-.34-.02-.1-.06-.2-.1-.3-.03-.07-.07-.14-.11-.21-.01-.02-.03-.05-.05-.08,0,0-.01-.02-.02-.03-.03-.04-.05-.08-.08-.12l-.07-.1-.31-.44v-.02s-.48-.67-.48-.67l-1.85-2.67v-.02s-.06-.22-.06-.22l-.1-.42-.1-.42-.5-2.11-.33-1.38c-.16-.69-.18-1.4-.04-2.1.91-4.84,3.3-13.32,3.48-14.63.02-.16.13-.28.28-.29,0,0,0,0,.01,0v22.57c0,.5.18.98.5,1.36l.46.54,1.52-2.19.95-1.37h0s0-.07,0-.07h0s.01-.02.01-.02l.96-1.43s.8-.85,1.18-1.09c2.79-1.77,4.04-1.96,8.13-4.82.19-.12.35-.03.4.02,0,0,0,0,0,0l-2.18,2.24-10.14,10.4c.03-.08.05-.16.08-.24-.03.08-.05.16-.08.24l-.06.07-.37.38-.16.16c-.08.08-.13.15-.18.23-.05.09-.08.17-.09.24,0,.01-.01.03-.01.05,0,.04,0,.08.01.12,0,.03,0,.05,0,.07,0,0,0,0,0,0,0,.03.02.05.02.07.14.44.6.47.79.47,0,0,.02,0,.02,0,.02,0,.03,0,.05,0h.48s0,0,0,0c.23,0,.45.06.66.17.26.14.65.36,1.05.58.42.23.83.46,1.08.59l.32.22c.46.33.87.39,1.18,1.54.21.76.22,1.54.58,2.62.03.08.06.15,0,.21,0,0,0,0,0,0h0s-3.32-3.18-4.55-4.38c-.2-.19-.35-.34-.42-.41-.01-.01-.02-.02-.03-.03-.06-.06-.13-.11-.2-.15-.06-.04-.13-.06-.19-.09-.04-.01-.07-.03-.11-.04-.12-.03-.23-.04-.35-.03-.03,0-.05.01-.08.01-.09.01-.18.04-.27.07-.03.01-.05.02-.08.04-.1.06-.19.13-.27.23,0,0-.01,0-.01.01,0,0-.01.01-.02.02,0,0,0,0,0,0h0s0,.01,0,.01c-.1.14-.17.31-.17.51,0,.7-.02.53-.03,1.22,0,.08,0,.5,0,.94h0c0,.05,0,.2,0,.37,0,.46.02,1.23.03,1.88,0,.37.02.7.03.89,0,.84.94,1.64,1.51,1.81.19.06,1.78.55,3.44,1.06,1.91.59,3.89,1.2,3.89,1.2l.24-2.75c.23-1.9-.94-3.48-.15-3.62,0,0,4.4-1.09,8.52-1.69,2.57-.37,3.77-2.23,4.31-3.58h90.18v-15h-94.48ZM107.53,57.5l-1.62.39s.05.39.23.94H18.17v-14.03h92.6c.62,2,1.45,3.72,1.63,4.22l2.86,6.58-.3.07-7.44,1.83ZM121.48,65.83h0s0,0,0,0l-.03.03s0,0,0,0c.02.02.05.03.07.03-.05,0-.08-.02-.08-.02,0,0,0,0,0,0,0,0,0-.02,0-.02-.01-.02-.03-.05-.02-.08,0,.02,0,.05.02.07-.01-.02-.02-.04-.02-.07,0,.04,0,.07.03.1h0s0,0,0,0h0s0,0,0,0c0,0,0,0,0,0h0s.03-.03.03-.03ZM125.38,59.92c-.16.11-.57.4-.99.69-.49.34-.99.69-1.13.79l-.04.03h0l-1.81.35s-.62.13-1.08.13c-.08,0-.16,0-.23-.01-1.07-.16-3.4-1.46-8.13-2.22-.22-.08-.27-.26-.28-.36,0,0,0,0,0,0,0,0,.22,0,.58,0,1.97,0,8.61.01,11.57.02.25,0,.48,0,.67,0,.43,0,.7,0,.75,0,.21,0,.34.15.32.31,0,.1-.07.2-.2.28ZM127.29,59.69s0,0,0,0h0s0,0,0,0ZM126.78,58.05c.29.29.37.56.36.78,0,.09-.02.17-.05.24-.05.13-.11.22-.13.24,0,0-.01.02-.01.02,0,0-.01-.01-.02-.02-.03-.02-.14-.12-.29-.24-.09-.08-.19-.16-.29-.24-.33-.28-.67-.57-.68-.58-.03-.03-.07-.05-.1-.07-.05-.04-.1-.08-.16-.12-.59-.42-1.26-.72-1.98-.85-.62-.11-1.27-.23-1.51-.29l-2.04-1.25s-.39-.28-.75-.6c-.19-.17-.37-.34-.48-.49-2.29-3.13-2.26-5.73-4.22-8.9-.07-.11-.09-.22-.02-.32,0,0,0,0,0-.01,0,0,.02.03.06.06.44.45,3.49,3.58,6.44,6.62,2.9,2.98,5.7,5.86,5.86,6.02ZM114.59,45.28s0,0,0,0c0,0,0,0,0,0,0,0,0,0-.01,0ZM132.78,55.95s0-.02,0-.04c-.02.11-.04.24-.07.4.03-.14.05-.27.06-.36ZM130.26,59.33s-.04,0-.06-.02c-.04-.02-.06-.07.01-.13,0,0,.07-.05.14-.12.08-.07.18-.15.3-.24.36-.3.82-.67.82-.67.04-.04.09-.06.13-.1.59-.47,1.29-.78,2.03-.91,0,0,1.85-.36,2.34-.36.27,0,.58.04.92.14,2.69.94,4.35,1.33,7.13,1.9.27.05.54.11.83.17.06.01.08.05.11.08.09.07.14.17.14.24,0,0,0,0,0,0,0,0-.03,0-.08,0h-.02c-.09,0-.31,0-.63,0-2.89,0-14.09.02-14.11.02ZM135.49,65.86h0s0,0,0,0c0,0,0,0,0,0,0,0-.03-.03-.03-.03.01.01.03.03.03.03ZM135.49,65.87s0,0,0,0c0,0,0,0,0,0-.03.03-.06.04-.09.04,0,0,0,0,0,0,.04,0,.07,0,.1-.04ZM135.44,65.79s-.06.04-.09.04c0,0,0,0,0,0,.03,0,.07,0,.1-.04ZM147.16,58.83c-.03.08-.06.16-.1.24-.04.08-.08.16-.13.24-.4.68-1.26,1.48-3.13,1.89-.18.03-5.34,1.41-5.78,1.52-.54.13-1,.31-1.29.6-.13.13-.21.28-.26.46-.07.26-.06.58.09.99.04.14.18.4.28.87,0,.05.02.1.03.16.09.48.13,1.15.01,2.13l-.39-.13s0,0,0,0l-1.6-.53c-1.06-.35-3.18-1.06-3.63-1.19-.83-.25-1.46-.81-1.86-1.27-.21-.25-.24-.42-.24-.8,0-.51,0-1.1,0-1.19,0-.11,0-.22,0-.33l.89,1.38c.23.33.86,1.12,1.78,1.4.34.1.71.23,1.24.4.49.16,1.12.37,1.99.64.06.02.16.05.27.05.18,0,.35-.07.47-.21,0,0,0,0,0,0,.16-.18.2-.41.09-.71-.2-.61-.29-1.12-.37-1.6-.06-.34-.11-.66-.2-.99-.06-.23-.13-.42-.2-.59l.13.03s.68.14,1.19.14c.12,0,.22,0,.31-.02.4-.06.9-.24,1.59-.49,1.36-.49,3.41-1.22,6.54-1.73.03,0,.06-.01.09-.02.35-.13.59-.43.62-.8,0-.01,0-.02,0-.04,0-.08,0-.16-.03-.24-.03-.09-.06-.17-.12-.24-.11-.16-.28-.28-.51-.33-3.13-.63-4.91-1.01-7.91-2.05-.1-.03-.19-.06-.29-.08l.45-.28c.06-.05.46-.33.83-.66.2-.18.39-.37.52-.54,1.29-1.77,1.88-3.38,2.44-4.95.46-1.27.94-2.59,1.79-3.97.03-.05.31-.6-.04-.95-.17-.17-.38-.21-.58-.21-.02,0-.04,0-.06,0-.19.01-.36.07-.42.11-2.45,1.7-3.86,2.44-5.22,3.16-.03.01-.05.03-.08.04-.45.23-.89.47-1.35.73-.45.25-.93.54-1.47.88-.28.18-.71.59-1,.88l.03-.2.24-1.36c.11-.62.11-1.59,0-2.22-.48-2.73-1.85-7.6-2.84-11.15-.5-1.8-.9-3.22-.98-3.63-.02-.09-.05-.17-.09-.25-.02-.03-.03-.06-.05-.09-.02-.04-.05-.07-.08-.1-.07-.08-.15-.14-.24-.19,0,0,0,0,0,0h0s-.08-.03-.12-.05c-.07-.02-.14-.04-.22-.04h0c-.4,0-.74.31-.79.73-.07.52-.54,2.37-1.09,4.51-.82,3.23-1.85,7.25-2.39,10.1-.15.78-.13,1.55.05,2.31l.3,1.27.16.69s-.03-.03-.04-.05c-.02-.03-.11-.11-.22-.23-.11-.12-.26-.26-.41-.41-.05-.05-.1-.09-.15-.13-.02-.02-.04-.03-.05-.05-.04-.03-.08-.07-.11-.1-.03-.03-.06-.05-.1-.08-.03-.02-.05-.04-.07-.06-.06-.04-.11-.08-.16-.11-.47-.3-.89-.55-1.3-.78-.31-.18-.61-.34-.9-.5-.23-.13-.47-.25-.7-.37-.07-.04-.14-.07-.21-.11-.3-.16-.6-.32-.91-.49-1.07-.58-2.3-1.31-4.1-2.56-.08-.05-.17-.09-.26-.11-.06-.02-.13-.03-.2-.03-.05,0-.1.02-.15.03-.15.03-.29.09-.4.21-.02.02-.03.05-.04.07,0,0,0,0,0,0-.09.13-.14.27-.14.42,0,.02,0,.03,0,.05,0,.06,0,.12.03.17.02.08.06.15.11.23.86,1.4,1.34,2.71,1.8,3.98.57,1.57,1.15,3.19,2.44,4.95.06.08.13.16.21.25.02.02.03.03.05.05.08.08.16.16.25.24.28.25.56.47.72.58,0,0,0,0,.01.01.05.03.08.06.1.07,0,0,.02.01.03.02l.34.21c-.09.02-.18.05-.28.07-2.84.99-4.46,1.43-7.84,2.11-.23.05-.4.17-.51.33-.05.08-.09.16-.12.24-.02.08-.03.16-.03.24,0,.01,0,.03,0,.04.03.37.26.68.62.8.03.01.06.02.09.02,3.14.5,5.19,1.24,6.54,1.73.15.05.28.1.42.15.48.17.86.29,1.17.34.09.01.19.02.31.02.04,0,.09,0,.13,0,.48-.02,1.03-.13,1.04-.14l.25-.05c-.08.17-.15.37-.21.61-.09.33-.14.65-.2.99-.08.49-.17.99-.38,1.63-.09.27-.06.49.09.67.04.05.09.09.15.12.05.03.18.09.37.09.09,0,.17-.01.24-.04.87-.28,1.5-.48,1.99-.64.52-.17.9-.29,1.24-.4.92-.28,1.55-1.07,1.79-1.41l.64-.98c0,.13,0,.26.01.39,0,.14,0,.29,0,.44,0,0,.02.25,0,.53-.02.26-.08.56-.23.71-.41.43-.99.91-1.74,1.14-.45.14-2.57.84-3.63,1.19l-.57.19-1.42.47c-.26-2.13.24-2.87.32-3.16.47-1.31-.34-1.77-1.46-2.04-.44-.11-5.6-1.49-5.78-1.52-1.87-.41-2.73-1.21-3.12-1.89-.05-.08-.09-.17-.13-.24-.04-.09-.07-.17-.1-.24-.13-.39-.12-.67-.12-.67,0,0,.02,0,.04,0,.37-.08,5.01-1.1,7.98-1.97l-.06-.12-.1-.22-.31-.66-.17-.36-1.31-2.79-1.89-4.04c-.27-.6-1.04-1.87-1.45-3.18-.03-.08-.05-.16-.07-.24-.02-.08-.04-.16-.06-.24-.08-.34-.14-.68-.15-1,0-.43.06-.83.23-1.17l3.7,2.18,1.29.76,4.88,2.87,1.24.73c-.05-.09-.09-.2-.12-.32-.01-.04-.02-.08-.03-.13-.02-.09-.04-.17-.06-.27,0-.06-.01-.12-.02-.18-.01-.09-.02-.18-.03-.29,0-.07,0-.14,0-.21,0-.1,0-.2,0-.31,0-.08,0-.16,0-.24,0-.11,0-.22.01-.34,0-.09.01-.18.02-.27,0-.12.02-.24.03-.37,0-.05.01-.1.02-.15,0-.04,0-.09.01-.13.01-.13.03-.26.04-.39.01-.1.03-.2.04-.31.02-.14.04-.28.06-.42.02-.11.03-.21.05-.32.02-.15.05-.29.07-.44.02-.11.04-.22.06-.33.03-.15.06-.3.08-.46.02-.12.04-.23.07-.35.03-.15.06-.31.09-.47.02-.12.05-.24.08-.36.03-.16.07-.32.1-.47.03-.12.06-.25.08-.37.04-.16.07-.31.11-.47.03-.13.06-.26.09-.39.04-.15.08-.31.11-.46.03-.14.07-.27.1-.41.04-.14.07-.29.11-.43.04-.15.08-.29.12-.44,0,0,0,0,0-.01.03-.12.07-.24.1-.36.04-.16.09-.33.13-.49.03-.09.05-.18.08-.27.32-1.14.67-2.25,1.01-3.27.3-.89.59-1.72.87-2.44,0,0,0,0,0,0,.08-.2.15-.39.23-.58,0,0,0,0,0,0,.07-.18.15-.36.22-.52h0c.07-.17.14-.33.21-.47,0,0,0,0,0-.01.07-.14.13-.28.19-.4,0,0,0,0,0,0,.06-.12.12-.23.18-.33,0,0,0,0,0,0,.06-.1.11-.19.17-.26,0,0,0,0,0,0,.05-.08.1-.14.15-.19t0,0s0,0,0,0c.04-.04.08-.08.12-.11.04-.02.07-.04.11-.04.03,0,.07.02.11.04.04.03.08.06.12.11,0,0,0,0,0,0,1.49,1.57,6.04,16.34,4.98,19.86-.03.11-.07.21-.11.29h0s5.87-3.46,5.87-3.46l1.54-.91,1.82-1.07h0l1.88-1.11s0,0,0,0c0,0,0,0,0,.01.16.33.23.73.22,1.15,0,.32-.05.66-.13,1-.02.08-.03.16-.05.24-.02.08-.04.16-.07.24-.3,1.06-.81,2.1-1.2,2.75-.01.02-.02.04-.03.06-.01.02-.02.04-.03.05-.05.08-.09.14-.13.2-.03.04-.05.08-.08.11l-.02.05-2.44,5.22-1.22,2.6-.06.14s-.08.05-.08.05c2.96.87,8.01,2.11,8.01,2.11,0,0,0,0,0,0,0,0,0,0,0,.02,0,0,0,0,0,0,0,.08,0,.32-.11.64ZM240.16,58.83h-89.51c.18-.55.23-.94.23-.94l-1.62-.39-7.66-2,2.78-6.47c.18-.5,1.01-2.22,1.63-4.22h94.14v14.03Z"/>
        <path d="M23.35,51h.91v-.03c0-.43.09-.77.27-.99.18-.23.44-.34.77-.34h.27v3.77c0,.25-.03.4-.1.45-.07.05-.2.07-.41.07h-.48v.87h4.03v-.87h-.51c-.22,0-.36-.03-.42-.09s-.09-.2-.09-.44v-3.77h.27c.34,0,.6.11.78.34.18.23.27.56.27.99v.03h.9v-2.32h-6.45v2.32Z"/>
        <path d="M35.85,48.5c-1.11,0-1.98.29-2.61.87-.63.58-.95,1.37-.95,2.39s.31,1.8.94,2.38,1.5.87,2.6.87,1.99-.29,2.62-.86c.63-.57.95-1.37.95-2.38s-.31-1.81-.94-2.39c-.63-.58-1.5-.87-2.6-.87ZM36.74,53.52c-.19.36-.49.54-.91.54s-.71-.18-.9-.55-.28-.96-.28-1.78.09-1.39.28-1.76.49-.55.9-.55.71.18.9.55c.19.37.28.96.28,1.78s-.09,1.4-.28,1.76Z"/>
        <path d="M41.88,51h.91v-.03c0-.43.09-.77.27-.99.18-.23.44-.34.77-.34h.27v3.77c0,.25-.03.4-.1.45-.07.05-.2.07-.41.07h-.48v.87h4.03v-.87h-.51c-.22,0-.36-.03-.42-.09s-.09-.2-.09-.44v-3.77h.27c.34,0,.6.11.78.34.18.23.27.56.27.99v.03h.9v-2.32h-6.45v2.32Z"/>
        <path d="M56.16,53.84c-.08-.06-.17-.25-.27-.55l-1.44-4.61h-2.22l-1.61,4.63c-.08.22-.17.38-.27.48s-.24.15-.39.15h-.23v.87h2.74v-.87h-.3c-.14,0-.24-.01-.32-.04s-.11-.07-.11-.12c0-.04,0-.09.02-.14.01-.05.03-.12.07-.21l.19-.58h1.65l.22.66s.02.08.03.13c0,.04.01.09.01.14,0,.07-.03.12-.08.15-.05.02-.19.04-.43.04h-.28v.87h3.72v-.87h-.32c-.18,0-.31-.03-.39-.1ZM52.3,51.96l.52-1.86.56,1.86h-1.08Z"/>
        <path d="M63.33,53.14c-.06.21-.15.38-.26.51-.09.1-.22.17-.37.21-.16.04-.42.06-.81.06h-.41v-3.9c0-.22.03-.36.09-.41.06-.05.19-.07.4-.07h.35v-.87h-3.69v.87h.31c.22,0,.36.03.42.08.06.06.09.2.09.44v3.35c0,.24-.03.39-.09.44-.06.06-.2.08-.41.08h-.31v.87h5.77v-2.56h-.95c-.02.38-.06.67-.12.89Z"/>
        <path d="M75.92,49.55h.1c.18,0,.31.03.36.09.06.06.09.2.09.44v1.11h-1.7v-1.11c0-.23.03-.38.08-.44.06-.06.18-.09.36-.09h.1v-.87h-3.4v.87h.31c.22,0,.36.03.42.08.06.05.09.2.09.44v3.35c0,.25-.03.4-.1.45-.07.05-.2.07-.41.07h-.31v.87h3.4v-.87h-.1c-.18,0-.3-.03-.36-.09-.06-.06-.09-.21-.09-.44v-1.37h1.7v1.37c0,.23-.03.38-.09.44-.06.06-.18.09-.36.09h-.1v.87h3.4v-.87h-.31c-.21,0-.35-.03-.41-.08-.06-.06-.09-.2-.09-.44v-3.35c0-.24.03-.38.09-.44.06-.05.2-.08.41-.08h.31v-.87h-3.4v.87Z"/>
        <path d="M86.98,53.07c-.06.21-.13.39-.23.53-.09.12-.21.21-.37.26s-.45.08-.87.08h-1.08v-1.91h.25c.28,0,.47.06.57.19.1.13.16.41.17.83h.77v-2.8h-.77v.05c0,.34-.06.58-.17.71-.11.13-.31.2-.58.2h-.24v-1.68h.97c.37,0,.64.02.81.07.17.05.31.13.42.25.1.1.19.23.26.4.07.17.14.4.2.7h.97v-2.28h-6.43v.87h.3c.22,0,.36.03.42.08.06.06.09.2.09.44v3.39c0,.23-.03.36-.1.41-.06.05-.2.07-.4.07h-.31v.87h6.47v-2.53h-1.01c-.02.32-.05.58-.11.79Z"/>
        <path d="M95.23,52.33l-1.04-3.65h-3.44v.87h.28c.22,0,.35.03.41.08.06.06.09.2.09.44v3.35c0,.24-.03.39-.09.44-.06.06-.2.08-.41.08h-.28v.87h2.75v-.87h-.23c-.21,0-.35-.03-.41-.08-.06-.06-.09-.2-.09-.44v-3.72l1.49,5.12h1.44l1.57-5.13v3.73c0,.25-.03.4-.1.45-.07.05-.2.07-.41.07h-.23v.87h3.36v-.87h-.3c-.21,0-.34-.03-.41-.08-.06-.05-.09-.2-.09-.45v-3.35c0-.24.03-.39.09-.44.06-.05.2-.08.41-.08h.3v-.87h-3.55l-1.12,3.65Z"/>
        <path d="M108.12,49.09c-.4-.28-1.03-.41-1.89-.41h-4.02v.87h.31c.22,0,.36.03.42.08.06.06.09.2.09.44v3.35c0,.24-.03.39-.09.44-.06.06-.2.08-.41.08h-.31v.87h3.69v-.87h-.35c-.21,0-.35-.03-.41-.08-.06-.06-.09-.2-.09-.44v-1.32h1.18c.86,0,1.49-.14,1.89-.41.4-.27.6-.71.6-1.3s-.2-1.02-.6-1.29ZM106.36,51.13c-.18.14-.47.21-.9.21h-.4v-1.75h.44c.42,0,.71.06.87.19.17.13.25.35.25.66,0,.33-.09.56-.26.7Z"/>
        <path d="M149.34,54.99c.9,0,1.6-.22,2.1-.66.5-.44.75-1.07.78-1.89h-.99c-.03.5-.18.9-.45,1.2-.26.3-.6.44-1.02.44-.46,0-.78-.18-.99-.55-.2-.37-.3-.97-.3-1.8s.1-1.39.29-1.76.51-.55.94-.55c.37,0,.67.13.89.4.22.27.38.69.49,1.28h1.1v-2.52h-1l-.16.34c-.26-.15-.53-.25-.82-.32s-.6-.1-.93-.1c-.99,0-1.78.3-2.37.89-.59.59-.88,1.38-.88,2.36,0,1.04.28,1.84.85,2.4.57.56,1.38.84,2.44.84Z"/>
        <path d="M157.09,54.99c1.12,0,1.99-.29,2.62-.86.63-.57.95-1.37.95-2.38s-.31-1.81-.94-2.39c-.63-.58-1.5-.87-2.6-.87s-1.98.29-2.61.87c-.63.58-.95,1.37-.95,2.39s.31,1.8.94,2.38,1.5.87,2.6.87ZM156.2,49.98c.19-.36.49-.55.9-.55s.71.18.9.55c.19.37.28.96.28,1.78s-.09,1.4-.28,1.76c-.19.36-.49.54-.91.54s-.71-.18-.9-.55-.28-.96-.28-1.78.09-1.39.28-1.76Z"/>
        <path d="M164.53,53.94h-.27c-.21,0-.35-.03-.41-.08-.06-.06-.09-.2-.09-.44v-3l2.38,4.39h2.1v-4.74c0-.24.03-.38.09-.44.06-.05.2-.08.41-.08h.22v-.87h-2.7v.87h.35c.21,0,.34.03.41.08.06.05.1.2.1.45v2.74l-2.26-4.13h-3.03v.87h.3c.22,0,.36.03.42.09.06.06.09.2.09.44v3.35c0,.23-.03.38-.09.44s-.2.09-.42.09h-.3v.87h2.7v-.87Z"/>
        <path d="M170.9,51.93c.1.08.27.17.51.26.24.09.57.2,1,.33.13.04.32.09.55.16.72.2,1.08.45,1.08.74,0,.19-.08.34-.25.46-.17.12-.39.18-.67.18-.46,0-.86-.13-1.19-.4s-.58-.64-.72-1.11h-.88v2.28h.84l.23-.34c.33.17.66.29,1,.37.34.08.69.12,1.05.12.79,0,1.42-.18,1.89-.55.47-.37.7-.86.7-1.48,0-.56-.19-1-.57-1.32s-1.04-.59-1.99-.81c-.09-.02-.22-.05-.39-.08-.68-.14-1.02-.35-1.02-.62,0-.18.09-.33.27-.46s.4-.19.68-.19c.47,0,.84.11,1.12.32.28.21.47.54.57.97h1.03v-2.13h-.88l-.17.31c-.31-.15-.63-.27-.96-.34-.33-.07-.69-.11-1.07-.11-.75,0-1.35.19-1.81.57-.46.38-.68.87-.68,1.49,0,.29.06.54.18.77.12.22.3.43.55.61Z"/>
        <path d="M177.8,49.63c.06.06.09.2.09.44v3.01c0,.61.23,1.09.68,1.42.46.34,1.1.5,1.93.5.91,0,1.61-.17,2.08-.51.47-.34.71-.84.71-1.49v-2.96c0-.22.03-.36.09-.41.06-.05.2-.08.41-.08h.28v-.87h-2.84v.87h.31c.21,0,.35.03.41.08.06.05.09.2.09.44v2.78c0,.43-.09.74-.27.92-.18.19-.48.28-.9.28-.35,0-.6-.1-.75-.29s-.22-.52-.22-1v-2.7c0-.23.03-.38.09-.44.06-.06.2-.09.42-.09h.34v-.87h-3.69v.87h.31c.22,0,.36.03.42.09Z"/>
        <path d="M187.79,53.94h-.23c-.21,0-.35-.03-.41-.08-.06-.06-.09-.2-.09-.44v-3.72l1.49,5.12h1.44l1.57-5.13v3.73c0,.25-.03.4-.1.45-.07.05-.2.07-.41.07h-.23v.87h3.36v-.87h-.3c-.21,0-.34-.03-.41-.08-.06-.05-.09-.2-.09-.45v-3.35c0-.24.03-.39.09-.44.06-.05.2-.08.41-.08h.3v-.87h-3.55l-1.12,3.65-1.04-3.65h-3.44v.87h.28c.22,0,.35.03.41.08.06.06.09.2.09.44v3.35c0,.24-.03.39-.09.44-.06.06-.2.08-.41.08h-.28v.87h2.75v-.87Z"/>
        <path d="M197.53,53.94h-.3c-.14,0-.24-.01-.32-.04s-.11-.07-.11-.12c0-.04,0-.09.02-.14.01-.05.03-.12.07-.21l.19-.58h1.65l.22.66s.02.08.03.13c0,.04.01.09.01.14,0,.07-.03.12-.08.15-.05.02-.19.04-.43.04h-.28v.87h3.72v-.87h-.32c-.18,0-.31-.03-.39-.1s-.17-.25-.27-.55l-1.44-4.61h-2.22l-1.61,4.63c-.08.22-.17.38-.27.48s-.24.15-.39.15h-.23v.87h2.74v-.87ZM197.88,50.1l.56,1.86h-1.08l.52-1.86Z"/>
        <path d="M208.1,54.42c.42-.26.63-.69.63-1.29,0-.41-.13-.75-.39-1-.26-.26-.66-.44-1.19-.56.41-.13.72-.32.94-.57s.33-.54.33-.88c0-.5-.19-.86-.56-1.09s-.96-.35-1.76-.35h-3.69v.87h.3c.22,0,.36.03.42.08.06.06.09.2.09.44v3.39c0,.23-.03.36-.1.41-.06.05-.2.07-.4.07h-.31v.87h3.59c.99,0,1.69-.13,2.1-.39ZM205.23,49.56h.37c.32,0,.56.06.69.19.14.12.21.33.21.61s-.07.5-.22.64c-.15.14-.39.2-.71.2h-.33v-1.64ZM205.23,53.95v-1.95h.38c.36,0,.62.08.79.23.17.15.25.39.25.72,0,.35-.08.61-.24.76-.16.15-.43.23-.8.23h-.39Z"/>
        <path d="M215.74,52.25h-.95c-.02.38-.06.67-.12.89-.06.21-.15.38-.26.51-.09.1-.22.17-.37.21-.16.04-.42.06-.81.06h-.41v-3.9c0-.22.03-.36.09-.41.06-.05.19-.07.4-.07h.35v-.87h-3.69v.87h.31c.22,0,.36.03.42.08.06.06.09.2.09.44v3.35c0,.24-.03.39-.09.44-.06.06-.2.08-.41.08h-.31v.87h5.77v-2.56Z"/>
        <path d="M223.47,52.28h-1.01c-.02.32-.05.58-.11.79-.06.21-.13.39-.23.53-.09.12-.21.21-.37.26s-.45.08-.87.08h-1.08v-1.91h.25c.28,0,.47.06.57.19.1.13.16.41.17.83h.77v-2.8h-.77v.05c0,.34-.06.58-.17.71-.11.13-.31.2-.58.2h-.24v-1.68h.97c.37,0,.64.02.81.07.17.05.31.13.42.25.1.1.19.23.26.4.07.17.14.4.2.7h.97v-2.28h-6.43v.87h.3c.22,0,.36.03.42.08.06.06.09.2.09.44v3.39c0,.23-.03.36-.1.41-.06.05-.2.07-.4.07h-.31v.87h6.47v-2.53Z"/>
        <path d="M225.75,51.93c.1.08.27.17.51.26.24.09.57.2,1,.33.13.04.32.09.55.16.72.2,1.08.45,1.08.74,0,.19-.08.34-.25.46-.17.12-.39.18-.67.18-.46,0-.86-.13-1.19-.4s-.58-.64-.72-1.11h-.88v2.28h.84l.23-.34c.33.17.66.29,1,.37.34.08.69.12,1.05.12.79,0,1.42-.18,1.89-.55.47-.37.7-.86.7-1.48,0-.56-.19-1-.57-1.32s-1.04-.59-1.99-.81c-.09-.02-.22-.05-.39-.08-.68-.14-1.02-.35-1.02-.62,0-.18.09-.33.27-.46s.4-.19.68-.19c.47,0,.84.11,1.12.32.28.21.47.54.57.97h1.03v-2.13h-.88l-.17.31c-.31-.15-.63-.27-.96-.34-.33-.07-.69-.11-1.07-.11-.75,0-1.35.19-1.81.57-.46.38-.68.87-.68,1.49,0,.29.06.54.18.77.12.22.3.43.55.61Z"/>
        <polygon points="232.83 50.95 233.47 50.95 233.47 49.03 234 49.03 234 48.49 232.31 48.49 232.31 49.03 232.83 49.03 232.83 50.95"/>
        <polygon points="235.02 49.53 235.57 50.95 235.82 50.95 236.4 49.53 236.62 50.95 237.25 50.95 236.83 48.49 236.2 48.49 235.71 49.8 235.22 48.49 234.59 48.49 234.17 50.95 234.81 50.95 235.02 49.53"/>
        <path class="cls-2" d="M121.45,65.87s-.03-.06-.03-.1c0,.02,0,.05.02.07,0,0,0,.01,0,.02,0,0,0,.01,0,.02Z"/>
        <path class="cls-2" d="M121.44,65.83s0,0,0,0c0,0,0,0,0,0,0,0,0-.01,0-.02Z"/>
        <path class="cls-2" d="M121.45,65.87s0,0,0-.02c0,0,0,.01,0,.02h0s0,0,0,0Z"/>
        <path class="cls-2" d="M121.44,65.84s0,.02,0,.02c0,0,0-.01,0-.02,0,0,0,0,0,0Z"/>
        <path class="cls-2" d="M135.4,65.9s.06-.01.09-.04c0,0,0,0,0,0,0,0,0,0,0,0-.03.03-.06.04-.1.04,0,0,0,0,0,0Z"/>
        <polygon class="cls-3" points="121.45 65.86 121.45 65.86 121.45 65.86 121.45 65.86"/>
        <polygon class="cls-3" points="121.45 65.85 121.45 65.85 121.45 65.86 121.48 65.83 121.48 65.83 121.45 65.85 121.45 65.85"/>
        <polygon class="cls-3" points="121.49 65.82 121.48 65.83 121.48 65.83 121.49 65.82"/>
        <path class="cls-3" d="M135.49,65.86s0,0,0,0h0s-.02-.02-.03-.03c0,0,.03.03.03.03,0,0,0,0,0,0Z"/>
        <path class="cls-6" d="M132.71,56.31c.03-.16.06-.29.07-.4,0,.01,0,.02,0,.04-.01.09-.03.22-.06.36Z"/>
        <path class="cls-6" d="M128,63.44s0,.01,0,.02c-.05.5-.36,1.03-.56,1.33.21-.3.51-.83.56-1.33,0,0,0-.01,0-.02,0,0,0,0,0,0,0-.05.01-.1.01-.15,0,.05,0,.1-.01.15,0,0,0,0,0,0Z"/>
        <path class="cls-6" d="M121.45,65.86h0s0,0,0,0c0,0,0,0,0,0,0,0,.04.01.08.02-.03,0-.05,0-.07-.03h0Z"/>
        <path class="cls-6" d="M121.42,65.77s0,.05.02.08c0,0,0,0,0,0-.01-.02-.02-.04-.02-.07Z"/>
      </g>
    </g>
  </g>
</svg>