<?xml version="1.0" encoding="UTF-8"?>
<svg id="Layer_2" data-name="Layer 2" xmlns="http://www.w3.org/2000/svg" xmlns:xlink="http://www.w3.org/1999/xlink" viewBox="0 0 76.44 76.83">
  <defs>
    <style>
      .cls-1 {
        fill: none;
      }

      .cls-2 {
        fill: #f4bf3d;
      }

      .cls-3 {
        fill: #12a578;
      }

      .cls-4 {
        fill: #fff;
      }

      .cls-5 {
        clip-path: url(#clippath);
      }

      .cls-6 {
        fill: #19572b;
      }
    </style>
    <clipPath id="clippath">
      <rect class="cls-1" width="76.44" height="76.83"/>
    </clipPath>
  </defs>
  <g class="cls-5">
    <g>
      <path class="cls-2" d="M45.32,56.76s0,0,0,0c0,0,0,0,0,0-.03.03-.06.04-.1.04,0,0,0,0,0,0,.03,0,.06-.01.09-.04Z"/>
      <path class="cls-4" d="M45.18,56.73s0,0,0,0c.03,0,.06-.01.09-.04,0,0,0,0,0,0,0,0,0,0,0,0-.03.03-.06.04-.1.04Z"/>
      <polygon class="cls-4" points="37.1 50.58 37.1 50.58 37.11 50.58 37.1 50.58"/>
      <polygon class="cls-4" points="24.39 36.15 24.4 36.15 24.39 36.14 24.39 36.15"/>
      <path class="cls-4" d="M21.76,50.56c4.73.76,7.07,2.06,8.14,2.22.07.01.15.01.23.01.46,0,1.08-.13,1.08-.13l1.82-.35h0l.04-.03c.14-.1.64-.45,1.13-.79.42-.29.83-.58.99-.69.13-.08.19-.18.2-.28.02-.16-.11-.31-.32-.31-.04,0-.32,0-.75,0-.19,0-.42,0-.67,0-3.49,0-12.16-.02-12.16-.02,0,.1.06.28.28.36Z"/>
      <path class="cls-4" d="M22.78,52.09c.18.03,5.34,1.42,5.79,1.52,1.12.27,1.93.73,1.46,2.04-.08.29-.58,1.03-.32,3.16l1.42-.47.57-.19c1.06-.35,3.19-1.06,3.64-1.19.75-.23,1.34-.71,1.75-1.14.15-.15.21-.44.23-.71.02-.28,0-.53,0-.53,0-.15,0-.3,0-.44,0-.13,0-.26-.01-.39l-.64.98c-.24.34-.87,1.13-1.79,1.42-.34.1-.72.23-1.24.4-.5.16-1.13.37-1.99.64-.07.02-.16.04-.24.04-.18,0-.32-.06-.37-.09-.06-.03-.11-.07-.15-.12-.15-.18-.19-.41-.09-.68.21-.63.29-1.14.38-1.63.06-.34.11-.66.2-.99.07-.24.14-.44.21-.61l-.25.05s-.56.12-1.05.14c-.05,0-.09,0-.13,0-.12,0-.22,0-.31-.02-.31-.05-.69-.17-1.17-.34-.13-.05-.27-.1-.42-.15-1.36-.49-3.41-1.23-6.55-1.73-.03,0-.06-.01-.09-.02-.35-.13-.59-.43-.62-.8-.03-.35.2-.77.66-.86,3.39-.68,5.01-1.11,7.85-2.11.09-.03.18-.05.28-.07l-.34-.21s-.02-.01-.03-.02c-.02-.01-.05-.04-.1-.07,0,0,0,0-.01-.01-.16-.12-.45-.34-.72-.59-.09-.08-.17-.16-.25-.24-.02-.02-.03-.03-.05-.05-.08-.08-.16-.17-.21-.25-1.29-1.77-1.88-3.39-2.45-4.96-.46-1.27-.94-2.59-1.8-3.99-.05-.07-.08-.15-.11-.23-.02-.06-.02-.12-.03-.17,0-.02,0-.03,0-.05,0-.15.05-.29.14-.42,0,0,0,0,0,0,.02-.02.02-.05.04-.07.14-.16.33-.24.54-.24.16,0,.32.05.45.14,2.45,1.71,3.86,2.45,5.22,3.16.53.28,1.05.55,1.61.87.4.23.83.48,1.3.78.05.03.1.07.16.11.02.02.05.04.07.06.03.03.06.05.1.08.04.03.08.06.11.1.02.02.04.03.05.05.05.04.1.09.15.13.15.14.3.29.41.41.11.12.2.2.22.23.01.02.03.03.04.05l-.16-.69-.3-1.27c-.18-.76-.2-1.53-.05-2.31.54-2.85,1.57-6.88,2.39-10.11.55-2.14,1.02-4,1.09-4.51.06-.42.39-.73.8-.73h0c.08,0,.15.02.22.04.04.01.08.03.12.05h0s0,0,0,0c.09.04.17.11.24.19.03.03.06.06.08.1.02.03.04.06.05.09.04.08.07.16.09.25.08.41.47,1.84.98,3.64,1,3.56,2.36,8.44,2.85,11.17.11.63.11,1.6,0,2.22l-.27,1.55c.29-.29.72-.7,1-.88,1.12-.71,1.99-1.17,2.9-1.65,1.36-.72,2.77-1.46,5.22-3.16.13-.09.71-.26,1.07.09.35.35.07.9.04.95-.86,1.39-1.33,2.71-1.79,3.98-.57,1.57-1.15,3.19-2.45,4.96-.13.17-.32.37-.52.54-.37.33-.77.62-.83.67l-.45.28c.1.02.19.05.29.08,3,1.05,4.78,1.43,7.92,2.06.46.09.68.51.66.86-.03.37-.27.68-.62.8-.03.01-.06.02-.09.02-3.14.5-5.2,1.24-6.55,1.73-.69.25-1.19.43-1.59.49-.09.01-.19.02-.31.02-.51,0-1.16-.14-1.19-.14l-.14-.03c.07.17.14.36.2.59.09.33.14.65.2.99.08.49.17.99.37,1.61.1.29.07.52-.1.71,0,0,0,0,0,0-.12.13-.29.21-.47.21-.12,0-.21-.03-.27-.05-.87-.28-1.5-.48-1.99-.64-.53-.17-.9-.29-1.24-.4-.92-.28-1.55-1.07-1.78-1.4l-.89-1.38c0,.11,0,.22,0,.33,0,.09,0,.68,0,1.19,0,.38.03.55.24.8.41.46,1.03,1.02,1.87,1.27.45.14,2.58.84,3.64,1.19l1.6.53s0,0,0,0l.39.13c.12-.97.07-1.65-.01-2.13,0-.05-.02-.11-.03-.16-.1-.47-.24-.73-.28-.87-.15-.41-.16-.73-.09-.99.05-.18.13-.33.26-.46.29-.29.75-.47,1.29-.6.44-.11,5.61-1.5,5.79-1.52,3.39-.74,3.47-2.77,3.47-3.03,0,0,0,0,0,0,0-.01,0-.02,0-.02,0,0,0,0,0,0,0,0-5.06-1.25-8.02-2.12,0,0,.03-.02.08-.05l.06-.14,1.22-2.61,2.44-5.23.02-.05s.05-.07.08-.11c.04-.06.09-.13.13-.2.01-.02.02-.03.03-.05.01-.02.02-.04.03-.06.58-.96,1.44-2.78,1.46-4.25,0-.43-.06-.82-.22-1.16,0,0,0,0,0-.01,0,0,0,0,0,0l-1.88,1.11s0,0,0,0l-9.24,5.44h0c.04-.08.08-.18.11-.29,1.06-3.53-3.5-18.32-4.99-19.89,0,0,0,0,0,0-.04-.04-.08-.08-.12-.11-.04-.02-.07-.04-.11-.04-.03,0-.07.02-.11.04-.04.03-.08.06-.12.11,0,0,0,0,0,0,0,0,0,0,0,0-.05.05-.1.11-.15.19,0,0,0,0,0,0-.05.08-.11.16-.17.26,0,0,0,0,0,0-.06.1-.12.21-.18.33,0,0,0,0,0,0-.06.12-.13.26-.19.4,0,0,0,0,0,.01-.07.14-.14.3-.21.46,0,0,0,0,0,0-.07.17-.14.34-.22.52,0,0,0,0,0,0-.08.18-.15.38-.23.58,0,0,0,0,0,0-.28.73-.57,1.55-.87,2.45-.34,1.03-.68,2.14-1.01,3.28-.03.09-.05.18-.08.27-.05.16-.09.33-.13.49-.03.12-.07.24-.1.37,0,0,0,0,0,.01-.04.15-.08.29-.12.44-.04.14-.08.29-.11.43-.03.14-.07.27-.1.41-.04.15-.08.31-.11.46-.03.13-.06.26-.09.39-.04.16-.07.32-.11.47-.03.12-.06.25-.08.37-.04.16-.07.32-.1.48-.03.12-.05.24-.08.36-.03.16-.06.31-.1.47-.02.12-.05.23-.07.35-.03.15-.06.31-.08.46-.02.11-.04.22-.06.33-.03.15-.05.3-.07.44-.02.11-.03.21-.05.32-.02.14-.04.28-.06.42-.01.1-.03.21-.04.31-.02.13-.03.27-.04.4,0,.04,0,.09-.01.13,0,.05-.01.1-.02.15-.01.13-.02.25-.03.37,0,.09-.01.18-.02.27,0,.12,0,.23-.01.34,0,.08,0,.16,0,.24,0,.11,0,.21,0,.31,0,.07,0,.15,0,.21,0,.1.02.19.03.29,0,.06.01.12.02.18.01.1.04.18.06.27,0,.04.02.09.03.13.03.12.07.23.12.32l-1.24-.73-9.89-5.82c-.17.34-.24.74-.23,1.17.02,1.73,1.35,3.85,1.73,4.68l1.89,4.04,1.31,2.8.17.36.31.66.1.22.06.12c-2.97.87-7.62,1.89-7.99,1.97-.01,0-.04,0-.04,0,0,0-.15,2.27,3.47,3.05Z"/>
      <path class="cls-4" d="M41.3,49.04s-1.21.99-1.26,1.03c-.1.08-.03.14.04.14.02,0,13.84-.02,14.76-.02h.02c.05,0,.08,0,.08,0,0,0,0,0,0,0,0-.11-.06-.28-.25-.32-3.31-.66-5.01-1.04-7.97-2.07-.35-.11-.65-.14-.92-.14-.48,0-2.34.36-2.34.36-.75.13-1.44.45-2.04.91-.04.03-.09.06-.13.1Z"/>
      <path class="cls-4" d="M24.22,36.22s0,0,0,.01c-.08.1-.05.21.02.32,1.96,3.17,1.93,5.78,4.22,8.91.11.15.29.33.48.49.36.32.75.6.75.6l2.04,1.25c.25.06.9.18,1.51.29.72.13,1.39.42,1.98.85.05.04.1.08.16.12.03.03.07.05.1.07.02.02,1.28,1.08,1.28,1.08,0,0,.54-.57-.17-1.28-.15-.16-2.96-3.04-5.86-6.03-2.96-3.04-6.01-6.18-6.45-6.63-.04-.04-.06-.06-.06-.06Z"/>
      <path class="cls-4" d="M38.7,51.92s.01,0,.01-.01c.08-.09.16-.17.27-.23.03-.01.05-.03.08-.04.08-.04.17-.06.27-.07.03,0,.05-.01.08-.01.11,0,.23,0,.35.03.04,0,.07.03.11.04.07.02.13.05.19.09.07.04.14.09.2.15.01,0,.02.01.03.03.07.07.22.22.42.41,1.24,1.2,4.55,4.38,4.55,4.38h0s0,0,0,0c.05-.06.02-.13,0-.21-.36-1.08-.37-1.86-.58-2.62-.32-1.15-.72-1.21-1.18-1.54l-.32-.22c-.25-.14-.67-.36-1.09-.59-.39-.22-.79-.43-1.05-.58-.2-.11-.43-.17-.66-.17,0,0,0,0,0,0h-.48s-.03,0-.05,0c0,0-.02,0-.02,0-.19,0-.65-.03-.79-.48,0-.02-.02-.05-.02-.07,0-.02,0-.05,0-.07,0-.04-.01-.08-.01-.12.01-.15.08-.33.28-.52l.16-.16.37-.38,10.22-10.49,2.18-2.24s0,0,0,0c-.04-.05-.21-.14-.4-.02-4.11,2.86-5.35,3.05-8.15,4.82-.38.24-1.18,1.09-1.18,1.09l-.96,1.43v.02s-.01,0-.01,0v.06s-.01,0-.01,0l-.95,1.37-1.53,2.2-.46-.54c-.33-.38-.5-.86-.5-1.36v-22.6s0,0-.01,0c-.15,0-.26.13-.28.29-.17,1.32-2.57,9.8-3.48,14.65-.13.7-.12,1.41.04,2.1l.33,1.38.75,3.18v.02s1.86,2.67,1.86,2.67l.48.67v.02s.31.45.31.45l.07.1s.05.08.08.12c0,0,.01.02.02.03.02.02.03.05.05.08.04.07.08.14.11.21.05.1.08.2.1.3.03.12.03.23.02.34,0,.02,0,.03,0,.05-.02.11-.05.22-.1.32-.04.08-.09.15-.15.22l-.12.13-.03.03-.3.33-.1.11-.18.18-.86.83-5.38,5.19h0s0,0,0,0c0,0,0,0,0,0,0,0,0,0,0,0,0,0,.05.03.12.03.03,0,.06,0,.09-.01,1.8-.57,2.57-.84,3.24-1.04.15-.05.3-.11.44-.19.43-.24.81-.63,1.08-1.01l1.48-2.29.02-.02c.03.47.06,1,.07,1.44,0,.18.01.36.02.54,0,0,0,0,0,0,0,.23,0,.46.01.69,0,.18,0,1.31,0,2.17,0,0,0,0,0,0,0,.31,0,.59-.02.78,0,.07-.12,5.32-.21,6.1,0,.03,0,.51,0,.68.13,1.44,1.01,1.48,1.18.32.04-.26.04-.58-.01-.96-.12-.63-.24-6.22-.23-6.22-.02-.65-.05-2.24-.06-2.7,0-.17,0-.31,0-.37h0c0-.43,0-.86,0-.94,0-.69.03-.53.03-1.23,0-.2.07-.37.17-.51,0,0,0,0,0-.01h0s0,0,0,0c0,0,.01-.01.02-.02Z"/>
      <path d="M20.42,53.79c4.12.6,8.53,1.69,8.53,1.69.79.15-.38,1.72-.15,3.63l.24,2.76s1.99-.62,3.9-1.21c1.66-.51,3.26-1.01,3.45-1.07.53-.16,1.43-1.02,1.43-1.84,0-.19.01-.46.02-.75.01-.86,0-1.99,0-2.17,0-.16,0-.33,0-.49,0,0,0,.01,0,.02-.05.5-.36,1.03-.57,1.33.21-.3.51-.83.57-1.33,0,0,0-.01,0-.02,0-.07,0-.14,0-.2,0,0,0,0,0,0,0-.18-.01-.36-.02-.54-.02-.44-.04-.98-.07-1.44l-.02.02-1.48,2.29c-.27.39-.65.77-1.08,1.01-.14.08-.29.15-.44.19-.67.2-1.44.47-3.24,1.04-.03.01-.06.01-.09.01-.07,0-.12-.03-.12-.03,0,0,0,0,0,0,0,0,0,0,0,0,0,0,0,0,0,0h0s5.38-5.19,5.38-5.19l.86-.83.18-.18.1-.11.3-.33.03-.03.12-.13c.06-.07.11-.15.15-.22.06-.11.09-.21.1-.32,0-.02,0-.03,0-.05.01-.11,0-.22-.02-.34-.02-.1-.06-.2-.1-.3-.03-.07-.07-.14-.11-.21-.01-.02-.03-.05-.05-.08,0,0-.01-.02-.02-.03-.03-.04-.05-.08-.08-.12l-.07-.1-.31-.45v-.02s-.48-.67-.48-.67l-1.85-2.67v-.02s-.76-3.18-.76-3.18l-.33-1.38c-.16-.69-.18-1.4-.04-2.1.92-4.85,3.31-13.34,3.48-14.65.02-.16.13-.28.28-.29,0,0,0,0,.01,0v22.6c0,.5.18.98.5,1.36l.46.54,1.53-2.2.95-1.37h0s0-.07,0-.07h0s.01-.02.01-.02l.96-1.43s.8-.85,1.18-1.09c2.79-1.77,4.04-1.97,8.15-4.82.19-.12.36-.03.4.02,0,0,0,0,0,0l-2.18,2.24-10.22,10.49-.37.38-.16.16c-.2.19-.27.37-.28.52,0,.04,0,.08.01.12,0,.03,0,.05,0,.07,0,.03.02.05.02.07.14.44.6.47.79.48,0,0,.02,0,.02,0,.02,0,.03,0,.05,0h.48s0,0,0,0c.23,0,.46.06.66.17.26.14.66.36,1.05.58.42.23.83.46,1.09.59l.32.22c.46.33.87.39,1.18,1.54.21.76.22,1.54.58,2.62.03.08.06.15,0,.21,0,0,0,0,0,0,0,0,0,0,0,0-.03.03-.06.04-.09.04,0,0,0,0,0,0,.04,0,.07,0,.1-.04,0,0,0,0,0,0h0s-3.31-3.18-4.55-4.38c-.2-.2-.36-.35-.42-.41-.01-.01-.02-.02-.03-.03-.06-.06-.13-.11-.2-.15-.06-.04-.13-.06-.19-.09-.04-.01-.07-.03-.11-.04-.12-.03-.23-.04-.35-.03-.03,0-.05.01-.08.01-.09.01-.18.04-.27.07-.03.01-.05.02-.08.04-.1.06-.19.13-.27.23,0,0-.01,0-.01.01,0,0-.01.01-.02.02,0,0,0,0,0,0h0s0,0,0,.01c-.1.14-.17.31-.17.51,0,.7-.02.53-.03,1.23,0,.08,0,.5,0,.94h0c0,.05,0,.19,0,.36,0,.46.02,1.23.03,1.88,0,.37.02.7.03.89,0,.84.95,1.64,1.51,1.81.19.06,1.79.55,3.45,1.07h0c1.91.59,3.9,1.21,3.9,1.21l.24-2.76c.23-1.91-.95-3.48-.15-3.63,0,0,4.41-1.09,8.53-1.69,4.12-.6,4.72-5.01,4.72-5.01l-1.62-.39-7.67-2,2.79-6.48c.29-.78,2.14-4.56,2.35-7.69.07-1.03-.02-1.98-.38-2.7,0,0-7.38,4.11-10.89,6.19,0-5.13-7.1-24.57-7.1-24.57,0,0-6.13,16.79-6.99,23.28-.07.49-.1.93-.1,1.29-3.51-2.08-10.89-6.19-10.89-6.19-.36.71-.45,1.66-.38,2.7.22,3.13,2.06,6.91,2.35,7.69l2.87,6.59-.3.07-7.45,1.83-1.62.39s.59,4.41,4.72,5.01ZM31.29,56.72h0s0,0,0,0l-.03.03s0,0,0,0c.02.02.05.03.07.03-.05,0-.08-.02-.08-.02,0,0,0,0,0,0-.03-.03-.03-.06-.03-.1,0,.04,0,.07.03.1h0s0,0,0,0h0s0,0,0,0c0,0,0,0,0,0h0s.03-.03.03-.03ZM35.19,50.81c-.16.11-.57.4-.99.69-.49.34-.99.69-1.13.79l-.04.03h0l-1.82.35s-.62.13-1.08.13c-.08,0-.16,0-.23-.01-1.07-.16-3.41-1.46-8.14-2.22-.22-.08-.27-.26-.28-.36,0,0,8.67.01,12.16.02.25,0,.48,0,.67,0,.43,0,.71,0,.75,0,.21,0,.34.15.32.31,0,.1-.07.2-.2.28ZM37.11,50.58s0,0,0,0h0s0,0,0,0ZM36.6,48.94c.71.71.17,1.28.17,1.28,0,0-1.26-1.07-1.28-1.08-.03-.03-.07-.05-.1-.07-.05-.04-.1-.08-.16-.12-.59-.42-1.26-.72-1.98-.85-.62-.11-1.27-.23-1.51-.29l-2.04-1.25s-.39-.28-.75-.6c-.19-.17-.37-.34-.48-.49-2.3-3.14-2.27-5.74-4.22-8.91-.07-.11-.09-.22-.02-.32,0,0,0,0,0-.01,0,0,.02.03.06.06.44.45,3.49,3.59,6.45,6.63,2.9,2.98,5.71,5.87,5.86,6.03ZM24.39,36.15s0,0,0,0c0,0,0,0,0,0,0,0,0,0-.01,0ZM40.09,50.22c-.08,0-.14-.06-.04-.14.05-.04,1.26-1.03,1.26-1.03.04-.04.09-.06.13-.1.59-.47,1.29-.79,2.04-.91,0,0,1.86-.36,2.34-.36.27,0,.58.04.92.14,2.95,1.03,4.66,1.4,7.97,2.07.2.04.26.22.25.32,0,0,0,0,0,0,0,0-.03,0-.08,0h-.02c-.93,0-14.74.02-14.76.02ZM45.32,56.76h0s0,0,0,0c0,0,0,0,0,0,0,0-.03-.03-.03-.03.01.01.03.03.03.03ZM45.32,56.76s0,0,0,0c0,0,0,0,0,0-.03.03-.06.04-.09.04,0,0,0,0,0,0,.04,0,.07,0,.1-.04ZM19.31,49.04s.02,0,.04,0c.37-.08,5.02-1.1,7.99-1.97l-.06-.12-.1-.22-.31-.66-.17-.36-1.31-2.8-1.89-4.04c-.38-.83-1.71-2.95-1.73-4.68,0-.43.06-.83.23-1.17l9.89,5.82,1.24.73c-.05-.09-.09-.2-.12-.32-.01-.04-.02-.08-.03-.13-.02-.09-.04-.17-.06-.27,0-.06-.01-.12-.02-.18-.01-.09-.02-.18-.03-.29,0-.07,0-.14,0-.21,0-.1,0-.2,0-.31,0-.08,0-.16,0-.24,0-.11,0-.22.01-.34,0-.09.01-.18.02-.27,0-.12.02-.24.03-.37,0-.05.01-.1.02-.15,0-.04,0-.09.01-.13.01-.13.03-.26.04-.4.01-.1.03-.2.04-.31.02-.14.04-.28.06-.42.02-.11.03-.21.05-.32.02-.15.05-.29.07-.44.02-.11.04-.22.06-.33.03-.15.06-.3.08-.46.02-.12.04-.23.07-.35.03-.15.06-.31.1-.47.02-.12.05-.24.08-.36.03-.16.07-.32.1-.48.03-.12.06-.25.08-.37.04-.16.07-.31.11-.47.03-.13.06-.26.09-.39.04-.15.08-.31.11-.46.03-.14.07-.27.1-.41.04-.14.07-.29.11-.43.04-.15.08-.29.12-.44,0,0,0,0,0-.01.03-.12.07-.24.1-.37.04-.16.09-.33.13-.49.03-.09.05-.18.08-.27.32-1.14.67-2.25,1.01-3.28.3-.89.59-1.72.87-2.45,0,0,0,0,0,0,.08-.2.15-.39.23-.58,0,0,0,0,0,0,.07-.18.15-.36.22-.52,0,0,0,0,0,0,.07-.16.14-.32.21-.46,0,0,0,0,0-.01.07-.14.13-.28.19-.4,0,0,0,0,0,0,.06-.12.12-.23.18-.33,0,0,0,0,0,0,.06-.1.11-.19.17-.26,0,0,0,0,0,0,.05-.08.1-.14.15-.19,0,0,0,0,0,0,0,0,0,0,0,0,.04-.04.08-.08.12-.11.04-.02.07-.04.11-.04.03,0,.07.02.11.04.04.03.08.06.12.11,0,0,0,0,0,0,1.49,1.57,6.05,16.36,4.99,19.89-.03.11-.07.21-.11.29h0s9.24-5.44,9.24-5.44c0,0,0,0,0,0l1.88-1.11s0,0,0,0c0,0,0,0,0,.01.16.33.23.73.22,1.16-.02,1.47-.88,3.29-1.46,4.25-.01.02-.02.04-.03.06-.01.02-.02.04-.03.05-.05.08-.09.14-.13.2-.03.04-.05.08-.08.11l-.02.05-2.44,5.23-1.22,2.61-.06.14s-.08.05-.08.05c2.97.87,8.02,2.12,8.02,2.12,0,0,0,0,0,0,0,0,0,0,0,.02,0,0,0,0,0,0,0,.25-.08,2.29-3.47,3.03-.18.03-5.34,1.42-5.79,1.52-.54.13-1,.31-1.29.6-.13.13-.21.28-.26.46-.07.26-.06.58.09.99.04.14.18.4.28.87,0,.05.02.1.03.16.09.48.13,1.16.01,2.13l-.39-.13s0,0,0,0l-1.6-.53c-1.06-.35-3.19-1.06-3.64-1.19-.83-.25-1.46-.81-1.87-1.27-.21-.25-.24-.42-.24-.8,0-.51,0-1.1,0-1.19,0-.11,0-.22,0-.33l.89,1.38c.23.33.86,1.12,1.78,1.4.34.1.72.23,1.24.4.49.16,1.12.37,1.99.64.06.02.16.05.27.05.18,0,.35-.07.47-.21,0,0,0,0,0,0,.16-.18.2-.41.1-.71-.2-.61-.29-1.12-.37-1.61-.06-.34-.11-.66-.2-.99-.06-.23-.13-.42-.2-.59l.14.03s.68.14,1.19.14c.12,0,.22,0,.31-.02.4-.06.9-.24,1.59-.49,1.36-.49,3.41-1.23,6.55-1.73.03,0,.06-.01.09-.02.35-.13.59-.43.62-.8.03-.35-.2-.76-.66-.86-3.14-.63-4.91-1.01-7.92-2.06-.1-.03-.19-.06-.29-.08l.45-.28c.06-.05.46-.33.83-.67.2-.18.39-.37.52-.54,1.29-1.77,1.88-3.39,2.45-4.96.46-1.27.94-2.59,1.79-3.98.03-.05.31-.6-.04-.95-.35-.35-.94-.18-1.07-.09-2.45,1.71-3.86,2.45-5.22,3.16-.91.48-1.78.94-2.9,1.65-.28.18-.71.59-1,.88l.27-1.55c.11-.62.11-1.59,0-2.22-.48-2.73-1.85-7.61-2.85-11.17-.51-1.8-.9-3.23-.98-3.64-.02-.09-.05-.17-.09-.25-.02-.03-.03-.06-.05-.09-.02-.04-.05-.07-.08-.1-.07-.08-.15-.14-.24-.19,0,0,0,0,0,0h0s-.08-.03-.12-.05c-.07-.02-.14-.04-.22-.04h0c-.4,0-.74.31-.8.73-.07.52-.54,2.37-1.09,4.51-.83,3.23-1.85,7.26-2.39,10.11-.15.78-.13,1.56.05,2.31l.3,1.27.16.69s-.03-.03-.04-.05c-.02-.03-.11-.11-.22-.23-.11-.12-.26-.26-.41-.41-.05-.05-.1-.09-.15-.13-.02-.02-.04-.03-.05-.05-.04-.03-.08-.07-.11-.1-.03-.03-.06-.05-.1-.08-.03-.02-.05-.04-.07-.06-.06-.04-.11-.08-.16-.11-.47-.3-.89-.55-1.3-.78-.56-.32-1.08-.59-1.61-.87-1.36-.72-2.77-1.46-5.22-3.16-.14-.09-.29-.14-.45-.14-.21,0-.4.09-.54.24-.02.02-.03.05-.04.07,0,0,0,0,0,0-.09.13-.14.27-.14.42,0,.02,0,.03,0,.05,0,.06,0,.12.03.17.02.08.06.16.11.23.86,1.4,1.34,2.72,1.8,3.99.57,1.57,1.15,3.19,2.45,4.96.06.08.13.16.21.25.02.02.03.03.05.05.08.08.16.16.25.24.28.25.57.47.72.59,0,0,0,0,.01.01.05.03.08.06.1.07,0,0,.02.01.03.02l.34.21c-.09.02-.18.05-.28.07-2.85.99-4.46,1.43-7.85,2.11-.46.09-.68.51-.66.86.03.37.27.68.62.8.03.01.06.02.09.02,3.14.5,5.2,1.24,6.55,1.73.15.05.28.1.42.15.48.17.86.29,1.17.34.09.01.19.02.31.02.04,0,.09,0,.13,0,.48-.02,1.03-.13,1.05-.14l.25-.05c-.08.17-.15.37-.21.61-.09.33-.14.65-.2.99-.08.49-.17.99-.38,1.63-.09.27-.06.49.09.68.04.05.09.09.15.12.05.03.18.09.37.09.09,0,.17-.01.24-.04.87-.28,1.5-.48,1.99-.64.53-.17.9-.29,1.24-.4.92-.28,1.55-1.07,1.79-1.42l.64-.98c0,.13,0,.26.01.39,0,.14,0,.29,0,.44,0,0,.02.25,0,.53-.02.26-.08.56-.23.71-.41.43-.99.91-1.75,1.14-.45.14-2.58.84-3.64,1.19l-.57.19-1.42.47c-.26-2.13.24-2.87.32-3.16.47-1.31-.34-1.77-1.46-2.04-.44-.11-5.61-1.5-5.79-1.52-3.61-.78-3.47-3.05-3.47-3.05Z"/>
      <polygon class="cls-3" points="31.26 56.76 31.26 56.76 31.26 56.76 31.26 56.76"/>
      <polygon class="cls-3" points="31.26 56.75 31.26 56.75 31.26 56.75 31.26 56.76 31.29 56.73 31.29 56.72 31.26 56.75"/>
      <polygon class="cls-3" points="31.29 56.72 31.29 56.73 31.3 56.72 31.29 56.72"/>
      <path class="cls-3" d="M45.32,56.76s0,0,0,0h0s-.02-.02-.03-.03c0,0,.03.03.03.03,0,0,0,0,0,0Z"/>
      <path class="cls-6" d="M37.82,54.35c-.05.5-.36,1.03-.57,1.33.21-.3.51-.83.57-1.33,0,0,0-.01,0-.02,0-.05.01-.1.01-.15,0,.05,0,.1-.01.15,0,0,0,.01,0,.02Z"/>
      <path class="cls-6" d="M31.26,56.76h0s0,0,0,0c-.03-.03-.03-.06-.03-.1,0,.04,0,.07.03.1,0,0,0,0,0,0,0,0,.04.01.08.02-.03,0-.05,0-.07-.03h0Z"/>
    </g>
  </g>
</svg>