<?xml version="1.0" encoding="UTF-8"?>
<svg id="Layer_1" data-name="Layer 1" xmlns="http://www.w3.org/2000/svg" xmlns:xlink="http://www.w3.org/1999/xlink" viewBox="0 0 144.88 145.63">
  <defs>
    <style>
      .cls-1 {
        fill: none;
      }

      .cls-2 {
        fill: #f4bf3d;
      }

      .cls-3 {
        fill: #12a578;
      }

      .cls-4 {
        fill: #fff;
      }

      .cls-5 {
        clip-path: url(#clippath);
      }

      .cls-6 {
        fill: #19572b;
      }
    </style>
    <clipPath id="clippath">
      <rect class="cls-1" width="144.88" height="145.63"/>
    </clipPath>
  </defs>
  <g class="cls-5">
    <g>
      <path class="cls-4" d="M28.47,63.13c1.42.37,2.49.47,3.21.31.72-.16,1.17-.6,1.35-1.31.19-.72,0-1.33-.54-1.81-.54-.49-1.52-.91-2.92-1.27-1.41-.37-2.48-.47-3.2-.31-.72.16-1.18.59-1.36,1.3-.19.72,0,1.32.54,1.81.55.49,1.52.92,2.91,1.28Z"/>
      <path class="cls-4" d="M35.69,98.47c-.52.08-1.19.43-2.02,1.04-.84.62-1.38,1.17-1.61,1.64-.23.47-.19.92.12,1.34.32.43.73.6,1.25.52.52-.08,1.19-.43,2.02-1.05.84-.62,1.37-1.17,1.61-1.64.24-.47.2-.92-.11-1.34-.31-.43-.73-.59-1.25-.51Z"/>
      <polygon class="cls-4" points="45.24 37.18 42.41 35.18 43.72 38.37 45.24 37.18"/>
      <path class="cls-4" d="M40.9,89.62s.03-.02.07-.03c.24-.28.28-.46.24-.54-.1-.18-1.19-.29-1.71-.02-.16.08-.27.19-.22.29.12.22.85.34,1.32.34.12,0,.22-.02.3-.03Z"/>
      <path class="cls-4" d="M53.49,102.93s.15-.02.21-.11c.03-.05.03-.19-.05-.24-.15-.1-1.14.29-1.49.84-.1.15-.15.3-.05.36.25.16,1.11-.24,1.45-.5-.11-.12-.12-.26-.07-.35Z"/>
      <path class="cls-4" d="M39.97,86.75c.12-.05.17-.15.14-.22-.08-.2-.76-.31-1.2-.27,0,.06.03.12.06.18.13.31.75.41,1,.31Z"/>
      <path class="cls-4" d="M117.81,76.19c-.06.75.01,1.3.23,1.63.22.33.62.53,1.2.57.55.05.95-.07,1.21-.34.25-.28.41-.79.48-1.53l.07-.78-3.12-.27-.06.71Z"/>
      <path class="cls-4" d="M39,84.24c.13-.04.18-.13.16-.21-.07-.2-.74-.37-1.17-.36,0,.06.02.12.04.18.11.32.72.47.98.39Z"/>
      <path class="cls-4" d="M96.18,114.13c-.28-.07-.63,0-1.03.23l-.43.24,1.2,2.18.44-.24c.42-.23.67-.48.75-.75.08-.27.02-.61-.2-1-.2-.36-.44-.58-.73-.65Z"/>
      <polygon class="cls-4" points="84.44 118.57 85.76 118.19 84.42 116.11 84.44 118.57"/>
      <path class="cls-4" d="M95.27,112.82c.08-.24.04-.53-.14-.85-.18-.32-.38-.5-.61-.56-.23-.05-.53.02-.89.22l-.41.23,1.01,1.83.37-.21c.36-.2.59-.42.67-.66Z"/>
      <path class="cls-4" d="M58.71,105.37c.05-.12.02-.23-.05-.26-.2-.08-.77.3-1.05.64.05.04.11.07.17.09.31.14.83-.23.94-.47Z"/>
      <path class="cls-4" d="M72.44,17.01c-30.77,0-55.8,25.03-55.8,55.8s25.03,55.8,55.8,55.8,55.8-25.03,55.8-55.8-25.03-55.8-55.8-55.8ZM97.43,39.5c.26.26.45.39.59.41.14.02.35-.11.64-.4l.06-.06,4.23-4.23c.3-.3.45-.52.44-.67,0-.15-.15-.35-.42-.63l-.38-.38,1.1-1.09,8.13,8.14-2.89,2.89-1.23-1.23c.3-.45.51-.83.63-1.13.12-.3.18-.58.18-.83,0-.29-.08-.58-.22-.85-.15-.27-.46-.64-.93-1.11l-.23-.23-.99-.99-2.13,2.13.3.3c.35.35.68.51.99.48.31-.03.68-.26,1.11-.69l.07-.07.97.97-3.54,3.53-.97-.97c.53-.56.81-.98.85-1.27.04-.29-.13-.61-.48-.97l-.31-.31-2.42,2.41,1.37,1.37c.53.53.93.86,1.19,1,.26.14.53.18.79.14.3-.06.62-.19.96-.39.34-.2.71-.48,1.14-.86l1.27,1.28-3.2,3.2-8.18-8.18,1.1-1.1.39.39ZM111.67,82.23c-.18.81-.97,1.42-1.37,1.33-.38-.08-1.06-1.3-.88-2.52-.27-.1-.56-.2-.85-.28.28.32.5.73.41,1.14-.09.42-.43.74-1.1.6-.11-.02-.21-.05-.31-.08.09.1.16.18.19.21,0,0,.02.02.02.03.08.09.16.19.23.3,0,0,0,.01.01.02.07.11.13.22.18.34.01.02.02.05.03.07.05.12.08.25.1.37,0,.02,0,.05,0,.07.01.13,0,.26-.03.39-.1.3-.5.56-.83.45-.18-.06-.39-.18-.57-.3-.05.08-.16.23-.32.36.25.39.46.85.52,1.01,0,.01.01.03.02.05.03.07.05.14.07.21.02.05.04.11.05.16.02.08.03.15.05.23,0,.05.02.11.03.16,0,.09,0,.17,0,.26,0,.05,0,.09,0,.14-.02.13-.05.26-.11.38-.25.54-.78.85-1.44.64-.13.18-.31.35-.51.47.46.71.71,1.52.64,1.67-.45.95-1.37.68-1.97.42.05.07.11.15.14.19.01.02.03.05.04.07.01.02.03.04.04.07.03.05.06.11.09.17.01.02.02.04.03.06.04.09.08.18.12.27,0,.02.02.04.02.07.03.07.05.15.08.22,0,.03.02.07.03.1.02.06.03.13.04.19,0,.03.01.07.01.1,0,.06,0,.12,0,.18,0,.03,0,.06,0,.08-.01.08-.03.15-.07.22-.22.36-.69.66-1.14.38-.11-.07-.22-.15-.33-.22.24.46.53,1.32.26,1.7-.36.51-1.2.35-1.56.09-.01,0-.03-.02-.04-.03.19.46.42,1.55-.1,2.19-.42.51-1.09.66-1.74.12-.62-.5-.91-1.67-.56-2.09.33-.41,1.03-.57,1.33-.32.49.4.42,1.27.07,1.7-.06.08-.14.15-.22.21.24.13.58.17.78-.07.28-.34.34-1.16.07-1.85,0-.01-.02-.06-.05-.11-.05-.12-.13-.29-.21-.36,0,0,0,0,0,0-.06-.06-.11-.11-.17-.17-.07-.07-.15-.15-.23-.23-.07-.07-.13-.13-.19-.2-.08-.08-.16-.17-.24-.25-.07-.07-.13-.14-.19-.21-.08-.09-.16-.18-.24-.27-.06-.07-.12-.14-.18-.2-.07-.09-.14-.17-.21-.25-.05-.06-.11-.13-.15-.19-.06-.08-.11-.15-.17-.23-.04-.05-.08-.11-.11-.15-.05-.08-.08-.13-.11-.2-.02-.03-.04-.07-.05-.1-.03-.08-.04-.14-.01-.18.17-.24.8-.49,1.17-.22.44.31,1.15,1.41,1.52,2.24.31.34.6.58.88.78.19.13.44.21.52.1.11-.15,0-.77-.3-1.42-.03-.07-.09-.23-.22-.37,0,0,0,0,0,0-.44-.4-.72-.76-.67-.84.17-.27.72-.46.89-.35.08.05.11.2.17.29.15.25.54.68.98.96.13.08.27.07.31,0,.03-.05.05-.14.04-.25,0-.03-.01-.08-.02-.12,0-.08-.02-.16-.05-.26-.01-.05-.03-.11-.05-.17-.03-.09-.06-.19-.1-.29-.03-.06-.06-.13-.09-.19-.02-.05-.04-.1-.07-.15-.03-.05-.07-.15-.14-.26-.05-.09-.12-.19-.23-.29h0c-.4-.27-.58-.55-.51-.68.21-.45.61-.58.75-.51.06.03.02.36.57.62.49.23,1.15.43,1.23.27.1-.22-.38-.83-.83-1.23-.24-.02-.48-.1-.68-.2-.21-.1-.57-.35-.46-.59.13-.28.57-.56.82-.45.26.12.49.33.69.56.15-.04.29-.12.43-.25-.61-.41-1.06-1.33-.86-1.78.23-.48.86-.8,1.22-.63.5.24.77.88.41,1.91.25.04.52-.02.65-.28.05-.1.07-.24.07-.38,0-.05,0-.1-.01-.15,0-.11-.02-.21-.04-.32-.01-.06-.04-.13-.06-.19-.03-.11-.07-.21-.12-.32-.03-.07-.07-.14-.1-.2-.03-.05-.05-.11-.08-.16-.02-.04-.09-.14-.16-.25-.02-.02-.03-.04-.05-.07-.13.03-.28.04-.44-.01-.27-.09-.9-.66-.83-.87.07-.21.43-.25.62-.19.12.04.44.27.63.42l.16-.25c-.13-.11-.51-.45-.46-.57.05-.16.57-.5.71-.46.07.02.21.18.26.3.23.23.56.52.82.6.09.03.14-.03.15-.07.02-.06,0-.15-.02-.24,0-.03-.02-.07-.04-.1-.03-.07-.06-.15-.11-.24-.02-.04-.05-.09-.08-.13-.05-.09-.11-.17-.18-.27-.03-.05-.07-.09-.1-.14-.02-.02-.03-.05-.05-.07-.09-.11-.19-.22-.3-.33,0,0-.07-.11-.28-.21,0,0,0,0-.02-.01-.46-.22-.75-.46-.73-.55.07-.32.5-.66.7-.62.09.02.19.12.28.19.26.22.81.47,1.2.55.21.05.31,0,.33-.08.05-.24-.14-.59-.46-.95-.46-.1-.91-.22-1.21-.38-.27-.13-.32-.22-.29-.37.07-.32.49-.52.69-.47.09.02.25.11.34.17.04.04.12.1.23.18.52.13,1.25.33,1.93.6.18-.18.4-.27.62-.22.06.01.1.07.09.13-.02.1-.06.17-.12.36.86.42,1.52.96,1.38,1.6ZM96.5,102.5c-.39.34-1.47.29-1.76-.04-.13-.15-.05-.28,0-.32.13-.11.41-.21.74-.35-.38-.57-.88-1.2-1.37-1.76-.43-.49-.86-.94-1.18-1.21-.02-.02-.04-.04-.06-.05-.15-.17-.04-.26.03-.32.14-.12.91-.25,1.12-.01.48.55,1.52,2.05,2.1,3.07.17-.1.34-.21.5-.35,1.27-1.11,1.82-3.79.87-4.87-.4-.45-1.85-.56-3.95,1.28-.91.8-1.77,2.19-1.68,2.86-.13.12-.28.07-.47-.14-.62-.71-.05-2.22,1.43-3.52,2.09-1.83,4.59-1.97,5.67-.74.82.94.92,3.8-1.01,5.49-.21.18-.66.44-1.05.59.09.22.13.38.08.42ZM87.04,102.42c-.02-.23,0-.38.11-.44.29-.14.9-.03.99.16.03.05.02.1,0,.21-.04.19-.02.52.03.92.13-.12.24-.2.31-.23.26-.13.6.17.66.29.06.11-.04.15-.27.3l-.55.36c.12.52.3,1.09.57,1.63.13.26.3.27.37.24.21-.11.41-.71.46-1.42-.26-.8.01-1.65.33-1.84.39-.23,1.06-.22,1.32.05.23.02.51.08.61.26.4.68.29,1.9-.39,2.3-.45.27-1.15.27-1.57-.2-.05.52-.21,1.19-.56,1.37-.38.19-1.07.09-1.31-.41-.24-.48-.44-.98-.6-1.45-.18.12-.31.2-.36.23-.04.02-.13.06-.17-.02-.03-.06-.03-.18.05-.3l.34-.38c-.2-.67-.32-1.25-.36-1.62ZM100.64,90.06c.16-.25.59-.55.8-.42.34.21.41.83.21,1.15-.13.21-.43.43-.74.24-.32-.2-.44-.7-.27-.97ZM80.86,31.77l.51.2c.34.13.58.18.72.14.14-.04.29-.27.45-.69l2.14-5.59c.15-.4.2-.67.13-.8-.07-.13-.28-.26-.64-.4l-.51-.2.55-1.44,5.68,2.17-.55,1.45-.17-.07c-.31-.12-.53-.15-.66-.09-.13.06-.27.28-.42.67l-.71,1.85,2.84,1.09.71-1.85c.15-.39.19-.65.13-.78-.06-.13-.24-.26-.55-.38l-.16-.06.55-1.44,5.68,2.17-.55,1.45-.52-.2c-.36-.14-.6-.18-.74-.13-.14.05-.28.28-.43.68l-2.14,5.59c-.15.4-.2.66-.13.8.07.13.28.27.64.4l.52.2-.55,1.45-5.68-2.17.55-1.45.16.06c.3.11.52.14.66.08.14-.06.28-.29.43-.67l.88-2.3-2.84-1.09-.88,2.3c-.15.39-.19.65-.13.79.06.14.24.26.54.38l.17.07-.56,1.45-5.68-2.17.56-1.45ZM82.4,54.54c4.93-2.93,15.31-8.7,15.31-8.7.51,1,.64,2.34.54,3.79-.31,4.4-2.9,9.72-3.31,10.81l-3.92,9.12,10.78,2.82,2.28.55s-.84,6.2-6.63,7.05c-5.8.84-12,2.38-12,2.38-1.11.21.54,2.42.21,5.1l-.33,3.88s-2.79-.87-5.48-1.7h0c-2.33-.72-4.58-1.42-4.85-1.5-.79-.24-2.12-1.37-2.12-2.55-.04-.93-.09-3.99-.09-4.42h0c0-.61,0-1.21,0-1.32,0-.98.04-.74.04-1.73,0-1.22,1.55-1.75,2.5-.8.68.68,7,6.74,7,6.74h0c.08-.09.03-.18,0-.3-.5-1.52-.52-2.61-.81-3.69-.45-1.62-1.02-1.71-1.67-2.16l-.45-.32c-.35-.19-.94-.51-1.53-.84-.55-.3-1.11-.61-1.48-.81-.28-.16-.6-.24-.93-.24h-.67s-.05,0-.07,0c0,0-.02,0-.03,0-.27,0-.92-.05-1.11-.67-.01-.03-.03-.06-.03-.1,0-.03,0-.07,0-.1,0-.06-.02-.12-.02-.17.02-.22.11-.46.39-.73l.22-.23.52-.53,14.37-14.74,3.07-3.15s0,0,0,0c-.06-.07-.3-.19-.56-.03-5.77,4.01-7.53,4.29-11.45,6.78-.53.34-1.66,1.53-1.66,1.53l-1.37,2.05h0s-.02.09-.02.09l-1.34,1.93-2.15,3.09-.65-.76c-.46-.53-.71-1.21-.71-1.92v-31.78c-.23,0-.38.19-.41.41-.25,1.85-3.61,13.78-4.9,20.6-.18.98-.17,1.98.06,2.95l.46,1.94,1.07,4.5,2.6,3.75.67.95v.03s.44.63.44.63l.09.13c.04.06.07.11.11.16,0,.01.02.03.03.04.02.04.05.07.07.11.06.1.11.2.15.29.07.14.11.28.14.42.11.47.01.91-.34,1.32l-.16.18-.04.04-.42.46-.15.16-.25.26-1.21,1.17-7.56,7.3h0s0,0,0,0c0,0,.07.04.17.04.04,0,.08,0,.13-.02,2.53-.8,3.62-1.18,4.56-1.46.84-.26,1.62-.97,2.13-1.69l2.1-3.26c.04.66.08,1.41.1,2.03,0,.25.02.5.02.76,0,.32.01.65.02.98,0,.35.01,3.08-.03,4.11,0,1.16-1.27,2.36-2.01,2.59-.26.08-2.51.78-4.85,1.5-2.68.83-5.48,1.7-5.48,1.7l-.33-3.88c-.32-2.68,1.33-4.89.21-5.1,0,0-6.2-1.53-12-2.38-5.8-.84-6.63-7.05-6.63-7.05l2.28-.55,10.48-2.57.42-.1-4.03-9.26c-.41-1.09-3-6.41-3.31-10.81-.1-1.45.03-2.79.54-3.79,0,0,10.39,5.78,15.32,8.7,0-.51.05-1.13.15-1.82,1.22-9.12,9.83-32.73,9.83-32.73,0,0,9.98,27.34,9.98,34.54ZM80.23,105.4c.08.4-.31.87-.69.95-.24.05-.61,0-.68-.37-.08-.37.21-.8.51-.87.29-.06.81.05.86.29ZM72.42,107.59c-.03-.65-.08-1.27-.17-1.69,0-.03-.01-.05-.01-.08,0-.22.13-.23.22-.23.19,0,.87.37.88.69.03.73-.09,2.55-.27,3.71.2.03.4.04.61.03,1.69-.08,3.78-1.83,3.72-3.27-.03-.6-1.1-1.59-3.89-1.46-1.21.06-2.75.61-3.1,1.19-.18,0-.26-.12-.28-.4-.04-.94,1.34-1.78,3.31-1.87,2.77-.13,4.82,1.32,4.9,2.96.06,1.24-1.65,3.55-4.21,3.66-.28.01-.79-.06-1.19-.2-.06.23-.14.37-.2.38-.52.02-1.33-.69-1.35-1.13,0-.2.13-.25.2-.25.17,0,.45.09.8.19.06-.68.06-1.48.02-2.23ZM68.41,94.52v-.83h2.58v.83h-.8v2.93h-.98v-2.93h-.8ZM71.25,97.45l.64-3.75h.96l.75,2,.75-2h.97l.64,3.75h-.97l-.32-2.16-.89,2.16h-.39l-.84-2.16-.32,2.16h-.97ZM65.79,107.98c-.1.47-.65.79-1.1.69-.3-.06-.67-.31-.58-.75.1-.45.69-.77,1.2-.66.35.08.56.36.49.72ZM52.25,98.75c-1.23-1.04-2.38-1.51-2.68-1.14-.62.73,2.35,3.75,1.37,4.91-.59.7-1.81.41-3-.59-1.16-.98-1.67-2.35-1.18-2.93.27-.31.69-.29.92-.1.27.23.24.49.17.58-.04.05-.38-.04-.57.19-.22.27.06.82.66,1.32.96.81,1.86,1.08,2.23.63.67-.79-2.18-3.64-1.21-4.78.75-.89,2.74-.44,4.43.98,1.06.9,1.2,1.63.79,2.12-.43.51-1.39.3-1.76-.01-.19-.16-.26-.3-.19-.39.06-.07.28.01.38-.1.11-.13,0-.4-.35-.7ZM42.14,95.09c-.25-.34-.26-1.04.18-1.36.43-.32.9-.6,1.33-.83-.15-.16-.25-.27-.29-.32-.03-.04-.08-.12-.01-.17.06-.04.18-.06.31,0l.43.27c.63-.31,1.18-.52,1.53-.62.22-.06.37-.07.45.04.19.26.17.88,0,1-.04.03-.1.04-.21.04-.19,0-.52.07-.9.18.14.11.24.2.28.26.17.23-.07.62-.18.7-.1.07-.15-.01-.34-.22l-.44-.49c-.5.2-1.03.48-1.51.83-.23.17-.22.34-.17.4.15.2.83.3,1.57.21.73-.34,1.55-.21,1.78.06.3.35.39,1.01.17,1.31.02.23,0,.52-.16.65-.6.51-1.82.59-2.33,0-.34-.41-.45-1.12-.04-1.61-.52.05-1.24,0-1.48-.32ZM40.11,90.99c.12.24.89.41,1.7.4,0,0-.04.19-.21.29-.18.1-1.7.06-1.99-.5-.2-.38-.03-.8.23-1.11-.39-.02-.87-.11-1.02-.39-.26-.49.02-1.09.51-1.38-.54-.11-1.36-.43-1.63-1.08-.23-.55-.08-1.13.53-1.48-.53-.16-1.31-.54-1.53-1.2-.21-.63.02-1.27.83-1.54.76-.25,1.89.13,2.06.65.17.5-.07,1.18-.45,1.3-.6.2-1.3-.33-1.47-.86-.03-.09-.05-.2-.06-.3-.24.13-.45.39-.36.69.14.42.79.87,1.51,1.04.71-.12,1.57.16,1.75.59.2.49.01,1.18-.35,1.33-.58.24-1.32-.23-1.53-.74-.04-.09-.06-.2-.08-.29-.23.15-.42.43-.3.72.19.45,1,.9,1.81.95,0,0,0,0,0,0,.7-.05,1.46.23,1.66.6.09.17.09.4.06.62,1.05-.37,2.7-.91,2.85-.62.15.29,0,.81-.29.96-.55.29-1.98.55-3.02.62-.26.08-.61.22-.77.31-.36.19-.48.34-.43.43ZM35.65,79.32c.24,1.23.77,2.01,1.34,1.9,1.01-.2.58-4.2,2.05-4.49,1.14-.22,2.41,1.37,2.83,3.54.26,1.36-.08,2.02-.72,2.15-.65.13-1.27-.64-1.37-1.11-.05-.24-.01-.4.1-.42.09-.02.21.19.36.16.17-.03.25-.31.16-.76-.31-1.58-.91-2.66-1.37-2.57-.94.18-.52,4.4-2.01,4.69-.9.17-1.67-.82-1.97-2.34-.29-1.49.17-2.88.92-3.03.4-.08.73.21.78.5.07.34-.12.54-.23.56-.06.01-.27-.27-.57-.21-.34.07-.46.67-.31,1.45ZM58.35,24.03l.47,1.48-.59.19c-.34.11-.56.22-.64.34-.08.11-.06.36.06.74l.02.08,2.08,6.57.7-.22c.65-.21,1.1-.39,1.34-.54.24-.15.42-.34.52-.56.13-.28.19-.61.17-1.01-.01-.4-.11-.92-.27-1.58l1.62-.51,1.38,4.36-9.84,3.12-.47-1.48.53-.17c.36-.12.58-.24.66-.37.07-.13.05-.4-.08-.8l-1.81-5.7c-.13-.41-.26-.64-.39-.7-.13-.06-.38-.03-.75.08l-.53.17-.47-1.47,6.29-2ZM43.14,31.38l7.11,4.91c.47.32.8.48.98.48.18,0,.4-.1.65-.29l.45-.35.96,1.22-5.24,4.1-.96-1.22.39-.31c.33-.26.51-.43.56-.52.05-.09.03-.19-.05-.29-.05-.07-.11-.13-.17-.18-.06-.05-.12-.1-.18-.15l-1.03-.68-2.32,1.82.37,1.03c.05.16.1.29.14.37.04.09.08.16.13.21.06.08.16.09.29.05.14-.04.3-.14.5-.29l.43-.33.96,1.22-3.86,3.02-.96-1.22.32-.25c.22-.17.35-.38.39-.64.04-.25,0-.58-.14-.98l-2.84-8.29,3.12-2.44ZM33.42,40.06l3.47,2.27-.88,1.34-.04-.03c-.65-.42-1.23-.61-1.75-.56-.52.05-.94.32-1.28.83l-.26.4,5.65,3.69c.35.23.6.33.75.29.15-.04.33-.22.54-.54l.5-.77,1.3.85-3.94,6.04-1.3-.85.47-.72c.2-.31.3-.53.29-.68,0-.15-.2-.34-.58-.59l-5.65-3.69-.26.4c-.33.5-.41,1-.24,1.49.17.49.57.95,1.22,1.37l.04.03-.88,1.36-3.47-2.27,6.3-9.66ZM23.4,59.63c.5-1.91,1.38-3.29,2.67-4.12,1.28-.83,2.8-1.02,4.55-.56,1.76.45,2.99,1.36,3.7,2.7.71,1.35.82,2.99.32,4.92-.49,1.91-1.38,3.28-2.66,4.11-1.28.83-2.79,1.02-4.54.57-1.76-.45-2.99-1.36-3.71-2.71-.72-1.35-.83-2.99-.33-4.91ZM21.84,70.07l4.14-.28.11,1.6h-.05c-.77.06-1.35.26-1.73.61-.39.35-.56.83-.52,1.43l.03.48,6.73-.46c.42-.03.68-.1.77-.22.1-.12.13-.37.1-.76l-.06-.91,1.55-.11.49,7.19-1.55.11-.06-.85c-.03-.37-.09-.61-.18-.72-.1-.11-.37-.15-.82-.12l-6.73.46.03.48c.04.6.28,1.04.7,1.33.43.29,1.03.41,1.8.36h.05s.11,1.61.11,1.61l-4.14.28-.79-11.51ZM27.15,95.07c-.77-.36-1.37-1.07-1.82-2.14-.53-1.25-.6-2.34-.23-3.29.38-.95,1.18-1.68,2.4-2.2,1.16-.49,2.23-.54,3.22-.14.99.4,1.73,1.18,2.22,2.34.16.39.28.77.34,1.14.06.37.07.75.03,1.12l.48.02.5,1.17-2.97,1.26-.55-1.29c.64-.42,1.06-.83,1.26-1.22.2-.39.21-.81.03-1.24-.21-.51-.58-.79-1.11-.84s-1.26.13-2.21.53c-.98.42-1.63.83-1.96,1.25-.33.42-.38.9-.15,1.43.21.49.55.81,1.03.97.48.16,1.02.14,1.63-.07l.49,1.16c-.98.38-1.85.39-2.61.03ZM34.09,105.22c-1.07-.21-2.03-.89-2.87-2.03-.84-1.13-1.2-2.24-1.09-3.32.11-1.08.69-2.01,1.72-2.78,1.04-.77,2.1-1.05,3.17-.84,1.07.21,2.03.88,2.88,2.02.84,1.14,1.21,2.25,1.09,3.33-.11,1.08-.69,2.01-1.73,2.78-1.04.77-2.1,1.05-3.16.84ZM40.74,112.71l1.22-6.27-2.44,2.96c-.19.23-.28.4-.27.51.01.1.13.24.34.42l.27.22-.71.86-2.66-2.2.71-.86.29.24c.21.18.38.26.48.26.11,0,.26-.13.45-.36l2.72-3.3c.19-.23.28-.4.26-.5-.01-.11-.13-.25-.35-.43l-.3-.24.7-.85,2.99,2.46-1.13,5.9,2.23-2.7c.2-.24.29-.42.27-.52-.02-.1-.14-.24-.34-.41l-.34-.28.7-.85,2.66,2.19-.7.85-.22-.18c-.21-.17-.37-.26-.47-.25-.11,0-.25.12-.45.36l-3.85,4.67-2.07-1.71ZM55.12,115.34l-1.18-.59c.13-.55.1-1.03-.1-1.43-.2-.4-.57-.74-1.1-1-.31-.15-.61-.21-.88-.17-.27.04-.46.17-.56.37-.16.31.12.74.81,1.29.17.14.3.24.4.32.96.79,1.56,1.47,1.82,2.06.25.59.22,1.2-.1,1.83-.35.71-.9,1.14-1.64,1.29-.74.16-1.57,0-2.48-.44-.42-.21-.79-.45-1.13-.74-.34-.28-.65-.62-.93-.99l-.45.26-.96-.48,1.3-2.61,1.01.5c-.1.62-.04,1.18.2,1.68.24.5.61.87,1.14,1.13.32.16.6.22.86.18.26-.04.44-.17.55-.39.17-.34-.11-.82-.82-1.46-.23-.21-.41-.37-.54-.49-.42-.4-.74-.71-.96-.95-.22-.24-.36-.43-.43-.58-.18-.35-.27-.69-.28-1.01,0-.32.07-.65.23-.98.35-.7.89-1.14,1.63-1.32.74-.17,1.53-.05,2.39.38.44.22.82.46,1.16.73.34.27.64.59.9.94l.36-.26,1,.5-1.21,2.43ZM56.69,105.92c-.45.27-1.09.54-1.44.35-.56-.29-.51-1.13-.3-1.53.01-.02.03-.05.05-.08-.36.26-1.4.74-1.85.46-.37-.23-.29-.64-.16-.95-.34.17-.81.33-1.1.15-.49-.3-.55-1-.23-1.5.48-.77,1.77-1.11,2.25-.81.4.25.56,1.06.45,1.24-.02.04-.06.07-.11.09.13.12.23.32.15.45-.05.08-.54.37-.75.71-.08.13-.09.19-.04.22.02.01.07.02.14.01.01,0,.02,0,.03,0,.07,0,.15-.02.24-.04.02,0,.04,0,.05-.01.1-.03.21-.06.32-.1,0,0,0,0,.01,0,.12-.04.24-.1.37-.16.02,0,.03-.01.05-.02,0,0,.02-.01.03-.02.14-.07.53-.3.76-.57,0,0,0,0,0,0,.81-1.08,2.08-2.59,2.36-2.45.26.14.59.72.38,1.13-.25.48-1.24,1.33-2.01,1.81-.3.36-.49.67-.65.98-.11.21-.15.47-.02.53.16.08.74-.11,1.33-.48.43-.58,1.25-.98,1.67-.8.49.21.83.84.67,1.2-.25.58-1.11.75-1.62.53-.09-.04-.18-.1-.26-.15-.06.27,0,.6.28.73.44.19,1.35-.05,1.97-.57,0,0,.09.18.01.36-.08.19-1.37,1.07-2.31.67-.53-.23-.85-.72-.69-1.36ZM66.41,116.83l-.35-.08c-.27-.06-.45-.07-.54-.02-.09.05-.17.21-.24.49l-.88,3.67c-.19.81-.64,1.36-1.32,1.64-.69.28-1.6.29-2.73.02-1.03-.25-1.78-.65-2.24-1.2-.47-.55-.61-1.21-.43-1.97l.89-3.74c.07-.29.07-.48.01-.57-.06-.09-.23-.17-.5-.23l-.39-.09.26-1.07,4.59,1.1-.26,1.08-.42-.1c-.27-.07-.46-.07-.55-.02-.09.05-.17.22-.24.51l-.8,3.36c-.14.59-.15,1.02-.02,1.3.13.28.41.47.84.58.52.12.92.1,1.2-.08.28-.18.49-.53.61-1.07l.83-3.45c.07-.3.08-.49.02-.58-.06-.08-.22-.16-.49-.22l-.39-.09.26-1.07,3.53.84-.26,1.08ZM75.76,123.65l-.04-1.11h.29c.26-.02.43-.06.52-.12.08-.07.12-.26.11-.58l-.16-4.76-1.78,6.61-1.83.06-2.13-6.47.16,4.75c.01.3.06.49.14.56.08.07.26.1.53.09h.29s.04,1.1.04,1.1l-3.51.12-.04-1.11h.36c.27-.02.45-.06.52-.14.08-.07.11-.26.1-.57l-.15-4.27c-.01-.3-.06-.49-.13-.56-.08-.07-.26-.1-.53-.09h-.36s-.04-1.09-.04-1.09l4.39-.15,1.49,4.62,1.27-4.71,4.53-.16.04,1.11h-.39c-.27.02-.44.06-.52.13-.08.07-.11.26-.1.57l.15,4.27c.01.32.06.5.14.57.08.06.26.09.52.08h.39s.04,1.1.04,1.1l-4.29.15ZM81.85,107.9c-.12,0-.35-.01-.58-.11,0,.01.01.02.01.04.04.2-.41,1.65-1.03,1.78-.41.09-.95-.05-1.06-.56-.23-1.1-.15-2.28.01-2.31.31-.07.83.2.87.4.02.09-.06.21-.09.32-.08.28-.12.86-.02,1.37.03.15.13.25.21.23.25-.05.64-.67.85-1.41-.11-.09-.2-.21-.25-.38-.08-.28.05-1.11.27-1.17.22-.06.45.22.5.41.03.12.01.52,0,.76h.3c.02-.18.09-.68.22-.71.16-.05.74.2.78.34.02.07-.04.27-.11.38-.07.32-.12.75-.05,1.02.03.1.1.1.15.09.06-.02.12-.07.18-.14,0,0,.01,0,.02-.02.06-.07.12-.17.18-.28,0-.02.02-.03.02-.04.06-.11.11-.24.17-.38,0-.02.02-.04.02-.07.05-.14.1-.29.13-.45,0-.01,0-.02.01-.04,0-.02.02-.07.03-.13.02-.09.04-.22.03-.33,0,0,0,0,0,0-.04-.14-.07-.28-.1-.42-.19.1-.33.17-.39.19-.04.01-.13.05-.17-.04-.02-.07,0-.19.08-.3l.38-.34c-.12-.69-.16-1.28-.16-1.65,0-.23.04-.37.17-.42.3-.11.89.08.96.28.02.05,0,.1-.02.21-.06.18-.08.51-.08.91.15-.1.26-.17.33-.19.27-.1.57.24.62.37.04.12-.05.14-.31.26l-.59.29c.06.53.17,1.12.37,1.68.1.27.26.31.34.28.25-.09.57-.81.67-1.62,0,0,.18.07.25.25.07.19-.19,1.69-.78,1.9-.4.14-1.07-.04-1.25-.56-.04-.12-.08-.25-.11-.37-.05.44-.38,1.53-1.1,1.73-.3.08-.74-.1-.84-.44-.05-.18-.06-.43-.07-.64ZM86.49,121.77l-.31-1.07.34-.1c.28-.08.45-.15.51-.2.05-.05.07-.12.04-.21-.02-.06-.04-.11-.06-.16-.03-.05-.05-.1-.08-.15l-.5-.73-2.03.59-.03.79c0,.12-.01.22,0,.28,0,.07.01.12.03.18.02.07.08.1.18.11.1.01.24,0,.4-.06l.37-.11.31,1.07-3.36.97-.31-1.07.28-.08c.19-.06.33-.16.43-.32.09-.16.15-.39.17-.69l.33-6.25,2.72-.79,3.4,5.15c.23.34.4.53.52.58.12.05.29.04.51-.02l.39-.11.31,1.07-4.57,1.32ZM99.42,115.53c-.31.55-1.01,1.13-2.11,1.73l-4.02,2.21-.54-.97.34-.19c.23-.12.36-.23.4-.32.04-.09,0-.27-.14-.52l-.03-.05-2.06-3.74c-.15-.27-.27-.41-.37-.44-.1-.03-.27.03-.52.16l-.34.18-.53-.97,4.13-2.27c.9-.49,1.62-.72,2.18-.69.56.03.99.32,1.3.88.21.38.27.77.18,1.18-.09.41-.33.81-.71,1.21.67-.2,1.23-.23,1.67-.11.45.13.8.42,1.05.88.37.67.4,1.28.09,1.83ZM103.18,113.6l-.73-.84.3-.26c.21-.18.31-.32.33-.43.01-.11-.08-.27-.28-.5l-2.82-3.21c-.2-.23-.35-.34-.46-.35-.1,0-.26.09-.47.27l-.3.26-.73-.83,3.54-3.11.73.83-.33.29c-.19.17-.3.3-.32.4-.02.1.06.25.25.47l.04.04,3.25,3.7.39-.35c.37-.32.61-.57.72-.74.12-.17.18-.34.18-.52,0-.22-.05-.45-.18-.71-.12-.26-.33-.57-.63-.95l.91-.8,2.15,2.45-5.54,4.87ZM111.1,106.27l-.9-.66.23-.32c.15-.21.23-.36.23-.47,0-.1-.12-.24-.35-.41l-.05-.03-3.45-2.52c-.25-.18-.42-.26-.52-.24-.1.02-.23.14-.4.37l-.23.31-.89-.65,4.84-6.64,2.36,1.72-.73,1c-.35-.16-.64-.27-.87-.32-.22-.05-.43-.07-.61-.04-.21.03-.4.12-.57.25-.18.14-.4.39-.68.78l-.14.19-.59.81,1.74,1.27.18-.24c.21-.29.29-.54.23-.75-.05-.22-.26-.45-.61-.71l-.06-.04.58-.79,2.89,2.1-.58.79c-.45-.31-.78-.46-.99-.45-.21,0-.42.15-.63.45l-.18.25,1.97,1.44.82-1.12c.32-.43.51-.75.57-.95.07-.2.07-.39.01-.58-.08-.21-.21-.42-.38-.63-.18-.21-.42-.45-.74-.71l.76-1.04,2.61,1.9-4.87,6.68ZM119.71,92.49c-.18.43-.41.81-.67,1.17-.27.35-.58.68-.94.99l.28.44-.42.98-2.68-1.15.45-1.04c.63.07,1.18-.03,1.67-.29.48-.26.84-.66,1.07-1.2.14-.32.18-.61.13-.87-.05-.26-.19-.43-.42-.53-.34-.15-.82.15-1.41.9-.19.24-.35.43-.46.57-.37.44-.67.78-.9,1.01-.23.23-.41.39-.56.47-.34.2-.67.31-.99.33-.32.02-.65-.04-.99-.18-.72-.31-1.19-.83-1.4-1.55-.21-.73-.13-1.53.25-2.41.19-.45.42-.85.67-1.2.25-.35.55-.67.89-.95l-.28-.35.44-1.03,2.5,1.07-.52,1.21c-.56-.1-1.04-.04-1.43.18-.39.22-.7.61-.94,1.15-.14.32-.18.62-.12.89.06.27.19.45.41.54.32.14.74-.15,1.24-.88.13-.18.22-.32.3-.41.73-1,1.38-1.64,1.95-1.93.57-.28,1.18-.29,1.84,0,.73.31,1.19.83,1.38,1.57.19.74.09,1.57-.31,2.5ZM124.1,57.26s0,0,0,0c0,0,0,0,0,0,0,0,0,0,0,0,0,0,0,0-.01,0,0,0,0,0,0,0ZM122.43,77.96c-.13,1.53-.47,2.63-1.03,3.31-.55.67-1.35.96-2.4.88-1.05-.09-1.79-.51-2.22-1.27-.43-.75-.58-1.9-.45-3.44l.18-2.1-2.35-.2c-.42-.04-.69,0-.8.1-.11.1-.18.34-.21.71l-.05.62-1.55-.13.56-6.57,1.55.13-.05.55c-.03.38,0,.63.09.75.09.12.35.19.77.23l5.96.51c.42.04.69,0,.8-.09.11-.1.18-.34.21-.73l.05-.55,1.54.13-.61,7.16ZM115.6,48.4l-.17-.47,1.45-.53,2.11,5.77-5.5,3.99,6.83-.36,2.18,5.96-1.45.53-.19-.51c-.13-.35-.26-.57-.38-.64-.12-.07-.39-.03-.8.12l-5.62,2.05c-.41.15-.65.29-.7.43-.05.14,0,.38.12.73l.19.51-1.46.53-2.06-5.65,1.46-.53.14.38c.13.34.25.56.37.64.12.08.4.04.82-.11l6.26-2.29-9.57.51-.88-2.41,7.68-5.64-6.25,2.28c-.4.15-.63.29-.69.42-.06.14-.02.39.11.75l.14.38-1.46.53-1.69-4.62,1.46-.54.17.47c.13.36.26.57.4.64.13.07.4.03.8-.12l5.62-2.05c.4-.15.63-.29.68-.42.06-.13.02-.38-.12-.75Z"/>
      <path class="cls-4" d="M99.85,94.81c-.14.17.08.82.33,1.18.05-.04.09-.09.13-.13.22-.26,0-.86-.2-1.03-.1-.08-.21-.08-.26-.02Z"/>
      <path class="cls-4" d="M91.29,104.82c.38-.22.3-1.17.08-1.54-.03-.05-.06-.1-.09-.14-.04.04-.09.06-.13.09-.14.08-.19.07-.2.05-.02-.04,0-.09-.06-.19-.05-.09-.12-.13-.12-.13-.35.21-.38,1.19-.13,1.6.16.27.39.41.65.26Z"/>
      <path class="cls-4" d="M45.51,96.49s.09-.08.12-.12c-.04-.04-.08-.08-.11-.11-.1-.12-.1-.17-.09-.19.03-.03.09-.02.18-.09.08-.07.11-.14.11-.14-.26-.31-1.23-.18-1.6.13-.24.2-.34.45-.15.68.28.34,1.21.11,1.53-.17Z"/>
      <path class="cls-4" d="M105.35,85.94c-.12-.06-.23-.03-.26.05-.09.2.3.81.64,1.09.22-.75-.19-1.05-.38-1.14Z"/>
      <path class="cls-4" d="M110.56,82.95c.15.03.33-.22.41-.57.07-.34-.29-.69-.82-.98-.06.8.26,1.52.41,1.56Z"/>
      <path class="cls-4" d="M95.84,74.94c.07,0,.11,0,.11,0,0,0,0,0,0,0,.01-.15-.08-.4-.35-.45-4.65-.93-7.05-1.46-11.2-2.91-.49-.15-.92-.2-1.3-.2-.68,0-3.29.51-3.29.51-1.05.18-2.03.63-2.87,1.29-.06.05-.13.09-.18.14,0,0-1.7,1.4-1.77,1.45-.14.12-.04.2.06.2.03,0,19.45-.02,20.76-.02h.03Z"/>
      <path class="cls-4" d="M49.61,50.75c-.24.47-.33,1.04-.32,1.65.03,2.43,1.9,5.42,2.44,6.58l2.66,5.69,1.84,3.93.24.51.43.92.15.32.08.17c-4.18,1.22-10.71,2.66-11.23,2.77-.02,0-.05.01-.05.01,0,0-.2,3.19,4.88,4.29.25.04,7.51,1.99,8.14,2.14,1.58.38,2.72,1.03,2.06,2.87-.12.41-.81,1.45-.45,4.45l1.99-.66.81-.27c1.49-.5,4.48-1.49,5.11-1.68,1.06-.32,1.89-1,2.46-1.6.21-.21.29-.62.32-.99.03-.4,0-.75,0-.75,0-.21,0-.42-.01-.62,0-.18-.01-.37-.02-.55l-.89,1.38c-.33.48-1.22,1.6-2.52,1.99-.48.15-1.01.32-1.74.56-.7.23-1.58.51-2.8.9-.1.03-.22.05-.34.05-.26,0-.45-.09-.52-.13-.08-.04-.15-.1-.2-.17-.22-.26-.26-.58-.13-.95.3-.89.41-1.6.53-2.29.08-.48.16-.93.28-1.39.09-.33.19-.61.3-.85l-.36.07s-.79.16-1.47.19c-.06,0-.13,0-.19,0-.16,0-.3,0-.43-.03-.44-.07-.97-.24-1.65-.48-.19-.07-.38-.13-.59-.21-1.91-.69-4.8-1.72-9.22-2.43-.04,0-.08-.02-.13-.03-.5-.18-.83-.61-.87-1.13-.04-.49.28-1.08.93-1.21,4.77-.96,7.04-1.57,11.04-2.97.13-.04.26-.07.39-.1l-.48-.29s-.03-.02-.04-.03c-.02-.02-.07-.05-.14-.1,0,0-.01,0-.02-.01-.22-.16-.63-.48-1.02-.82-.12-.11-.24-.22-.35-.34-.02-.02-.05-.05-.07-.07-.11-.12-.22-.24-.3-.35-1.82-2.49-2.64-4.77-3.44-6.97-.65-1.79-1.32-3.64-2.53-5.61-.07-.11-.12-.21-.15-.32-.02-.08-.03-.16-.04-.24,0-.02,0-.05,0-.07,0-.21.07-.41.2-.59,0,0,0,0,0,0,.02-.03.03-.07.06-.1.2-.22.47-.34.76-.34.23,0,.45.07.64.2,3.45,2.4,5.43,3.44,7.35,4.45.75.39,1.47.78,2.26,1.22.57.32,1.16.67,1.83,1.09.07.04.14.1.22.16.03.03.07.06.11.08.04.04.09.07.13.11.05.04.11.09.16.14.03.02.05.04.07.07.07.06.14.12.2.19.22.2.42.41.58.57.16.16.28.28.31.32.02.02.04.05.06.07l-.23-.97-.42-1.79c-.25-1.06-.28-2.16-.07-3.25.76-4.01,2.2-9.67,3.36-14.22.77-3.02,1.43-5.62,1.53-6.35.08-.6.55-1.03,1.12-1.03h0c.11,0,.21.02.31.06.06.02.11.04.17.06h0s0,0,0,0c.13.06.24.16.34.26.04.04.08.09.11.14.03.04.05.08.07.12.05.11.1.22.12.35.11.58.67,2.58,1.38,5.12,1.4,5.01,3.32,11.86,4,15.7.16.88.16,2.25,0,3.12l-.39,2.19c.4-.4,1.01-.99,1.4-1.24,1.58-1,2.8-1.64,4.08-2.32,1.92-1.01,3.9-2.05,7.35-4.45.18-.13,1-.36,1.5.13s.1,1.27.06,1.34c-1.21,1.95-1.88,3.81-2.52,5.6-.8,2.21-1.62,4.49-3.44,6.97-.18.25-.45.51-.73.76-.52.47-1.08.87-1.17.94l-.63.39c.14.03.27.07.41.11,4.22,1.47,6.72,2,11.13,2.89.65.13.96.72.93,1.2-.04.52-.37.96-.87,1.13-.04.01-.08.03-.13.03-4.42.71-7.3,1.75-9.22,2.43-.97.35-1.67.6-2.24.69-.13.02-.27.03-.43.03-.71,0-1.63-.19-1.67-.2l-.19-.05c.1.24.2.51.29.83.13.47.2.92.28,1.39.12.69.24,1.4.52,2.26.14.41.1.74-.13.99,0,0,0,0,0,.01-.17.19-.4.29-.66.29-.16,0-.3-.04-.39-.07-1.22-.39-2.11-.68-2.8-.9-.74-.24-1.26-.41-1.75-.56-1.3-.4-2.19-1.51-2.51-1.97l-1.26-1.95c0,.15,0,.31,0,.47,0,.13,0,.95,0,1.68,0,.53.05.77.34,1.12.57.65,1.45,1.43,2.63,1.79.63.19,3.62,1.18,5.11,1.68l2.25.75s0,0,0,0l.55.18c.16-1.37.1-2.32-.02-3-.01-.08-.03-.15-.04-.22-.14-.67-.34-1.03-.4-1.23-.21-.57-.22-1.02-.12-1.39.07-.25.19-.46.36-.64.4-.41,1.05-.66,1.81-.84.62-.15,7.89-2.1,8.14-2.14,4.76-1.03,4.88-3.9,4.88-4.25,0,0,0,0,0,0,0-.02,0-.03,0-.03,0,0,0,0,0,0,0,0-7.11-1.75-11.28-2.98,0,0,.05-.03.11-.07l.09-.19,1.71-3.66,3.44-7.35.03-.07s.07-.1.11-.16c.06-.09.12-.18.19-.29.02-.03.03-.05.05-.08s.03-.05.05-.08c.81-1.35,2.02-3.91,2.05-5.98,0-.6-.08-1.15-.32-1.62,0,0,0-.01,0-.02,0,0,0,0,0,0l-2.65,1.56s0,0,0,0l-12.99,7.65h0c.06-.12.11-.26.16-.41,1.49-4.96-4.92-25.75-7.01-27.97,0,0,0,0,0,0-.06-.06-.11-.11-.17-.15-.05-.03-.1-.06-.15-.06-.04,0-.1.03-.15.06-.05.04-.11.09-.17.15,0,0,0,0,0,0,0,0,0,0,0,0-.07.07-.14.16-.21.27,0,0,0,0,0,0-.07.11-.15.23-.24.37,0,0,0,0,0,0-.08.14-.17.3-.26.47,0,0,0,0,0,.01-.09.17-.18.36-.27.56,0,0,0,.01,0,.02-.09.2-.19.42-.29.65,0,0,0,0,0,.01-.1.23-.2.48-.31.74,0,0,0,0,0,0-.11.26-.21.53-.32.81,0,0,0,0,0,0-.39,1.02-.81,2.19-1.22,3.44-.48,1.44-.96,3.01-1.42,4.61-.04.13-.07.25-.11.38-.06.23-.13.46-.19.69-.05.17-.09.34-.14.51,0,0,0,.01,0,.02-.06.21-.11.41-.16.62-.05.2-.11.4-.16.61-.05.19-.1.38-.14.57-.05.22-.11.43-.16.65-.04.18-.09.37-.13.55-.05.22-.11.44-.16.66-.04.18-.08.35-.12.52-.05.22-.1.45-.15.67-.04.17-.07.34-.11.51-.05.22-.09.44-.13.66-.03.16-.06.33-.09.49-.04.22-.08.43-.12.65-.03.16-.06.31-.08.47-.04.21-.07.42-.1.62-.02.15-.05.3-.07.45-.03.2-.06.4-.08.59-.02.15-.04.29-.06.43-.02.19-.04.37-.06.56,0,.06-.01.13-.02.19,0,.07-.02.15-.02.22-.02.18-.03.35-.04.52,0,.13-.02.25-.02.38,0,.17-.01.32-.02.48,0,.11,0,.23,0,.34,0,.15,0,.3.01.44,0,.1,0,.21.01.3,0,.14.03.27.04.4,0,.08.02.17.03.25.02.14.05.26.08.38.01.06.02.12.04.18.05.17.1.32.17.45l-1.75-1.03-13.9-8.18Z"/>
      <path class="cls-4" d="M52.83,55.36c-.05-.05-.08-.09-.08-.09,0,0,0,.01-.01.02-.11.13-.07.3.02.45,2.75,4.46,2.71,8.12,5.94,12.53.16.22.41.46.68.7.51.45,1.06.84,1.06.84l2.87,1.76c.35.08,1.26.25,2.13.41,1.01.18,1.96.6,2.78,1.19.07.05.15.11.22.16.05.04.1.07.14.1.03.02,1.8,1.52,1.8,1.52,0,0,.76-.8-.23-1.8-.22-.22-4.16-4.28-8.24-8.47-4.16-4.28-8.45-8.69-9.07-9.32Z"/>
      <path class="cls-4" d="M67.99,74.96c-.06,0-.45,0-1.05,0-.27,0-.59,0-.95,0-4.9,0-17.1-.02-17.1-.02.01.15.09.4.4.51,6.66,1.07,9.94,2.89,11.45,3.12.1.01.21.02.32.02.65,0,1.52-.19,1.52-.19l2.55-.49h0l.06-.04c.19-.14.9-.63,1.59-1.11.59-.41,1.16-.81,1.39-.97.18-.11.26-.25.28-.39.02-.23-.16-.44-.46-.44Z"/>
      <path class="cls-2" d="M124.1,57.26h0s0,0,.01,0c0,0,0,0-.01,0Z"/>
      <path class="cls-2" d="M124.11,57.27s0,0,0,0c0,0,0,0,0,0,0,0,0,0,.01,0Z"/>
      <polygon class="cls-3" points="124.1 57.26 124.1 57.26 124.1 57.26 124.1 57.26"/>
      <polygon class="cls-3" points="124.11 57.27 124.11 57.27 124.11 57.27 124.11 57.27"/>
      <path class="cls-3" d="M124.11,57.27s0,0,0,0c0,0,0,0-.01,0,0,0,0,0,0,0h0s0,0,.01,0Z"/>
      <path d="M72.44,14.03c-32.42,0-58.79,26.37-58.79,58.79s26.37,58.79,58.79,58.79,58.79-26.37,58.79-58.79S104.86,14.03,72.44,14.03ZM72.44,128.61c-30.77,0-55.8-25.03-55.8-55.8s25.03-55.8,55.8-55.8,55.8,25.03,55.8,55.8-25.03,55.8-55.8,55.8Z"/>
      <path d="M35.97,77.87c.3-.06.51.22.57.21.11-.02.3-.21.23-.56-.06-.29-.38-.58-.78-.5-.75.15-1.21,1.54-.92,3.03.29,1.52,1.07,2.51,1.97,2.34,1.5-.29,1.07-4.51,2.01-4.69.46-.09,1.07.99,1.37,2.57.09.45,0,.73-.16.76-.15.03-.27-.18-.36-.16-.11.02-.15.18-.1.42.09.47.71,1.24,1.37,1.11.63-.12.98-.78.72-2.15-.42-2.17-1.68-3.76-2.83-3.54-1.47.28-1.04,4.29-2.05,4.49-.57.11-1.1-.66-1.34-1.9-.15-.77-.03-1.38.31-1.45Z"/>
      <path d="M40.54,90.56c.16-.08.51-.23.77-.31,1.04-.07,2.46-.33,3.02-.62.29-.15.44-.68.29-.96-.15-.29-1.8.25-2.85.62.03-.22.03-.45-.06-.62-.2-.37-.95-.65-1.66-.6,0,0,0,0,0,0-.81-.05-1.63-.51-1.81-.95-.12-.29.08-.57.3-.72.02.1.05.2.08.29.21.51.95.98,1.53.74.36-.15.55-.84.35-1.33-.18-.43-1.04-.7-1.75-.59-.72-.17-1.37-.63-1.51-1.04-.1-.3.12-.56.36-.69.01.1.03.21.06.3.17.53.87,1.05,1.47.86.38-.12.62-.8.45-1.3-.17-.52-1.31-.9-2.06-.65-.81.27-1.04.91-.83,1.54.22.66.99,1.04,1.53,1.2-.61.35-.76.93-.53,1.48.27.65,1.08.97,1.63,1.08-.49.29-.77.89-.51,1.38.15.29.63.38,1.02.39-.25.31-.42.73-.23,1.11.29.55,1.81.59,1.99.5.18-.09.21-.29.21-.29-.81.01-1.57-.16-1.7-.4-.05-.09.07-.24.43-.43ZM40.11,86.53c.03.07-.01.17-.14.22-.25.1-.87,0-1-.31-.02-.06-.05-.12-.06-.18.44-.05,1.12.07,1.2.27ZM39.15,84.03c.03.08-.03.17-.16.21-.26.08-.87-.06-.98-.39-.02-.06-.04-.12-.04-.18.44-.01,1.11.15,1.17.36ZM39.28,89.32c-.05-.09.06-.21.22-.29.52-.28,1.62-.16,1.71.02.04.08,0,.26-.24.54-.04.01-.07.03-.07.03-.07.02-.18.03-.3.03-.47,0-1.2-.11-1.32-.34Z"/>
      <path d="M43.66,97.03c.5.6,1.73.51,2.33,0,.16-.13.17-.42.16-.65.22-.31.12-.96-.17-1.31-.23-.27-1.06-.4-1.78-.06-.74.09-1.43,0-1.57-.21-.05-.06-.06-.23.17-.4.49-.35,1.02-.63,1.51-.83l.44.49c.18.21.23.29.34.22.11-.08.35-.46.18-.7-.04-.06-.14-.15-.28-.26.38-.11.71-.18.9-.18.11,0,.16,0,.21-.04.17-.12.18-.74,0-1-.08-.11-.23-.1-.45-.04-.35.1-.91.31-1.53.62l-.43-.27c-.13-.06-.25-.04-.31,0-.07.05-.01.13.01.17.04.05.14.16.29.32-.44.24-.9.52-1.33.83-.45.33-.43,1.02-.18,1.36.24.33.96.37,1.48.32-.42.49-.31,1.2.04,1.61ZM44.13,95.99c.37-.31,1.34-.44,1.6-.13,0,0-.02.07-.11.14-.09.08-.14.06-.18.09-.01.01-.02.06.09.19.03.03.06.08.11.11-.04.04-.08.08-.12.12-.33.28-1.25.51-1.53.17-.19-.23-.09-.48.15-.68Z"/>
      <path d="M52.23,99.55c-.08.09,0,.24.19.39.37.31,1.33.52,1.76.01.42-.49.27-1.23-.79-2.12-1.69-1.43-3.67-1.87-4.43-.98-.96,1.14,1.88,4,1.21,4.78-.38.44-1.28.18-2.23-.63-.6-.51-.89-1.06-.66-1.32.2-.23.53-.15.57-.19.07-.08.1-.35-.17-.58-.23-.19-.65-.21-.92.1-.49.58.02,1.96,1.18,2.93,1.18,1,2.41,1.29,3,.59.98-1.16-1.99-4.18-1.37-4.91.31-.36,1.45.1,2.68,1.14.35.3.46.57.35.7-.1.12-.32.03-.38.1Z"/>
      <path d="M59.69,106.61c.08-.18-.01-.36-.01-.36-.62.52-1.52.76-1.97.57-.29-.12-.34-.46-.28-.73.08.06.17.11.26.15.51.22,1.37.05,1.62-.53.16-.36-.19-.99-.67-1.2-.43-.19-1.25.22-1.67.8-.59.38-1.17.57-1.33.48-.13-.07-.08-.33.02-.53.16-.31.36-.62.65-.98.77-.48,1.76-1.33,2.01-1.81.21-.41-.12-.99-.38-1.13-.28-.14-1.55,1.37-2.36,2.45,0,0,0,0,0,0-.22.27-.61.5-.76.57,0,0-.02.01-.03.02-.02,0-.03.01-.05.02-.13.06-.25.11-.37.16,0,0,0,0-.01,0-.12.04-.22.07-.32.1-.02,0-.04,0-.05.01-.09.02-.17.04-.24.04-.01,0-.02,0-.03,0-.06,0-.11,0-.14-.01-.04-.03-.04-.09.04-.22.21-.34.7-.63.75-.71.08-.12-.03-.32-.15-.45.05-.02.09-.05.11-.09.11-.17-.05-.98-.45-1.24-.48-.3-1.76.04-2.25.81-.32.5-.25,1.19.23,1.5.29.18.76.02,1.1-.15-.13.31-.21.71.16.95.45.28,1.49-.2,1.85-.46-.02.03-.04.06-.05.08-.21.4-.25,1.24.3,1.53.35.18.99-.08,1.44-.35-.16.64.16,1.13.69,1.36.94.41,2.23-.48,2.31-.67ZM58.66,105.11c.07.03.11.14.05.26-.11.25-.63.61-.94.47-.06-.03-.11-.05-.17-.09.28-.34.85-.72,1.05-.64ZM52.11,103.78c-.1-.06-.05-.21.05-.36.35-.55,1.34-.94,1.49-.84.08.05.08.2.05.24-.06.09-.19.09-.21.11-.05.08-.04.23.07.35-.33.26-1.2.66-1.45.5Z"/>
      <path d="M64.11,107.92c-.09.44.28.69.58.75.46.1,1-.21,1.1-.69.08-.36-.14-.64-.49-.72-.51-.11-1.1.21-1.2.66Z"/>
      <path d="M71.6,109.63c-.07,0-.21.05-.2.25.02.44.83,1.15,1.35,1.13.06,0,.14-.15.2-.38.4.13.92.21,1.19.2,2.56-.12,4.27-2.42,4.21-3.66-.08-1.64-2.13-3.09-4.9-2.96-1.97.09-3.36.93-3.31,1.87.01.28.1.41.28.4.35-.58,1.9-1.14,3.1-1.19,2.79-.13,3.86.86,3.89,1.46.07,1.44-2.03,3.2-3.72,3.27-.21,0-.41,0-.61-.03.18-1.16.3-2.97.27-3.71-.01-.31-.69-.69-.88-.69-.09,0-.23.01-.22.23,0,.03.01.05.01.08.08.42.14,1.03.17,1.69.03.74.04,1.55-.02,2.23-.35-.1-.63-.2-.8-.19Z"/>
      <path d="M79.38,105.11c-.31.06-.59.5-.51.87.08.36.45.42.68.37.38-.08.77-.55.69-.95-.05-.24-.57-.35-.86-.29Z"/>
      <path d="M82.76,108.99c.72-.2,1.05-1.28,1.1-1.73.04.12.07.25.11.37.19.52.86.7,1.25.56.59-.21.85-1.71.78-1.9-.07-.19-.25-.25-.25-.25-.1.81-.42,1.53-.67,1.62-.08.03-.24,0-.34-.28-.2-.57-.31-1.15-.37-1.68l.59-.29c.25-.12.35-.14.31-.26-.05-.13-.35-.47-.62-.37-.07.02-.18.09-.33.19,0-.4.03-.73.08-.91.03-.11.04-.16.02-.21-.07-.19-.66-.38-.96-.28-.13.04-.16.19-.17.42,0,.36.03.96.16,1.65l-.38.34c-.09.11-.11.23-.08.3.03.08.12.05.17.04.06-.02.2-.09.39-.19.03.14.07.28.1.42,0,0,0,0,0,0,0,.11-.01.23-.03.33-.01.06-.02.11-.03.13,0,.01,0,.02-.01.04-.04.16-.08.31-.13.45,0,.02-.02.04-.02.07-.05.14-.11.27-.17.38,0,.02-.02.03-.02.04-.06.11-.12.21-.18.28,0,0-.01.01-.02.02-.06.07-.13.12-.18.14-.04.01-.12,0-.15-.09-.07-.27-.02-.7.05-1.02.07-.11.13-.31.11-.38-.04-.15-.61-.39-.78-.34-.13.04-.21.53-.22.71h-.3c.02-.24.04-.63,0-.76-.05-.19-.29-.47-.5-.41-.22.06-.34.9-.27,1.17.05.17.14.29.25.38-.21.74-.6,1.36-.85,1.41-.08.02-.18-.08-.21-.23-.11-.51-.06-1.08.02-1.37.02-.11.11-.23.09-.32-.04-.2-.55-.47-.87-.4-.16.03-.24,1.2-.01,2.31.11.52.65.65,1.06.56.61-.13,1.07-1.58,1.03-1.78,0-.01-.01-.02-.01-.04.23.1.46.11.58.11,0,.21.02.46.07.64.1.35.54.53.84.44Z"/>
      <path d="M87.01,104.72c.04.08.13.04.17.02.06-.03.18-.11.36-.23.16.47.36.97.6,1.45.25.5.94.59,1.31.41.36-.18.51-.85.56-1.37.42.46,1.12.46,1.57.2.67-.4.79-1.62.39-2.3-.11-.18-.38-.24-.61-.26-.27-.27-.93-.28-1.32-.05-.32.19-.59,1.04-.33,1.84-.05.7-.25,1.31-.46,1.42-.07.04-.24.02-.37-.24-.27-.54-.45-1.11-.57-1.63l.55-.36c.24-.15.33-.18.27-.3-.06-.12-.4-.42-.66-.29-.07.03-.17.12-.31.23-.05-.4-.06-.73-.03-.92.02-.11.02-.16,0-.21-.09-.18-.7-.3-.99-.16-.12.06-.14.21-.11.44.04.36.15.95.36,1.62l-.34.38c-.08.12-.08.24-.05.3ZM90.77,102.96s.06.04.12.13c.06.1.04.15.06.19,0,.01.06.03.2-.05.04-.02.08-.05.13-.09.04.04.06.09.09.14.22.37.29,1.32-.08,1.54-.25.15-.49,0-.65-.26-.25-.42-.22-1.4.13-1.6Z"/>
      <path d="M98.48,96c-1.08-1.23-3.58-1.09-5.67.74-1.48,1.3-2.05,2.81-1.43,3.52.18.21.33.26.47.14-.09-.67.77-2.07,1.68-2.86,2.1-1.84,3.55-1.73,3.95-1.28.95,1.09.41,3.76-.87,4.87-.16.14-.33.25-.5.35-.58-1.02-1.62-2.51-2.1-3.07-.21-.24-.98-.11-1.12.01-.07.06-.17.15-.03.32.02.02.04.03.06.05.33.28.75.72,1.18,1.21.49.56.99,1.19,1.37,1.76-.33.14-.61.24-.74.35-.05.05-.13.18,0,.32.29.33,1.37.38,1.76.04.05-.04.01-.2-.08-.42.4-.15.85-.41,1.05-.59,1.93-1.69,1.83-4.55,1.01-5.49Z"/>
      <path d="M101.65,90.8c.2-.33.13-.94-.21-1.15-.21-.13-.64.17-.8.42-.17.27-.05.77.27.97.31.19.61-.03.74-.24Z"/>
      <path d="M110.3,83.57c.4.09,1.19-.52,1.37-1.33.14-.64-.51-1.18-1.38-1.6.06-.19.1-.26.12-.36.01-.06-.03-.12-.09-.13-.22-.05-.44.04-.62.22-.69-.27-1.41-.47-1.93-.6-.1-.08-.19-.14-.23-.18-.09-.06-.25-.15-.34-.17-.2-.04-.62.16-.69.47-.03.15.02.23.29.37.3.16.75.28,1.21.38.32.36.51.71.46.95-.02.08-.12.12-.33.08-.39-.08-.94-.33-1.2-.55-.09-.06-.19-.17-.28-.19-.2-.04-.63.3-.7.62-.02.09.27.32.73.55,0,0,0,0,.02.01.21.09.28.21.28.21.11.11.21.22.3.33.02.02.03.05.05.07.04.05.07.09.1.14.07.09.13.18.18.27.03.05.05.09.08.13.05.09.08.16.11.24.01.03.03.07.04.1.03.1.04.18.02.24-.01.04-.06.1-.15.07-.26-.09-.6-.37-.82-.6-.06-.12-.19-.28-.26-.3-.14-.05-.66.29-.71.46-.04.13.33.46.46.57l-.16.25c-.2-.15-.52-.38-.63-.42-.19-.06-.55-.02-.62.19-.07.21.55.78.83.87.16.05.3.05.44.01.02.02.03.04.05.07.07.11.14.21.16.25.03.05.05.11.08.16.04.07.07.13.1.2.05.11.08.21.12.32.02.07.04.13.06.19.03.11.04.22.04.32,0,.05.01.11.01.15,0,.15-.02.28-.07.38-.12.26-.4.32-.65.28.37-1.03.1-1.68-.41-1.91-.36-.17-.99.16-1.22.63-.21.45.25,1.36.86,1.78-.13.14-.28.22-.43.25-.21-.24-.43-.44-.69-.56-.24-.11-.68.17-.82.45-.11.23.25.49.46.59.2.1.44.18.68.2.45.4.93,1.01.83,1.23-.08.16-.74-.04-1.23-.27-.55-.26-.51-.6-.57-.62-.14-.06-.54.06-.75.51-.06.13.12.41.51.68h0c.11.11.18.21.23.29.07.12.11.21.14.26.03.05.05.1.07.15.03.06.06.13.09.19.04.1.07.19.1.29.02.06.04.11.05.17.02.1.04.18.05.26,0,.04.01.08.02.12,0,.11,0,.19-.04.25-.04.07-.18.08-.31,0-.44-.27-.83-.7-.98-.96-.06-.09-.09-.24-.17-.29-.17-.11-.72.08-.89.35-.05.08.23.44.67.84,0,0,0,0,0,0,.13.14.19.3.22.37.31.64.41,1.26.3,1.42-.08.12-.33.04-.52-.1-.29-.2-.57-.44-.88-.78-.37-.83-1.08-1.93-1.52-2.24-.37-.27-1-.02-1.17.22-.03.04-.02.1.01.18.01.03.04.07.05.1.03.06.06.12.11.2.03.05.07.1.11.15.05.07.1.15.17.23.05.06.1.12.15.19.07.08.14.17.21.25.06.07.12.13.18.2.08.09.16.18.24.27.06.07.13.14.19.21.08.09.16.17.24.25.07.07.13.13.19.2.08.08.16.16.23.23.06.06.12.11.17.17,0,0,0,0,0,0,.08.08.16.25.21.36.02.05.04.1.05.11.27.69.21,1.51-.07,1.85-.2.24-.53.2-.78.07.08-.06.16-.14.22-.21.35-.43.42-1.3-.07-1.7-.3-.25-1-.09-1.33.32-.35.42-.06,1.58.56,2.09.66.54,1.32.39,1.74-.12.52-.64.29-1.73.1-2.19.01,0,.03.02.04.03.37.26,1.2.42,1.56-.09.27-.38-.02-1.23-.26-1.7.11.08.22.15.33.22.45.28.92-.02,1.14-.38.04-.06.06-.14.07-.22,0-.03,0-.05,0-.08,0-.06,0-.12,0-.18,0-.03,0-.07-.01-.1-.01-.06-.02-.13-.04-.19,0-.03-.02-.07-.03-.1-.02-.07-.05-.15-.08-.22,0-.02-.02-.05-.02-.07-.04-.09-.08-.19-.12-.27-.01-.02-.02-.04-.03-.06-.03-.06-.06-.12-.09-.17-.01-.02-.03-.05-.04-.07-.01-.02-.03-.05-.04-.07-.03-.04-.08-.12-.14-.19.6.27,1.52.53,1.97-.42.07-.15-.18-.96-.64-1.67.2-.12.38-.3.51-.47.66.21,1.18-.1,1.44-.64.06-.12.09-.25.11-.38,0-.05,0-.09,0-.14,0-.09,0-.17,0-.26,0-.06-.02-.11-.03-.16-.01-.08-.03-.16-.05-.23-.02-.06-.03-.11-.05-.16-.02-.07-.05-.14-.07-.21,0-.01-.01-.03-.02-.05-.07-.16-.28-.61-.52-1.01.16-.13.27-.28.32-.36.18.11.39.24.57.3.34.11.74-.16.83-.45.04-.12.04-.26.03-.39,0-.02,0-.05,0-.07-.02-.12-.05-.25-.1-.37,0-.02-.02-.05-.03-.07-.05-.12-.11-.23-.18-.34,0,0,0-.01-.01-.02-.07-.11-.15-.21-.23-.3,0,0-.02-.02-.02-.03-.03-.03-.1-.11-.19-.21.1.03.2.06.31.08.67.15,1.01-.18,1.1-.6.09-.41-.13-.83-.41-1.14.29.08.58.18.85.28-.18,1.22.51,2.44.88,2.52ZM110.15,81.39c.53.3.9.64.82.98-.08.35-.26.6-.41.57-.15-.03-.47-.75-.41-1.56ZM100.31,95.86s-.08.1-.13.13c-.25-.36-.47-1.02-.33-1.18.05-.06.16-.07.26.02.21.17.41.77.2,1.03ZM105.72,87.08c-.33-.28-.73-.89-.64-1.09.04-.07.14-.1.26-.05.19.09.6.39.38,1.14Z"/>
      <path d="M26.66,79.68h-.05c-.77.06-1.38-.06-1.8-.35-.43-.29-.66-.74-.7-1.33l-.03-.48,6.73-.46c.45-.03.72,0,.82.12.1.11.16.35.18.72l.06.85,1.55-.11-.49-7.19-1.55.11.06.91c.03.39,0,.64-.1.76-.1.12-.35.19-.77.22l-6.73.46-.03-.48c-.04-.6.13-1.08.52-1.43.39-.35.96-.55,1.73-.6h.05s-.11-1.6-.11-1.6l-4.14.28.79,11.51,4.14-.28-.11-1.62Z"/>
      <path d="M27.44,67.25c1.75.45,3.26.26,4.54-.57,1.28-.83,2.17-2.2,2.66-4.11.5-1.93.39-3.57-.32-4.92-.71-1.35-1.94-2.25-3.7-2.7-1.76-.45-3.27-.27-4.55.56-1.28.83-2.17,2.2-2.67,4.12-.5,1.93-.39,3.56.33,4.91.72,1.35,1.95,2.25,3.71,2.71ZM25.02,60.04c.18-.71.64-1.15,1.36-1.3.72-.16,1.79-.06,3.2.31,1.4.36,2.37.79,2.92,1.27.54.49.72,1.09.54,1.81-.18.71-.63,1.15-1.35,1.31-.72.16-1.79.06-3.21-.31-1.4-.36-2.37-.79-2.91-1.28-.55-.49-.73-1.09-.54-1.81Z"/>
      <path d="M31.47,50.63l-.04-.03c-.65-.42-1.06-.88-1.22-1.37-.17-.49-.09-.99.24-1.49l.26-.4,5.65,3.69c.38.25.57.44.58.59,0,.15-.09.37-.29.68l-.47.72,1.3.85,3.94-6.04-1.3-.85-.5.77c-.21.32-.39.51-.54.54-.15.04-.4-.06-.75-.29l-5.65-3.69.26-.4c.33-.51.76-.78,1.28-.83.52-.05,1.1.14,1.75.56l.04.03.88-1.34-3.47-2.27-6.3,9.66,3.47,2.27.88-1.36Z"/>
      <path d="M43,43.1c-.04.25-.17.47-.39.64l-.32.25.96,1.22,3.86-3.02-.96-1.22-.43.33c-.19.15-.36.25-.5.29-.14.04-.24.02-.29-.05-.05-.06-.09-.13-.13-.21-.04-.08-.08-.21-.14-.37l-.37-1.03,2.32-1.82,1.03.68c.06.04.12.09.18.15.06.05.11.11.17.18.08.1.1.2.05.29-.04.09-.23.27-.56.52l-.39.31.96,1.22,5.24-4.1-.96-1.22-.45.35c-.25.2-.47.29-.65.29-.18,0-.51-.16-.98-.48l-7.11-4.91-3.12,2.44,2.84,8.29c.14.4.19.73.14.98ZM45.24,37.18l-1.52,1.19-1.31-3.19,2.83,2Z"/>
      <path d="M53.05,27.33c.37-.12.62-.15.75-.08.13.06.26.29.39.7l1.81,5.7c.13.41.16.67.08.8-.07.13-.29.25-.66.37l-.53.17.47,1.48,9.84-3.12-1.38-4.36-1.62.51c.17.65.26,1.18.27,1.58.01.4-.04.73-.17,1.01-.1.22-.28.41-.52.56-.24.15-.69.33-1.34.54l-.7.22-2.08-6.57-.02-.08c-.12-.38-.14-.63-.06-.74.08-.12.29-.23.64-.34l.59-.19-.47-1.48-6.29,2,.47,1.47.53-.17Z"/>
      <path d="M86.54,33.94l-.17-.07c-.3-.11-.48-.24-.54-.38-.06-.14-.01-.4.13-.79l.88-2.3,2.84,1.09-.88,2.3c-.15.39-.29.61-.43.67-.14.06-.36.03-.66-.08l-.16-.06-.55,1.45,5.68,2.17.55-1.45-.52-.2c-.36-.14-.57-.27-.64-.4-.07-.13-.02-.4.13-.8l2.14-5.59c.15-.4.3-.62.43-.68.14-.05.38-.01.74.13l.52.2.55-1.45-5.68-2.17-.55,1.44.16.06c.31.12.49.24.55.38.06.13.02.4-.13.78l-.71,1.85-2.84-1.09.71-1.85c.15-.39.29-.61.42-.67.13-.06.35-.03.66.09l.17.07.55-1.45-5.68-2.17-.55,1.44.51.2c.36.14.58.27.64.4.06.13.02.39-.13.8l-2.14,5.59c-.16.42-.31.65-.45.69-.14.04-.38,0-.72-.14l-.51-.2-.56,1.45,5.68,2.17.56-1.45Z"/>
      <path d="M104.12,48.4l3.2-3.2-1.27-1.28c-.43.38-.8.67-1.14.86-.33.19-.65.32-.96.39-.26.04-.53,0-.79-.14-.26-.14-.66-.47-1.19-1l-1.37-1.37,2.42-2.41.31.31c.36.36.52.68.48.97-.04.29-.32.71-.85,1.27l.97.97,3.54-3.53-.97-.97-.07.07c-.43.43-.8.66-1.11.69-.31.03-.64-.13-.99-.48l-.3-.3,2.13-2.13.99.99.23.23c.47.47.78.84.93,1.11.15.27.22.56.22.85,0,.26-.06.53-.18.83-.12.3-.33.68-.63,1.13l1.23,1.23,2.89-2.89-8.13-8.14-1.1,1.09.38.38c.27.27.41.48.42.63,0,.15-.14.37-.44.67l-4.23,4.23-.06.06c-.29.29-.5.42-.64.4-.14-.02-.34-.16-.59-.41l-.39-.39-1.1,1.1,8.18,8.18Z"/>
      <path d="M108.61,51.74c-.13-.07-.26-.28-.4-.64l-.17-.47-1.46.54,1.69,4.62,1.46-.53-.14-.38c-.13-.36-.17-.61-.11-.75.06-.14.29-.28.69-.42l6.25-2.28-7.68,5.64.88,2.41,9.57-.51-6.26,2.29c-.42.16-.7.19-.82.11-.12-.08-.25-.29-.37-.64l-.14-.38-1.46.53,2.06,5.65,1.46-.53-.19-.51c-.13-.35-.17-.59-.12-.73.05-.14.28-.28.7-.43l5.62-2.05c.41-.15.68-.19.8-.12.13.07.25.28.38.64l.19.51,1.45-.53-2.18-5.96-6.83.36,5.5-3.99-2.11-5.77-1.45.53.17.47c.13.36.17.61.12.75-.06.13-.28.27-.68.42l-5.62,2.05c-.4.15-.67.19-.8.12Z"/>
      <path d="M121.5,70.67l-.05.55c-.03.39-.1.63-.21.73-.11.1-.37.13-.8.09l-5.96-.51c-.43-.04-.68-.11-.77-.23-.09-.12-.12-.37-.09-.75l.05-.55-1.55-.13-.56,6.57,1.55.13.05-.62c.03-.38.1-.61.21-.71.11-.1.38-.13.8-.1l2.35.2-.18,2.1c-.13,1.54.02,2.68.45,3.44.43.75,1.17,1.18,2.22,1.27,1.04.09,1.84-.2,2.4-.88.55-.67.9-1.78,1.03-3.31l.61-7.16-1.54-.13ZM120.93,76.52c-.06.74-.22,1.25-.48,1.53-.25.28-.66.39-1.21.34-.58-.05-.98-.24-1.2-.57-.22-.33-.3-.88-.23-1.63l.06-.71,3.12.27-.07.78Z"/>
      <path d="M27.64,93.95c-.48-.16-.82-.49-1.03-.97-.23-.54-.17-1.01.15-1.43.33-.42.98-.84,1.96-1.25.95-.4,1.68-.58,2.21-.53s.9.33,1.11.84c.19.44.18.85-.03,1.24-.2.39-.62.8-1.26,1.22l.55,1.29,2.97-1.26-.5-1.17-.48-.02c.04-.38.03-.75-.03-1.12-.06-.37-.17-.75-.34-1.14-.49-1.16-1.23-1.94-2.22-2.34-.99-.4-2.06-.35-3.22.14-1.22.52-2.02,1.25-2.4,2.2-.38.95-.3,2.05.23,3.29.45,1.06,1.06,1.78,1.82,2.14.77.36,1.64.35,2.61-.03l-.49-1.16c-.61.21-1.15.24-1.63.07Z"/>
      <path d="M38.99,101.6c.11-1.08-.25-2.19-1.09-3.33-.85-1.14-1.8-1.82-2.88-2.02-1.07-.21-2.13.07-3.17.84-1.03.77-1.61,1.69-1.72,2.78-.11,1.08.25,2.19,1.09,3.32.85,1.14,1.81,1.82,2.87,2.03,1.07.21,2.12-.07,3.16-.84,1.04-.77,1.62-1.7,1.73-2.78ZM37.06,100.32c-.24.47-.77,1.02-1.61,1.64-.83.62-1.5.96-2.02,1.05-.51.08-.93-.09-1.25-.52-.31-.42-.35-.87-.12-1.34.23-.47.77-1.02,1.61-1.64.83-.61,1.5-.96,2.02-1.04.52-.08.93.09,1.25.51.31.42.35.87.11,1.34Z"/>
      <path d="M47.11,109.39c.1,0,.26.08.47.25l.22.18.7-.85-2.66-2.19-.7.85.34.28c.21.17.32.3.34.41.02.1-.07.27-.27.52l-2.23,2.7,1.13-5.9-2.99-2.46-.7.85.3.24c.22.18.33.32.35.43.01.11-.08.27-.26.5l-2.72,3.3c-.19.23-.34.35-.45.36-.11,0-.27-.08-.48-.26l-.29-.24-.71.86,2.66,2.2.71-.86-.27-.22c-.21-.17-.32-.31-.34-.42-.01-.11.08-.28.27-.51l2.44-2.96-1.22,6.27,2.07,1.71,3.85-4.67c.19-.23.34-.35.45-.36Z"/>
      <path d="M54.96,112.66c-.27-.35-.57-.67-.9-.94-.34-.27-.72-.52-1.16-.73-.86-.43-1.65-.55-2.39-.38-.74.17-1.28.61-1.63,1.32-.16.33-.24.65-.23.98,0,.32.1.66.28,1.01.07.15.22.35.43.58.22.24.54.56.96.95.13.12.31.29.54.49.71.64.99,1.13.82,1.46-.11.22-.29.35-.55.39-.26.04-.54-.02-.86-.18-.52-.26-.9-.64-1.14-1.13-.23-.5-.3-1.06-.2-1.68l-1.01-.5-1.3,2.61.96.48.45-.26c.28.38.59.71.93.99.34.28.71.53,1.13.74.91.45,1.74.6,2.48.44.74-.15,1.29-.58,1.64-1.29.32-.64.35-1.25.1-1.83-.25-.59-.86-1.27-1.82-2.06-.09-.08-.23-.18-.4-.32-.7-.54-.97-.97-.81-1.29.1-.21.29-.33.56-.37.27-.04.57.01.88.17.53.27.9.6,1.1,1,.2.4.23.88.1,1.43l1.18.59,1.21-2.43-1-.5-.36.26Z"/>
      <path d="M62.88,115.99l.39.09c.27.06.43.14.49.22.06.08.05.28-.02.58l-.83,3.45c-.13.53-.33.89-.61,1.07-.28.18-.68.21-1.2.08-.44-.1-.72-.3-.84-.58-.13-.28-.12-.71.02-1.3l.8-3.36c.07-.29.15-.46.24-.51.09-.05.28-.05.55.02l.42.1.26-1.08-4.59-1.1-.26,1.07.39.09c.27.06.44.14.5.23.06.09.06.28-.01.57l-.89,3.74c-.18.76-.04,1.42.43,1.97.47.55,1.21.95,2.24,1.2,1.13.27,2.05.27,2.73-.02.69-.28,1.13-.83,1.32-1.64l.88-3.67c.06-.27.14-.44.24-.49.09-.05.27-.04.54.02l.35.08.26-1.08-3.53-.84-.26,1.07Z"/>
      <path d="M79.62,122.4c-.27,0-.44-.02-.52-.08-.08-.06-.13-.25-.14-.57l-.15-4.27c-.01-.31.02-.5.1-.57.08-.07.25-.11.52-.12h.39s-.04-1.12-.04-1.12l-4.53.16-1.27,4.71-1.49-4.62-4.39.15.04,1.1h.36c.28-.02.46,0,.53.08.08.07.12.25.13.56l.15,4.27c.01.3-.02.49-.1.57-.08.08-.25.12-.52.13h-.36s.04,1.12.04,1.12l3.51-.12-.04-1.11h-.29c-.27.02-.45-.01-.53-.08-.08-.07-.12-.26-.14-.56l-.16-4.75,2.13,6.47,1.83-.06,1.78-6.61.16,4.76c.01.32-.02.52-.11.58-.08.07-.25.1-.52.11h-.29s.04,1.12.04,1.12l4.29-.15-.04-1.11h-.39Z"/>
      <path d="M90.35,119.5c-.22.06-.39.07-.51.02-.12-.05-.3-.24-.52-.58l-3.4-5.15-2.72.79-.33,6.25c-.02.3-.07.53-.17.69-.09.16-.24.26-.43.32l-.28.08.31,1.07,3.36-.97-.31-1.07-.37.11c-.17.05-.3.07-.4.06-.1,0-.16-.05-.18-.11-.01-.05-.02-.11-.03-.18,0-.07,0-.16,0-.28l.03-.79,2.03-.59.5.73s.06.09.08.15c.02.05.04.1.06.16.03.09.01.16-.04.21-.06.05-.23.12-.51.2l-.34.1.31,1.07,4.57-1.32-.31-1.07-.39.11ZM84.44,118.57l-.02-2.46,1.34,2.08-1.32.38Z"/>
      <path d="M98.27,112.82c-.45-.13-1.01-.09-1.67.11.38-.4.61-.8.71-1.21.09-.41.03-.8-.18-1.18-.31-.56-.74-.85-1.3-.88-.56-.03-1.29.2-2.18.69l-4.13,2.27.53.97.34-.18c.24-.13.41-.19.52-.16.1.03.22.17.37.44l2.06,3.74.03.05c.14.25.19.43.14.52-.04.09-.18.2-.4.32l-.34.19.54.97,4.02-2.21c1.1-.61,1.81-1.18,2.11-1.73.31-.55.28-1.16-.09-1.83-.25-.46-.61-.76-1.05-.88ZM94.23,113.69l-1.01-1.83.41-.23c.36-.2.66-.27.89-.22.23.05.43.24.61.56.18.32.22.61.14.85-.08.24-.31.46-.67.66l-.37.21ZM97.11,115.78c-.08.27-.34.52-.75.75l-.44.24-1.2-2.18.43-.24c.4-.22.75-.3,1.03-.23.28.07.53.28.73.65.22.4.28.73.2,1Z"/>
      <path d="M105.65,107.08c.3.38.51.7.63.95.12.26.18.49.18.71,0,.18-.06.35-.18.52-.12.17-.36.42-.72.74l-.39.35-3.25-3.7-.04-.04c-.19-.21-.27-.37-.25-.47.02-.1.13-.23.32-.4l.33-.29-.73-.83-3.54,3.11.73.83.3-.26c.21-.18.36-.27.47-.27.1,0,.26.12.46.35l2.82,3.21c.2.23.3.4.28.5-.01.1-.12.25-.33.43l-.3.26.73.84,5.54-4.87-2.15-2.45-.91.8Z"/>
      <path d="M112.6,98.73c.32.26.56.49.74.71.17.22.3.43.38.63.06.18.06.37-.01.58-.07.2-.26.52-.57.95l-.82,1.12-1.97-1.44.18-.25c.21-.29.42-.44.63-.45.21,0,.54.14.99.45l.58-.79-2.89-2.1-.58.79.06.04c.35.26.56.49.61.71.05.22-.02.47-.23.75l-.18.24-1.74-1.27.59-.81.14-.19c.28-.38.51-.64.68-.78.18-.13.37-.22.57-.25.18-.03.38-.02.61.04.22.05.51.16.87.32l.73-1-2.36-1.72-4.84,6.64.89.65.23-.31c.16-.22.3-.35.4-.37.1-.02.28.06.52.24l3.45,2.52.05.03c.23.17.35.31.35.41,0,.1-.08.26-.23.47l-.23.32.9.66,4.87-6.68-2.61-1.9-.76,1.04Z"/>
      <path d="M118.64,88.42c-.65-.28-1.26-.28-1.84,0-.57.28-1.22.93-1.95,1.93-.07.1-.17.23-.3.41-.51.73-.92,1.02-1.24.88-.21-.09-.35-.27-.41-.54-.06-.27-.02-.57.12-.89.24-.55.55-.93.94-1.15.39-.22.86-.28,1.43-.18l.52-1.21-2.5-1.07-.44,1.03.28.35c-.34.28-.63.6-.89.95-.25.35-.48.75-.67,1.2-.38.88-.46,1.68-.25,2.41.21.73.68,1.24,1.4,1.55.34.14.66.2.99.18.32-.03.65-.14.99-.33.15-.08.33-.24.56-.47.23-.23.53-.57.9-1.01.12-.14.27-.33.46-.57.6-.75,1.07-1.05,1.41-.9.22.1.36.27.42.53.05.25.01.54-.13.87-.23.54-.59.94-1.07,1.2-.48.26-1.04.36-1.67.29l-.45,1.04,2.68,1.15.42-.98-.28-.44c.36-.3.68-.63.94-.99.27-.35.49-.74.67-1.17.4-.93.5-1.77.31-2.5-.19-.74-.66-1.26-1.38-1.57Z"/>
      <path d="M62.45,54.55c-4.93-2.92-15.32-8.7-15.32-8.7-.51,1-.64,2.34-.54,3.79.31,4.4,2.9,9.72,3.31,10.81l4.03,9.26-.42.1-10.48,2.57-2.28.55s.84,6.2,6.63,7.05c5.8.84,12,2.38,12,2.38,1.11.21-.54,2.42-.21,5.1l.33,3.88s2.79-.87,5.48-1.7c2.33-.72,4.58-1.42,4.85-1.5.74-.23,2.01-1.43,2.01-2.59.04-1.03.03-3.76.03-4.11,0-.33,0-.66-.02-.98,0-.26-.02-.51-.02-.76-.02-.61-.06-1.37-.1-2.03l-2.1,3.26c-.5.72-1.28,1.44-2.13,1.69-.94.29-2.03.66-4.56,1.46-.05.02-.09.02-.13.02-.1,0-.17-.04-.17-.04,0,0,0,0,0,0h0s7.56-7.3,7.56-7.3l1.21-1.17.25-.26.15-.16.42-.46.04-.04.16-.18c.35-.41.45-.85.34-1.32-.03-.14-.08-.28-.14-.42-.04-.1-.09-.19-.15-.29-.02-.03-.05-.07-.07-.11,0-.01-.02-.03-.03-.04-.04-.05-.07-.11-.11-.16l-.09-.13-.43-.63v-.03s-.68-.95-.68-.95l-2.6-3.75-1.07-4.5-.46-1.94c-.23-.97-.25-1.97-.06-2.95,1.29-6.82,4.65-18.75,4.9-20.6.03-.22.18-.41.41-.41v31.78c0,.7.25,1.38.71,1.92l.65.76,2.15-3.09,1.34-1.93.02-.09h0s1.37-2.05,1.37-2.05c0,0,1.13-1.19,1.66-1.53,3.93-2.49,5.68-2.77,11.45-6.78.26-.17.5-.04.56.03,0,0,0,0,0,0l-3.07,3.15-14.37,14.74-.52.53-.22.23c-.28.27-.38.51-.39.73,0,.06,0,.12.02.17,0,.04,0,.07,0,.1,0,.04.02.07.03.1.19.62.84.67,1.11.67.01,0,.03,0,.03,0,.02,0,.05,0,.07,0h.67c.32,0,.64.08.93.24.37.2.92.51,1.48.81.59.32,1.17.64,1.53.84l.45.32c.65.46,1.22.54,1.67,2.16.29,1.07.31,2.16.81,3.69.04.11.09.21,0,.3h0s-6.32-6.06-7-6.74c-.95-.95-2.5-.42-2.5.8,0,.98-.03.75-.04,1.73,0,.11,0,.71,0,1.32h0c0,.42.05,3.48.09,4.42,0,1.18,1.33,2.31,2.12,2.55.26.08,2.51.78,4.85,1.5h0c2.68.83,5.48,1.7,5.48,1.7l.33-3.88c.32-2.68-1.33-4.89-.21-5.1,0,0,6.2-1.53,12-2.38,5.8-.84,6.63-7.05,6.63-7.05l-2.28-.55-10.78-2.82,3.92-9.12c.41-1.09,3-6.41,3.31-10.81.1-1.45-.03-2.79-.54-3.79,0,0-10.38,5.77-15.31,8.7,0-7.21-9.98-34.54-9.98-34.54,0,0-8.61,23.61-9.83,32.73-.09.69-.15,1.31-.15,1.82ZM68.17,75.79c-.23.16-.8.56-1.39.97-.69.48-1.39.97-1.59,1.11l-.06.04h0l-2.55.49s-.88.19-1.52.19c-.12,0-.23,0-.32-.02-1.51-.23-4.79-2.05-11.45-3.12-.31-.11-.39-.36-.4-.51,0,0,12.19.02,17.1.02.36,0,.67,0,.95,0,.61,0,.99,0,1.05,0,.3,0,.48.21.46.44-.01.14-.1.28-.28.39ZM70.15,73.16c1,1,.23,1.8.23,1.8,0,0-1.78-1.5-1.8-1.52-.05-.04-.09-.07-.14-.1-.07-.06-.15-.11-.22-.16-.83-.6-1.78-1.01-2.78-1.19-.87-.16-1.78-.32-2.13-.41l-2.87-1.76s-.55-.39-1.06-.84c-.26-.23-.52-.48-.68-.7-3.23-4.41-3.19-8.07-5.94-12.53-.1-.15-.13-.31-.02-.45,0,0,0-.01.01-.02,0,0,.03.04.08.09.62.63,4.91,5.04,9.07,9.32,4.08,4.19,8.03,8.25,8.24,8.47ZM75.05,74.96c-.11,0-.2-.08-.06-.2.07-.05,1.77-1.45,1.77-1.45.06-.05.12-.09.18-.14.84-.66,1.82-1.11,2.87-1.29,0,0,2.61-.51,3.29-.51.38,0,.81.05,1.3.2,4.15,1.45,6.55,1.97,11.2,2.91.27.06.36.3.35.45,0,0,0,0,0,0,0,0-.04,0-.11,0h-.03c-1.3,0-20.73.02-20.76.02ZM65.09,59.5c-.02-.05-.03-.12-.04-.18-.03-.12-.06-.24-.08-.38-.01-.08-.02-.17-.03-.25-.02-.13-.03-.26-.04-.4,0-.1,0-.2-.01-.3,0-.14-.01-.29-.01-.44,0-.11,0-.23,0-.34,0-.16,0-.32.02-.48,0-.12.02-.25.02-.38.01-.17.02-.34.04-.52,0-.07.01-.15.02-.22,0-.06.01-.12.02-.19.02-.18.04-.37.06-.56.02-.14.04-.29.06-.43.03-.19.05-.39.08-.59.02-.15.05-.3.07-.45.03-.21.07-.41.1-.62.03-.15.05-.31.08-.47.04-.21.08-.43.12-.65.03-.16.06-.32.09-.49.04-.22.09-.44.13-.66.04-.17.07-.34.11-.51.05-.22.1-.44.15-.67.04-.17.08-.35.12-.52.05-.22.1-.44.16-.66.04-.18.09-.36.13-.55.05-.22.11-.43.16-.65.05-.19.09-.38.14-.57.05-.2.11-.4.16-.61.05-.21.11-.41.16-.62,0,0,0-.01,0-.02.05-.17.09-.34.14-.51.06-.23.13-.46.19-.69.04-.13.07-.25.11-.38.46-1.61.94-3.17,1.42-4.61.42-1.25.83-2.42,1.22-3.44,0,0,0,0,0,0,.11-.28.22-.55.32-.81,0,0,0,0,0,0,.1-.26.21-.5.31-.74,0,0,0,0,0-.01.1-.23.2-.45.29-.65,0,0,0-.01,0-.02.09-.2.19-.39.27-.56,0,0,0,0,0-.01.09-.17.17-.33.26-.47,0,0,0,0,0,0,.08-.14.16-.27.24-.37,0,0,0,0,0,0,.08-.11.15-.2.21-.27,0,0,0,0,0,0,0,0,0,0,0,0,.06-.06.11-.11.17-.15.05-.03.1-.06.15-.06.04,0,.1.03.15.06.05.04.11.09.17.15,0,0,0,0,0,0,2.09,2.21,8.5,23,7.01,27.97-.05.15-.1.29-.16.41h0s12.99-7.65,12.99-7.65c0,0,0,0,0,0l2.65-1.56s0,0,0,0c0,0,0,.01,0,.02.23.47.32,1.03.32,1.62-.02,2.06-1.23,4.63-2.05,5.98-.02.03-.03.05-.05.08s-.03.05-.05.08c-.07.11-.13.2-.19.29-.04.06-.08.11-.11.16l-.03.07-3.44,7.35-1.71,3.66-.09.19c-.07.04-.11.07-.11.07,4.17,1.22,11.28,2.98,11.28,2.98,0,0,0,0,0,0,0,0,0,.01,0,.03,0,0,0,0,0,0,0,.36-.12,3.22-4.88,4.25-.25.04-7.51,1.99-8.14,2.14-.76.18-1.41.43-1.81.84-.18.18-.3.39-.36.64-.1.37-.09.82.12,1.39.06.2.26.56.4,1.23.01.07.03.15.04.22.12.68.18,1.63.02,3l-.55-.18s0,0,0,0l-2.25-.75c-1.49-.5-4.48-1.49-5.11-1.68-1.17-.36-2.05-1.14-2.63-1.79-.29-.35-.34-.59-.34-1.12,0-.72,0-1.54,0-1.68,0-.16,0-.31,0-.47l1.26,1.95c.32.46,1.21,1.58,2.51,1.97.48.15,1.01.32,1.75.56.7.23,1.58.51,2.8.9.09.03.22.07.39.07.25,0,.49-.1.66-.29,0,0,0,0,0-.01.23-.26.28-.58.13-.99-.28-.86-.4-1.57-.52-2.26-.08-.48-.16-.93-.28-1.39-.09-.32-.18-.6-.29-.83l.19.05s.96.2,1.67.2c.16,0,.3,0,.43-.03.56-.09,1.26-.34,2.24-.69,1.91-.69,4.8-1.72,9.22-2.43.04,0,.08-.02.13-.03.5-.18.83-.61.87-1.13.04-.49-.28-1.07-.93-1.2-4.41-.89-6.91-1.42-11.13-2.89-.13-.04-.27-.08-.41-.11l.63-.39c.09-.06.65-.47,1.17-.94.28-.25.55-.52.73-.76,1.82-2.49,2.64-4.77,3.44-6.97.65-1.79,1.32-3.64,2.52-5.6.04-.07.43-.84-.06-1.34s-1.32-.26-1.5-.13c-3.45,2.4-5.43,3.44-7.35,4.45-1.29.68-2.5,1.32-4.08,2.32-.39.25-1,.84-1.4,1.24l.39-2.19c.15-.87.15-2.24,0-3.12-.68-3.84-2.6-10.7-4-15.7-.71-2.54-1.27-4.54-1.38-5.12-.02-.13-.07-.24-.12-.35-.02-.04-.05-.08-.07-.12-.03-.05-.07-.1-.11-.14-.1-.11-.21-.2-.34-.26,0,0,0,0,0,0h0c-.05-.03-.11-.05-.17-.06-.1-.03-.2-.06-.31-.06h0c-.57,0-1.04.44-1.12,1.03-.1.73-.76,3.33-1.53,6.35-1.16,4.55-2.6,10.21-3.36,14.22-.21,1.09-.18,2.19.07,3.25l.42,1.79.23.97s-.04-.05-.06-.07c-.04-.04-.15-.16-.31-.32-.16-.16-.37-.37-.58-.57-.07-.06-.14-.13-.2-.19-.03-.02-.05-.04-.07-.07-.05-.05-.11-.09-.16-.14-.05-.04-.09-.07-.13-.11-.04-.03-.07-.06-.11-.08-.08-.06-.16-.12-.22-.16-.66-.42-1.26-.77-1.83-1.09-.78-.44-1.51-.83-2.26-1.22-1.92-1.01-3.9-2.05-7.35-4.45-.19-.13-.41-.2-.64-.2-.29,0-.57.12-.76.34-.03.03-.04.06-.06.1,0,0,0,0,0,0-.13.18-.2.38-.2.59,0,.02,0,.05,0,.07,0,.08.01.16.04.24.03.11.08.22.15.32,1.21,1.97,1.88,3.82,2.53,5.61.8,2.21,1.62,4.49,3.44,6.97.08.11.19.23.3.35.02.02.05.05.07.07.11.11.23.23.35.34.39.35.8.66,1.02.82,0,0,.01,0,.02.01.07.05.12.09.14.1.01,0,.03.02.04.03l.48.29c-.13.03-.26.06-.39.1-4,1.4-6.27,2.01-11.04,2.97-.65.13-.96.72-.93,1.21.04.52.37.95.87,1.13.04.01.08.03.13.03,4.42.71,7.3,1.75,9.22,2.43.21.08.4.14.59.21.68.24,1.21.41,1.65.48.13.02.27.03.43.03.06,0,.13,0,.19,0,.68-.03,1.45-.19,1.47-.19l.36-.07c-.11.24-.2.52-.3.85-.12.46-.2.91-.28,1.39-.12.69-.24,1.4-.53,2.29-.13.37-.09.69.13.95.06.07.12.13.2.17.07.04.26.13.52.13.12,0,.24-.02.34-.05,1.22-.39,2.11-.68,2.8-.9.74-.24,1.26-.41,1.74-.56,1.3-.4,2.19-1.51,2.52-1.99l.89-1.38c0,.18.01.36.02.55,0,.2,0,.41.01.62,0,0,.02.35,0,.75-.03.37-.12.78-.32.99-.57.61-1.4,1.28-2.46,1.6-.63.19-3.62,1.18-5.11,1.68l-.81.27-1.99.66c-.36-2.99.34-4.04.45-4.45.66-1.84-.48-2.49-2.06-2.87-.62-.15-7.89-2.1-8.14-2.14-5.08-1.1-4.88-4.29-4.88-4.29,0,0,.03,0,.05-.01.52-.11,7.06-1.55,11.23-2.77l-.08-.17-.15-.32-.43-.92-.24-.51-1.84-3.93-2.66-5.69c-.54-1.16-2.41-4.15-2.44-6.58,0-.61.08-1.17.32-1.65l13.9,8.18,1.75,1.03c-.07-.13-.12-.28-.17-.45Z"/>
      <polygon points="70.18 97.45 70.18 94.52 70.98 94.52 70.98 93.7 68.41 93.7 68.41 94.52 69.21 94.52 69.21 97.45 70.18 97.45"/>
      <polygon points="73.38 97.45 73.77 97.45 74.66 95.29 74.98 97.45 75.95 97.45 75.31 93.7 74.35 93.7 73.6 95.7 72.85 93.7 71.88 93.7 71.25 97.45 72.22 97.45 72.54 95.29 73.38 97.45"/>
      <polygon class="cls-6" points="124.11 57.27 124.11 57.27 124.1 57.26 124.11 57.27"/>
      <polygon class="cls-6" points="124.1 57.26 124.1 57.26 124.1 57.26 124.1 57.26"/>
    </g>
  </g>
</svg>