<?xml version="1.0" encoding="UTF-8"?>
<svg xmlns="http://www.w3.org/2000/svg" xmlns:xlink="http://www.w3.org/1999/xlink" viewBox="0 0 103.62 103.62">
  <defs>
    <style>
      .cls-1 {
        fill: none;
      }

      .cls-2 {
        fill: #f4bf3d;
      }

      .cls-3 {
        fill: #231f20;
      }

      .cls-4 {
        fill: #12a578;
      }

      .cls-5 {
        fill: #fff;
      }

      .cls-6 {
        clip-path: url(#clippath);
      }

      .cls-7 {
        fill: #19572b;
      }
    </style>
    <clipPath id="clippath">
      <rect class="cls-1" x="4.85" y="2.74" width="95.7" height="95.7"/>
    </clipPath>
  </defs>
  <g id="bg">
    <rect class="cls-3" width="103.62" height="103.62"/>
  </g>
  <g id="Layer_2" data-name="Layer 2">
    <g class="cls-6">
      <g>
        <path class="cls-2" d="M43.9,74.05s-.04-.08-.04-.13c0,.03,0,.05.02.08,0,.01,0,.02,0,.03,0,0,0,.01,0,.01Z"/>
        <path class="cls-2" d="M43.88,74.01s0,.01,0,.02c0,0,0,0,0,.01,0-.01,0-.02,0-.03Z"/>
        <path class="cls-2" d="M43.9,74.05s0,0,0-.01c0,0,0,.01,0,.01h0s0,0,0,0Z"/>
        <path class="cls-2" d="M43.89,74.03s0,.02,0,.03c0,0,0-.01,0-.01,0,0,0,0,0-.01Z"/>
        <path class="cls-2" d="M61.57,74.1s.08-.01.12-.05c0,0,0,0,0,0,0,0,0,0,0,0-.04.04-.08.05-.12.05,0,0,0,0,0,0Z"/>
        <polygon class="cls-5" points="51.29 66.23 51.3 66.23 51.3 66.23 51.29 66.23"/>
        <path d="M31.89,66.21c5.99.96,8.95,2.6,10.3,2.81.09.01.19.02.29.02.58,0,1.37-.17,1.37-.17l2.3-.44s0,0,0,0l.05-.04c.18-.12.81-.57,1.43-1,.53-.37,1.04-.73,1.25-.87.16-.1.24-.23.25-.35.02-.21-.14-.4-.41-.4-.06,0-.4,0-.95,0-.25,0-.53,0-.85,0-4.41,0-15.39-.02-15.39-.02,0,.13.08.36.36.46Z"/>
        <path d="M35,48.06s0,.01,0,.02c-.1.12-.07.27.02.4,2.48,4.02,2.44,7.31,5.35,11.28.14.19.37.42.61.63.46.4.95.76.95.76l2.58,1.58c.31.07,1.14.23,1.92.37.91.16,1.76.54,2.51,1.07.07.05.13.1.2.15.04.03.09.06.13.09.03.02,1.62,1.37,1.62,1.37,0,0,.69-.72-.21-1.62-.19-.2-3.75-3.85-7.42-7.63-3.75-3.85-7.61-7.82-8.16-8.39-.04-.05-.08-.08-.08-.08Z"/>
        <path class="cls-5" d="M61.51,74.01s.08-.01.11-.05c0,0,0,0,0,0,0,0,0,0,0,0-.04.04-.08.05-.12.05,0,0,0,0,0,0Z"/>
        <path d="M56.6,64.28s-1.53,1.26-1.59,1.31c-.13.11-.04.18.06.18.02,0,17.51-.02,18.68-.02h.03c.07,0,.1,0,.1,0,0,0,0,0,0,0,0-.13-.07-.36-.32-.41-4.19-.84-6.34-1.31-10.08-2.62-.44-.14-.83-.18-1.17-.18-.61,0-2.96.46-2.96.46-.94.16-1.83.57-2.58,1.16-.05.04-.11.08-.17.12Z"/>
        <path d="M54.11,67.48s.06-.02.1-.02c.15,0,.29,0,.44.04.05.01.09.04.13.05.08.03.17.06.25.11.09.05.17.12.26.19.01.01.03.02.04.03.09.09.28.28.54.53,1.57,1.52,5.76,5.54,5.76,5.54h0s0,0,0,0c.06-.08.02-.16,0-.26-.45-1.37-.47-2.35-.73-3.32-.4-1.46-.92-1.54-1.5-1.95l-.41-.28c-.32-.17-.84-.46-1.37-.75-.5-.27-1-.55-1.33-.73-.25-.14-.54-.21-.83-.21,0,0,0,0,0,0h-.6s-.04,0-.06,0c0,0-.02,0-.03,0-.24,0-.83-.04-1-.6,0-.03-.02-.06-.03-.09,0-.03,0-.06,0-.09,0-.05-.01-.11-.01-.16.01-.2.1-.42.35-.66l.2-.2.47-.48,12.93-13.27,2.76-2.83s0,0,0,0c-.05-.06-.27-.18-.5-.03-5.19,3.61-6.77,3.86-10.31,6.1-.48.3-1.49,1.38-1.49,1.38l-1.22,1.81-.02.03v.07s-.01.01-.01.01l-1.21,1.73-1.93,2.78-.59-.68c-.41-.48-.64-1.09-.64-1.73v-28.6s0,0-.01,0c-.2,0-.33.17-.35.37-.22,1.67-3.25,12.4-4.41,18.54-.17.88-.15,1.78.06,2.66l.41,1.75.95,4.02v.03s2.35,3.38,2.35,3.38l.6.85v.03s.4.56.4.56l.08.12s.06.1.1.15c0,.01.02.02.02.04.02.03.04.06.06.1.05.09.1.18.14.26.06.13.1.26.13.38.03.15.04.29.03.43,0,.02,0,.04,0,.06-.02.14-.06.28-.13.41-.05.1-.12.19-.2.28l-.15.16-.03.04-.38.42-.13.14-.23.23-1.09,1.05-6.8,6.57h0s0,0,0,0c0,0,.06.03.15.03.03,0,.07,0,.11-.02,2.27-.72,3.25-1.06,4.1-1.32.19-.06.37-.14.55-.24.54-.31,1.02-.79,1.36-1.28l1.87-2.9.02-.03c.03.59.07,1.27.09,1.82,0,.23.02.45.02.69,0,0,0,0,0,0,0,.08,0,.17,0,.26h0c0,.21,0,.41.01.62,0,.23,0,1.65,0,2.75h0c0,.39-.01.75-.02.99,0,.09-.15,6.73-.27,7.72,0,.04,0,.64.01.86.17,1.82,1.28,1.88,1.49.4.05-.33.05-.73-.01-1.21-.15-.8-.28-7.78-.28-7.78-.02-.82-.07-2.93-.08-3.51,0-.21,0-.39,0-.47h0c0-.55,0-1.09,0-1.19,0-.88.04-.67.04-1.55,0-.26.08-.47.21-.65,0,0,0-.01,0-.02h0s0,0,0,0c0,0,.01-.01.02-.02.01-.02.03-.03.04-.04.04-.04.07-.08.11-.11.07-.06.13-.1.21-.15.03-.02.06-.03.1-.05.11-.05.22-.08.34-.09Z"/>
        <polygon class="cls-5" points="43.91 73.96 43.91 73.96 43.91 73.96 43.91 73.96 43.91 73.96"/>
        <polygon points="60.64 76.76 59.01 76.25 58.84 76.78 59.35 76.93 59.17 77.54 58.78 78.79 59.4 78.98 59.72 77.94 59.97 77.13 60.48 77.28 60.64 76.76"/>
        <polygon points="61.91 78.55 61.83 77.13 61.22 76.94 60.47 78.4 60.07 79.19 60.69 79.38 61.04 78.67 61.32 78.08 61.37 78.78 61.43 79.61 61.68 79.69 62.32 78.9 62.66 78.49 62.61 78.86 62.44 79.92 63.06 80.12 63.27 78.5 63.39 77.61 62.78 77.42 61.91 78.55"/>
        <path d="M76.63,64.29s0,0,0,0c0,0-6.4-1.58-10.15-2.68,0,0,.04-.02.1-.06l.08-.18,1.54-3.3,3.09-6.62.03-.07s.07-.09.1-.15c.05-.08.11-.16.17-.26.01-.02.03-.04.04-.07.01-.02.03-.05.04-.07.73-1.21,1.82-3.52,1.84-5.38,0-.54-.07-1.04-.28-1.46,0,0,0-.01,0-.02,0,0,0,0,0,0l-2.38,1.4h0l-11.69,6.88h0c.05-.11.1-.23.14-.37,1.34-4.47-4.43-23.18-6.31-25.17,0,0,0,0,0,0-.05-.06-.1-.1-.15-.14-.05-.03-.09-.05-.13-.05-.04,0-.09.02-.13.05-.05.03-.1.08-.15.14,0,0,0,0,0,0t0,0c-.06.06-.12.14-.19.24,0,0,0,0,0,0-.07.1-.14.21-.21.34,0,0,0,0,0,0-.07.13-.15.27-.23.42,0,0,0,0,0,.01-.08.16-.16.32-.25.5,0,0,0,.01,0,.02-.09.18-.17.38-.26.58,0,0,0,0,0,.01-.09.21-.18.43-.28.66,0,0,0,0,0,0-.09.23-.19.48-.29.73,0,0,0,0,0,0-.35.92-.73,1.97-1.1,3.09-.43,1.3-.87,2.71-1.28,4.15-.03.11-.07.23-.1.34-.06.21-.11.41-.17.62-.04.15-.09.31-.13.46,0,0,0,.01,0,.02-.05.19-.1.37-.15.56-.05.18-.1.36-.14.55-.04.17-.09.34-.13.51-.05.2-.1.39-.15.58-.04.16-.08.33-.12.49-.05.2-.09.4-.14.6-.04.16-.07.31-.11.47-.04.2-.09.4-.13.6-.03.15-.06.31-.1.46-.04.2-.08.4-.12.59-.03.15-.06.29-.09.44-.04.2-.07.39-.11.58-.03.14-.05.28-.07.42-.03.19-.06.38-.09.56-.02.14-.04.27-.06.4-.03.18-.05.36-.07.53-.02.13-.03.26-.05.39-.02.17-.04.34-.06.5,0,.06-.01.11-.02.17,0,.07-.01.13-.02.2-.01.16-.02.31-.04.47,0,.11-.02.23-.02.34,0,.15-.01.29-.01.43,0,.1,0,.21,0,.3,0,.14,0,.27,0,.4,0,.09,0,.18.01.27,0,.13.02.24.04.36,0,.07.01.15.03.22.02.12.05.23.07.34.01.05.02.11.03.16.04.15.09.29.15.41l-1.57-.92-12.51-7.36c-.22.43-.3.94-.29,1.48.03,2.19,1.71,4.88,2.19,5.92l2.39,5.12,1.65,3.54.22.46.39.83.13.28.07.16c-3.76,1.1-9.64,2.39-10.11,2.49-.02,0-.05,0-.05,0,0,0-.18,2.87,4.39,3.86.22.03,6.76,1.79,7.32,1.93,1.42.34,2.45.93,1.85,2.58-.1.37-.73,1.31-.41,4l1.79-.6.73-.24c1.34-.45,4.03-1.34,4.6-1.51.95-.29,1.7-.9,2.21-1.44.19-.19.26-.56.29-.89.03-.36,0-.67,0-.67,0-.19,0-.38-.01-.56,0-.17,0-.33-.02-.49l-.8,1.25c-.3.43-1.1,1.44-2.27,1.79-.43.13-.9.29-1.57.5-.63.2-1.42.46-2.52.81-.09.03-.2.05-.31.05-.23,0-.4-.08-.47-.12-.07-.04-.13-.09-.18-.15-.2-.23-.24-.52-.12-.85.27-.8.37-1.44.48-2.06.07-.43.14-.83.25-1.25.08-.3.17-.55.27-.77l-.32.06s-.71.15-1.32.17c-.06,0-.11,0-.17,0-.15,0-.27,0-.39-.03-.4-.06-.88-.22-1.49-.43-.17-.06-.34-.12-.53-.19-1.72-.62-4.32-1.55-8.29-2.19-.04,0-.08-.02-.11-.03-.45-.16-.75-.55-.78-1.02-.03-.44.25-.97.83-1.09,4.29-.86,6.34-1.41,9.94-2.67.12-.04.23-.07.35-.09l-.43-.26s-.02-.02-.04-.02c-.02-.01-.07-.05-.13-.09,0,0-.01,0-.02-.01-.2-.15-.57-.43-.92-.74-.11-.1-.22-.2-.32-.3-.02-.02-.04-.04-.06-.06-.1-.11-.2-.21-.27-.32-1.64-2.24-2.38-4.29-3.1-6.27-.58-1.61-1.18-3.28-2.28-5.05-.06-.09-.11-.19-.13-.29-.02-.07-.03-.15-.03-.22,0-.02,0-.04,0-.06,0-.19.06-.37.18-.53,0,0,0,0,0,0,.02-.03.03-.06.06-.09.18-.2.42-.3.69-.3.2,0,.4.06.57.18,3.1,2.16,4.89,3.1,6.61,4,.67.35,1.33.7,2.03,1.1.51.29,1.04.6,1.64.98.06.04.13.09.2.14.03.02.06.05.09.08.04.03.08.06.12.1.05.04.1.08.14.13.02.02.04.04.07.06.06.06.12.11.18.17.19.18.38.37.52.51s.25.26.28.29c.02.02.04.04.05.06l-.21-.87-.38-1.61c-.23-.96-.25-1.94-.06-2.93.68-3.61,1.98-8.7,3.02-12.79.69-2.71,1.29-5.06,1.38-5.71.07-.54.49-.93,1.01-.93h0c.1,0,.19.02.27.05.05.02.1.03.15.06h0s0,0,0,0c.12.06.22.14.3.24.04.04.07.08.1.13.02.04.04.07.06.11.05.1.09.2.11.31.1.52.6,2.32,1.24,4.61,1.26,4.51,2.99,10.68,3.6,14.13.14.79.14,2.03,0,2.81l-.35,1.97c.36-.36.91-.89,1.26-1.11,1.42-.9,2.52-1.48,3.67-2.08,1.73-.91,3.51-1.84,6.61-4,.16-.11.9-.33,1.35.12s.09,1.14.05,1.2c-1.09,1.76-1.69,3.43-2.27,5.04-.72,1.98-1.46,4.04-3.1,6.27-.16.22-.4.46-.66.69-.47.42-.97.78-1.06.84l-.57.35c.12.03.24.06.37.1,3.8,1.33,6.05,1.8,10.02,2.6.58.12.87.65.83,1.08-.04.47-.34.86-.78,1.02-.04.01-.07.02-.11.03-3.97.64-6.57,1.57-8.29,2.19-.88.31-1.51.54-2.01.62-.11.02-.24.03-.39.03-.64,0-1.47-.17-1.51-.18l-.17-.04c.09.21.18.46.26.75.11.42.18.82.25,1.25.1.62.21,1.26.47,2.03.13.37.09.66-.12.89,0,0,0,0,0,0-.15.17-.36.26-.59.26-.15,0-.27-.04-.35-.06-1.1-.35-1.9-.61-2.52-.81-.67-.22-1.14-.37-1.57-.5-1.17-.36-1.97-1.36-2.25-1.77l-1.13-1.75c0,.14,0,.28,0,.42,0,.12,0,.86,0,1.51,0,.48.04.69.3,1.01.51.58,1.31,1.29,2.36,1.61.57.17,3.26,1.06,4.6,1.51l2.02.67s0,0,0,0l.5.17c.15-1.23.09-2.08-.02-2.7-.01-.07-.02-.13-.03-.2-.13-.6-.31-.92-.36-1.1-.19-.52-.2-.92-.11-1.25.06-.22.17-.42.33-.58.36-.37.95-.59,1.63-.76.56-.14,7.1-1.89,7.32-1.93,4.28-.93,4.39-3.51,4.39-3.83,0,0,0,0,0,0,0-.02,0-.02,0-.03Z"/>
        <path class="cls-5" d="M61.68,79.69c.27.08.52.16.77.24l.16-1.07.06-.36-.34.41-.65.78Z"/>
        <path class="cls-5" d="M61.32,78.08l-.28.59-.35.72c.25.08.5.15.74.23l-.06-.83-.05-.71Z"/>
        <path class="cls-5" d="M69.44,60.91l3.53-8.2c.37-.98,2.7-5.77,2.98-9.73.09-1.31-.03-2.51-.48-3.41,0,0-9.34,5.2-13.78,7.83,0-6.49-8.98-31.09-8.98-31.09,0,0-7.75,21.25-8.85,29.45-.08.62-.13,1.18-.13,1.64-4.44-2.63-13.78-7.83-13.78-7.83-.46.9-.57,2.1-.48,3.41.28,3.96,2.61,8.74,2.98,9.73l3.63,8.33-.37.09-9.43,2.31-2.05.5s.75,5.58,5.97,6.34c5.22.76,10.8,2.14,10.8,2.14,1,.19-.48,2.18-.19,4.59l.3,3.49s2.51-.78,4.93-1.53c2.1-.65,4.12-1.28,4.36-1.35.67-.2,1.81-1.29,1.81-2.33,0-.24.02-.58.02-.95.01-1.09,0-2.51,0-2.75,0-.21,0-.41-.01-.62h0c0-.09,0-.17,0-.26,0,0,0,0,0,0,0-.23-.01-.46-.02-.69-.02-.55-.06-1.23-.09-1.82l-.02.03-1.87,2.9c-.34.49-.82.97-1.36,1.28-.18.1-.36.18-.55.24-.85.26-1.83.59-4.1,1.32-.04.01-.08.02-.11.02-.09,0-.15-.03-.15-.03,0,0,0,0,0,0h0s0,0,0,0c0,0,0,0,0,0,0,0,0,0,0,0h0s6.8-6.57,6.8-6.57l1.09-1.05.23-.23.13-.14.38-.42.03-.04.15-.16c.08-.09.14-.19.2-.28.07-.13.11-.27.13-.41,0-.02,0-.04,0-.06.01-.14,0-.28-.03-.43-.03-.12-.07-.25-.13-.38-.04-.09-.08-.17-.14-.26-.02-.03-.04-.06-.06-.1,0-.01-.02-.02-.02-.04-.03-.05-.06-.1-.1-.15l-.08-.12-.39-.56v-.03s-.61-.85-.61-.85l-2.34-3.38v-.03s-.96-4.02-.96-4.02l-.41-1.75c-.21-.87-.22-1.78-.06-2.66,1.16-6.14,4.19-16.87,4.41-18.54.03-.2.16-.36.35-.37,0,0,0,0,.01,0v28.6c0,.63.23,1.25.64,1.73l.59.68,1.93-2.78,1.21-1.73h0s.01-.08.01-.08l.02-.03,1.22-1.81s1.01-1.07,1.49-1.38c3.53-2.24,5.11-2.49,10.31-6.1.24-.15.45-.03.5.03,0,0,0,0,0,0l-2.76,2.83-12.93,13.27-.47.48-.2.2c-.25.24-.34.46-.35.66,0,.05,0,.1.01.16,0,.03,0,.06,0,.09,0,.03.02.06.03.09.18.56.76.6,1,.6,0,0,.02,0,.03,0,.02,0,.04,0,.06,0h.6s0,0,0,0c.29,0,.58.07.83.21.33.18.83.46,1.33.73.53.29,1.05.58,1.37.75l.41.28c.58.41,1.1.49,1.5,1.95.26.97.28,1.95.73,3.32.03.1.07.18,0,.26,0,0,0,0,0,0h0s-4.18-4.01-5.76-5.54c-.26-.25-.45-.44-.54-.53-.01-.01-.03-.02-.04-.03-.08-.08-.17-.14-.26-.19-.08-.05-.16-.08-.25-.11-.05-.02-.09-.04-.13-.05-.15-.04-.3-.05-.44-.04-.03,0-.07.01-.1.02-.12.02-.23.05-.34.09-.03.02-.07.03-.1.05-.07.04-.14.09-.21.15-.04.03-.07.07-.11.11-.01.02-.03.03-.04.04,0,0-.01.01-.02.02,0,0,0,0,0,0h0s0,.01,0,.02c-.13.18-.21.39-.21.65,0,.89-.03.67-.04,1.55,0,.1,0,.64,0,1.19h0c0,.07,0,.25,0,.46,0,.58.02,1.56.04,2.38.01.47.02.88.03,1.13,0,1.06,1.2,2.08,1.91,2.29.21.06,1.88.58,3.75,1.16l.39-1.25.19-.6-.51-.16.16-.52,1.64.51-.16.52-.51-.16-.25.81-.32,1.04c.23.07.45.14.68.21l.4-.79.74-1.46.61.19.08,1.42.87-1.12.61.19-.12.89-.22,1.61c.76.24,1.26.39,1.26.39l.3-3.49c.29-2.41-1.2-4.4-.19-4.59,0,0,5.58-1.38,10.8-2.14,5.22-.76,5.97-6.34,5.97-6.34l-2.05-.5-9.7-2.54ZM52.2,71.01s0-.02,0-.03h0s0,.02,0,.03c-.07.63-.45,1.31-.72,1.68.26-.38.65-1.06.72-1.68ZM43.94,74.01h0s0,0,0,0l-.03.04s0,0,0,0c.03.03.06.04.09.04-.06,0-.1-.03-.1-.03,0,0,0,0,0,0,0,0,0-.02,0-.03-.02-.03-.03-.06-.03-.1,0,.03.01.05.02.08-.01-.03-.03-.05-.02-.08,0,.04,0,.09.04.13h0s0,0,0,0h0s0,0,0,0c0,0,0,0,0,0h0s.04-.04.04-.04ZM48.88,66.53c-.2.14-.72.5-1.25.87-.62.43-1.26.88-1.43,1l-.05.04s0,0,0,0l-2.3.44s-.79.17-1.37.17c-.11,0-.21,0-.29-.02-1.35-.21-4.31-1.85-10.3-2.81-.28-.1-.35-.32-.36-.46,0,0,10.97.02,15.39.02.32,0,.61,0,.85,0,.55,0,.89,0,.95,0,.27,0,.43.19.41.4-.01.12-.09.25-.25.35ZM51.3,66.23s0,0,0,0h0s0,0,0,0ZM50.66,64.15c.9.9.21,1.62.21,1.62,0,0-1.6-1.35-1.62-1.37-.04-.03-.09-.06-.13-.09-.06-.05-.13-.1-.2-.15-.75-.54-1.6-.91-2.51-1.07-.78-.14-1.6-.29-1.92-.37l-2.58-1.58s-.5-.35-.95-.76c-.24-.21-.47-.43-.61-.63-2.9-3.97-2.87-7.26-5.35-11.28-.09-.14-.12-.28-.02-.4,0,0,0-.01,0-.02,0,0,.03.03.08.08.56.57,4.42,4.54,8.16,8.39,3.67,3.77,7.23,7.42,7.42,7.63ZM35.2,47.97s0,0,0,0c0,0,0,0,0,0,0,0,0,0-.01,0ZM55.07,65.78c-.1,0-.18-.08-.06-.18.06-.05,1.59-1.31,1.59-1.31.05-.04.11-.08.17-.12.75-.59,1.63-.99,2.58-1.16,0,0,2.35-.46,2.96-.46.34,0,.73.05,1.17.18,3.74,1.31,5.89,1.78,10.08,2.62.25.05.33.27.32.41,0,0,0,0,0,0,0,0-.04,0-.1,0h-.03c-1.17,0-18.66.02-18.68.02ZM61.69,74.05h0s0,0,0,0c0,0,0,0,0,0,0,0-.04-.04-.04-.04.02.02.04.04.04.04ZM61.69,74.06s0,0,0,0c0,0,0,0,0,0-.03.04-.07.05-.12.05,0,0,0,0,0,0,.04,0,.09,0,.12-.05ZM61.63,73.96s0,0,0,0c0,0,0,0,0,0-.03.04-.07.05-.11.05,0,0,0,0,0,0,.04,0,.09,0,.12-.05ZM72.24,68.15c-.22.03-6.76,1.79-7.32,1.93-.68.17-1.27.39-1.63.76-.16.16-.27.35-.33.58-.09.33-.08.73.11,1.25.05.18.23.5.36,1.1.01.07.02.13.03.2.11.61.16,1.46.02,2.7l-.5-.17s0,0,0,0l-2.02-.67c-1.34-.45-4.03-1.34-4.6-1.51-1.05-.32-1.85-1.03-2.36-1.61-.26-.32-.3-.53-.3-1.01,0-.65,0-1.39,0-1.51,0-.14,0-.28,0-.42l1.13,1.75c.29.41,1.09,1.42,2.25,1.77.43.13.91.29,1.57.5.63.2,1.42.46,2.52.81.08.03.2.06.35.06.23,0,.44-.09.59-.26,0,0,0,0,0,0,.21-.23.25-.52.12-.89-.26-.78-.36-1.42-.47-2.03-.07-.43-.14-.83-.25-1.25-.08-.29-.17-.54-.26-.75l.17.04s.86.18,1.51.18c.15,0,.27,0,.39-.03.5-.08,1.14-.3,2.01-.62,1.72-.62,4.32-1.55,8.29-2.19.04,0,.08-.02.11-.03.45-.16.75-.55.78-1.02.03-.44-.25-.97-.83-1.08-3.97-.8-6.22-1.27-10.02-2.6-.12-.04-.24-.07-.37-.1l.57-.35c.08-.06.59-.42,1.06-.84.25-.22.49-.47.66-.69,1.64-2.24,2.38-4.29,3.1-6.27.58-1.61,1.18-3.28,2.27-5.04.04-.06.39-.76-.05-1.2s-1.19-.23-1.35-.12c-3.1,2.16-4.89,3.1-6.61,4-1.16.61-2.25,1.18-3.67,2.08-.35.22-.9.75-1.26,1.11l.35-1.97c.14-.78.14-2.02,0-2.81-.61-3.46-2.34-9.63-3.6-14.13-.64-2.28-1.14-4.08-1.24-4.61-.02-.12-.06-.22-.11-.31-.02-.04-.04-.07-.06-.11-.03-.05-.06-.09-.1-.13-.09-.1-.19-.18-.3-.24,0,0,0,0,0,0h0s-.1-.04-.15-.06c-.09-.03-.18-.05-.27-.05h0c-.51,0-.94.39-1.01.93-.09.65-.68,3-1.38,5.71-1.04,4.09-2.34,9.18-3.02,12.79-.19.98-.17,1.97.06,2.93l.38,1.61.21.87s-.03-.04-.05-.06c-.03-.03-.14-.14-.28-.29s-.33-.33-.52-.51c-.06-.06-.12-.11-.18-.17-.02-.02-.04-.04-.07-.06-.05-.04-.1-.08-.14-.13-.04-.04-.08-.07-.12-.1-.03-.03-.06-.05-.09-.08-.07-.06-.14-.11-.2-.14-.6-.38-1.13-.69-1.64-.98-.7-.4-1.36-.75-2.03-1.1-1.73-.91-3.51-1.84-6.61-4-.17-.12-.37-.18-.57-.18-.26,0-.51.11-.69.3-.02.03-.04.06-.06.09,0,0,0,0,0,0-.12.16-.18.34-.18.53,0,.02,0,.04,0,.06,0,.07,0,.15.03.22.03.1.07.2.13.29,1.09,1.77,1.7,3.44,2.28,5.05.72,1.98,1.46,4.04,3.1,6.27.07.1.17.21.27.32.02.02.04.04.06.06.1.1.21.2.32.3.35.31.72.59.92.74,0,0,.01,0,.02.01.06.04.11.08.13.09.01,0,.02.02.04.02l.43.26c-.12.03-.23.06-.35.09-3.6,1.26-5.65,1.81-9.94,2.67-.58.12-.87.65-.83,1.09.03.47.34.86.78,1.02.04.01.07.02.11.03,3.97.64,6.57,1.57,8.29,2.19.19.07.36.13.53.19.61.22,1.09.37,1.49.43.11.02.24.03.39.03.06,0,.11,0,.17,0,.61-.02,1.3-.17,1.32-.17l.32-.06c-.1.22-.18.47-.27.77-.11.42-.18.82-.25,1.25-.1.62-.21,1.26-.48,2.06-.12.34-.08.62.12.85.05.06.11.11.18.15.06.03.23.12.47.12.11,0,.22-.02.31-.05,1.1-.35,1.9-.61,2.52-.81.66-.22,1.13-.37,1.57-.5,1.17-.36,1.97-1.36,2.27-1.79l.8-1.25c0,.16.01.33.02.49,0,.18,0,.37.01.56,0,0,.02.32,0,.67-.03.33-.1.71-.29.89-.51.55-1.26,1.15-2.21,1.44-.57.17-3.26,1.06-4.6,1.51l-.73.24-1.79.6c-.32-2.7.3-3.63.41-4,.6-1.66-.43-2.24-1.85-2.58-.56-.14-7.1-1.89-7.32-1.93-4.57-.99-4.39-3.86-4.39-3.86,0,0,.03,0,.05,0,.47-.1,6.35-1.39,10.11-2.49l-.07-.16-.13-.28-.39-.83-.22-.46-1.65-3.54-2.39-5.12c-.48-1.05-2.17-3.74-2.19-5.92,0-.55.08-1.06.29-1.48l12.51,7.36,1.57.92c-.06-.12-.11-.25-.15-.41-.01-.05-.02-.11-.03-.16-.03-.11-.05-.22-.07-.34-.01-.07-.02-.15-.03-.22-.01-.12-.03-.23-.04-.36,0-.09,0-.18-.01-.27,0-.13,0-.26,0-.4,0-.1,0-.2,0-.3,0-.14,0-.28.01-.43,0-.11.01-.22.02-.34.01-.15.02-.31.04-.47,0-.06.01-.13.02-.2,0-.06.01-.11.02-.17.02-.16.03-.33.06-.5.02-.13.03-.26.05-.39.02-.17.05-.35.07-.53.02-.13.04-.27.06-.4.03-.19.06-.37.09-.56.02-.14.05-.28.07-.42.03-.19.07-.39.11-.58.03-.15.06-.29.09-.44.04-.2.08-.39.12-.59.03-.15.06-.3.1-.46.04-.2.09-.4.13-.6.03-.16.07-.31.11-.47.05-.2.09-.4.14-.6.04-.16.08-.33.12-.49.05-.19.1-.39.15-.58.04-.17.09-.34.13-.51.05-.18.09-.36.14-.55.05-.19.1-.37.15-.56,0,0,0,0,0-.02.04-.15.08-.31.13-.46.06-.21.11-.41.17-.62.03-.11.07-.23.1-.34.41-1.44.85-2.85,1.28-4.15.37-1.13.75-2.18,1.1-3.09,0,0,0,0,0,0,.1-.25.2-.5.29-.73,0,0,0,0,0,0,.09-.23.19-.45.28-.66,0,0,0,0,0-.01.09-.21.18-.4.26-.58,0,0,0-.01,0-.02.08-.18.17-.35.25-.5,0,0,0,0,0-.01.08-.15.16-.3.23-.42,0,0,0,0,0,0,.07-.13.14-.24.21-.34,0,0,0,0,0,0,.07-.1.13-.18.19-.24t0,0s0,0,0,0c.05-.06.1-.1.15-.14.05-.03.09-.05.13-.05.04,0,.09.02.13.05.05.03.1.08.15.14,0,0,0,0,0,0,1.88,1.99,7.65,20.7,6.31,25.17-.04.14-.09.26-.14.37h0s11.69-6.88,11.69-6.88h0l2.38-1.4s0,0,0,0c0,0,0,.01,0,.02.21.42.29.92.28,1.46-.02,1.86-1.11,4.16-1.84,5.38-.01.02-.03.05-.04.07-.01.02-.03.04-.04.07-.06.1-.12.18-.17.26-.03.05-.07.1-.1.15l-.03.07-3.09,6.62-1.54,3.3-.08.18c-.06.04-.1.06-.1.06,3.76,1.1,10.15,2.68,10.15,2.68,0,0,0,0,0,0,0,0,0,.01,0,.03,0,0,0,0,0,0,0,.32-.1,2.9-4.39,3.83Z"/>
        <polygon class="cls-4" points="43.91 74.04 43.9 74.04 43.9 74.05 43.91 74.04"/>
        <polygon class="cls-4" points="43.9 74.04 43.9 74.04 43.9 74.04 43.9 74.04 43.94 74.01 43.94 74.01 43.9 74.04"/>
        <polygon class="cls-4" points="43.94 74.01 43.94 74.01 43.95 74 43.94 74.01"/>
        <path class="cls-4" d="M61.69,74.05s0,0,0,0c0,0,0,0,0,0h0s-.02-.02-.04-.04c0,0,.04.04.04.04Z"/>
        <path class="cls-7" d="M52.2,71.01c-.07.63-.45,1.31-.72,1.68.26-.37.65-1.05.72-1.68,0,0,0-.02,0-.03,0-.06.02-.13.02-.19,0,.06,0,.12-.02.19,0,0,0,.02,0,.03Z"/>
        <path class="cls-7" d="M43.86,73.93s0,.07.03.1c0,0,0-.01,0-.02,0-.03-.03-.05-.02-.08Z"/>
        <path class="cls-7" d="M43.9,74.05h0s0,0,0,0c0,0,0,0,0,0,0,0,.04.02.1.03-.03,0-.07-.01-.09-.04h0Z"/>
      </g>
    </g>
  </g>
</svg>