<?xml version="1.0" encoding="UTF-8"?>
<svg xmlns="http://www.w3.org/2000/svg" xmlns:xlink="http://www.w3.org/1999/xlink" viewBox="0 0 264.28 102.21">
  <defs>
    <style>
      .cls-1 {
        fill: none;
      }

      .cls-2 {
        fill: #f4bf3d;
      }

      .cls-3 {
        fill: #231f20;
      }

      .cls-4 {
        fill: #12a578;
      }

      .cls-5 {
        fill: #e56525;
      }

      .cls-6 {
        clip-path: url(#clippath);
      }

      .cls-7 {
        fill: #19572b;
      }
    </style>
    <clipPath id="clippath">
      <rect class="cls-1" x="3.08" y="3.91" width="258.33" height="91.86"/>
    </clipPath>
  </defs>
  <g id="BG">
    <rect class="cls-3" width="264.28" height="102.21"/>
  </g>
  <g id="LOGO">
    <g class="cls-6">
      <g>
        <path class="cls-4" d="M138.53,69.78s0,0,0,0c0,0,0,.01,0,.02h0s-5.01-4.84-5.01-4.84l-.1-.1s-.07-.04-.1-.05c0,0-.01,0-.02,0-.09-.05-.18-.08-.28-.11,0,0,0,0,0,0-.36-.09-.74,0-1,.31-.01.01-.03.03-.04.04,0,0,0,0,0,0h0s1.63,2.53,1.63,2.53c.36.52.91,1.03,1.52,1.21.67.2,1.45.47,3.25,1.04.08.02.15.05.21-.01,0,0,0,0,0,0,0,0,0,0,0,0h0s-.02-.02-.03-.03Z"/>
        <g>
          <path class="cls-5" d="M152.44,61.48l-7.69-2.01,2.79-6.5c.2-.54,1.14-2.51,1.78-4.71.29-.99.51-2.02.58-3,.07-1.04-.02-1.99-.38-2.7,0,0-7.4,4.12-10.92,6.2,0-5.14-7.12-24.63-7.12-24.63,0,0-6.14,16.84-7.01,23.34-.07.49-.1.94-.1,1.3-3.52-2.09-10.92-6.21-10.92-6.21-.36.71-.45,1.67-.38,2.7.07.97.29,2.01.58,3,.64,2.2,1.58,4.17,1.78,4.71l2.88,6.61-.3.07-7.47,1.83-1.63.39s.08.6.39,1.39c.53,1.35,1.73,3.26,4.34,3.64,4.13.6,8.56,1.69,8.56,1.69.79.15-.38,1.72-.15,3.64l.24,2.77s1.99-.62,3.91-1.21c1.66-.51,3.27-1.01,3.46-1.07.49-.15,1.28-.89,1.41-1.64,0-.07,0-.15,0-.22.02-.41.01-.82.02-1.23,0-.32.02-.64.01-.95,0-.43-.01-.85-.02-1.27-.07.66-.59,1.4-.73,1.53-.23.24-.52.5-.87.72-.26.17-.56.32-.89.42-.45.14-2.58.84-3.65,1.2l-.58.19-1.42.47c-.26-2.14.24-2.88.32-3.17.47-1.31-.34-1.77-1.47-2.05-.44-.11-5.62-1.5-5.8-1.53-1.92-.42-2.78-1.25-3.16-1.94-.34-.62-.32-1.12-.32-1.12,0,0,.02,0,.04,0,.35-.08,4.43-.97,7.4-1.8.21-.06.42-.12.61-.17l-.06-.12-.11-.23-.09-.18-.22-.47-.17-.37-1.31-2.81-1.89-4.05c-.31-.67-1.23-2.19-1.59-3.67-.08-.35-.15-.7-.15-1.03,0-.43.06-.84.23-1.18l3.74,2.2,1.3.76,3.89,2.29.98.57,1.24.73c-.05-.09-.09-.2-.12-.32-.01-.04-.02-.09-.03-.13-.02-.09-.04-.17-.06-.27,0-.06-.01-.12-.02-.18-.01-.09-.02-.19-.03-.29,0-.07,0-.14,0-.21,0-.1,0-.2,0-.31,0-.08,0-.16,0-.24,0-.06,0-.12,0-.18,0-.05,0-.11,0-.16,0-.09.01-.18.02-.27,0-.12.02-.24.03-.37,0-.05.01-.1.02-.16,0-.04,0-.09.01-.13.01-.13.03-.26.04-.4.01-.1.03-.2.04-.31.02-.14.04-.28.06-.42.02-.11.03-.21.05-.32.02-.15.05-.29.07-.45.02-.11.04-.22.06-.33.03-.15.06-.31.09-.46.02-.12.04-.23.07-.35.03-.15.06-.31.1-.47.03-.12.05-.24.08-.36.03-.16.07-.32.1-.48.03-.12.06-.25.08-.37.04-.16.07-.32.11-.47.03-.13.06-.26.09-.39.04-.15.08-.31.12-.46.03-.14.07-.27.1-.41.04-.14.08-.29.11-.43.04-.15.08-.3.12-.44,0,0,0,0,0-.01.03-.12.07-.24.1-.37.04-.16.09-.33.14-.49.03-.09.05-.18.08-.27.21-.74.43-1.47.65-2.17.12-.38.24-.76.36-1.12.03-.09.06-.17.09-.26.27-.79.53-1.54.78-2.19,0,0,0,0,0,0,.08-.2.15-.39.23-.58,0,0,0,0,0,0,.07-.18.15-.36.22-.52,0,0,0,0,0,0,.07-.16.14-.32.21-.46,0,0,0,0,0-.01.07-.14.13-.28.2-.4,0,0,0,0,0,0,.06-.12.12-.23.18-.34,0,0,0,0,0,0,.06-.1.11-.19.17-.27,0,0,0,0,0,0,.05-.08.1-.14.15-.19,0,0,0,0,0,0,0,0,0,0,0,0,.04-.04.08-.08.12-.11.04-.02.07-.04.11-.04.03,0,.07.02.11.04.04.03.08.06.12.11,0,0,0,0,0,0,.35.37.86,1.46,1.43,2.95.24.62.48,1.31.73,2.04,1.58,4.69,3.23,11.31,2.96,14.23-.03.27-.07.52-.13.72-.03.11-.07.21-.11.29h0s.46-.27.46-.27l5.25-3.09,1.7-1,1.86-1.09s0,0,0,0l1.89-1.11s0,0,0,0c0,0,0,0,0,.01.17.34.23.73.22,1.16,0,.33-.05.68-.13,1.03-.26,1.22-.88,2.49-1.33,3.23-.01.02-.02.04-.03.06-.01.02-.02.04-.03.05-.05.08-.09.14-.13.21-.03.04-.05.08-.08.12l-.02.05-2.45,5.24-1.17,2.5-.05.11-.06.14s-.08.05-.08.05c.39.11.81.23,1.25.35,2.96.82,6.8,1.77,6.8,1.77,0,0,0,0,0,0,0,0,0,0,0,.02,0,0,0,0,0,0,0,.11-.01.56-.31,1.09-.34.61-1.05,1.32-2.51,1.77-.21.06-.42.12-.66.17-.18.03-5.36,1.42-5.8,1.53-.54.13-1,.31-1.29.6-.06.06-.11.13-.15.2-.05.08-.09.17-.11.26-.07.26-.06.58.09.99.04.14.18.4.28.88,0,.05.02.1.03.16.09.48.13,1.16.01,2.14l-.39-.13s0,0,0,0l-1.6-.53c-1.06-.35-3.2-1.06-3.65-1.2-.29-.09-.54-.22-.77-.36-.46-.27-.83-.61-1.1-.92-.05-.06-.09-.13-.13-.19-.31-.45-.49-.92-.62-1.36,0,.15,0,.32,0,.5h0c0,.18.01,1.08.03,1.89.01.52.02,1,.03,1.26,0,.84.95,1.65,1.51,1.82.19.06,1.79.55,3.46,1.07h0c1.91.59,3.91,1.21,3.91,1.21l.24-2.77c.23-1.91-.95-3.49-.15-3.64,0,0,4.42-1.09,8.56-1.69,2.61-.38,3.81-2.28,4.34-3.64.31-.79.39-1.39.39-1.39l-1.63-.39Z"/>
          <path class="cls-7" d="M26.42,54.95h.91v-.03c0-.43.09-.77.27-.99.18-.23.44-.34.77-.34h.27v3.77c0,.25-.03.4-.1.45-.07.05-.2.07-.41.07h-.48v.87h4.03v-.87h-.51c-.22,0-.36-.03-.42-.09s-.09-.2-.09-.44v-3.77h.27c.34,0,.6.11.78.34.18.23.27.56.27.99v.03h.9v-2.32h-6.45v2.32Z"/>
          <path class="cls-7" d="M38.92,52.44c-1.11,0-1.98.29-2.61.87-.63.58-.95,1.37-.95,2.39s.31,1.8.94,2.38,1.5.87,2.6.87,1.99-.29,2.62-.86c.63-.57.95-1.37.95-2.38s-.31-1.81-.94-2.39c-.63-.58-1.5-.87-2.6-.87ZM39.82,57.46c-.19.36-.49.54-.91.54s-.71-.18-.9-.55-.28-.96-.28-1.78.09-1.39.28-1.76.49-.55.9-.55.71.18.9.55c.19.37.28.96.28,1.78s-.09,1.4-.28,1.76Z"/>
          <path class="cls-7" d="M44.95,54.95h.91v-.03c0-.43.09-.77.27-.99.18-.23.44-.34.77-.34h.27v3.77c0,.25-.03.4-.1.45-.07.05-.2.07-.41.07h-.48v.87h4.03v-.87h-.51c-.22,0-.36-.03-.42-.09s-.09-.2-.09-.44v-3.77h.27c.34,0,.6.11.78.34.18.23.27.56.27.99v.03h.9v-2.32h-6.45v2.32Z"/>
          <path class="cls-7" d="M59.24,57.79c-.08-.06-.17-.25-.27-.55l-1.44-4.61h-2.22l-1.61,4.63c-.08.22-.17.38-.27.48s-.24.15-.39.15h-.23v.87h2.74v-.87h-.3c-.14,0-.24-.01-.32-.04s-.11-.07-.11-.12c0-.04,0-.09.02-.14.01-.05.03-.12.07-.21l.19-.58h1.65l.22.66s.02.08.03.13c0,.04.01.09.01.14,0,.07-.03.12-.08.15-.05.02-.19.04-.43.04h-.28v.87h3.72v-.87h-.32c-.18,0-.31-.03-.39-.1ZM55.38,55.91l.52-1.86.56,1.86h-1.08Z"/>
          <path class="cls-7" d="M66.41,57.09c-.06.21-.15.38-.26.51-.09.1-.22.17-.37.21-.16.04-.42.06-.81.06h-.41v-3.9c0-.22.03-.36.09-.41.06-.05.19-.07.4-.07h.35v-.87h-3.69v.87h.31c.22,0,.36.03.42.08.06.06.09.2.09.44v3.35c0,.24-.03.39-.09.44-.06.06-.2.08-.41.08h-.31v.87h5.77v-2.56h-.95c-.02.38-.06.67-.12.89Z"/>
          <path class="cls-7" d="M78.99,53.49h.1c.18,0,.31.03.36.09.06.06.09.2.09.44v1.11h-1.7v-1.11c0-.23.03-.38.08-.44.06-.06.18-.09.36-.09h.1v-.87h-3.4v.87h.31c.22,0,.36.03.42.08.06.05.09.2.09.44v3.35c0,.25-.03.4-.1.45-.07.05-.2.07-.41.07h-.31v.87h3.4v-.87h-.1c-.18,0-.3-.03-.36-.09-.06-.06-.09-.21-.09-.44v-1.37h1.7v1.37c0,.23-.03.38-.09.44-.06.06-.18.09-.36.09h-.1v.87h3.4v-.87h-.31c-.21,0-.35-.03-.41-.08-.06-.06-.09-.2-.09-.44v-3.35c0-.24.03-.38.09-.44.06-.05.2-.08.41-.08h.31v-.87h-3.4v.87Z"/>
          <path class="cls-7" d="M90.06,57.02c-.06.21-.13.39-.23.53-.09.12-.21.21-.37.26s-.45.08-.87.08h-1.08v-1.91h.25c.28,0,.47.06.57.19.1.13.16.41.17.83h.77v-2.8h-.77v.05c0,.34-.06.58-.17.71-.11.13-.31.2-.58.2h-.24v-1.68h.97c.37,0,.64.02.81.07.17.05.31.13.42.25.1.1.19.23.26.4.07.17.14.4.2.7h.97v-2.28h-6.43v.87h.3c.22,0,.36.03.42.08.06.06.09.2.09.44v3.39c0,.23-.03.36-.1.41-.06.05-.2.07-.4.07h-.31v.87h6.47v-2.53h-1.01c-.02.32-.05.58-.11.79Z"/>
          <path class="cls-7" d="M98.3,56.28l-1.04-3.65h-3.44v.87h.28c.22,0,.35.03.41.08.06.06.09.2.09.44v3.35c0,.24-.03.39-.09.44-.06.06-.2.08-.41.08h-.28v.87h2.75v-.87h-.23c-.21,0-.35-.03-.41-.08-.06-.06-.09-.2-.09-.44v-3.72l1.49,5.12h1.44l1.57-5.13v3.73c0,.25-.03.4-.1.45-.07.05-.2.07-.41.07h-.23v.87h3.36v-.87h-.3c-.21,0-.34-.03-.41-.08-.06-.05-.09-.2-.09-.45v-3.35c0-.24.03-.39.09-.44.06-.05.2-.08.41-.08h.3v-.87h-3.55l-1.12,3.65Z"/>
          <path class="cls-7" d="M111.2,53.04c-.4-.28-1.03-.41-1.89-.41h-4.02v.87h.31c.22,0,.36.03.42.08.06.06.09.2.09.44v3.35c0,.24-.03.39-.09.44-.06.06-.2.08-.41.08h-.31v.87h3.69v-.87h-.35c-.21,0-.35-.03-.41-.08-.06-.06-.09-.2-.09-.44v-1.32h1.18c.86,0,1.49-.14,1.89-.41.4-.27.6-.71.6-1.3s-.2-1.02-.6-1.29ZM109.44,55.08c-.18.14-.47.21-.9.21h-.4v-1.75h.44c.42,0,.71.06.87.19.17.13.25.35.25.66,0,.33-.09.56-.26.7Z"/>
          <path class="cls-7" d="M153.86,57.58c-.26.3-.6.44-1.02.44-.46,0-.78-.18-.99-.55-.2-.37-.3-.97-.3-1.8s.1-1.39.29-1.76.51-.55.94-.55c.37,0,.67.13.89.4.22.27.38.69.49,1.28h1.1v-2.52h-1l-.16.34c-.26-.15-.53-.25-.82-.32s-.6-.1-.93-.1c-.99,0-1.78.3-2.37.89-.59.59-.88,1.38-.88,2.36,0,1.04.28,1.84.85,2.4.57.56,1.38.84,2.44.84.9,0,1.6-.22,2.1-.66.5-.44.75-1.07.78-1.89h-.99c-.03.5-.18.9-.45,1.2Z"/>
          <path class="cls-7" d="M160.18,52.44c-1.11,0-1.98.29-2.61.87-.63.58-.95,1.37-.95,2.39s.31,1.8.94,2.38,1.5.87,2.6.87,1.99-.29,2.62-.86c.63-.57.95-1.37.95-2.38s-.31-1.81-.94-2.39c-.63-.58-1.5-.87-2.6-.87ZM161.08,57.46c-.19.36-.49.54-.91.54s-.71-.18-.9-.55-.28-.96-.28-1.78.09-1.39.28-1.76.49-.55.9-.55.71.18.9.55c.19.37.28.96.28,1.78s-.09,1.4-.28,1.76Z"/>
          <path class="cls-7" d="M169.34,53.49h.35c.21,0,.34.03.41.08.06.05.1.2.1.45v2.74l-2.26-4.13h-3.03v.87h.3c.22,0,.36.03.42.09.06.06.09.2.09.44v3.35c0,.23-.03.38-.09.44s-.2.09-.42.09h-.3v.87h2.7v-.87h-.27c-.21,0-.35-.03-.41-.08-.06-.06-.09-.2-.09-.44v-3l2.38,4.39h2.1v-4.74c0-.24.03-.38.09-.44.06-.05.2-.08.41-.08h.22v-.87h-2.7v.87Z"/>
          <path class="cls-7" d="M176.56,54.78c-.09-.02-.22-.05-.39-.08-.68-.14-1.02-.35-1.02-.62,0-.18.09-.33.27-.46s.4-.19.68-.19c.47,0,.84.11,1.12.32.28.21.47.54.57.97h1.03v-2.13h-.88l-.17.31c-.31-.15-.63-.27-.96-.34-.33-.07-.69-.11-1.07-.11-.75,0-1.35.19-1.81.57-.46.38-.68.87-.68,1.49,0,.29.06.54.18.77.12.22.3.43.55.61.1.08.27.17.51.26.24.09.57.2,1,.33.13.04.32.09.55.16.72.2,1.08.45,1.08.74,0,.19-.08.34-.25.46-.17.12-.39.18-.67.18-.46,0-.86-.13-1.19-.4s-.58-.64-.72-1.11h-.88v2.28h.84l.23-.34c.33.17.66.29,1,.37.34.08.69.12,1.05.12.79,0,1.42-.18,1.89-.55.47-.37.7-.86.7-1.48,0-.56-.19-1-.57-1.32s-1.04-.59-1.99-.81Z"/>
          <path class="cls-7" d="M184.31,53.49h.31c.21,0,.35.03.41.08.06.05.09.2.09.44v2.78c0,.43-.09.74-.27.92-.18.19-.48.28-.9.28-.35,0-.6-.1-.75-.29s-.22-.52-.22-1v-2.7c0-.23.03-.38.09-.44.06-.06.2-.09.42-.09h.34v-.87h-3.69v.87h.31c.22,0,.36.03.42.09.06.06.09.2.09.44v3.01c0,.61.23,1.09.68,1.42.46.34,1.1.5,1.93.5.91,0,1.61-.17,2.08-.51.47-.34.71-.84.71-1.49v-2.96c0-.22.03-.36.09-.41.06-.05.2-.08.41-.08h.28v-.87h-2.84v.87Z"/>
          <path class="cls-7" d="M192.59,56.28l-1.04-3.65h-3.44v.87h.28c.22,0,.35.03.41.08.06.06.09.2.09.44v3.35c0,.24-.03.39-.09.44-.06.06-.2.08-.41.08h-.28v.87h2.75v-.87h-.23c-.21,0-.35-.03-.41-.08-.06-.06-.09-.2-.09-.44v-3.72l1.49,5.12h1.44l1.57-5.13v3.73c0,.25-.03.4-.1.45-.07.05-.2.07-.41.07h-.23v.87h3.36v-.87h-.3c-.21,0-.34-.03-.41-.08-.06-.05-.09-.2-.09-.45v-3.35c0-.24.03-.39.09-.44.06-.05.2-.08.41-.08h.3v-.87h-3.55l-1.12,3.65Z"/>
          <path class="cls-7" d="M204.29,57.79c-.08-.06-.17-.25-.27-.55l-1.44-4.61h-2.22l-1.61,4.63c-.08.22-.17.38-.27.48s-.24.15-.39.15h-.23v.87h2.74v-.87h-.3c-.14,0-.24-.01-.32-.04s-.11-.07-.11-.12c0-.04,0-.09.02-.14.01-.05.03-.12.07-.21l.19-.58h1.65l.22.66s.02.08.03.13c0,.04.01.09.01.14,0,.07-.03.12-.08.15-.05.02-.19.04-.43.04h-.28v.87h3.72v-.87h-.32c-.18,0-.31-.03-.39-.1ZM200.43,55.91l.52-1.86.56,1.86h-1.08Z"/>
          <path class="cls-7" d="M210.22,55.51c.41-.13.72-.32.94-.57s.33-.54.33-.88c0-.5-.19-.86-.56-1.09s-.96-.35-1.76-.35h-3.69v.87h.3c.22,0,.36.03.42.08.06.06.09.2.09.44v3.39c0,.23-.03.36-.1.41-.06.05-.2.07-.4.07h-.31v.87h3.59c.99,0,1.69-.13,2.1-.39.42-.26.63-.69.63-1.29,0-.41-.13-.75-.39-1-.26-.26-.66-.44-1.19-.56ZM208.3,53.51h.37c.32,0,.56.06.69.19.14.12.21.33.21.61s-.07.5-.22.64c-.15.14-.39.2-.71.2h-.33v-1.64ZM209.49,57.66c-.16.15-.43.23-.8.23h-.39v-1.95h.38c.36,0,.62.08.79.23.17.15.25.39.25.72,0,.35-.08.61-.24.76Z"/>
          <path class="cls-7" d="M217.75,57.09c-.06.21-.15.38-.26.51-.09.1-.22.17-.37.21-.16.04-.42.06-.81.06h-.41v-3.9c0-.22.03-.36.09-.41.06-.05.19-.07.4-.07h.35v-.87h-3.69v.87h.31c.22,0,.36.03.42.08.06.06.09.2.09.44v3.35c0,.24-.03.39-.09.44-.06.06-.2.08-.41.08h-.31v.87h5.77v-2.56h-.95c-.02.38-.06.67-.12.89Z"/>
          <path class="cls-7" d="M225.43,57.02c-.06.21-.13.39-.23.53-.09.12-.21.21-.37.26s-.45.08-.87.08h-1.08v-1.91h.25c.28,0,.47.06.57.19.1.13.16.41.17.83h.77v-2.8h-.77v.05c0,.34-.06.58-.17.71-.11.13-.31.2-.58.2h-.24v-1.68h.97c.37,0,.64.02.81.07.17.05.31.13.42.25.1.1.19.23.26.4.07.17.14.4.2.7h.97v-2.28h-6.43v.87h.3c.22,0,.36.03.42.08.06.06.09.2.09.44v3.39c0,.23-.03.36-.1.41-.06.05-.2.07-.4.07h-.31v.87h6.47v-2.53h-1.01c-.02.32-.05.58-.11.79Z"/>
          <path class="cls-7" d="M231.41,54.78c-.09-.02-.22-.05-.39-.08-.68-.14-1.02-.35-1.02-.62,0-.18.09-.33.27-.46s.4-.19.68-.19c.47,0,.84.11,1.12.32.28.21.47.54.57.97h1.03v-2.13h-.88l-.17.31c-.31-.15-.63-.27-.96-.34-.33-.07-.69-.11-1.07-.11-.75,0-1.35.19-1.81.57-.46.38-.68.87-.68,1.49,0,.29.06.54.18.77.12.22.3.43.55.61.1.08.27.17.51.26.24.09.57.2,1,.33.13.04.32.09.55.16.72.2,1.08.45,1.08.74,0,.19-.08.34-.25.46-.17.12-.39.18-.67.18-.46,0-.86-.13-1.19-.4s-.58-.64-.72-1.11h-.88v2.28h.84l.23-.34c.33.17.66.29,1,.37.34.08.69.12,1.05.12.79,0,1.42-.18,1.89-.55.47-.37.7-.86.7-1.48,0-.56-.19-1-.57-1.32s-1.04-.59-1.99-.81Z"/>
          <polygon class="cls-7" points="235.37 52.97 235.89 52.97 235.89 54.89 236.53 54.89 236.53 52.97 237.06 52.97 237.06 52.43 235.37 52.43 235.37 52.97"/>
          <polygon class="cls-7" points="239.9 52.43 239.26 52.43 238.77 53.74 238.28 52.43 237.65 52.43 237.23 54.89 237.87 54.89 238.08 53.48 238.63 54.89 238.89 54.89 239.47 53.48 239.68 54.89 240.31 54.89 239.9 52.43"/>
          <path class="cls-7" d="M150.45,62.15s0,0,0,0c0,0-3.84-.95-6.8-1.77-.44-.12-.86-.24-1.25-.35,0,0,.03-.02.08-.05l.06-.14.05-.11,1.17-2.5,2.45-5.24.02-.05s.05-.07.08-.12c.04-.06.09-.13.13-.21.01-.02.02-.03.03-.05.01-.02.02-.04.03-.06.45-.75,1.07-2.01,1.33-3.23.08-.35.13-.7.13-1.03,0-.43-.06-.82-.22-1.16,0,0,0,0,0-.01,0,0,0,0,0,0l-1.89,1.11s0,0,0,0l-1.86,1.09-1.7,1-5.25,3.09-.46.27h0c.04-.08.08-.18.11-.29.06-.2.1-.45.13-.72.27-2.92-1.38-9.54-2.96-14.23-.25-.74-.49-1.42-.73-2.04-.57-1.49-1.09-2.58-1.43-2.95,0,0,0,0,0,0-.04-.04-.08-.08-.12-.11-.04-.02-.07-.04-.11-.04-.03,0-.07.02-.11.04-.04.03-.08.06-.12.11,0,0,0,0,0,0,0,0,0,0,0,0-.05.05-.1.11-.15.19,0,0,0,0,0,0-.05.08-.11.17-.17.27,0,0,0,0,0,0-.06.1-.12.21-.18.34,0,0,0,0,0,0-.06.12-.13.26-.2.4,0,0,0,0,0,.01-.07.14-.14.3-.21.46,0,0,0,0,0,0-.07.17-.15.34-.22.52,0,0,0,0,0,0-.08.18-.15.38-.23.58,0,0,0,0,0,0-.25.65-.52,1.4-.78,2.19-.03.09-.06.17-.09.26-.12.36-.24.74-.36,1.12-.22.7-.44,1.42-.65,2.17-.03.09-.05.18-.08.27-.05.16-.09.33-.14.49-.03.12-.07.24-.1.37,0,0,0,0,0,.01-.04.15-.08.3-.12.44-.04.14-.08.29-.11.43-.03.14-.07.27-.1.41-.04.15-.08.31-.12.46-.03.13-.06.26-.09.39-.04.16-.08.32-.11.47-.03.13-.06.25-.08.37-.04.16-.07.32-.1.48-.03.12-.05.24-.08.36-.03.16-.06.31-.1.47-.02.12-.05.23-.07.35-.03.16-.06.31-.09.46-.02.11-.04.22-.06.33-.03.15-.05.3-.07.45-.02.11-.03.21-.05.32-.02.14-.04.28-.06.42-.01.1-.03.21-.04.31-.02.14-.03.27-.04.4,0,.05,0,.09-.01.13,0,.05-.01.1-.02.16-.01.13-.02.25-.03.37,0,.09-.01.18-.02.27,0,.06,0,.11,0,.16,0,.06,0,.12,0,.18,0,.08,0,.16,0,.24,0,.11,0,.21,0,.31,0,.07,0,.15,0,.21,0,.1.02.19.03.29,0,.06.01.12.02.18.02.1.04.18.06.27,0,.04.02.09.03.13.03.12.07.23.12.32l-1.24-.73-.98-.57-3.89-2.29-1.3-.76-3.74-2.2c-.17.34-.24.74-.23,1.18,0,.33.07.68.15,1.03.36,1.47,1.28,2.99,1.59,3.67l1.89,4.05,1.31,2.81.17.37.22.47.09.18.11.23.06.12c-.2.06-.4.12-.61.17-2.96.83-7.05,1.73-7.4,1.8-.01,0-.04,0-.04,0,0,0-.03.5.32,1.12.39.69,1.24,1.52,3.16,1.94.18.03,5.36,1.42,5.8,1.53,1.13.27,1.94.73,1.47,2.05-.08.29-.58,1.03-.32,3.17l1.42-.47.58-.19c1.06-.35,3.2-1.06,3.65-1.2.33-.1.62-.25.89-.42.34-.22.64-.48.87-.72.14-.14.66-.87.73-1.53,0-.06,0-.11,0-.17,0-.18-.01-.36-.02-.54-.02-.43-.04-.95-.07-1.41,0,0,0,0,0-.01l-1.49,2.3c-.36.52-.91,1.03-1.52,1.21-.67.2-1.45.47-3.25,1.04-.03.01-.06.01-.09.01,0,0,0,0-.01,0-.01,0-.02,0-.03,0-.05,0-.08-.02-.08-.02,0,0,0,0,0,0h0s0,0,0,0h0s0,0,0,0c-.06-.06-.02-.13,0-.21.36-1.09.37-1.86.58-2.63.32-1.15.73-1.22,1.19-1.54l-1.82.35s-.63.13-1.09.13c-.08,0-.16,0-.23-.01-1.07-.16-3.42-1.46-8.16-2.22-.22-.08-.27-.26-.28-.36,0,0,0,0,0,0h0s0,0,0,0c0-.01.01-.03.01-.04,0-.11.07-.24.24-.28,3.32-.67,4.98-1.1,7.94-2.13.97-.3,1.8,0,2.05.05,0,0,.02,0,.03,0l-2.04-1.25s-.39-.28-.76-.6c-.19-.17-.37-.34-.48-.5-2.3-3.15-2.27-5.76-4.24-8.94-.07-.11-.09-.22-.02-.32,0,0,0,0,0-.01,0,0,.02.03.06.06,0,0,0,0,.01,0-.04-.04-.07-.07-.07-.07,0,0,0,0,0,0,.09-.1.23-.09.33-.02,4.1,2.85,5.36,3.06,8.13,4.81.01,0,.02.02.04.02.27.17.77.66,1.02.92.1.1.16.17.16.17l1.51,2.17-.26-1.08-.82-3.44c-.16-.69-.18-1.4-.04-2.1,0,0,0,0,0-.01,0-.01,0-.02,0-.03.86-4.54,3-12.24,3.43-14.33.02-.11.04-.21.05-.28,0,0,0,0,0,0,0-.02.01-.06.01-.08.02-.16.13-.29.29-.29h0s0,0,0,0c0,0,0,0,0,0,.16,0,.26.13.29.29.23,1.26,3.1,10.69,3.84,14.84.1.56.1,1.48,0,2.05l-.33,1.87-.33,1.86.95-1.41s.05-.06.14-.14c.23-.24.78-.79,1.08-.98,1.27-.81,2.22-1.29,3.27-1.84.52-.28,1.07-.57,1.69-.94.87-.51,1.89-1.15,3.2-2.06.19-.12.36-.03.4.02,0,0,0,0,0,0h0c.09.1.06.22,0,.33-1.96,3.18-1.93,5.79-4.24,8.94-.33.45-1.24,1.1-1.24,1.1l-2.05,1.26h0s0,0,0,0h.05c.22-.03.58-.15,1.06-.15.27,0,.58.04.93.14,2.96,1.03,4.67,1.41,7.99,2.07.17.03.23.17.24.28,0,.01.01.03.01.04,0,0,0,0,0,0,0,0,0,0,0,0,0,.11-.06.28-.28.36-4.75.76-7.09,2.06-8.16,2.22-.44.07-1.32-.12-1.32-.12l-1.79-.44s-.09-.05-.24-.13c-.25-.14-.67-.37-1.09-.6-.39-.22-.79-.43-1.05-.58-.2-.11-.43-.17-.66-.17h-.48s-.03,0-.05,0h0s0,0,0,0c.02,0,.03,0,.05,0h.48c.23,0,.46.06.66.17.26.14.66.36,1.05.58.42.23.83.46,1.09.6l.32.22c.46.33.87.39,1.19,1.54.21.76.22,1.54.58,2.63.03.08.06.15,0,.21h0s0,0,0,0c-.06.06-.13.04-.21.01-1.8-.57-2.58-.84-3.25-1.04-.6-.18-1.16-.69-1.52-1.21l-1.63-2.52c-.1.14-.17.32-.17.53,0,.05,0,.09,0,.13,0,.55-.02.46-.03,1.1,0,.05,0,.22,0,.44h0c.13.45.32.91.62,1.36.04.06.08.13.13.19.27.3.64.64,1.1.92.24.14.49.27.77.36.45.14,2.58.84,3.65,1.2l1.6.53s0,0,0,0l.39.13c.12-.98.07-1.65-.01-2.14,0-.05-.02-.11-.03-.16-.1-.48-.24-.73-.28-.88-.15-.41-.16-.73-.09-.99.03-.09.06-.18.11-.26.04-.07.09-.14.15-.2.29-.29.75-.47,1.29-.6.44-.11,5.62-1.5,5.8-1.53.24-.05.45-.11.66-.17,1.46-.45,2.17-1.16,2.51-1.77.3-.53.31-.98.31-1.09,0,0,0,0,0,0,0-.01,0-.02,0-.02Z"/>
          <path class="cls-4" d="M133.8,58.11l.95-1.37v-.03s.01-.04.01-.04l.03-.05.33-1.86.33-1.87c.1-.56.1-1.48,0-2.05-.73-4.15-3.6-13.59-3.84-14.84-.03-.16-.13-.29-.29-.29,0,0,0,0,0,0h0v22.66c0,.5.18.99.51,1.37l.46.54,1.51-2.17Z"/>
          <path class="cls-4" d="M131.63,61.76c-.03-.07-.07-.14-.11-.21-.01-.02-.03-.05-.05-.08,0,0-.01-.02-.02-.03-.03-.04-.05-.08-.08-.12l-.07-.1-.31-.45v-.02s-.48-.67-.48-.67l-1.85-2.67v-.06s-1.52-2.17-1.52-2.17c0,0-.07-.07-.16-.17-.25-.26-.74-.75-1.02-.92-.01,0-.02-.02-.04-.02-2.77-1.75-4.03-1.96-8.13-4.81-.1-.07-.24-.08-.33.02,0,0,0,0,0,0,0,0,.03.03.07.07.85.87,10.27,10.54,12.48,12.81.29.3.31.6.26.77-.04.15-.13.26-.19.32-.03.04-.06.06-.06.06l-.07-.06-1.13-.98s-.04-.03-.06-.05c-.03-.03-.07-.05-.1-.07-.05-.04-.1-.08-.16-.12-.59-.42-1.27-.72-1.99-.85-.62-.11-1.27-.23-1.52-.29,0,0,0,0,0,0,0,0-.02,0-.03,0-.25-.05-1.08-.35-2.05-.05-2.96,1.03-4.62,1.47-7.94,2.13-.17.03-.23.17-.24.28,0,.01-.01.03-.01.04,0,0,0,0,0,0h0c.07,0,8.7.01,12.19.02.26,0,.48,0,.68,0,.43,0,.71,0,.75,0,.21,0,.34.15.32.32,0,.1-.07.2-.2.28-.16.11-.57.4-.99.69-.49.34-.99.7-1.13.79l-.04.03s0,0,0,0c-.46.32-.87.39-1.19,1.54-.21.76-.22,1.54-.58,2.63-.03.08-.06.15,0,.21h0s0,0,0,0h0s0,0,0,0c0,0,0,0,0,0,0,0,0,0,0,0h0s.04-.04.04-.04l5.34-5.15.86-.83.18-.18h0s.1-.11.1-.11l.19-.22.1-.11.03-.03.12-.13c.25-.29.32-.6.24-.94-.02-.1-.06-.2-.1-.3ZM130.38,63.68s0,0,0,0h0s0,0,0,0h0s0,0,0,0Z"/>
          <path class="cls-4" d="M148.19,63.31h-.02c-.93,0-8.02,0-12.04.01-.22,0-.42,0-.62,0-1.28,0-2.12,0-2.14,0-.05,0-.08-.02-.09-.06,0-.02,0-.05.04-.09.05-.04.19-.16.36-.3.38-.31.9-.74.9-.74.04-.04.09-.06.13-.1.6-.47,1.29-.79,2.04-.92l1.24-.21h0s2.05-1.26,2.05-1.26c0,0,.91-.64,1.24-1.1,2.3-3.15,2.27-5.76,4.24-8.94.07-.11.1-.23,0-.33,0,0,0,0,0,0l-2.19,2.24-10.25,10.51-.37.38-.16.16c-.2.19-.27.37-.28.52,0,.04,0,.08.01.12,0,.01,0,.02,0,.03,0,.01,0,.03,0,.04,0,.03.02.05.02.07.14.44.6.48.79.48,0,0,.02,0,.02,0h0s.03,0,.05,0h.48c.23,0,.46.06.66.17.26.14.66.36,1.05.58.42.23.83.46,1.09.6.15.08.24.13.24.13l1.79.44s.88.18,1.32.12c1.07-.16,3.42-1.46,8.16-2.22.22-.08.27-.25.28-.36,0,0,0,0,0,0,0,0-.03,0-.08,0Z"/>
          <path class="cls-2" d="M160.18,53.38c-.41,0-.71.18-.9.55s-.28.95-.28,1.76.09,1.41.28,1.78.49.55.9.55.72-.18.91-.54c.19-.36.28-.95.28-1.76s-.09-1.41-.28-1.78c-.19-.37-.49-.55-.9-.55Z"/>
          <path class="cls-2" d="M208.69,55.95h-.38v1.95h.39c.37,0,.64-.08.8-.23.16-.15.24-.41.24-.76,0-.32-.08-.56-.25-.72-.17-.15-.43-.23-.79-.23Z"/>
          <polygon class="cls-2" points="55.38 55.91 56.46 55.91 55.9 54.05 55.38 55.91"/>
          <path class="cls-2" d="M209.35,54.95c.15-.14.22-.35.22-.64s-.07-.49-.21-.61c-.14-.12-.37-.19-.69-.19h-.37v1.64h.33c.32,0,.56-.07.71-.2Z"/>
          <path class="cls-2" d="M109.44,55.08c.17-.14.26-.37.26-.7,0-.31-.08-.53-.25-.66-.17-.13-.46-.19-.87-.19h-.44v1.75h.4c.42,0,.72-.07.9-.21Z"/>
          <path class="cls-2" d="M149.33,48.26c-.64,2.2-1.58,4.17-1.78,4.71l-2.79,6.5,7.69,2.01,1.63.39s-.08.6-.39,1.39h90.05v-15h-94.4ZM154.51,58.28c-.5.44-1.19.66-2.1.66-1.06,0-1.87-.28-2.44-.84-.57-.56-.85-1.36-.85-2.4,0-.98.29-1.77.88-2.36.59-.59,1.38-.89,2.37-.89.33,0,.64.04.93.1s.56.18.82.32l.16-.34h1v2.52h-1.1c-.11-.59-.27-1.02-.49-1.28-.22-.27-.52-.4-.89-.4-.43,0-.75.18-.94.55s-.29.95-.29,1.76.1,1.43.3,1.8c.2.37.53.55.99.55.41,0,.75-.15,1.02-.44.26-.3.41-.69.45-1.2h.99c-.02.82-.28,1.45-.78,1.89ZM162.78,58.08c-.63.57-1.5.86-2.62.86s-1.97-.29-2.6-.87-.94-1.37-.94-2.38.31-1.81.95-2.39c.63-.58,1.5-.87,2.61-.87s1.97.29,2.6.87c.63.58.94,1.37.94,2.39s-.32,1.81-.95,2.38ZM172.04,53.49h-.22c-.21,0-.35.03-.41.08-.06.06-.09.2-.09.44v4.74h-2.1l-2.38-4.39v3c0,.24.03.39.09.44.06.06.2.08.41.08h.27v.87h-2.7v-.87h.3c.22,0,.36-.03.42-.09s.09-.2.09-.44v-3.35c0-.23-.03-.38-.09-.44-.06-.06-.2-.09-.42-.09h-.3v-.87h3.03l2.26,4.13v-2.74c0-.25-.03-.4-.1-.45-.06-.05-.2-.08-.41-.08h-.35v-.87h2.7v.87ZM178.42,58.39c-.47.37-1.1.55-1.89.55-.36,0-.71-.04-1.05-.12-.34-.08-.67-.21-1-.37l-.23.34h-.84v-2.28h.88c.15.47.39.84.72,1.11s.74.4,1.19.4c.28,0,.5-.06.67-.18.17-.12.25-.27.25-.46,0-.29-.36-.54-1.08-.74-.23-.06-.42-.11-.55-.16-.43-.13-.77-.24-1-.33-.24-.09-.4-.18-.51-.26-.25-.18-.43-.39-.55-.61-.12-.22-.18-.48-.18-.77,0-.62.23-1.11.68-1.49.46-.38,1.06-.57,1.81-.57.38,0,.74.04,1.07.11.33.07.65.19.96.34l.17-.31h.88v2.13h-1.03c-.1-.43-.29-.76-.57-.97-.28-.21-.65-.32-1.12-.32-.27,0-.5.06-.68.19s-.27.28-.27.46c0,.27.34.48,1.02.62.17.04.3.06.39.08.95.22,1.61.49,1.99.81s.57.76.57,1.32c0,.62-.23,1.11-.7,1.48ZM187.15,53.49h-.28c-.21,0-.35.03-.41.08-.06.06-.09.19-.09.41v2.96c0,.65-.24,1.15-.71,1.49-.47.34-1.17.51-2.08.51-.83,0-1.47-.17-1.93-.5-.46-.34-.68-.81-.68-1.42v-3.01c0-.23-.03-.38-.09-.44-.06-.06-.2-.09-.42-.09h-.31v-.87h3.69v.87h-.34c-.22,0-.36.03-.42.09-.06.06-.09.2-.09.44v2.7c0,.47.07.8.22,1s.4.29.75.29c.42,0,.72-.09.9-.28.18-.19.27-.5.27-.92v-2.78c0-.24-.03-.39-.09-.44-.06-.05-.2-.08-.41-.08h-.31v-.87h2.84v.87ZM197.26,53.49h-.3c-.21,0-.35.03-.41.08-.06.05-.09.2-.09.44v3.35c0,.25.03.4.09.45.06.05.2.08.41.08h.3v.87h-3.36v-.87h.23c.21,0,.34-.02.41-.07.07-.05.1-.2.1-.45v-3.73l-1.57,5.13h-1.44l-1.49-5.12v3.72c0,.24.03.39.09.44.06.06.2.08.41.08h.23v.87h-2.75v-.87h.28c.21,0,.35-.03.41-.08.06-.06.09-.2.09-.44v-3.35c0-.24-.03-.38-.09-.44-.06-.05-.2-.08-.41-.08h-.28v-.87h3.44l1.04,3.65,1.12-3.65h3.55v.87ZM205,58.76h-3.72v-.87h.28c.23,0,.37-.01.43-.04.05-.03.08-.07.08-.15,0-.05,0-.09-.01-.14,0-.04-.02-.09-.03-.13l-.22-.66h-1.65l-.19.58c-.03.09-.06.16-.07.21-.01.05-.02.1-.02.14,0,.05.04.1.11.12s.18.04.32.04h.3v.87h-2.74v-.87h.23c.16,0,.29-.05.39-.15s.2-.26.27-.48l1.61-4.63h2.22l1.44,4.61c.1.3.19.49.27.55s.21.1.39.1h.32v.87ZM211.17,58.37c-.42.26-1.12.39-2.1.39h-3.59v-.87h.31c.2,0,.33-.02.4-.07.06-.05.1-.18.1-.41v-3.39c0-.24-.03-.38-.09-.44-.06-.05-.2-.08-.42-.08h-.3v-.87h3.69c.8,0,1.39.12,1.76.35s.56.6.56,1.09c0,.34-.11.63-.33.88s-.53.44-.94.57c.53.12.93.3,1.19.56.26.26.39.59.39,1,0,.6-.21,1.03-.63,1.29ZM218.82,58.76h-5.77v-.87h.31c.21,0,.35-.03.41-.08.06-.06.09-.2.09-.44v-3.35c0-.24-.03-.38-.09-.44-.06-.05-.2-.08-.42-.08h-.31v-.87h3.69v.87h-.35c-.2,0-.33.02-.4.07-.06.05-.09.18-.09.41v3.9h.41c.38,0,.65-.02.81-.06.16-.04.28-.11.37-.21.12-.12.2-.29.26-.51.06-.21.1-.51.12-.89h.95v2.56ZM226.55,58.76h-6.47v-.87h.31c.2,0,.33-.02.4-.07.06-.05.1-.18.1-.41v-3.39c0-.24-.03-.38-.09-.44-.06-.05-.2-.08-.42-.08h-.3v-.87h6.43v2.28h-.97c-.06-.3-.13-.53-.2-.7-.07-.17-.16-.3-.26-.4-.12-.12-.26-.2-.42-.25-.17-.05-.44-.07-.81-.07h-.97v1.68h.24c.28,0,.47-.07.58-.2.11-.13.17-.37.17-.71v-.05h.77v2.8h-.77c-.01-.43-.07-.71-.17-.83-.1-.13-.29-.19-.57-.19h-.25v1.91h1.08c.42,0,.71-.02.87-.08s.28-.14.37-.26c.09-.15.17-.32.23-.53.05-.21.09-.47.11-.79h1.01v2.53ZM233.27,58.39c-.47.37-1.1.55-1.89.55-.36,0-.71-.04-1.05-.12-.34-.08-.67-.21-1-.37l-.23.34h-.84v-2.28h.88c.15.47.39.84.72,1.11s.74.4,1.19.4c.28,0,.5-.06.67-.18.17-.12.25-.27.25-.46,0-.29-.36-.54-1.08-.74-.23-.06-.42-.11-.55-.16-.43-.13-.77-.24-1-.33-.24-.09-.4-.18-.51-.26-.25-.18-.43-.39-.55-.61-.12-.22-.18-.48-.18-.77,0-.62.23-1.11.68-1.49.46-.38,1.06-.57,1.81-.57.38,0,.74.04,1.07.11.33.07.65.19.96.34l.17-.31h.88v2.13h-1.03c-.1-.43-.29-.76-.57-.97-.28-.21-.65-.32-1.12-.32-.27,0-.5.06-.68.19s-.27.28-.27.46c0,.27.34.48,1.02.62.17.04.3.06.39.08.95.22,1.61.49,1.99.81s.57.76.57,1.32c0,.62-.23,1.11-.7,1.48ZM237.06,52.97h-.53v1.92h-.64v-1.92h-.53v-.54h1.69v.54ZM239.68,54.89l-.21-1.42-.58,1.42h-.25l-.55-1.42-.21,1.42h-.64l.42-2.46h.63l.49,1.31.49-1.31h.63l.42,2.46h-.64Z"/>
          <polygon class="cls-2" points="200.43 55.91 201.51 55.91 200.95 54.05 200.43 55.91"/>
          <path class="cls-2" d="M118.01,59.65l.3-.07-2.88-6.61c-.2-.54-1.14-2.51-1.78-4.71H20.76v15h88.54c-.31-.79-.39-1.39-.39-1.39l1.63-.39,7.47-1.83ZM32.87,54.95h-.9v-.03c0-.43-.09-.76-.27-.99-.18-.23-.44-.34-.78-.34h-.27v3.77c0,.23.03.38.09.44s.2.09.42.09h.51v.87h-4.03v-.87h.48c.21,0,.34-.02.41-.07.07-.05.1-.2.1-.45v-3.77h-.27c-.34,0-.59.11-.77.34-.18.23-.27.56-.27.99v.03h-.91v-2.32h6.45v2.32ZM41.52,58.08c-.63.57-1.5.86-2.62.86s-1.97-.29-2.6-.87-.94-1.37-.94-2.38.31-1.81.95-2.39c.63-.58,1.5-.87,2.61-.87s1.97.29,2.6.87c.63.58.94,1.37.94,2.39s-.32,1.81-.95,2.38ZM51.4,54.95h-.9v-.03c0-.43-.09-.76-.27-.99-.18-.23-.44-.34-.78-.34h-.27v3.77c0,.23.03.38.09.44s.2.09.42.09h.51v.87h-4.03v-.87h.48c.21,0,.34-.02.41-.07.07-.05.1-.2.1-.45v-3.77h-.27c-.34,0-.59.11-.77.34-.18.23-.27.56-.27.99v.03h-.91v-2.32h6.45v2.32ZM59.95,58.76h-3.72v-.87h.28c.23,0,.37-.01.43-.04.05-.03.08-.07.08-.15,0-.05,0-.09-.01-.14,0-.04-.02-.09-.03-.13l-.22-.66h-1.65l-.19.58c-.03.09-.06.16-.07.21-.01.05-.02.1-.02.14,0,.05.04.1.11.12s.18.04.32.04h.3v.87h-2.74v-.87h.23c.16,0,.29-.05.39-.15s.2-.26.27-.48l1.61-4.63h2.22l1.44,4.61c.1.3.19.49.27.55s.21.1.39.1h.32v.87ZM67.48,58.76h-5.77v-.87h.31c.21,0,.35-.03.41-.08.06-.06.09-.2.09-.44v-3.35c0-.24-.03-.38-.09-.44-.06-.05-.2-.08-.42-.08h-.31v-.87h3.69v.87h-.35c-.2,0-.33.02-.4.07-.06.05-.09.18-.09.41v3.9h.41c.38,0,.65-.02.81-.06.16-.04.28-.11.37-.21.12-.12.2-.29.26-.51.06-.21.1-.51.12-.89h.95v2.56ZM82.39,53.49h-.31c-.21,0-.35.03-.41.08-.06.06-.09.2-.09.44v3.35c0,.24.03.39.09.44.06.06.2.08.41.08h.31v.87h-3.4v-.87h.1c.18,0,.3-.03.36-.09.06-.06.09-.21.09-.44v-1.37h-1.7v1.37c0,.23.03.38.09.44.06.06.18.09.36.09h.1v.87h-3.4v-.87h.31c.21,0,.34-.02.41-.07.07-.05.1-.2.1-.45v-3.35c0-.24-.03-.39-.09-.44-.06-.05-.2-.08-.42-.08h-.31v-.87h3.4v.87h-.1c-.18,0-.3.03-.36.09-.06.06-.08.2-.08.44v1.11h1.7v-1.11c0-.23-.03-.38-.09-.44-.06-.06-.18-.09-.36-.09h-.1v-.87h3.4v.87ZM91.17,58.76h-6.47v-.87h.31c.2,0,.33-.02.4-.07.06-.05.1-.18.1-.41v-3.39c0-.24-.03-.38-.09-.44-.06-.05-.2-.08-.42-.08h-.3v-.87h6.43v2.28h-.97c-.06-.3-.13-.53-.2-.7-.07-.17-.16-.3-.26-.4-.12-.12-.26-.2-.42-.25-.17-.05-.44-.07-.81-.07h-.97v1.68h.24c.28,0,.47-.07.58-.2.11-.13.17-.37.17-.71v-.05h.77v2.8h-.77c-.01-.43-.07-.71-.17-.83-.1-.13-.29-.19-.57-.19h-.25v1.91h1.08c.42,0,.71-.02.87-.08s.28-.14.37-.26c.09-.15.17-.32.23-.53.05-.21.09-.47.11-.79h1.01v2.53ZM102.98,53.49h-.3c-.21,0-.35.03-.41.08-.06.05-.09.2-.09.44v3.35c0,.25.03.4.09.45.06.05.2.08.41.08h.3v.87h-3.36v-.87h.23c.21,0,.34-.02.41-.07.07-.05.1-.2.1-.45v-3.73l-1.57,5.13h-1.44l-1.49-5.12v3.72c0,.24.03.39.09.44.06.06.2.08.41.08h.23v.87h-2.75v-.87h.28c.21,0,.35-.03.41-.08.06-.06.09-.2.09-.44v-3.35c0-.24-.03-.38-.09-.44-.06-.05-.2-.08-.41-.08h-.28v-.87h3.44l1.04,3.65,1.12-3.65h3.55v.87ZM108.22,57.8c.06.06.2.08.41.08h.35v.87h-3.69v-.87h.31c.21,0,.35-.03.41-.08.06-.06.09-.2.09-.44v-3.35c0-.24-.03-.38-.09-.44-.06-.05-.2-.08-.42-.08h-.31v-.87h4.02c.86,0,1.49.14,1.89.41.4.28.6.71.6,1.29s-.2,1.02-.6,1.3c-.4.28-1.03.41-1.89.41h-1.18v1.32c0,.24.03.39.09.44Z"/>
          <path class="cls-2" d="M38.92,53.38c-.41,0-.71.18-.9.55s-.28.95-.28,1.76.09,1.41.28,1.78.49.55.9.55.72-.18.91-.54c.19-.36.28-.95.28-1.76s-.09-1.41-.28-1.78c-.19-.37-.49-.55-.9-.55Z"/>
          <path class="cls-2" d="M137.98,66.97c-.32-1.16-.73-1.22-1.19-1.54l-.32-.22c-.25-.14-.67-.37-1.09-.6-.39-.22-.79-.43-1.05-.58-.2-.11-.43-.17-.66-.17h-.48s-.03,0-.05,0c0,0,0,0,0,0,0,0-.02,0-.02,0-.19,0-.65-.03-.79-.48,0-.02-.02-.05-.02-.07,0-.01,0-.03,0-.04,0-.01,0-.02,0-.03,0-.04-.01-.08-.01-.12.01-.15.08-.33.28-.52l.16-.16.37-.38,10.25-10.51,2.19-2.24s0,0,0,0h0s0,0,0,0c-.04-.05-.21-.14-.4-.02-1.31.91-2.33,1.55-3.2,2.06-.62.36-1.17.66-1.69.94-1.05.55-2,1.03-3.27,1.84-.3.19-.85.74-1.08.98-.08.09-.14.14-.14.14l-.95,1.41-.03.05v.04s-.01.03-.01.03l-.95,1.37-1.51,2.17-.46-.54c-.33-.38-.51-.87-.51-1.37v-22.66h0c-.16,0-.27.13-.29.29,0,.02-.01.06-.01.08,0,0,0,0,0,0,0,.07-.03.17-.05.28-.43,2.09-2.57,9.79-3.43,14.33,0,.01,0,.02,0,.03,0,0,0,0,0,.01-.13.7-.12,1.41.04,2.1l.82,3.44.26,1.08v.06s1.87,2.67,1.87,2.67l.48.67v.02s.31.45.31.45l.07.1s.05.08.08.12c0,0,.01.02.02.03.02.02.03.05.05.08.04.07.08.14.11.21.05.1.08.2.1.3.08.33,0,.64-.24.94l-.12.13-.03.03-.1.11-.19.22-.1.11h0s-.18.19-.18.19l-.86.83-5.34,5.15-.04.03h0s0,0,0,0c0,0,0,0,0,0,0,0,0,0,0,0h0s0,0,0,0h0s0,0,0,0c0,0,.04.01.08.02,0,0,.02,0,.03,0,0,0,0,0,.01,0,.03,0,.06,0,.09-.01,1.8-.57,2.58-.84,3.25-1.04.6-.18,1.16-.69,1.52-1.21l1.49-2.3s0,0,0,.01c.03.46.05.98.07,1.41,0,.18.01.36.02.54,0,.06,0,.11,0,.17.01.41.02.84.02,1.27,0,.31-.01.64-.01.95,0,.41,0,.82-.02,1.23,0,.07,0,.15,0,.22-.04.85-.09,1.88-.18,2.66,0,.03,0,.06,0,.09,0,.22,0,.42.01.59.13,1.43,1.01,1.48,1.18.32.04-.26.04-.58-.01-.95-.12-.63-.17-1.83-.22-2.88-.02-.4-.04-1.26-.03-1.26-.02-.82-.03-1.71-.03-1.9h0c0-.17,0-.34,0-.5h0c0-.22,0-.4,0-.44,0-.65.02-.56.03-1.1,0-.04,0-.08,0-.13,0-.21.07-.38.17-.53h0s0,0,0-.01c.01-.02.03-.03.04-.04.26-.31.64-.39,1-.31,0,0,0,0,0,0,.1.02.19.06.28.11,0,0,.01,0,.02,0,.03.02.07.03.1.05l.1.1,5.01,4.84h0s0-.01,0-.02c0,0,0,0,0,0,.01.01.03.03.03.03h0s0,0,0,0c0,0,0,0,0,0h0s0,0,0,0c.06-.06.02-.13,0-.21-.36-1.09-.37-1.86-.58-2.63Z"/>
          <path class="cls-2" d="M121.7,58.56c.11.15.29.33.48.5.36.32.76.6.76.6l2.04,1.25s0,0,0,0c.25.06.9.18,1.52.29.72.13,1.39.43,1.99.85.05.04.11.08.16.12.03.03.07.05.1.07.02.02.04.03.06.05l1.13.98.07.06s.03-.03.06-.06c.06-.06.15-.17.19-.32.05-.18.04-.47-.26-.77-2.21-2.27-11.63-11.94-12.48-12.81,0,0,0,0-.01,0-.04-.04-.06-.06-.06-.06,0,0,0,0,0,.01-.08.1-.05.21.02.32,1.96,3.18,1.93,5.79,4.24,8.94Z"/>
        </g>
        <path class="cls-2" d="M126.3,65.43l.04-.03c.14-.1.64-.45,1.13-.79.42-.29.83-.58.99-.69.13-.08.19-.18.2-.28.02-.16-.11-.32-.32-.32-.04,0-.32,0-.75,0-.19,0-.42,0-.68,0-3.48,0-12.11-.02-12.19-.02,0,0,0,0,0,0,0,.11.06.28.28.36,4.75.76,7.09,2.06,8.16,2.22.07.01.15.01.23.01.46,0,1.09-.13,1.09-.13l1.82-.35s0,0,0,0Z"/>
        <path class="cls-2" d="M148.02,62.99c-3.32-.67-5.03-1.04-7.99-2.07-.35-.11-.66-.14-.93-.14-.48,0-.84.12-1.06.14h-.05s0,0,0,0h0s-1.24.21-1.24.21c-.75.13-1.45.45-2.04.92-.04.03-.09.06-.13.1,0,0-.52.43-.9.74-.17.14-.31.26-.36.3-.04.03-.05.06-.04.09,0,.04.04.06.09.06.02,0,.87,0,2.14,0,.2,0,.4,0,.62,0,4.02,0,11.11-.01,12.04-.01h.02c.05,0,.08,0,.08,0,0,0,0,0,0,0,0,0,0,0,0,0,0,0,0,0,0,0,0-.01-.01-.03-.01-.04,0-.11-.07-.24-.24-.28Z"/>
      </g>
    </g>
  </g>
</svg>