<?xml version="1.0" encoding="UTF-8"?>
<svg xmlns="http://www.w3.org/2000/svg" xmlns:xlink="http://www.w3.org/1999/xlink" viewBox="0 0 108.71 108.71">
  <defs>
    <style>
      .cls-1 {
        fill: none;
      }

      .cls-2 {
        fill: #474747;
      }

      .cls-3 {
        fill: #030303;
      }

      .cls-4 {
        fill: #231f20;
      }

      .cls-5 {
        fill: #fff;
      }

      .cls-6 {
        fill: #9f9f9f;
      }

      .cls-7 {
        clip-path: url(#clippath);
      }
    </style>
    <clipPath id="clippath">
      <rect class="cls-1" width="108.71" height="108.71"/>
    </clipPath>
  </defs>
  <g id="BACKGROUND">
    <rect class="cls-4" width="108.71" height="108.71"/>
  </g>
  <g id="LOGO">
    <g class="cls-7">
      <g>
        <path class="cls-2" d="M65.02,57.53l2.6-6.04c.27-.72,1.99-4.25,2.19-7.16.07-.96-.02-1.85-.36-2.51,0,0-6.88,3.83-10.15,5.77,0-4.78-6.61-22.9-6.61-22.9,0,0-5.71,15.65-6.52,21.69-.06.46-.1.87-.1,1.21-3.27-1.94-10.15-5.77-10.15-5.77-.34.66-.42,1.55-.35,2.51.2,2.92,1.92,6.44,2.19,7.16l2.67,6.14-.28.07-6.94,1.7-1.51.37s.55,4.11,4.4,4.67c3.84.56,7.95,1.57,7.95,1.57.74.14-.36,1.6-.14,3.38l.22,2.57s1.85-.57,3.63-1.12c1.55-.48,3.04-.94,3.21-.99.49-.15,1.33-.95,1.33-1.72.03-.68.02-2.5.02-2.73,0-.22,0-.44-.01-.65.01.65-.55,1.44-.69,1.58-.38.4-.93.85-1.63,1.06-.42.13-2.4.78-3.39,1.11l-.54.18-1.32.44c-.24-1.99.22-2.67.3-2.95.44-1.22-.32-1.65-1.36-1.9-.41-.1-5.23-1.39-5.39-1.42-3.37-.73-3.23-2.84-3.23-2.84,0,0,.02,0,.03,0,.35-.08,4.68-1.03,7.45-1.84l-.05-.12-.1-.21-.29-.61-.16-.34-1.22-2.61-1.76-3.77c-.35-.77-1.6-2.75-1.62-4.36,0-.4.06-.78.22-1.09l9.21,5.42,1.16.68c-.04-.09-.08-.19-.11-.3-.01-.04-.02-.08-.03-.12-.02-.08-.04-.16-.05-.25,0-.05-.01-.11-.02-.16-.01-.09-.02-.17-.03-.27,0-.06,0-.13,0-.2,0-.1,0-.19,0-.29,0-.07,0-.15,0-.22,0-.1,0-.21.01-.32,0-.08.01-.17.02-.25,0-.11.02-.23.03-.34,0-.05,0-.1.01-.14,0-.04,0-.08.01-.12.01-.12.03-.24.04-.37.01-.09.02-.19.04-.29.02-.13.03-.26.05-.39.01-.1.03-.2.05-.3.02-.14.04-.27.07-.41.02-.1.04-.21.05-.31.03-.14.05-.28.08-.43.02-.11.04-.22.06-.32.03-.14.06-.29.09-.44.02-.11.05-.22.07-.34.03-.15.06-.29.1-.44.03-.12.05-.23.08-.35.03-.15.07-.29.1-.44.03-.12.06-.24.09-.36.03-.14.07-.29.11-.43.03-.13.06-.25.1-.38.03-.13.07-.27.11-.4.04-.14.07-.27.11-.41,0,0,0,0,0-.01.03-.11.06-.23.09-.34.04-.15.08-.3.13-.46.02-.08.05-.17.07-.25.3-1.06.62-2.1.94-3.06.28-.83.55-1.6.81-2.28,0,0,0,0,0,0,.07-.19.14-.37.21-.54,0,0,0,0,0,0,.07-.17.14-.33.2-.49,0,0,0,0,0,0,.07-.15.13-.3.19-.43,0,0,0,0,0-.01.06-.13.12-.26.18-.37,0,0,0,0,0,0,.06-.11.12-.22.17-.31,0,0,0,0,0,0,.05-.09.11-.18.16-.25,0,0,0,0,0,0,.05-.07.1-.13.14-.18,0,0,0,0,0,0,.04-.04.08-.08.11-.1.04-.02.07-.04.1-.04.03,0,.06.02.1.04.03.02.07.06.11.1,0,0,0,0,0,0,1.39,1.47,5.64,15.25,4.65,18.54-.03.1-.06.19-.1.27h0s8.61-5.07,8.61-5.07c0,0,0,0,0,0l1.75-1.03s0,0,0,0c0,0,0,0,0,.01.15.31.21.68.21,1.08-.02,1.37-.82,3.07-1.36,3.96-.01.02-.02.04-.03.05-.01.02-.02.03-.03.05-.04.07-.08.13-.12.19-.03.04-.05.08-.07.11l-.02.05-2.28,4.87-1.13,2.43-.06.13s-.07.04-.07.04c2.77.81,7.48,1.97,7.48,1.97,0,0,0,0,0,0,0,0,0,0,0,.02,0,0,0,0,0,0,0,.24-.08,2.13-3.23,2.82-.17.03-4.98,1.32-5.39,1.42-.5.12-.93.29-1.2.56-.12.12-.2.26-.24.43-.07.24-.06.54.08.92.04.13.17.37.26.81,0,.05.02.1.03.15.08.45.12,1.08.01,1.99l-.37-.12s0,0,0,0l-1.49-.5c-.99-.33-2.97-.99-3.39-1.11-.78-.24-1.36-.76-1.74-1.19-.05-.06-.08-.12-.12-.18-.29-.42-.46-.85-.58-1.27,0,.14,0,.3,0,.47h0c0,.28.03,2.31.06,2.93,0,.78.88,1.53,1.41,1.69.17.05,1.67.51,3.21.99h0c1.78.55,3.63,1.12,3.63,1.12l.22-2.57c.21-1.78-.88-3.24-.14-3.38,0,0,4.11-1.02,7.95-1.57,3.84-.56,4.4-4.67,4.4-4.67l-1.51-.37-7.15-1.87Z"/>
        <path class="cls-3" d="M52.32,64.57c0-.11,0-.22-.01-.33-.01-.41-.04-.91-.07-1.34,0,0,.06,1.18.08,1.67Z"/>
        <polygon class="cls-3" points="51.66 61.44 51.66 61.44 51.66 61.44 51.66 61.44"/>
        <polygon class="cls-3" points="51.42 74.45 51.42 72.73 51.89 72.73 51.89 72.25 50.38 72.25 50.38 72.73 50.85 72.73 50.85 74.45 51.42 74.45"/>
        <polygon class="cls-3" points="52.61 74.45 52.8 73.18 53.3 74.45 53.52 74.45 54.04 73.18 54.23 74.45 54.8 74.45 54.43 72.25 53.86 72.25 53.43 73.42 52.98 72.25 52.42 72.25 52.04 74.45 52.61 74.45"/>
        <path class="cls-3" d="M25.85,56.56h-.03c-.45.03-.81-.04-1.06-.21-.25-.17-.39-.43-.41-.78l-.02-.28,3.95-.27c.26-.02.42,0,.48.07.06.07.09.21.11.42l.03.5.91-.06-.29-4.22-.91.06.04.54c.02.23,0,.38-.06.44-.06.07-.21.11-.45.13l-3.95.27-.02-.28c-.02-.35.08-.63.3-.84.23-.2.57-.32,1.02-.35h.03s-.06-.94-.06-.94l-2.43.17.46,6.75,2.43-.17-.07-.95Z"/>
        <path class="cls-3" d="M26.31,49.27c1.02.26,1.91.15,2.66-.33.75-.49,1.27-1.29,1.56-2.41.29-1.13.23-2.09-.19-2.89-.42-.79-1.14-1.32-2.17-1.59-1.03-.27-1.92-.16-2.67.33-.75.49-1.27,1.29-1.56,2.42-.29,1.13-.23,2.09.19,2.88.42.79,1.15,1.32,2.18,1.59ZM24.89,45.04c.11-.42.37-.67.8-.77.42-.09,1.05-.03,1.88.18.82.21,1.39.46,1.71.75.32.29.42.64.31,1.06-.11.42-.37.67-.79.77-.42.09-1.05.03-1.88-.18-.82-.21-1.39-.46-1.71-.75-.32-.29-.43-.64-.32-1.06Z"/>
        <path class="cls-3" d="M28.67,39.52l-.02-.02c-.38-.25-.62-.52-.72-.8-.1-.29-.05-.58.14-.87l.15-.24,3.32,2.16c.22.15.34.26.34.35,0,.09-.05.22-.17.4l-.27.42.76.5,2.31-3.54-.76-.5-.29.45c-.12.19-.23.3-.32.32-.09.02-.23-.03-.44-.17l-3.32-2.16.15-.23c.19-.3.44-.46.75-.49.3-.03.65.08,1.02.33l.02.02.51-.79-2.04-1.33-3.7,5.67,2.04,1.33.52-.8Z"/>
        <path class="cls-3" d="M35.44,35.1c-.02.15-.1.27-.23.37l-.19.15.56.72,2.26-1.77-.56-.72-.25.2c-.11.09-.21.14-.29.17-.08.02-.14.01-.17-.03-.03-.03-.05-.08-.07-.13-.02-.05-.05-.12-.08-.22l-.22-.61,1.36-1.07.6.4s.07.06.11.09c.03.03.07.07.1.11.05.06.06.12.03.17-.03.05-.14.16-.33.31l-.23.18.56.72,3.07-2.41-.56-.72-.27.21c-.15.12-.27.17-.38.17-.11,0-.3-.09-.58-.28l-4.17-2.88-1.83,1.43,1.66,4.87c.08.23.11.43.09.58ZM36.75,31.63l-.89.7-.77-1.87,1.66,1.17Z"/>
        <path class="cls-3" d="M41.33,25.85c.22-.07.36-.09.44-.05.08.04.15.17.23.41l1.06,3.35c.08.24.09.4.05.47-.04.08-.17.15-.39.22l-.31.1.28.87,5.77-1.83-.81-2.56-.95.3c.1.38.15.69.16.93s-.03.43-.1.59c-.06.13-.16.24-.31.33-.14.09-.41.19-.79.32l-.41.13-1.22-3.85v-.04c-.08-.22-.1-.37-.05-.43.05-.07.17-.13.37-.2l.35-.11-.27-.87-3.69,1.17.27.86.31-.1Z"/>
        <path class="cls-3" d="M60.98,29.73l-.1-.04c-.18-.07-.28-.14-.32-.22-.03-.08,0-.23.08-.46l.51-1.35,1.67.64-.51,1.35c-.09.23-.17.36-.25.39-.08.04-.21.02-.39-.05l-.1-.04-.33.85,3.33,1.27.33-.85-.31-.12c-.21-.08-.33-.16-.37-.24-.04-.08-.01-.23.08-.47l1.25-3.28c.09-.23.17-.37.25-.4.08-.03.23,0,.43.07l.31.12.32-.85-3.33-1.27-.32.85.1.04c.18.07.29.14.32.22.04.08,0,.23-.08.46l-.41,1.08-1.66-.64.41-1.08c.09-.23.17-.36.25-.39.08-.04.21-.02.39.05l.1.04.32-.85-3.33-1.27-.32.85.3.11c.21.08.34.16.38.23.04.08.01.23-.08.47l-1.25,3.28c-.1.25-.18.38-.27.41-.08.02-.22,0-.42-.08l-.3-.11-.33.85,3.33,1.27.33-.85Z"/>
        <path class="cls-3" d="M71.29,38.21l1.88-1.88-.75-.75c-.25.22-.47.39-.67.51-.2.11-.38.19-.56.23-.15.03-.31,0-.46-.08-.16-.08-.39-.28-.7-.59l-.8-.8,1.42-1.42.18.18c.21.21.3.4.28.57-.02.17-.19.42-.5.74l.57.57,2.08-2.07-.57-.57-.04.04c-.25.25-.47.39-.65.4-.18.02-.38-.08-.58-.28l-.18-.18,1.25-1.25.58.58.14.14c.28.28.46.49.54.65.09.16.13.33.13.5,0,.15-.04.31-.11.49-.07.18-.19.4-.37.66l.72.72,1.7-1.69-4.77-4.77-.64.64.22.22c.16.16.24.28.25.37,0,.09-.08.22-.26.39l-2.48,2.48-.03.03c-.17.17-.29.25-.38.23-.08-.01-.2-.09-.35-.24l-.23-.23-.65.64,4.8,4.8Z"/>
        <path class="cls-3" d="M77.69,38.89l-3.3,1.21c-.23.09-.39.11-.47.07-.08-.04-.16-.17-.23-.38l-.1-.28-.86.31.99,2.71.86-.31-.08-.22c-.08-.21-.1-.36-.07-.44.03-.08.17-.16.4-.25l3.67-1.34-4.5,3.31.52,1.42,5.62-.3-3.67,1.34c-.25.09-.41.11-.48.07-.07-.05-.15-.17-.22-.37l-.08-.22-.86.31,1.21,3.31.86-.31-.11-.3c-.08-.21-.1-.35-.07-.43.03-.08.16-.16.41-.25l3.3-1.21c.24-.09.4-.11.47-.07.07.04.15.17.22.37l.11.3.85-.31-1.28-3.49-4,.21,3.23-2.34-1.24-3.38-.85.31.1.28c.08.21.1.36.07.44-.03.08-.17.16-.4.25Z"/>
        <path class="cls-3" d="M81.46,51.59c-.02.23-.06.37-.12.43-.06.06-.22.08-.47.05l-3.5-.3c-.25-.02-.4-.07-.45-.14-.05-.07-.07-.22-.05-.44l.03-.32-.91-.08-.33,3.86.91.08.03-.36c.02-.22.06-.36.13-.42.06-.06.22-.08.47-.06l1.38.12-.11,1.23c-.08.9.01,1.57.26,2.02.25.44.69.69,1.3.74.61.05,1.08-.12,1.41-.51.33-.39.53-1.04.6-1.94l.36-4.2-.9-.08-.03.32ZM81.15,54.71c-.04.44-.13.73-.28.9-.15.16-.38.23-.71.2-.34-.03-.58-.14-.71-.34-.13-.2-.17-.51-.14-.96l.04-.42,1.83.16-.04.46Z"/>
        <path class="cls-3" d="M26.42,64.93c-.28-.1-.48-.29-.6-.57-.13-.31-.1-.59.09-.84.19-.25.58-.49,1.15-.73.56-.24.99-.34,1.3-.31.31.03.53.19.65.49.11.26.1.5-.02.73-.12.23-.37.47-.74.71l.32.76,1.74-.74-.29-.69h-.28c.02-.23.02-.45-.02-.67-.04-.22-.1-.44-.2-.67-.29-.68-.72-1.14-1.3-1.37-.58-.23-1.21-.21-1.89.08-.72.3-1.19.73-1.41,1.29-.22.56-.18,1.2.13,1.93.26.62.62,1.04,1.07,1.25.45.21.96.21,1.53-.02l-.29-.68c-.36.12-.68.14-.96.04Z"/>
        <path class="cls-3" d="M33.08,69.42c.07-.64-.15-1.29-.64-1.95-.5-.67-1.06-1.06-1.69-1.19-.63-.12-1.25.04-1.86.5-.61.45-.94.99-1.01,1.63-.07.64.15,1.29.64,1.95.5.67,1.06,1.07,1.69,1.19.63.12,1.25-.04,1.86-.49.61-.45.95-1,1.02-1.63ZM31.95,68.67c-.14.28-.45.6-.94.96-.49.36-.88.57-1.18.62-.3.05-.55-.05-.73-.3-.18-.25-.21-.51-.07-.78.14-.28.45-.6.95-.96.49-.36.88-.56,1.18-.61.3-.05.55.05.73.3.18.25.21.51.07.79Z"/>
        <path class="cls-3" d="M37.85,73.98c.06,0,.15.05.28.15l.13.1.41-.5-1.56-1.28-.41.5.2.17c.12.1.19.18.2.24.01.06-.04.16-.16.3l-1.31,1.58.66-3.46-1.75-1.45-.41.5.17.14c.13.1.19.19.2.25,0,.06-.04.16-.15.3l-1.59,1.93c-.11.14-.2.21-.26.21-.06,0-.16-.05-.28-.15l-.17-.14-.41.5,1.56,1.29.41-.5-.16-.13c-.12-.1-.19-.18-.2-.25,0-.06.04-.16.16-.3l1.43-1.73-.72,3.68,1.21,1,2.26-2.74c.11-.14.2-.21.26-.21Z"/>
        <path class="cls-3" d="M42.45,75.91c-.16-.21-.33-.39-.53-.55-.2-.16-.42-.3-.68-.43-.5-.25-.97-.32-1.4-.22-.43.1-.75.36-.96.77-.1.19-.14.38-.14.57,0,.19.06.39.16.59.04.09.13.2.25.34.13.14.31.33.56.56.08.07.18.17.32.29.42.37.58.66.48.86-.06.13-.17.2-.32.23-.15.02-.32-.01-.51-.1-.31-.15-.53-.37-.67-.67-.14-.29-.18-.62-.12-.99l-.59-.29-.76,1.53.56.28.27-.15c.17.22.35.42.55.58.2.17.42.31.66.43.53.26,1.02.35,1.45.26.44-.09.76-.34.96-.76.19-.37.2-.73.06-1.07-.15-.34-.5-.75-1.07-1.21-.05-.04-.13-.11-.23-.19-.41-.32-.57-.57-.48-.76.06-.12.17-.2.33-.22.16-.02.33,0,.52.1.31.16.53.35.65.59.12.24.14.52.06.84l.69.34.71-1.43-.59-.29-.21.15Z"/>
        <path class="cls-3" d="M47.1,77.86l.23.05c.16.04.25.08.29.13.03.05.03.16-.01.34l-.48,2.02c-.07.31-.19.52-.36.63-.16.1-.4.12-.7.05-.26-.06-.42-.17-.49-.34-.07-.16-.07-.42.01-.76l.47-1.97c.04-.17.09-.27.14-.3.05-.03.16-.03.32.01l.25.06.15-.63-2.69-.64-.15.63.23.05c.16.04.26.08.29.14.04.05.03.16,0,.33l-.52,2.19c-.11.45-.02.83.25,1.16.27.32.71.56,1.32.7.67.16,1.2.16,1.6-.01.4-.17.66-.49.78-.96l.52-2.16c.04-.16.08-.26.14-.28.05-.03.16-.03.32.01l.2.05.15-.63-2.07-.49-.15.63Z"/>
        <path class="cls-3" d="M56.92,81.62c-.16,0-.26-.01-.31-.05-.05-.04-.08-.15-.08-.33l-.09-2.5c0-.18.01-.29.06-.33.04-.04.15-.06.3-.07h.23s-.02-.66-.02-.66l-2.66.09-.75,2.76-.87-2.71-2.57.09.02.65h.21c.16-.01.27,0,.31.04.05.04.07.15.08.33l.09,2.51c0,.18-.01.29-.06.33-.04.04-.15.07-.31.07h-.21s.02.66.02.66l2.06-.07-.02-.65h-.17c-.16.01-.26,0-.31-.05-.05-.04-.07-.15-.08-.33l-.1-2.79,1.25,3.79,1.08-.04,1.04-3.88.1,2.79c0,.19-.01.3-.06.34-.05.04-.15.06-.3.07h-.17s.02.66.02.66l2.52-.09-.02-.65h-.23Z"/>
        <path class="cls-3" d="M63.21,79.92c-.13.04-.23.04-.3.01-.07-.03-.17-.14-.31-.34l-1.99-3.02-1.6.46-.2,3.67c0,.18-.04.31-.1.4-.06.09-.14.15-.25.19l-.16.05.18.63,1.97-.57-.18-.63-.22.06c-.1.03-.18.04-.24.03-.06,0-.09-.03-.11-.07,0-.03-.01-.06-.02-.1,0-.04,0-.09,0-.17l.02-.46,1.19-.34.29.43s.03.06.05.09c.01.03.03.06.04.1.02.05,0,.09-.03.12-.03.03-.13.07-.3.12l-.2.06.18.63,2.68-.77-.18-.63-.23.07ZM59.74,79.37v-1.44s.78,1.22.78,1.22l-.78.22Z"/>
        <path class="cls-3" d="M67.86,76c-.26-.07-.59-.05-.98.06.22-.23.36-.47.41-.71.05-.24.02-.47-.1-.69-.18-.33-.43-.5-.76-.52-.33-.02-.76.12-1.28.41l-2.42,1.33.31.57.2-.11c.14-.08.24-.11.3-.1.06.01.13.1.22.26l1.21,2.2.02.03c.08.15.11.25.08.3-.02.05-.1.12-.24.19l-.2.11.31.57,2.36-1.3c.65-.35,1.06-.69,1.24-1.02.18-.32.16-.68-.05-1.07-.15-.27-.36-.44-.62-.52ZM65.48,76.51l-.59-1.08.24-.13c.21-.12.39-.16.52-.13s.25.14.36.33c.1.19.13.36.08.5-.05.14-.18.27-.39.39l-.22.12ZM67.17,77.73c-.05.16-.2.31-.44.44l-.26.14-.7-1.28.25-.14c.24-.13.44-.17.61-.13.17.04.31.17.43.38.13.23.17.43.12.59Z"/>
        <path class="cls-3" d="M72.19,72.63c.18.22.3.41.37.56.07.15.11.29.1.42,0,.1-.04.2-.1.3-.07.1-.21.24-.42.43l-.23.2-1.91-2.17-.02-.03c-.11-.13-.16-.22-.15-.27.01-.06.07-.14.19-.24l.2-.17-.43-.49-2.08,1.82.43.49.17-.15c.12-.11.21-.16.27-.16.06,0,.15.07.27.2l1.65,1.88c.12.13.17.23.17.29,0,.06-.07.15-.19.25l-.17.15.43.49,3.25-2.85-1.26-1.44-.54.47Z"/>
        <path class="cls-3" d="M76.26,67.73c.18.15.33.29.43.42.1.13.18.25.22.37.04.11.03.22,0,.34-.04.12-.15.3-.34.56l-.48.66-1.16-.84.11-.15c.12-.17.25-.26.37-.26.12,0,.31.08.58.27l.34-.46-1.69-1.23-.34.46.03.02c.21.15.33.29.36.42.03.13-.01.27-.14.44l-.1.14-1.02-.74.35-.47.08-.11c.16-.23.3-.38.4-.46.1-.08.22-.13.34-.15.11-.02.22,0,.36.02.13.03.3.09.51.19l.43-.59-1.38-1.01-2.84,3.89.52.38.13-.18c.1-.13.17-.2.23-.21.06-.01.16.03.31.14l2.03,1.48.03.02c.14.1.21.18.21.24,0,.06-.04.15-.13.27l-.14.19.53.38,2.86-3.92-1.53-1.12-.45.61Z"/>
        <path class="cls-3" d="M79.8,61.69c-.38-.17-.74-.16-1.08,0-.33.17-.72.54-1.15,1.13-.04.06-.1.14-.17.24-.3.43-.54.6-.73.52-.12-.05-.2-.16-.24-.32-.03-.16,0-.33.07-.52.14-.32.32-.55.55-.68.23-.13.51-.17.84-.11l.3-.71-1.46-.63-.26.6.16.21c-.2.17-.37.35-.52.56s-.28.44-.39.7c-.22.52-.27.99-.14,1.41.12.43.4.73.82.91.2.08.39.12.58.11.19-.01.38-.08.58-.2.09-.05.2-.14.33-.27.13-.13.31-.33.53-.59.07-.08.16-.19.27-.33.35-.44.63-.61.83-.53.13.06.21.16.24.31.03.15,0,.32-.08.51-.14.32-.34.55-.63.7-.28.15-.61.21-.98.17l-.26.61,1.57.68.25-.58-.17-.26c.21-.18.4-.37.55-.58.16-.21.29-.44.39-.69.23-.55.3-1.04.18-1.47-.11-.43-.38-.74-.81-.92Z"/>
        <polygon class="cls-3" points="55.75 54.97 55.75 54.97 55.75 54.97 55.75 54.97"/>
        <path class="cls-3" d="M52.71,60.79c.12-.14.19-.28.23-.42-.04.14-.11.28-.23.42l-.11.12-.02.03-.28.31-.1.11h0s0,0,0,0l.1-.11.28-.31.02-.03.11-.12Z"/>
        <path class="cls-3" d="M52.32,64.75c0-.06,0-.12,0-.18-.02-.49-.08-1.67-.08-1.67h0s-1.39,2.16-1.39,2.16c-.33.48-.85.95-1.41,1.12-.62.19-1.35.44-3.02.97-.03.01-.06.01-.08.01-.07,0-.11-.03-.11-.03,0,0,0,0,0,0h0s0,0,0,0h0s0,0,0,0c-.05-.06-.02-.12,0-.2.33-1.01.35-1.73.54-2.44.29-1.07.67-1.13,1.1-1.43l-1.69.32s-.58.12-1.01.12c-.08,0-.15,0-.21-.01-1-.15-3.17-1.36-7.59-2.07-.2-.07-.26-.24-.26-.34,0,0,0,0,0,0h0s0,0,0,0c0-.1.05-.26.23-.3,3.08-.62,4.63-1.02,7.38-1.98.9-.28,1.67,0,1.91.04,0,0,.02,0,.02,0l-1.9-1.16s-.37-.26-.7-.56c-.18-.15-.34-.32-.45-.46-2.14-2.92-2.11-5.35-3.94-8.31-.06-.1-.09-.21-.02-.3,0,0,0,0,0-.01,0,0,.02.02.06.06,0,0,0,0,0,0-.04-.04-.06-.07-.06-.07,0,0,0,0,0,0,.08-.09.21-.09.31-.02,3.83,2.66,4.99,2.85,7.59,4.49.35.22,1.1,1.01,1.1,1.01l1.42,2.05-.71-2.98-.31-1.29c-.15-.64-.16-1.31-.04-1.96.85-4.52,3.08-12.43,3.25-13.66.02-.15.12-.27.27-.27h0s0,0,0,0c0,0,0,0,0,0,.15,0,.25.12.27.27.21,1.17,2.88,9.94,3.56,13.8.09.53.1,1.38,0,1.9l-.62,3.48h0s.91-1.36.91-1.36c0,0,.75-.79,1.1-1.01,2.6-1.65,3.77-1.83,7.59-4.49.17-.11.33-.03.37.02,0,0,0,0,0,0h0c.08.09.06.21,0,.31-1.82,2.96-1.8,5.38-3.94,8.31-.31.42-1.15,1.02-1.15,1.02l-1.9,1.17h0s0,0,0,0h.05c.2-.03.54-.14.98-.14.25,0,.54.03.86.13,2.75.96,4.34,1.31,7.43,1.93.18.04.24.2.23.3,0,0,0,0,0,0,0,0,0,0,0,0,0,.1-.06.26-.26.33-4.41.71-6.59,1.92-7.59,2.07-.41.06-1.23-.11-1.23-.11l-1.67-.41s-.09-.05-.23-.12c-.24-.13-.62-.34-1.01-.55-.37-.2-.74-.4-.98-.54-.19-.1-.4-.16-.61-.16h-.44s-.03,0-.05,0h0s0,0,0,0c.02,0,.03,0,.05,0h.44c.22,0,.43.05.61.16.24.13.61.34.98.54.39.21.78.42,1.01.55l.3.21c.43.3.81.36,1.1,1.43.19.71.21,1.43.54,2.44.02.08.06.14,0,.2h0s0,0,0,0c-.05.06-.12.03-.2.01-1.67-.53-2.4-.78-3.02-.97-.56-.17-1.08-.64-1.41-1.12l-1.51-2.35c-.1.13-.16.3-.16.49,0,.05,0,.08,0,.12,0,.51-.02.42-.03,1.03,0,.04,0,.21,0,.41h0c.12.42.29.85.58,1.27.04.06.08.12.12.18.38.43.96.95,1.74,1.19.42.13,2.4.78,3.39,1.11l1.49.5s0,0,0,0l.37.12c.11-.91.07-1.54-.01-1.99,0-.05-.02-.1-.03-.15-.1-.44-.23-.68-.26-.81-.14-.38-.15-.68-.08-.92.05-.16.12-.31.24-.43.27-.27.7-.43,1.2-.56.41-.1,5.23-1.39,5.39-1.42,3.16-.69,3.24-2.58,3.23-2.82,0,0,0,0,0,0,0-.01,0-.02,0-.02,0,0,0,0,0,0,0,0-4.71-1.16-7.48-1.97,0,0,.03-.02.07-.04l.06-.13,1.13-2.43,2.28-4.87.02-.05s.05-.07.07-.11c.04-.06.08-.12.12-.19.01-.02.02-.03.03-.05.01-.02.02-.04.03-.05.54-.89,1.34-2.59,1.36-3.96,0-.4-.06-.77-.21-1.08,0,0,0,0,0-.01,0,0,0,0,0,0l-1.75,1.03s0,0,0,0l-8.61,5.07h0c.04-.08.07-.17.1-.27.99-3.29-3.26-17.07-4.65-18.54,0,0,0,0,0,0-.04-.04-.08-.08-.11-.1-.04-.02-.07-.04-.1-.04-.03,0-.06.02-.1.04-.03.02-.07.06-.11.1,0,0,0,0,0,0-.04.05-.09.11-.14.18,0,0,0,0,0,0-.05.07-.1.15-.16.25,0,0,0,0,0,0-.05.09-.11.2-.17.31,0,0,0,0,0,0-.06.11-.12.24-.18.37,0,0,0,0,0,.01-.06.13-.13.28-.19.43,0,0,0,0,0,0-.07.15-.13.32-.2.49,0,0,0,0,0,0-.07.17-.14.35-.21.54,0,0,0,0,0,0-.26.68-.54,1.45-.81,2.28-.32.96-.64,1.99-.94,3.06-.02.08-.05.17-.07.25-.04.15-.08.3-.13.46-.03.11-.06.23-.09.34,0,0,0,0,0,.01-.04.14-.07.27-.11.41-.04.13-.07.27-.11.4-.03.13-.06.25-.1.38-.04.14-.07.29-.11.43-.03.12-.06.24-.09.36-.03.15-.07.29-.1.44-.03.12-.05.23-.08.35-.03.15-.07.3-.1.44-.02.11-.05.23-.07.34-.03.15-.06.29-.09.44-.02.11-.04.22-.06.32-.03.14-.05.29-.08.43-.02.1-.04.21-.05.31-.02.14-.05.28-.07.41-.02.1-.03.2-.05.3-.02.13-.04.26-.05.39-.01.1-.03.19-.04.29-.02.13-.03.25-.04.37,0,.04,0,.08-.01.12,0,.05-.01.1-.01.14-.01.12-.02.23-.03.34,0,.08-.01.17-.02.25,0,.11,0,.21-.01.32,0,.08,0,.15,0,.22,0,.1,0,.2,0,.29,0,.07,0,.14,0,.2,0,.09.02.18.03.27,0,.05.01.11.02.16.01.09.03.17.05.25,0,.04.02.08.03.12.03.11.07.21.11.3l-1.16-.68-9.21-5.42c-.16.31-.22.69-.22,1.09.02,1.61,1.26,3.59,1.62,4.36l1.76,3.77,1.22,2.61.16.34.29.61.1.21.05.12c-2.77.81-7.1,1.76-7.45,1.84-.01,0-.03,0-.03,0,0,0-.14,2.11,3.23,2.84.17.03,4.98,1.32,5.39,1.42,1.05.25,1.8.68,1.36,1.9-.08.27-.54.96-.3,2.95l1.32-.44.54-.18c.99-.33,2.97-.99,3.39-1.11.7-.21,1.25-.66,1.63-1.06.14-.14.7-.93.69-1.58Z"/>
        <path class="cls-6" d="M54.87,56.24l.89-1.28h0s0,0,0,0v-.06s.01,0,.01,0l.62-3.48c.09-.53.09-1.38,0-1.9-.68-3.86-3.35-12.63-3.56-13.8-.03-.15-.12-.27-.27-.27,0,0,0,0,0,0h0v21.07c0,.47.17.92.47,1.27l.43.5,1.42-2.05Z"/>
        <path class="cls-6" d="M54.65,62.67s-.08-.05-.12-.08c-.06-.05-.13-.1-.19-.13-.04-.02-.08-.03-.11-.04-.09-.03-.18-.05-.27-.06-.04,0-.07-.01-.11-.01-.11,0-.21.03-.31.06-.04.02-.08.04-.12.06-.11.06-.2.13-.28.23,0,0,0,0,0,0h0s1.51,2.35,1.51,2.35c.33.48.85.95,1.41,1.12.62.19,1.35.44,3.02.97.07.02.14.05.2-.01,0,0,0,0,0,0,0,0,0,0,0,0h0s-4.21-4.05-4.62-4.46Z"/>
        <path class="cls-6" d="M52.84,59.64c-.03-.06-.06-.13-.1-.19-.01-.02-.03-.05-.05-.07,0,0-.01-.02-.02-.03-.02-.04-.04-.07-.07-.11l-.06-.09-.29-.42-.45-.65-1.73-2.49h0s-1.42-2.05-1.42-2.05c0,0-.75-.79-1.1-1.01-2.6-1.65-3.77-1.83-7.59-4.49-.1-.07-.22-.07-.31.02,0,0,0,0,0,0,0,0,.03.03.06.07.79.81,9.54,9.8,11.6,11.91.27.28.29.56.24.72-.06.22-.23.36-.23.36l-1.12-.97s-.04-.03-.06-.04c-.03-.02-.06-.05-.09-.07-.05-.04-.1-.07-.15-.11-.55-.39-1.18-.67-1.85-.79-.57-.1-1.18-.22-1.41-.27,0,0,0,0,0,0,0,0-.02,0-.02,0-.24-.05-1.01-.32-1.91-.04-2.75.96-4.3,1.36-7.38,1.98-.18.04-.24.2-.23.3,0,0,0,0,0,0h0c.07,0,8.09.01,11.33.02.24,0,.45,0,.63,0,.4,0,.66,0,.7,0,.2,0,.32.14.3.29,0,.09-.07.19-.18.26-.15.1-.53.37-.92.64-.46.32-.92.65-1.05.74l-.04.03s0,0,0,0c-.43.3-.81.36-1.1,1.43-.19.71-.21,1.43-.54,2.44-.02.08-.06.14,0,.2h0s0,0,0,0l5.01-4.84.8-.78.17-.17h0s.1-.11.1-.11l.28-.31.02-.03.11-.12c.12-.14.19-.28.23-.42.04-.15.04-.3,0-.45-.02-.09-.05-.18-.1-.28ZM51.66,61.44s0,0,0,0h0s0,0,0,0h0s0,0,0,0Z"/>
        <path class="cls-6" d="M68.19,61.09c-.86,0-7.45,0-11.19.01-.2,0-.39,0-.58,0-1.19,0-1.97,0-1.99,0-.07,0-.13-.06-.04-.14.04-.04.18-.15.33-.27.35-.29.84-.69.84-.69.04-.03.08-.06.12-.09.55-.44,1.2-.73,1.9-.85l1.15-.2h0s1.9-1.17,1.9-1.17c0,0,.84-.6,1.15-1.02,2.14-2.92,2.11-5.35,3.94-8.31.07-.1.09-.22,0-.31,0,0,0,0,0,0l-2.03,2.09-9.53,9.77-.34.35-.15.15c-.19.18-.25.34-.26.48,0,.04,0,.08.01.12,0,.02,0,.05,0,.07,0,.03.02.04.02.07.13.41.56.44.74.44,0,0,.02,0,.02,0h0s.03,0,.05,0h.44c.22,0,.43.05.61.16.24.13.61.34.98.54.39.21.78.42,1.01.55.14.08.23.12.23.12l1.67.41s.81.17,1.23.11c1-.15,3.17-1.36,7.59-2.07.2-.07.25-.24.26-.33,0,0,0,0,0,0,0,0-.03,0-.08,0h-.02Z"/>
        <path class="cls-5" d="M66.63,76.77c-.17-.04-.37,0-.61.13l-.25.14.7,1.28.26-.14c.24-.13.39-.28.44-.44.05-.16.01-.35-.12-.59-.12-.21-.26-.34-.43-.38Z"/>
        <path class="cls-5" d="M66.1,76c.05-.14.02-.31-.08-.5-.1-.19-.22-.3-.36-.33s-.31.01-.52.13l-.24.13.59,1.08.22-.12c.21-.12.34-.25.39-.39Z"/>
        <polygon class="cls-5" points="59.74 79.37 60.52 79.15 59.73 77.93 59.74 79.37"/>
        <path class="cls-5" d="M31.15,67.58c-.3.05-.7.25-1.18.61-.49.37-.81.69-.95.96-.14.28-.11.54.07.78.19.25.43.35.73.3.3-.05.7-.25,1.18-.62.49-.36.8-.68.94-.96.14-.28.12-.54-.07-.79-.18-.25-.43-.35-.73-.3Z"/>
        <path class="cls-5" d="M26.91,46.85c.83.22,1.46.28,1.88.18.42-.09.69-.35.79-.77.11-.42,0-.78-.31-1.06-.32-.29-.89-.54-1.71-.75-.83-.21-1.45-.27-1.88-.18-.42.09-.69.35-.8.77-.11.42,0,.77.32,1.06.32.29.89.54,1.71.75Z"/>
        <polygon class="cls-5" points="36.75 31.63 35.09 30.46 35.86 32.33 36.75 31.63"/>
        <path class="cls-5" d="M79.32,54.51c-.04.44,0,.76.14.96.13.2.36.31.71.34.32.03.56-.04.71-.2.15-.16.24-.46.28-.9l.04-.46-1.83-.16-.04.42Z"/>
        <path class="cls-5" d="M52.96,17.69c-19.24-.14-34.96,15.34-35.1,34.59-.14,19.24,15.34,34.96,34.59,35.1,19.24.14,34.96-15.34,35.1-34.59.14-19.24-15.34-34.96-34.59-35.1ZM67.36,32.99c.15.15.27.23.35.24.08.01.21-.07.38-.23l.03-.03,2.48-2.48c.18-.18.26-.31.26-.39,0-.09-.09-.21-.25-.37l-.22-.22.64-.64,4.77,4.77-1.7,1.69-.72-.72c.17-.27.3-.49.37-.66.07-.18.11-.34.11-.49,0-.17-.04-.34-.13-.5-.09-.16-.27-.38-.54-.65l-.14-.14-.58-.58-1.25,1.25.18.18c.21.21.4.3.58.28.18-.02.4-.15.65-.4l.04-.04.57.57-2.08,2.07-.57-.57c.31-.33.47-.57.5-.74.02-.17-.07-.36-.28-.57l-.18-.18-1.42,1.42.8.8c.31.31.54.51.7.59.16.08.31.11.46.08.18-.04.37-.11.56-.23.2-.11.42-.28.67-.51l.75.75-1.88,1.88-4.8-4.8.65-.64.23.23ZM57.65,28.46l.3.11c.2.08.34.1.42.08.08-.02.17-.16.27-.41l1.25-3.28c.09-.24.12-.39.08-.47-.04-.07-.16-.15-.38-.23l-.3-.11.32-.85,3.33,1.27-.32.85-.1-.04c-.18-.07-.31-.09-.39-.05-.08.04-.16.17-.25.39l-.41,1.08,1.66.64.41-1.08c.09-.23.11-.38.08-.46-.04-.08-.14-.15-.32-.22l-.1-.04.32-.85,3.33,1.27-.32.85-.31-.12c-.21-.08-.35-.11-.43-.07-.08.03-.17.16-.25.4l-1.25,3.28c-.09.23-.11.39-.08.47.04.08.16.16.37.24l.31.12-.33.85-3.33-1.27.33-.85.1.04c.18.07.31.08.39.05.08-.04.16-.17.25-.39l.51-1.35-1.67-.64-.51,1.35c-.09.23-.11.38-.08.46.03.08.14.15.32.22l.1.04-.33.85-3.33-1.27.33-.85ZM44.44,23.91l.27.87-.35.11c-.2.06-.33.13-.37.2-.05.07-.04.21.03.43v.04s1.24,3.85,1.24,3.85l.41-.13c.38-.12.64-.23.79-.32.14-.09.25-.2.31-.33.08-.16.11-.36.1-.59s-.06-.54-.16-.93l.95-.3.81,2.56-5.77,1.83-.28-.87.31-.1c.21-.07.34-.14.39-.22.04-.08.03-.23-.05-.47l-1.06-3.35c-.08-.24-.15-.37-.23-.41-.08-.04-.22-.02-.44.05l-.31.1-.27-.86,3.69-1.17ZM35.52,28.23l4.17,2.88c.28.19.47.28.58.28.11,0,.23-.06.38-.17l.27-.21.56.72-3.07,2.41-.56-.72.23-.18c.19-.15.3-.25.33-.31.03-.05.02-.11-.03-.17-.03-.04-.06-.07-.1-.11-.03-.03-.07-.06-.11-.09l-.6-.4-1.36,1.07.22.61c.03.09.06.17.08.22.02.05.05.09.07.13.03.04.09.05.17.03.08-.02.18-.08.29-.17l.25-.2.56.72-2.26,1.77-.56-.72.19-.15c.13-.1.2-.22.23-.37.02-.15,0-.34-.09-.58l-1.66-4.87,1.83-1.43ZM29.81,33.32l2.04,1.33-.51.79-.02-.02c-.38-.25-.72-.36-1.02-.33-.3.03-.55.19-.75.49l-.15.23,3.32,2.16c.21.13.35.19.44.17.09-.02.19-.13.32-.32l.29-.45.76.5-2.31,3.54-.76-.5.27-.42c.12-.18.17-.31.17-.4,0-.09-.12-.2-.34-.35l-3.32-2.16-.15.24c-.19.3-.24.59-.14.87.1.29.34.56.72.8l.02.02-.52.8-2.04-1.33,3.7-5.67ZM23.94,44.8c.29-1.12.81-1.93,1.56-2.42.75-.49,1.64-.6,2.67-.33,1.03.27,1.75.8,2.17,1.59.42.79.48,1.75.19,2.89-.29,1.12-.81,1.92-1.56,2.41-.75.49-1.64.6-2.66.33-1.03-.27-1.75-.8-2.18-1.59-.42-.79-.48-1.75-.19-2.88ZM23.02,50.92l2.43-.17.06.94h-.03c-.45.03-.79.15-1.02.36-.23.2-.33.48-.3.84l.02.28,3.95-.27c.25-.02.4-.06.45-.13.06-.07.08-.22.06-.44l-.04-.54.91-.06.29,4.22-.91.06-.03-.5c-.01-.21-.05-.35-.11-.42-.06-.06-.22-.09-.48-.07l-3.95.27.02.28c.02.35.16.61.41.78.25.17.6.24,1.06.21h.03s.07.95.07.95l-2.43.17-.46-6.75ZM25.82,64.36c.12.28.32.48.6.57.28.1.6.08.96-.04l.29.68c-.57.22-1.08.23-1.53.02-.45-.21-.81-.63-1.07-1.25-.31-.73-.35-1.37-.13-1.93.22-.56.69-.99,1.41-1.29.68-.29,1.31-.31,1.89-.08.58.23,1.02.69,1.3,1.37.1.23.16.45.2.67.04.22.04.44.02.66h.28s.29.7.29.7l-1.74.74-.32-.76c.38-.25.62-.48.74-.71.12-.23.13-.47.02-.73-.13-.3-.34-.46-.65-.49-.31-.03-.74.07-1.3.31-.57.24-.96.49-1.15.73-.19.25-.22.53-.09.84ZM30.21,71.54c-.63-.12-1.19-.52-1.69-1.19-.49-.66-.7-1.31-.64-1.95.07-.64.4-1.18,1.01-1.63.61-.45,1.23-.62,1.86-.5.63.12,1.19.52,1.69,1.19.49.67.71,1.32.64,1.95-.07.64-.41,1.18-1.02,1.63-.61.45-1.23.62-1.86.49ZM34.11,75.94l.72-3.68-1.43,1.73c-.11.14-.17.24-.16.3,0,.06.07.14.2.25l.16.13-.41.5-1.56-1.29.41-.5.17.14c.13.1.22.15.28.15.06,0,.15-.07.26-.21l1.59-1.93c.11-.13.16-.23.15-.3,0-.06-.08-.15-.2-.25l-.17-.14.41-.5,1.75,1.45-.66,3.46,1.31-1.58c.12-.14.17-.24.16-.3-.01-.06-.08-.14-.2-.24l-.2-.17.41-.5,1.56,1.28-.41.5-.13-.1c-.12-.1-.22-.15-.28-.15-.06,0-.15.07-.26.21l-2.26,2.74-1.21-1ZM42.55,77.48l-.69-.34c.08-.32.06-.61-.06-.84-.12-.24-.33-.43-.65-.59-.18-.09-.36-.12-.52-.1-.16.02-.27.1-.33.22-.09.18.07.44.48.76.1.08.18.14.23.19.56.46.92.86,1.07,1.21.15.34.13.7-.06,1.07-.21.42-.53.67-.96.76-.44.09-.92,0-1.45-.26-.24-.12-.46-.27-.66-.43-.2-.17-.38-.36-.55-.58l-.27.15-.56-.28.76-1.53.59.29c-.06.37-.02.69.12.99.14.29.36.51.67.67.19.09.35.13.51.1.15-.02.26-.1.32-.23.1-.2-.06-.48-.48-.86-.14-.12-.24-.22-.32-.29-.25-.23-.44-.42-.56-.56-.13-.14-.21-.25-.25-.34-.1-.21-.16-.4-.16-.59,0-.19.04-.38.14-.57.21-.41.52-.67.96-.77.43-.1.9-.03,1.4.22.26.13.48.27.68.43.2.16.37.34.53.55l.21-.15.59.29-.71,1.43ZM49.17,78.35l-.2-.05c-.16-.04-.26-.04-.32-.01-.05.03-.1.12-.14.28l-.52,2.16c-.11.48-.37.8-.78.96-.4.17-.94.17-1.6.01-.6-.14-1.04-.38-1.32-.7-.27-.32-.36-.71-.25-1.16l.52-2.19c.04-.17.04-.28,0-.33-.04-.05-.13-.1-.29-.14l-.23-.05.15-.63,2.69.64-.15.63-.25-.06c-.16-.04-.27-.04-.32-.01-.05.03-.1.13-.14.3l-.47,1.97c-.08.34-.09.6-.01.76.07.16.24.28.49.34.3.07.54.06.7-.05.17-.1.28-.31.36-.63l.48-2.02c.04-.18.05-.29.01-.34-.03-.05-.13-.09-.29-.13l-.23-.05.15-.63,2.07.49-.15.63ZM54.65,82.35l-.02-.65h.17c.15-.01.25-.03.3-.07.05-.04.07-.15.06-.34l-.1-2.79-1.04,3.88-1.08.04-1.25-3.79.1,2.79c0,.18.03.29.08.33.05.04.15.06.31.05h.17s.02.65.02.65l-2.06.07-.02-.65h.21c.16-.01.26-.04.31-.08.04-.04.06-.15.06-.33l-.09-2.51c0-.18-.03-.29-.08-.33-.05-.04-.15-.06-.31-.05h-.21s-.02-.64-.02-.64l2.57-.09.87,2.71.75-2.76,2.66-.09.02.65h-.23c-.16.01-.26.04-.3.08-.04.04-.06.15-.06.33l.09,2.5c0,.19.03.3.08.33.05.04.15.05.31.05h.23s.02.64.02.64l-2.52.09ZM50.38,72.73v-.48h1.51v.48h-.47v1.72h-.57v-1.72h-.47ZM52.04,74.45l.37-2.2h.57l.44,1.17.44-1.17h.57l.37,2.2h-.57l-.19-1.27-.52,1.27h-.23l-.49-1.27-.19,1.27h-.57ZM54.41,69.84c-.52-.16-1.41-.91-1.41-1.69-.03-.62-.06-2.65-.06-2.93h0c0-.16,0-.32,0-.46h0c0-.21,0-.37,0-.41,0-.6.02-.52.03-1.03,0-.04,0-.07,0-.12,0-.19.06-.36.16-.49h0s0,0,0,0c.07-.1.17-.17.28-.23.04-.02.08-.04.12-.06.1-.04.2-.06.31-.06.04,0,.07,0,.11.01.09,0,.18.03.27.06.04.01.08.03.11.04.07.03.13.08.19.13.04.03.09.05.12.08.41.41,4.62,4.46,4.62,4.46h0s0,0,0,0c0,0,0,0,0,0h0s0,0,0,0c.05-.06.02-.12,0-.2-.33-1.01-.35-1.73-.54-2.44-.3-1.07-.68-1.13-1.1-1.43l-.3-.21c-.24-.13-.62-.34-1.01-.55-.37-.2-.74-.4-.98-.54-.19-.1-.4-.16-.61-.16h-.44s-.03,0-.05,0c0,0,0,0,0,0,0,0-.02,0-.02,0-.18,0-.61-.03-.74-.44,0-.02-.02-.04-.02-.07,0-.02,0-.05,0-.07,0-.04-.01-.08-.01-.12.01-.14.08-.31.26-.48l.15-.15.34-.35,9.53-9.77,2.03-2.09s0,0,0,0h0s0,0,0,0c-.04-.04-.2-.13-.37-.02-3.83,2.66-4.99,2.85-7.59,4.49-.35.22-1.1,1.01-1.1,1.01l-.91,1.36v.06s-.01,0-.01,0h0s0,0,0,0l-.89,1.28-1.42,2.05-.43-.5c-.3-.35-.47-.8-.47-1.27v-21.06h0c-.15,0-.25.12-.27.27-.16,1.23-2.39,9.14-3.25,13.66-.12.65-.11,1.31.04,1.96l.31,1.29.71,2.98h0s1.73,2.49,1.73,2.49l.45.65.29.42.06.09s.05.07.07.11c0,0,.01.02.02.03.01.02.03.05.05.07.04.07.07.13.1.19.04.1.08.19.1.28.04.16.04.31,0,.45-.04.15-.11.29-.23.42l-.11.12-.02.03-.28.31-.1.11h0s-.17.17-.17.17l-.8.78-5.01,4.84h0s0,0,0,0c0,0,0,0,0,0,0,0,.05.03.11.03.03,0,.05,0,.08-.01,1.67-.53,2.4-.78,3.02-.97.56-.17,1.08-.64,1.41-1.12l1.39-2.15h0c.02.42.05.92.07,1.33,0,.11,0,.22.01.33,0,.06,0,.12,0,.18,0,.21,0,.43.01.65,0,.23,0,2.04-.02,2.73,0,.77-.84,1.57-1.33,1.72-.17.05-1.67.51-3.21.99-1.78.55-3.63,1.12-3.63,1.12l-.22-2.57c-.21-1.78.88-3.24.14-3.38,0,0-4.11-1.02-7.95-1.57-3.84-.56-4.4-4.67-4.4-4.67l1.51-.37,6.94-1.7.28-.07-2.67-6.14c-.27-.72-1.99-4.25-2.19-7.16-.07-.96.02-1.85.35-2.51,0,0,6.89,3.83,10.15,5.77,0-.34.04-.75.1-1.21.81-6.04,6.52-21.69,6.52-21.69,0,0,6.61,18.12,6.61,22.9,3.27-1.94,10.15-5.77,10.15-5.77.34.66.42,1.55.36,2.51-.2,2.92-1.92,6.44-2.19,7.16l-2.6,6.04,7.15,1.87,1.51.37s-.55,4.11-4.4,4.67c-3.84.56-7.95,1.57-7.95,1.57-.74.14.36,1.6.14,3.38l-.22,2.57s-1.85-.57-3.63-1.12h0c-1.55-.48-3.04-.94-3.21-.99ZM60.94,81.25l-.18-.63.2-.06c.17-.05.27-.09.3-.12.03-.03.04-.07.03-.12-.01-.03-.02-.07-.04-.1-.01-.03-.03-.06-.05-.09l-.29-.43-1.19.34-.02.46c0,.07,0,.13,0,.17,0,.04,0,.07.02.1.01.04.05.06.11.07.06,0,.14,0,.24-.03l.22-.06.18.63-1.97.57-.18-.63.16-.05c.11-.03.19-.09.25-.19.06-.09.09-.23.1-.4l.2-3.67,1.6-.46,1.99,3.02c.13.2.24.31.31.34.07.03.17.03.3-.01l.23-.07.18.63-2.68.77ZM68.53,77.59c-.18.32-.59.66-1.24,1.02l-2.36,1.3-.31-.57.2-.11c.13-.07.21-.14.24-.19.03-.05,0-.16-.08-.3l-.02-.03-1.21-2.2c-.09-.16-.16-.24-.22-.26-.06-.01-.16.02-.3.1l-.2.11-.31-.57,2.42-1.33c.53-.29.95-.42,1.28-.41.33.02.58.19.76.52.12.22.16.45.1.69-.05.24-.19.48-.41.71.39-.12.72-.14.98-.06.26.07.47.25.62.52.22.39.23.75.05,1.07ZM70.74,76.46l-.43-.49.17-.15c.12-.11.18-.19.19-.25,0-.06-.05-.16-.17-.29l-1.65-1.88c-.12-.13-.21-.2-.27-.2-.06,0-.15.05-.27.16l-.17.15-.43-.49,2.08-1.82.43.49-.2.17c-.11.1-.18.18-.19.24-.01.06.04.15.15.27l.02.03,1.91,2.17.23-.2c.21-.19.36-.33.42-.43.07-.1.1-.2.1-.3,0-.13-.03-.27-.1-.42-.07-.15-.2-.34-.37-.56l.54-.47,1.26,1.44-3.25,2.85ZM75.38,72.16l-.53-.38.14-.19c.09-.12.13-.21.13-.27,0-.06-.07-.14-.21-.24l-.03-.02-2.03-1.48c-.14-.1-.25-.15-.31-.14-.06.01-.14.08-.23.21l-.13.18-.52-.38,2.84-3.89,1.38,1.01-.43.59c-.21-.09-.38-.16-.51-.19-.13-.03-.25-.04-.36-.02-.12.02-.23.07-.34.15-.1.08-.24.23-.4.46l-.08.11-.35.47,1.02.74.1-.14c.12-.17.17-.31.14-.44-.03-.13-.15-.27-.36-.42l-.03-.02.34-.46,1.69,1.23-.34.46c-.26-.18-.46-.27-.58-.27-.12,0-.24.09-.37.26l-.11.15,1.16.84.48-.66c.19-.25.3-.44.34-.56.04-.12.04-.23,0-.34-.05-.12-.12-.25-.22-.37-.1-.13-.25-.26-.43-.42l.45-.61,1.53,1.12-2.86,3.92ZM80.43,64.08c-.11.25-.24.48-.39.69-.16.21-.34.4-.55.58l.17.26-.25.58-1.57-.68.26-.61c.37.04.69-.02.98-.17.28-.15.49-.39.63-.7.08-.19.11-.36.08-.51-.03-.15-.11-.25-.24-.31-.2-.09-.48.09-.83.53-.11.14-.2.25-.27.33-.22.26-.39.46-.53.59-.13.13-.24.23-.33.27-.2.12-.39.18-.58.2-.19.01-.38-.02-.58-.11-.42-.18-.7-.49-.82-.91-.12-.43-.08-.9.14-1.41.11-.26.24-.5.39-.7s.32-.39.52-.56l-.16-.21.26-.6,1.46.63-.3.71c-.33-.06-.61-.02-.84.11-.23.13-.41.35-.55.68-.08.19-.1.36-.07.52.03.16.11.27.24.32.19.08.43-.09.73-.52.07-.1.13-.19.17-.24.43-.59.81-.96,1.15-1.13.33-.17.69-.17,1.08,0,.43.18.7.49.81.92.11.43.05.92-.18,1.47ZM82.03,55.55c-.08.9-.28,1.55-.6,1.94-.33.4-.79.57-1.41.51-.61-.05-1.05-.3-1.3-.74-.25-.44-.34-1.12-.26-2.02l.11-1.23-1.38-.12c-.25-.02-.41,0-.47.06-.06.06-.11.2-.13.42l-.03.36-.91-.08.33-3.86.91.08-.03.32c-.02.22,0,.37.05.44.05.07.2.11.45.14l3.5.3c.25.02.4,0,.47-.05.06-.06.1-.2.12-.43l.03-.32.9.08-.36,4.2ZM78.02,38.21l-.1-.28.85-.31,1.24,3.38-3.23,2.34,4-.21,1.28,3.49-.85.31-.11-.3c-.08-.21-.15-.33-.22-.37-.07-.04-.23-.02-.47.07l-3.3,1.21c-.24.09-.38.17-.41.25-.03.08,0,.22.07.43l.11.3-.86.31-1.21-3.31.86-.31.08.22c.07.2.15.33.22.37.07.05.23.02.48-.07l3.67-1.34-5.62.3-.52-1.42,4.5-3.31-3.67,1.34c-.23.09-.37.17-.4.25-.03.08-.01.23.07.44l.08.22-.86.31-.99-2.71.86-.31.1.28c.08.21.15.34.23.38.08.04.23.02.47-.07l3.3-1.21c.23-.09.37-.17.4-.25.03-.08.01-.23-.07-.44Z"/>
        <polygon class="cls-3" points="51.66 61.44 51.66 61.44 51.66 61.44 51.66 61.44 51.66 61.44"/>
        <path class="cls-5" d="M39.71,48.12s-.06-.06-.06-.06c0,0,0,0,0,.01-.07.09-.05.2.02.3,1.82,2.96,1.8,5.38,3.94,8.31.1.14.27.31.45.46.34.3.7.56.7.56l1.9,1.16s0,0,0,0c.23.05.84.17,1.41.27.67.12,1.3.4,1.85.79.05.04.1.07.15.11.03.02.06.04.09.07.02.02.04.03.06.04l1.12.97s.17-.14.23-.36c.04-.16.03-.44-.24-.72-2.06-2.11-10.81-11.09-11.6-11.91,0,0,0,0,0,0Z"/>
        <path class="cls-5" d="M49.76,61.11s-.3,0-.7,0c-.18,0-.39,0-.63,0-3.24,0-11.26-.02-11.33-.02,0,0,0,0,0,0,0,.1.06.26.26.34,4.41.71,6.59,1.92,7.59,2.07.06,0,.14.01.21.01.43,0,1.01-.12,1.01-.12l1.69-.32s0,0,0,0l.04-.03c.13-.09.6-.42,1.05-.74.39-.27.77-.54.92-.64.12-.07.17-.17.18-.26.01-.15-.11-.29-.3-.29Z"/>
        <path class="cls-5" d="M68.22,61.09s.08,0,.08,0c0,0,0,0,0,0,0,0,0,0,0,0,0,0,0,0,0,0,0-.1-.05-.26-.23-.3-3.09-.62-4.67-.97-7.43-1.93-.32-.1-.61-.13-.86-.13-.45,0-.78.11-.98.13h-.05s0,0,0,0h0s-1.15.2-1.15.2c-.7.12-1.35.42-1.9.85-.04.03-.08.06-.12.09,0,0-.49.4-.84.69-.16.13-.29.24-.33.27-.09.08-.03.14.04.14.02,0,.8,0,1.99,0,.18,0,.38,0,.58,0,3.74,0,10.32-.01,11.19-.01h.02Z"/>
      </g>
    </g>
  </g>
</svg>