<?xml version="1.0" encoding="UTF-8"?>
<svg id="Layer_2" data-name="Layer 2" xmlns="http://www.w3.org/2000/svg" xmlns:xlink="http://www.w3.org/1999/xlink" viewBox="0 0 95.7 95.7">
  <defs>
    <style>
      .cls-1 {
        fill: none;
      }

      .cls-2 {
        fill: #f4bf3d;
      }

      .cls-3 {
        fill: #12a578;
      }

      .cls-4 {
        fill: #e56525;
      }

      .cls-5 {
        clip-path: url(#clippath);
      }

      .cls-6 {
        fill: #19572b;
      }
    </style>
    <clipPath id="clippath">
      <rect class="cls-1" width="95.7" height="95.7"/>
    </clipPath>
  </defs>
  <g class="cls-5">
    <g>
      <path class="cls-4" d="M57.53,77.11l.21-1.42-.97,1.19c.27.08.52.16.76.24Z"/>
      <path class="cls-4" d="M55.78,76.57c.25.08.49.15.73.23l-.11-1.52-.62,1.29Z"/>
      <path class="cls-4" d="M64.56,58.14l3.52-8.19c.37-.98,2.7-5.76,2.97-9.71.09-1.31-.03-2.51-.48-3.41,0,0-9.33,5.19-13.76,7.82,0-6.48-8.97-31.04-8.97-31.04,0,0-7.74,21.21-8.83,29.41-.08.62-.13,1.18-.13,1.64-4.43-2.63-13.76-7.82-13.76-7.82-.46.9-.57,2.1-.48,3.41.28,3.95,2.61,8.73,2.97,9.71l3.63,8.32-.37.09-9.41,2.31-2.05.5s.75,5.57,5.96,6.33c5.21.76,10.78,2.13,10.78,2.13,1,.19-.48,2.17-.19,4.58l.3,3.49s2.51-.78,4.92-1.52c2.1-.65,4.12-1.27,4.35-1.35.66-.2,1.78-1.27,1.8-2.3,0,0,0-.02,0-.03.02-.47.03-1.34.03-2.12,0-.75,0-1.42,0-1.58,0-.29,0-.6-.02-.88.02.88-.75,1.96-.93,2.14-.1.1-.21.21-.32.31-.49.45-1.11.9-1.89,1.13-.26.08-.96.31-1.77.57-.97.32-2.09.69-2.83.94l-.73.24-1.79.6c-.32-2.69.3-3.63.41-3.99.6-1.66-.43-2.24-1.85-2.58-.56-.14-7.09-1.89-7.31-1.92-4.57-.99-4.38-3.86-4.38-3.86,0,0,.03,0,.05,0,.41-.09,4.83-1.06,8.44-2.03.58-.15,1.14-.31,1.65-.46l-.07-.16-.13-.28-.39-.83-.22-.46-1.65-3.53-2.39-5.11c-.48-1.05-2.17-3.73-2.19-5.91,0-.55.08-1.05.29-1.48l8.65,5.09,3.84,2.26,1.57.92c-.06-.12-.11-.25-.15-.4-.01-.05-.02-.11-.03-.16-.03-.11-.05-.22-.07-.34-.01-.07-.02-.15-.03-.22-.01-.12-.03-.23-.04-.36,0-.09,0-.18-.01-.27,0-.13,0-.26,0-.4,0-.1,0-.2,0-.3,0-.14,0-.28.01-.43,0-.11.01-.22.02-.34,0-.04,0-.07,0-.11,0-.12.02-.23.03-.36,0-.06.01-.13.02-.2,0-.06.01-.11.02-.17.02-.16.03-.33.06-.5.02-.13.03-.26.05-.39.02-.17.05-.35.07-.53.02-.13.04-.27.06-.4.03-.18.06-.37.09-.56.02-.14.05-.28.07-.42.03-.19.07-.39.11-.58.03-.15.06-.29.09-.44.04-.2.08-.39.12-.59.03-.15.06-.3.1-.46.04-.2.09-.4.13-.6.03-.16.07-.31.11-.47.05-.2.09-.4.14-.6.04-.16.08-.33.12-.49.05-.19.1-.39.15-.58.04-.17.09-.34.13-.51.05-.18.09-.36.14-.55.05-.19.1-.37.15-.56,0,0,0,0,0-.02.04-.15.08-.31.13-.46.06-.21.11-.41.17-.62.03-.11.07-.23.1-.34.04-.15.09-.29.13-.44.37-1.29.76-2.54,1.15-3.71.3-.9.59-1.73.88-2.5.07-.19.15-.41.22-.59,0,0,0,0,0,0,.1-.25.19-.5.29-.73,0,0,0,0,0,0,.09-.23.19-.45.28-.66,0,0,0,0,0-.01.09-.21.18-.4.26-.58,0,0,0-.01,0-.02.08-.18.17-.35.25-.5,0,0,0,0,0-.01.08-.15.16-.3.23-.42,0,0,0,0,0,0,.07-.13.14-.24.21-.33,0,0,0,0,0,0,.07-.1.13-.18.19-.24,0,0,0,0,0,0,0,0,0,0,0,0,.05-.06.1-.1.15-.13.05-.03.09-.05.13-.05.04,0,.09.02.13.05.05.03.1.08.15.13,0,0,0,0,0,0,.36.38.87,1.39,1.44,2.79.54,1.33,1.14,3,1.73,4.86.52,1.62,1.03,3.37,1.49,5.12.52,1.96.97,3.93,1.29,5.72.38,2.08.59,3.92.53,5.27-.02.54-.08,1-.19,1.37-.04.14-.09.26-.14.37h0s.78-.46.78-.46l10.89-6.41s0,0,0,0l2.38-1.4s0,0,0,0c0,0,0,.01,0,.02.21.42.29.92.28,1.46-.02,1.85-1.11,4.16-1.84,5.37-.01.02-.03.05-.04.07-.01.02-.03.04-.04.07-.06.1-.11.18-.17.26-.03.05-.07.1-.1.15l-.03.07-3.09,6.61-1.29,2.76-.25.54-.08.17c-.06.04-.1.06-.1.06,1.66.49,3.84,1.07,5.75,1.56,2.4.62,4.39,1.11,4.39,1.11,0,0,0,0,0,0,0,0,0,.01,0,.03,0,0,0,0,0,0,0,.32-.1,2.89-4.38,3.82-.03,0-.17.04-.39.1-1.45.37-6.43,1.71-6.92,1.83-.29.07-.55.15-.79.25-.34.13-.63.29-.84.51-.16.16-.27.35-.33.58-.09.33-.08.73.11,1.25.05.18.23.5.36,1.1.01.07.02.13.03.2.11.61.16,1.46.02,2.69l-.5-.17s0,0,0,0l-1.87-.62-.15-.05c-.7-.23-1.76-.58-2.7-.89-.86-.28-1.63-.53-1.9-.62-.74-.22-1.34-.64-1.81-1.06-.2-.18-.39-.37-.55-.54-.06-.08-.11-.16-.16-.24-.25-.37-.44-.75-.58-1.12-.08-.2-.15-.4-.2-.59,0,.19,0,.41,0,.63h0c0,.08,0,.31,0,.6,0,0,0,0,0,.01,0,.04,0,.08,0,.12,0,.32.01.7.02,1.1.02.84.04,1.72.05,2.14,0,1.06,1.2,2.07,1.9,2.29.21.06,1.85.57,3.69,1.14l.56-1.84-.51-.16.16-.53,1.01.31.63.19-.1.32-.06.21-.51-.16-.56,1.84h-.01s.04,0,.06.01c.21.07.43.13.64.2l.86-1.71.27-.53.17.05.45.14.09,1.42.86-1.13.62.19-.32,2.5c.79.24,1.3.4,1.3.4l.3-3.49c.29-2.41-1.19-4.4-.19-4.58,0,0,5.57-1.38,10.78-2.13,5.21-.76,5.96-6.33,5.96-6.33l-2.05-.5-9.69-2.53Z"/>
      <path class="cls-4" d="M47.23,65.42s.06,1.15.09,1.91c0,.13.01.26.01.36,0-.12,0-.24-.01-.36,0-.03,0-.06,0-.08-.02-.55-.06-1.23-.09-1.82Z"/>
      <polygon class="cls-4" points="46.45 63.45 46.45 63.45 46.45 63.45 46.45 63.45"/>
      <polygon class="cls-2" points="52 54.67 52 54.67 52.01 54.59 52.01 54.59 52 54.67 52 54.67"/>
      <path class="cls-2" d="M47.87,62.57l-.15.16-.03.04-.37.42-.13.14h0s0,0,0,0l.13-.14.37-.42.03-.04.15-.16c.06-.07.1-.14.15-.21.07-.12.13-.24.16-.36-.03.12-.09.24-.16.36-.04.07-.09.14-.15.21Z"/>
      <path class="cls-2" d="M71.74,61.52s0,0,0,0c0,0-1.98-.49-4.39-1.11-1.91-.5-4.09-1.08-5.75-1.56,0,0,.04-.02.1-.06l.08-.17.25-.54,1.29-2.76,3.09-6.61.03-.07s.07-.09.1-.15c.05-.08.11-.16.17-.26.01-.02.03-.04.04-.07.01-.02.03-.05.04-.07.73-1.21,1.82-3.52,1.84-5.37,0-.54-.07-1.04-.28-1.46,0,0,0-.01,0-.02,0,0,0,0,0,0l-2.38,1.4s0,0,0,0l-10.89,6.41-.78.46h0c.05-.11.1-.23.14-.37.11-.36.17-.83.19-1.37.05-1.35-.16-3.2-.53-5.27-.33-1.8-.78-3.76-1.29-5.72-.46-1.75-.97-3.5-1.49-5.12-.59-1.85-1.19-3.53-1.73-4.86-.57-1.4-1.08-2.41-1.44-2.79,0,0,0,0,0,0-.05-.06-.1-.1-.15-.13-.05-.03-.09-.05-.13-.05-.04,0-.09.02-.13.05-.05.03-.1.08-.15.13,0,0,0,0,0,0,0,0,0,0,0,0-.06.06-.12.14-.19.24,0,0,0,0,0,0-.07.1-.14.21-.21.33,0,0,0,0,0,0-.07.13-.15.27-.23.42,0,0,0,0,0,.01-.08.15-.16.32-.25.5,0,0,0,.01,0,.02-.09.18-.17.38-.26.58,0,0,0,0,0,.01-.09.21-.18.43-.28.66,0,0,0,0,0,0-.09.23-.19.48-.29.73,0,0,0,0,0,0-.07.18-.15.4-.22.59-.29.77-.58,1.6-.88,2.5-.39,1.17-.77,2.42-1.15,3.71-.04.15-.09.29-.13.44-.03.11-.07.23-.1.34-.06.21-.11.41-.17.62-.04.15-.08.31-.13.46,0,0,0,0,0,.02-.05.19-.1.37-.15.56-.05.18-.1.36-.14.55-.04.17-.09.34-.13.51-.05.19-.1.39-.15.58-.04.16-.08.33-.12.49-.05.2-.09.4-.14.6-.04.16-.07.31-.11.47-.04.2-.09.4-.13.6-.03.15-.06.31-.1.46-.04.2-.08.4-.12.59-.03.15-.06.29-.09.44-.04.2-.07.39-.11.58-.03.14-.05.28-.07.42-.03.19-.06.38-.09.56-.02.14-.04.27-.06.4-.03.18-.05.36-.07.53-.02.13-.03.26-.05.39-.02.17-.04.34-.06.5,0,.06-.01.11-.02.17,0,.06-.01.13-.02.2-.01.12-.02.24-.03.36,0,.04,0,.07,0,.11,0,.11-.02.23-.02.34,0,.15-.01.29-.01.43,0,.1,0,.21,0,.3,0,.14,0,.27,0,.4,0,.09,0,.18.01.27,0,.13.02.24.04.36,0,.07.01.15.03.22.02.12.05.23.07.34.01.05.02.11.03.16.04.15.09.29.15.4l-1.57-.92-3.84-2.26-8.65-5.09c-.22.43-.3.93-.29,1.48.03,2.18,1.71,4.87,2.19,5.91l2.39,5.11,1.65,3.53.22.46.39.83.13.28.07.16c-.52.15-1.07.31-1.65.46-3.62.97-8.04,1.94-8.44,2.03-.02,0-.05,0-.05,0,0,0-.18,2.86,4.38,3.86.22.03,6.75,1.79,7.31,1.92,1.42.34,2.44.92,1.85,2.58-.1.37-.73,1.3-.41,3.99l1.79-.6.73-.24c.73-.24,1.86-.62,2.83-.94.81-.27,1.51-.5,1.77-.57.78-.24,1.4-.68,1.89-1.13.11-.1.22-.21.32-.31.19-.19.95-1.26.93-2.14,0-.08,0-.16,0-.24,0-.1,0-.22-.01-.36-.03-.76-.09-1.91-.09-1.91v.02s-1.89,2.91-1.89,2.91c-.45.65-1.15,1.29-1.91,1.52-.85.26-1.83.59-4.09,1.32-.04.01-.08.02-.11.02-.09,0-.15-.03-.15-.03,0,0,0,0,0,0h0s0,0,0,0h0s0,0,0,0c-.07-.08-.03-.17,0-.27.45-1.37.47-2.35.73-3.31.4-1.45.91-1.53,1.49-1.94l-2.29.44s-.79.17-1.37.17c-.11,0-.2,0-.29-.02-1.35-.21-4.3-1.84-10.28-2.8-.28-.1-.35-.32-.36-.46,0,0,0,0,.01,0h0s0,0,0,0c0-.13.07-.36.32-.41,4.18-.84,6.28-1.38,10.01-2.69.37-.12.72-.16,1.05-.16,0,0,0,0,0,0,0,0,.01,0,.02,0,.04,0,.07,0,.11,0,0,0,0,0,.01,0h0c.67.01,1.19.18,1.4.22,0,0,.02,0,.03,0l-2.57-1.58s-.5-.35-.95-.76c-.24-.21-.47-.43-.61-.63-2.9-3.96-2.86-7.25-5.34-11.26-.09-.13-.12-.28-.02-.4,0,0,0-.01,0-.02,0,0,.03.03.08.08,0,0,0,0,.01.01-.05-.05-.09-.09-.09-.09,0,0,0,0,0,0,.11-.12.28-.12.42-.03,5.19,3.61,6.76,3.86,10.29,6.09.48.3,1.49,1.37,1.49,1.37l.44.64,1.49,2.14-.96-4.04-.28-1.17-.14-.57c-.21-.87-.22-1.77-.06-2.65,1.16-6.13,4.18-16.85,4.4-18.51.03-.2.16-.37.37-.37h0s0,0,0,0c0,0,0,0,0,0,.2,0,.33.17.37.37.29,1.58,3.91,13.47,4.83,18.7.13.71.13,1.87,0,2.58l-.83,4.72h0s1.24-1.84,1.24-1.84c0,0,1.01-1.07,1.49-1.37,3.53-2.23,5.11-2.49,10.29-6.09.24-.15.45-.03.5.03,0,0,0,0,0,0h0c.11.12.08.28-.01.42-1.07,1.74-1.67,3.35-2.25,4.93-.22.61-.44,1.22-.68,1.83-.57,1.45-1.26,2.93-2.41,4.51-.42.57-1.56,1.38-1.56,1.38l-2.58,1.59h0s0,0,0,0h.06c.28-.04.73-.19,1.33-.19.34,0,.73.05,1.17.18,3.73,1.3,5.88,1.77,10.07,2.61.25.05.33.27.32.41,0,0,0,0,0,0,0,0,0,0,0,0-.01.13-.08.35-.36.45-5.98.96-8.93,2.6-10.28,2.8-.56.08-1.66-.15-1.66-.15l-2.26-.55s-.12-.07-.31-.17c-.32-.17-.84-.46-1.37-.75-.48-.26-.96-.53-1.29-.71-.01,0-.03-.01-.04-.02-.26-.14-.54-.21-.83-.21h-.6s-.04,0-.06,0c0,0,0,0,0,0,.02,0,.04,0,.06,0h.6c.29,0,.58.07.83.21.01,0,.03.01.04.02.33.18.81.44,1.29.71.53.29,1.05.58,1.37.75l.4.28c.58.41,1.1.49,1.5,1.94.26.96.28,1.94.73,3.31.03.1.08.19,0,.27h0s0,0,0,0c-.07.08-.17.05-.27.02-.3-.1-.57-.18-.83-.26-1.69-.54-2.53-.83-3.27-1.05-.76-.23-1.46-.87-1.91-1.52l-.32-.5-1.02-1.58-.71-1.11c-.13.18-.22.4-.22.67,0,.06,0,.11,0,.16,0,.69-.03.57-.04,1.39,0,.06,0,.28,0,.56h0c.06.2.13.4.2.6.15.37.33.75.58,1.12.05.08.1.16.16.24.15.18.34.36.55.54.48.43,1.08.84,1.81,1.06.27.08,1.03.33,1.9.62.94.31,2,.66,2.7.89l.15.05,1.87.62s0,0,0,0l.5.17c.15-1.23.09-2.08-.02-2.69-.01-.07-.02-.13-.03-.2-.13-.6-.31-.92-.36-1.1-.19-.51-.2-.92-.11-1.25.06-.22.17-.42.33-.58.21-.21.5-.37.84-.51.24-.1.51-.18.79-.25.49-.12,5.46-1.45,6.92-1.83.22-.06.36-.09.39-.1,4.28-.93,4.39-3.5,4.38-3.82,0,0,0,0,0,0,0-.02,0-.02,0-.03Z"/>
      <path class="cls-2" d="M57,75.74l-.09-1.42-.45-.14-.17-.05-.27.53-.86,1.71c.21.06.41.13.62.19l.62-1.29.11,1.52c.09.03.17.05.26.08l.97-1.19-.21,1.42c.22.07.43.13.62.19l.32-2.5-.62-.19-.86,1.13Z"/>
      <path class="cls-3" d="M50.8,56.4l1.2-1.73h0s.01-.08.01-.08h0s.83-4.72.83-4.72c.13-.71.12-1.87,0-2.58-.92-5.23-4.54-17.12-4.83-18.7-.04-.2-.17-.37-.37-.37,0,0,0,0,0,0h0v28.56c0,.63.23,1.24.64,1.72l.59.68,1.93-2.77Z"/>
      <path class="cls-3" d="M50.5,65.12s-.09-.06-.13-.09c-.07-.06-.15-.12-.23-.16,0,0-.01,0-.02-.01-.11-.06-.23-.11-.35-.14,0,0,0,0,0,0-.45-.11-.94,0-1.26.39-.02.02-.03.03-.05.05,0,0,0,0-.01.01h0s.71,1.11.71,1.11l1.02,1.58.32.5c.45.65,1.15,1.29,1.91,1.52.73.22,1.57.51,3.27,1.05.26.08.53.17.83.26.1.03.19.06.27-.02,0,0,0,0,0,0,0,0,0,0,0,0h0s-5.71-5.5-6.26-6.05Z"/>
      <path class="cls-3" d="M48.05,61.01c-.04-.09-.08-.17-.14-.26-.02-.03-.04-.06-.06-.09,0-.01-.02-.02-.02-.04-.03-.05-.06-.1-.1-.15l-.08-.12-.02-.03-.37-.53-.61-.88-2.34-3.37h0s-1.49-2.14-1.49-2.14l-.44-.64s-1.01-1.07-1.49-1.37c-3.53-2.23-5.11-2.49-10.29-6.09-.13-.09-.3-.1-.42.03,0,0,0,0,0,0,0,0,.04.04.09.09.93.95,9.97,10.23,14.17,14.55.65.66,1.18,1.21,1.55,1.59.37.38.39.75.33.98,0,.03-.02.06-.04.09-.1.24-.28.4-.28.4l-1.52-1.31s-.05-.04-.08-.06c-.04-.03-.09-.06-.13-.09-.06-.05-.13-.1-.2-.15-.75-.53-1.59-.91-2.5-1.07-.78-.14-1.6-.29-1.91-.37,0,0,0,0,0,0-.01,0-.02,0-.03,0-.21-.04-.73-.21-1.4-.22h0s-.01,0-.01,0c-.04,0-.07,0-.11,0,0,0-.01,0-.02,0,0,0,0,0,0,0-.32,0-.68.05-1.05.16-3.73,1.3-5.83,1.85-10.01,2.69-.25.05-.33.27-.32.41,0,0,0,0,0,0h0c.17,0,10.98.02,15.35.02.32,0,.61,0,.85,0,.55,0,.89,0,.95,0,.27,0,.43.19.41.4-.01.12-.09.25-.25.35-.2.14-.72.5-1.25.87-.62.43-1.25.88-1.43,1l-.05.04s0,0,0,0c-.58.41-1.09.49-1.49,1.94-.26.96-.28,1.94-.73,3.31-.03.1-.08.19,0,.27h0s0,0,0,0l6.79-6.55,1.08-1.05h0s.23-.24.23-.24h0s.13-.15.13-.15l.37-.42.03-.04.15-.16c.06-.07.1-.14.15-.21.07-.12.13-.24.16-.36.05-.2.05-.4,0-.61-.03-.12-.07-.25-.13-.38ZM46.45,63.45s0,0,0,0h0s0,0,0,0h0s0,0,0,0Z"/>
      <path class="cls-3" d="M68.86,62.97c-1.17,0-10.1.01-15.17.02-.27,0-.53,0-.78,0-.19,0-.38,0-.56,0-1.29,0-2.12,0-2.14,0-.09,0-.18-.08-.06-.18.06-.05.24-.2.45-.37.48-.39,1.14-.93,1.14-.93.05-.04.11-.08.17-.12.75-.59,1.63-.99,2.57-1.16l.67-.12.88-.15h0s2.58-1.59,2.58-1.59c0,0,1.14-.81,1.56-1.38,1.16-1.58,1.84-3.05,2.41-4.51.24-.61.46-1.22.68-1.83.57-1.58,1.17-3.19,2.25-4.93.09-.14.12-.3.01-.42,0,0,0,0,0,0l-2.76,2.83-6.15,6.31-5.5,5.65-1.26,1.29-.47.48-.2.2c-.25.24-.34.46-.35.66,0,.05,0,.1.01.16,0,.03,0,.06,0,.09,0,.03.02.06.03.09.02.05.05.08.07.12.22.42.71.48.93.48,0,0,.02,0,.03,0,.02,0,.04,0,.06,0h.6c.29,0,.58.07.83.21.01,0,.03.01.04.02.33.18.81.44,1.29.71.53.29,1.05.58,1.37.75.19.1.31.17.31.17l2.26.55s1.1.23,1.66.15c1.35-.21,4.3-1.84,10.28-2.8.27-.1.34-.32.36-.45,0,0,0,0,0,0,0,0-.04,0-.1,0h-.03Z"/>
      <path class="cls-6" d="M56.03,67.59c-.4-1.46-.92-1.53-1.5-1.94l-.4-.28c-.32-.17-.84-.46-1.37-.75-.48-.26-.96-.53-1.29-.71-.01,0-.03-.01-.04-.02-.26-.14-.54-.21-.83-.21h-.6s-.04,0-.06,0c0,0,0,0,0,0,0,0-.02,0-.03,0-.22,0-.7-.06-.93-.48-.02-.04-.06-.07-.07-.12,0-.03-.02-.06-.03-.09,0-.03,0-.06,0-.09,0-.05-.01-.11-.01-.16.01-.2.1-.42.35-.66l.2-.2.47-.48,1.26-1.29,5.5-5.65,6.15-6.31,2.76-2.83s0,0,0,0h0s0,0,0,0c-.05-.06-.27-.17-.5-.03-5.19,3.61-6.76,3.86-10.29,6.09-.48.3-1.49,1.37-1.49,1.37l-1.24,1.84h0s-.01.08-.01.08h0s-1.2,1.73-1.2,1.73l-1.93,2.77-.59-.68c-.41-.48-.64-1.09-.64-1.72v-28.55h0c-.2,0-.34.16-.37.36-.22,1.67-3.24,12.38-4.4,18.51-.17.88-.15,1.78.06,2.65l.14.57.28,1.17.96,4.04h0s2.34,3.37,2.34,3.37l.61.88.37.53.02.03.08.12s.06.1.1.15c0,.01.02.02.02.04.02.03.04.06.06.09.05.09.1.18.14.26.06.13.1.26.13.38.05.21.05.42,0,.61-.03.12-.09.24-.16.36-.04.07-.09.14-.15.21l-.15.16-.03.04-.37.42-.13.14h0s-.23.23-.23.23h0s-1.08,1.05-1.08,1.05l-6.79,6.55h0s0,0,0,0c0,0,0,0,0,0,0,0,.06.03.15.03.03,0,.07,0,.11-.02,2.27-.72,3.25-1.06,4.09-1.32.76-.23,1.46-.87,1.91-1.52l1.88-2.91v-.02c.04.59.08,1.27.1,1.82,0,.03,0,.06,0,.08,0,.12,0,.24.01.36,0,.08,0,.16,0,.24,0,.29.01.59.02.88,0,.15,0,.82,0,1.58,0,.78-.01,1.65-.03,2.12,0,0,0,.02,0,.03.01.45.02.91.02,1.38,0,.9,0,1.83-.04,2.75-.04,1.11-.12,2.56-.24,3.63,0,.04,0,.07,0,.11-.01.28,0,.52.02.75.17,1.81,1.27,1.87,1.48.4.05-.33.05-.73-.01-1.2-.15-.8-.24-2.32-.3-3.65-.04-.89,0-4.7,0-4.7,0-.4-.05-2.37-.05-2.69,0-.04,0-.08,0-.12,0,0,0,0,0-.01,0-.29,0-.52,0-.61h0c0-.22,0-.43,0-.63h0c0-.28,0-.5,0-.56,0-.82.03-.7.04-1.39,0-.05,0-.1,0-.16,0-.26.08-.48.22-.67h0s0-.01.01-.02c.02-.02.03-.03.05-.05.32-.39.81-.49,1.26-.39,0,0,0,0,0,0,.12.03.24.07.35.14,0,0,.01,0,.02.01.08.04.15.11.23.16.04.03.09.05.13.09.55.55,6.26,6.05,6.26,6.05h0s0,0,0,0c0,0,0,0,0,0h0s0,0,0,0c.07-.08.03-.17,0-.27-.45-1.37-.47-2.35-.73-3.31Z"/>
      <path class="cls-2" d="M55.09,73.77h0l-1.01-.31-.16.53.51.16-.56,1.84c.2.06.4.12.61.19h.01s.56-1.83.56-1.83l.51.16.16-.53-.63-.19Z"/>
      <path class="cls-6" d="M30.25,45.39s-.08-.08-.08-.08c0,0,0,.01,0,.02-.1.12-.07.27.02.4,2.47,4.01,2.44,7.3,5.34,11.26.14.19.37.42.61.63.46.4.95.76.95.76l2.57,1.58s0,0,0,0c.31.07,1.13.23,1.91.37.91.16,1.76.54,2.5,1.07.07.05.13.1.2.15.04.03.09.06.13.09.03.02.05.04.08.06l1.52,1.31s.18-.16.28-.4c.01-.03.03-.05.04-.09.06-.22.05-.59-.33-.98-.37-.38-.91-.93-1.55-1.59-4.21-4.32-13.24-13.59-14.17-14.55,0,0-.01,0-.01-.01Z"/>
      <polygon class="cls-6" points="46.45 63.45 46.44 63.45 46.45 63.45 46.45 63.45 46.45 63.45"/>
      <path class="cls-6" d="M41.31,65.65l.05-.04c.17-.12.81-.57,1.43-1,.53-.37,1.04-.73,1.25-.87.16-.1.24-.23.25-.35.02-.21-.14-.4-.41-.4-.06,0-.4,0-.95,0-.25,0-.53,0-.85,0-4.37,0-15.19-.02-15.35-.02,0,0-.01,0-.01,0,0,.13.08.36.36.46,5.98.96,8.93,2.6,10.28,2.8.09.01.18.02.29.02.58,0,1.37-.17,1.37-.17l2.29-.44s0,0,0,0Z"/>
      <path class="cls-6" d="M68.68,62.57c-4.18-.84-6.33-1.31-10.07-2.61-.44-.14-.83-.18-1.17-.18-.61,0-1.06.15-1.33.18h-.06s0,.01,0,.01h0s-.88.15-.88.15l-.67.12c-.94.16-1.82.57-2.57,1.16-.05.04-.11.08-.17.12,0,0-.66.54-1.14.93-.21.18-.39.32-.45.37-.13.11-.04.18.06.18.02,0,.85,0,2.14,0,.18,0,.36,0,.56,0,.25,0,.51,0,.78,0,5.07,0,13.99-.02,15.17-.02h.03c.06,0,.1,0,.1,0,0,0,0,0,0,0,0,0,0,0,0,0,0,0,0,0,0,0,0-.13-.07-.36-.32-.41Z"/>
    </g>
  </g>
</svg>