<?xml version="1.0" encoding="UTF-8"?>
<svg id="Layer_1" data-name="Layer 1" xmlns="http://www.w3.org/2000/svg" xmlns:xlink="http://www.w3.org/1999/xlink" viewBox="0 0 144.88 145.63">
  <defs>
    <style>
      .cls-1 {
        fill: none;
      }

      .cls-2 {
        fill: #474747;
      }

      .cls-3 {
        fill: #030303;
      }

      .cls-4 {
        fill: #fff;
      }

      .cls-5 {
        fill: #9f9f9f;
      }

      .cls-6 {
        clip-path: url(#clippath);
      }
    </style>
    <clipPath id="clippath">
      <rect class="cls-1" width="144.88" height="145.63"/>
    </clipPath>
  </defs>
  <g class="cls-6">
    <g>
      <path class="cls-2" d="M91.63,71.87l4.03-9.39c.42-1.12,3.09-6.6,3.41-11.12.1-1.5-.03-2.87-.55-3.9,0,0-10.69,5.94-15.76,8.95,0-7.42-10.27-35.56-10.27-35.56,0,0-8.87,24.3-10.12,33.69-.1.71-.15,1.35-.15,1.87-5.07-3.01-15.77-8.96-15.77-8.96-.52,1.03-.66,2.4-.55,3.9.32,4.53,2.99,10,3.41,11.12l4.15,9.53-.43.11-10.78,2.65-2.35.57s.86,6.39,6.83,7.25,12.35,2.45,12.35,2.45c1.15.21-.55,2.49-.22,5.25l.34,3.99s2.88-.89,5.64-1.75c2.4-.74,4.72-1.46,4.99-1.54.77-.23,2.07-1.47,2.07-2.67.04-1.06.04-3.87.03-4.23,0-.34,0-.68-.02-1.01.02,1.01-.85,2.24-1.07,2.46-.59.62-1.44,1.32-2.53,1.65-.65.2-3.73,1.22-5.26,1.73l-.83.28-2.05.68c-.37-3.08.35-4.15.47-4.58.68-1.9-.49-2.56-2.12-2.96-.64-.16-8.12-2.17-8.38-2.2-5.23-1.14-5.02-4.42-5.02-4.42,0,0,.03,0,.05-.01.54-.12,7.26-1.6,11.56-2.85l-.08-.18-.15-.33-.44-.95-.25-.53-1.89-4.05-2.73-5.85c-.55-1.2-2.48-4.27-2.51-6.78,0-.63.09-1.21.33-1.7l14.31,8.42,1.8,1.06c-.07-.14-.13-.29-.17-.46-.02-.06-.03-.12-.04-.18-.03-.12-.06-.25-.08-.39-.01-.08-.02-.17-.03-.26-.02-.13-.03-.27-.04-.41,0-.1,0-.21-.01-.31,0-.15-.01-.29-.01-.45,0-.11,0-.23,0-.35,0-.16,0-.32.02-.5,0-.13.02-.26.02-.39.01-.18.02-.35.04-.54,0-.07.02-.15.02-.22,0-.06.01-.13.02-.19.02-.19.04-.38.06-.57.02-.15.04-.3.06-.44.03-.2.05-.4.08-.61.02-.15.05-.31.07-.46.03-.21.07-.43.11-.64.03-.16.06-.32.08-.48.04-.22.08-.44.12-.66.03-.17.06-.33.1-.5.04-.22.09-.45.14-.68.04-.17.07-.35.11-.52.05-.23.1-.46.15-.69.04-.18.08-.36.12-.54.05-.23.11-.46.16-.68.04-.19.09-.38.13-.56.05-.22.11-.45.17-.67.05-.2.1-.39.15-.59.05-.21.11-.42.16-.62.06-.21.11-.43.17-.64,0,0,0-.01,0-.02.05-.18.1-.35.14-.53.06-.24.13-.47.2-.71.04-.13.07-.26.11-.39.47-1.65.97-3.26,1.46-4.75.43-1.29.85-2.49,1.26-3.54,0,0,0,0,0,0,.11-.29.22-.57.33-.84,0,0,0,0,0,0,.11-.27.21-.52.32-.76,0,0,0,0,0-.01.1-.24.2-.46.3-.67,0,0,0-.01,0-.02.1-.21.19-.4.28-.58h0c.09-.19.18-.35.26-.5,0,0,0,0,0,0,.08-.14.17-.27.24-.38,0,0,0,0,0,0,.08-.11.15-.2.22-.28t0,0s0,0,0,0c.06-.06.12-.12.17-.15.05-.03.11-.06.15-.06.05,0,.1.03.15.06.05.04.11.09.17.15,0,0,0,0,0,0,2.15,2.28,8.75,23.68,7.22,28.79-.05.16-.1.3-.16.42h0s13.38-7.87,13.38-7.87c0,0,0,0,0,0l2.72-1.6s0,0,0,0c0,0,0,.01,0,.02.24.48.33,1.06.32,1.67-.02,2.13-1.27,4.76-2.11,6.15-.02.03-.03.06-.05.08-.02.03-.03.05-.05.08-.07.11-.13.21-.19.3-.04.06-.08.12-.11.17l-.04.08-3.54,7.57-1.76,3.77-.09.2c-.07.04-.12.07-.12.07,4.3,1.26,11.61,3.06,11.61,3.06,0,0,0,0,0,0,0,0,0,.01,0,.03,0,0,0,0,0,0,0,.37-.12,3.31-5.02,4.38-.26.04-7.73,2.05-8.38,2.2-.78.19-1.45.44-1.87.86-.18.18-.3.4-.38.66-.1.38-.09.84.12,1.43.06.21.26.58.41,1.26.01.08.03.15.04.23.12.7.19,1.67.02,3.08l-.57-.19s0,0,0,0l-2.31-.77c-1.54-.51-4.61-1.53-5.26-1.73-1.21-.37-2.11-1.17-2.7-1.84-.07-.09-.13-.18-.19-.28-.44-.65-.71-1.32-.9-1.97,0,.22,0,.46,0,.72h0c0,.44.05,3.59.09,4.55,0,1.21,1.37,2.38,2.18,2.62.27.08,2.59.8,4.99,1.54h0c2.76.86,5.64,1.75,5.64,1.75l.34-3.99c.33-2.76-1.37-5.04-.22-5.25,0,0,6.38-1.58,12.35-2.45,5.97-.87,6.83-7.25,6.83-7.25l-2.35-.57-11.1-2.9Z"/>
      <path class="cls-2" d="M71.89,82.81c0-.17-.01-.34-.02-.51-.02-.63-.06-1.41-.1-2.09,0,0,.09,1.83.12,2.6Z"/>
      <polygon class="cls-2" points="70.87 77.95 70.87 77.95 70.87 77.95 70.87 77.95"/>
      <polygon class="cls-3" points="45.24 37.18 42.41 35.18 43.72 38.37 45.24 37.18"/>
      <path class="cls-3" d="M28.47,63.13c1.42.37,2.49.47,3.21.31.72-.16,1.17-.6,1.35-1.31.19-.72,0-1.33-.54-1.81-.54-.49-1.52-.91-2.92-1.27-1.41-.37-2.48-.47-3.2-.31-.72.16-1.18.59-1.36,1.3-.19.72,0,1.32.54,1.81.55.49,1.52.92,2.91,1.28Z"/>
      <path class="cls-3" d="M35.69,98.47c-.52.08-1.19.43-2.02,1.04-.84.62-1.38,1.17-1.61,1.64-.23.47-.19.92.12,1.34.32.43.73.6,1.25.52.52-.08,1.19-.43,2.02-1.05.84-.62,1.37-1.17,1.61-1.64.24-.47.2-.92-.11-1.34-.31-.43-.73-.59-1.25-.51Z"/>
      <path class="cls-3" d="M52.47,57.06s0,0,0,0c0,0,.01,0,.02,0,0,0,0,0,0,0Z"/>
      <path class="cls-3" d="M82.55,86.85s0,0,0,0c.05,0,.09-.01.13-.06,0,0,0,0,0,0,0,0,0,0,0,0-.04.04-.09.06-.14.06Z"/>
      <path class="cls-3" d="M72.87,15.52c-31.64-.24-57.48,25.22-57.72,56.87-.24,31.64,25.22,57.48,56.87,57.72,31.64.24,57.48-25.22,57.72-56.87.24-31.64-25.22-57.48-56.87-57.72ZM97.43,39.5c.26.26.45.39.59.41.14.02.35-.11.64-.4l.06-.06,4.23-4.23c.3-.3.45-.52.44-.67,0-.15-.15-.35-.42-.63l-.38-.38,1.1-1.09,8.13,8.14-2.89,2.89-1.23-1.23c.3-.45.51-.83.63-1.13.12-.3.18-.58.18-.83,0-.29-.08-.58-.22-.85-.15-.27-.46-.64-.93-1.11l-.23-.23-.99-.99-2.13,2.13.3.3c.35.35.68.51.99.48.31-.03.68-.26,1.11-.69l.07-.07.97.97-3.54,3.53-.97-.97c.53-.56.81-.98.85-1.27.04-.29-.13-.61-.48-.97l-.31-.31-2.42,2.41,1.37,1.37c.53.53.93.86,1.19,1,.26.14.53.18.79.14.3-.06.62-.19.96-.39.34-.2.71-.48,1.14-.86l1.27,1.28-3.2,3.2-8.18-8.18,1.1-1.1.39.39ZM80.86,31.77l.51.2c.34.13.58.18.72.14.14-.04.29-.27.45-.69l2.14-5.59c.15-.4.2-.67.13-.8-.07-.13-.28-.26-.64-.4l-.51-.2.55-1.44,5.68,2.17-.55,1.45-.17-.07c-.31-.12-.53-.15-.66-.09-.13.06-.27.28-.42.67l-.71,1.85,2.84,1.09.71-1.85c.15-.39.19-.65.13-.78-.06-.13-.24-.26-.55-.38l-.16-.06.55-1.44,5.68,2.17-.55,1.45-.52-.2c-.36-.14-.6-.18-.74-.13-.14.05-.28.28-.43.68l-2.14,5.59c-.15.4-.2.66-.13.8.07.13.28.27.64.4l.52.2-.55,1.45-5.68-2.17.55-1.45.16.06c.3.11.52.14.66.08.14-.06.28-.29.43-.67l.88-2.3-2.84-1.09-.88,2.3c-.15.39-.19.65-.13.79.06.14.24.26.54.38l.17.07-.56,1.45-5.68-2.17.56-1.45ZM82.75,56.41c5.08-3.01,15.76-8.95,15.76-8.95.52,1.03.66,2.4.55,3.9-.32,4.53-2.99,10-3.41,11.12l-4.03,9.39,11.1,2.9,2.35.57s-.86,6.39-6.83,7.25c-5.97.87-12.35,2.45-12.35,2.45-1.15.21.55,2.49.22,5.25l-.34,3.99s-2.88-.89-5.64-1.75h0c-2.4-.74-4.72-1.46-4.99-1.54-.81-.25-2.18-1.41-2.18-2.62-.04-.96-.09-4.11-.09-4.55h0c0-.25,0-.5,0-.72h0c0-.32,0-.57,0-.64,0-.94.04-.8.04-1.59,0-.06,0-.11,0-.18,0-.3.1-.56.25-.76h0s0-.01.01-.02c.02-.02.04-.04.06-.06.37-.44.93-.57,1.45-.44,0,0,0,0,0,0,.14.03.28.09.4.16,0,0,.02,0,.02.01.15.08.29.17.41.29.63.63,7.18,6.93,7.18,6.93h0s0,0,0,0c0,0,0,0,0,0h0s0,0,0,0c.08-.09.03-.19,0-.31-.52-1.57-.54-2.69-.84-3.79-.46-1.67-1.05-1.76-1.71-2.23l-.46-.32c-.37-.2-.97-.53-1.57-.86-.57-.31-1.14-.63-1.52-.83-.29-.16-.62-.24-.95-.24h-.69s-.05,0-.07,0c0,0,0,0,0,0,0,0-.02,0-.04,0-.28,0-.94-.05-1.14-.69-.01-.04-.03-.07-.04-.1,0-.03,0-.07,0-.11,0-.06-.02-.12-.02-.18.02-.22.12-.48.4-.75l.23-.23.54-.55,14.79-15.18,3.16-3.24s0,0,0,0h0s0,0,0,0c-.06-.07-.31-.2-.58-.03-5.94,4.13-7.75,4.42-11.79,6.98-.55.35-1.71,1.58-1.71,1.58l-1.41,2.11h0s0,.03,0,.03v.06s-.01,0-.01,0h0s0,0,0,0l-1.38,1.98-2.21,3.18-.67-.78c-.47-.55-.73-1.25-.73-1.97v-32.7h0c-.23-.01-.39.18-.42.41-.25,1.91-3.71,14.19-5.04,21.21-.19,1.01-.17,2.04.06,3.04l.47,2,1.1,4.63h0s2.68,3.87,2.68,3.87l.7,1.01.45.64.1.14c.04.06.07.11.11.17,0,.01.02.03.03.04.02.04.05.07.07.11.06.1.11.2.16.3.07.15.12.29.15.43.06.24.06.48,0,.7-.06.23-.17.44-.35.66l-.17.18-.04.04-.43.48-.15.17h0s-.26.27-.26.27l-1.25,1.21-7.78,7.51h0s0,0,0,0c0,0,0,0,0,0,0,0,.07.04.18.04.04,0,.08,0,.13-.02,2.6-.83,3.72-1.21,4.69-1.51.87-.26,1.67-1,2.19-1.74l2.15-3.33v-.02c.05.68.09,1.45.12,2.09,0,.17.01.34.02.51,0,.12,0,.22,0,.28,0,.33.01.67.02,1.01,0,.36.01,3.17-.03,4.23,0,1.19-1.31,2.43-2.07,2.67-.27.08-2.59.8-4.99,1.54-2.76.86-5.64,1.75-5.64,1.75l-.34-3.99c-.33-2.76,1.37-5.04.22-5.25,0,0-6.38-1.58-12.35-2.45s-6.83-7.25-6.83-7.25l2.35-.57,10.78-2.65.43-.11-4.15-9.53c-.42-1.12-3.09-6.6-3.41-11.12-.1-1.5.03-2.87.55-3.9,0,0,10.69,5.95,15.77,8.96,0-.52.06-1.16.15-1.87,1.25-9.39,10.12-33.69,10.12-33.69,0,0,10.27,28.14,10.27,35.56ZM68.41,97.13v-.83h2.58v.83h-.8v2.93h-.98v-2.93h-.8ZM74.98,100.06l-.32-2.16-.89,2.16h-.39l-.84-2.16-.32,2.16h-.97l.64-3.75h.96l.75,2,.75-2h.97l.64,3.75h-.97ZM58.35,24.03l.47,1.48-.59.19c-.34.11-.56.22-.64.34-.08.11-.06.36.06.74l.02.08,2.08,6.57.7-.22c.65-.21,1.1-.39,1.34-.54.24-.15.42-.34.52-.56.13-.28.19-.61.17-1.01-.01-.4-.11-.92-.27-1.58l1.62-.51,1.38,4.36-9.84,3.12-.47-1.48.53-.17c.36-.12.58-.24.66-.37.07-.13.05-.4-.08-.8l-1.81-5.7c-.13-.41-.26-.64-.39-.7-.13-.06-.38-.03-.75.08l-.53.17-.47-1.47,6.29-2ZM43.14,31.38l7.11,4.91c.47.32.8.48.98.48.18,0,.4-.1.65-.29l.45-.35.96,1.22-5.24,4.1-.96-1.22.39-.31c.33-.26.51-.43.56-.52.05-.09.03-.19-.05-.29-.05-.07-.11-.13-.17-.18-.06-.05-.12-.1-.18-.15l-1.03-.68-2.32,1.82.37,1.03c.05.16.1.29.14.37.04.09.08.16.13.21.06.08.16.09.29.05.14-.04.3-.14.5-.29l.43-.33.96,1.22-3.86,3.02-.96-1.22.32-.25c.22-.17.35-.38.39-.64.04-.25,0-.58-.14-.98l-2.84-8.29,3.12-2.44ZM33.42,40.06l3.47,2.27-.88,1.34-.04-.03c-.65-.42-1.23-.61-1.75-.56-.52.05-.94.32-1.28.83l-.26.4,5.65,3.69c.35.23.6.33.75.29.15-.04.33-.22.54-.54l.5-.77,1.3.85-3.94,6.04-1.3-.85.47-.72c.2-.31.3-.53.29-.68,0-.15-.2-.34-.58-.59l-5.65-3.69-.26.4c-.33.5-.41,1-.24,1.49.17.49.57.95,1.22,1.37l.04.03-.88,1.36-3.47-2.27,6.3-9.66ZM23.4,59.63c.5-1.91,1.38-3.29,2.67-4.12,1.28-.83,2.8-1.02,4.55-.56,1.76.45,2.99,1.36,3.7,2.7.71,1.35.82,2.99.32,4.92-.49,1.91-1.38,3.28-2.66,4.11-1.28.83-2.79,1.02-4.54.57-1.76-.45-2.99-1.36-3.71-2.71-.72-1.35-.83-2.99-.33-4.91ZM21.84,70.07l4.14-.28.11,1.6h-.05c-.77.06-1.35.26-1.73.61-.39.35-.56.83-.52,1.43l.03.48,6.73-.46c.42-.03.68-.1.77-.22.1-.12.13-.37.1-.76l-.06-.91,1.55-.11.49,7.19-1.55.11-.06-.85c-.03-.37-.09-.61-.18-.72-.1-.11-.37-.15-.82-.12l-6.73.46.03.48c.04.6.28,1.04.7,1.33.43.29,1.03.41,1.8.36h.05s.11,1.61.11,1.61l-4.14.28-.79-11.51ZM27.15,95.07c-.77-.36-1.37-1.07-1.82-2.14-.53-1.25-.6-2.34-.23-3.29.38-.95,1.18-1.68,2.4-2.2,1.16-.49,2.23-.54,3.22-.14.99.4,1.73,1.18,2.22,2.34.16.39.28.77.34,1.14.06.37.07.75.03,1.12l.48.02.5,1.17-2.97,1.26-.55-1.29c.64-.42,1.06-.83,1.26-1.22.2-.39.21-.81.03-1.24-.21-.51-.58-.79-1.11-.84s-1.26.13-2.21.53c-.98.42-1.63.83-1.96,1.25-.33.42-.38.9-.15,1.43.21.49.55.81,1.03.97.48.16,1.02.14,1.63-.07l.49,1.16c-.98.38-1.85.39-2.61.03ZM34.09,105.22c-1.07-.21-2.03-.89-2.87-2.03-.84-1.13-1.2-2.24-1.09-3.32.11-1.08.69-2.01,1.72-2.78,1.04-.77,2.1-1.05,3.17-.84,1.07.21,2.03.88,2.88,2.02.84,1.14,1.21,2.25,1.09,3.33-.11,1.09-.69,2.01-1.73,2.78-1.04.77-2.1,1.05-3.16.84ZM40.74,112.71l1.22-6.27-2.44,2.96c-.19.23-.28.4-.27.51.01.1.13.24.34.42l.27.22-.71.86-2.66-2.2.71-.86.29.24c.21.18.38.26.48.26.11,0,.26-.13.45-.36l2.72-3.3c.19-.23.28-.4.26-.5-.01-.11-.13-.25-.35-.43l-.3-.24.7-.85,2.99,2.46-1.13,5.9,2.23-2.7c.2-.24.29-.42.27-.52-.02-.1-.14-.24-.34-.41l-.34-.28.7-.85,2.66,2.19-.7.85-.22-.18c-.21-.17-.37-.26-.47-.25-.11,0-.25.12-.45.36l-3.85,4.67-2.07-1.71ZM55.12,115.34l-1.18-.59c.13-.55.1-1.03-.1-1.43-.2-.4-.57-.74-1.1-1-.31-.15-.61-.21-.88-.17-.27.04-.46.17-.56.37-.16.31.12.74.81,1.29.17.14.3.24.4.32.96.79,1.56,1.47,1.82,2.06s.22,1.2-.1,1.83c-.35.71-.9,1.14-1.64,1.29-.74.16-1.57,0-2.48-.44-.42-.21-.79-.45-1.13-.74-.34-.28-.65-.62-.93-.99l-.45.26-.96-.48,1.3-2.61,1.01.5c-.1.62-.04,1.18.2,1.68.24.5.61.87,1.14,1.13.32.16.6.22.86.18.26-.04.44-.17.55-.39.17-.34-.11-.82-.82-1.46-.23-.21-.41-.37-.54-.49-.42-.4-.74-.71-.96-.95-.22-.24-.36-.43-.43-.58-.18-.35-.27-.69-.28-1.01,0-.32.07-.65.23-.98.35-.7.89-1.14,1.63-1.32.74-.17,1.53-.05,2.39.38.44.22.82.46,1.16.73.34.27.64.59.9.94l.36-.26,1,.5-1.21,2.43ZM66.41,116.83l-.35-.08c-.27-.06-.45-.07-.54-.02-.09.05-.17.21-.24.49l-.88,3.67c-.19.81-.64,1.36-1.32,1.64-.69.28-1.6.29-2.73.02-1.03-.25-1.78-.65-2.24-1.2s-.61-1.21-.43-1.97l.89-3.74c.07-.29.07-.48.01-.57-.06-.09-.23-.17-.5-.23l-.39-.09.26-1.07,4.59,1.1-.26,1.08-.42-.1c-.27-.07-.46-.07-.55-.02-.09.05-.17.22-.24.51l-.8,3.36c-.14.59-.15,1.02-.02,1.3.13.28.41.47.84.58.52.12.92.1,1.2-.08.28-.18.49-.53.61-1.07l.83-3.45c.07-.3.08-.49.02-.58-.06-.08-.22-.16-.49-.22l-.39-.09.26-1.07,3.53.84-.26,1.08ZM75.76,123.65l-.04-1.11h.29c.26-.02.43-.06.52-.12.08-.07.12-.26.11-.58l-.16-4.76-1.78,6.61-1.83.06-2.13-6.47.16,4.75c.01.3.06.49.14.56.08.07.26.1.53.09h.29s.04,1.1.04,1.1l-3.51.12-.04-1.11h.36c.27-.02.45-.06.52-.14.08-.07.11-.26.1-.57l-.15-4.27c-.01-.3-.06-.49-.13-.56-.08-.07-.26-.1-.53-.09h-.36s-.04-1.09-.04-1.09l4.39-.15,1.49,4.62,1.27-4.71,4.53-.16.04,1.11h-.39c-.27.02-.44.06-.52.13-.08.07-.11.26-.1.57l.15,4.27c.01.32.06.5.14.57.08.06.26.09.52.08h.39s.04,1.1.04,1.1l-4.29.15ZM86.49,121.77l-.31-1.07.34-.1c.28-.08.45-.15.51-.2.05-.05.07-.12.04-.21-.02-.06-.04-.11-.06-.16-.03-.05-.05-.1-.08-.15l-.5-.73-2.03.59-.03.79c0,.12-.01.22,0,.28,0,.07.01.12.03.18.02.07.08.1.18.11.1.01.24,0,.4-.06l.37-.11.31,1.07-3.36.97-.31-1.07.28-.08c.19-.06.33-.16.43-.32.09-.16.15-.39.17-.69l.33-6.25,2.72-.79,3.4,5.15c.23.34.4.53.52.58.12.05.29.04.51-.02l.39-.11.31,1.07-4.57,1.32ZM99.42,115.53c-.31.55-1.01,1.13-2.11,1.73l-4.02,2.21-.54-.97.34-.19c.23-.12.36-.23.4-.32.04-.09,0-.27-.14-.52l-.03-.05-2.06-3.74c-.15-.27-.27-.41-.37-.44-.1-.03-.27.03-.52.16l-.34.18-.53-.97,4.13-2.27c.9-.49,1.62-.72,2.18-.69.56.03.99.32,1.3.88.21.38.27.77.18,1.18-.09.41-.33.81-.71,1.21.67-.2,1.23-.23,1.67-.11.45.13.8.42,1.05.88.37.67.4,1.28.09,1.83ZM103.18,113.6l-.73-.84.3-.26c.21-.18.31-.32.33-.43.01-.11-.08-.27-.28-.5l-2.82-3.21c-.2-.23-.35-.34-.46-.35-.1,0-.26.09-.47.27l-.3.26-.73-.83,3.54-3.11.73.83-.33.29c-.19.17-.3.3-.32.4-.02.1.06.25.25.47l.04.04,3.25,3.7.39-.35c.37-.32.61-.57.72-.74.12-.17.18-.34.18-.52,0-.22-.05-.45-.18-.71-.12-.26-.33-.57-.63-.95l.91-.8,2.15,2.45-5.54,4.87ZM111.1,106.27l-.9-.66.23-.32c.15-.21.23-.36.23-.47,0-.1-.12-.24-.35-.41l-.05-.03-3.45-2.52c-.25-.18-.42-.26-.52-.24-.1.02-.23.14-.4.37l-.23.31-.89-.65,4.84-6.64,2.36,1.72-.73,1c-.35-.16-.64-.27-.87-.32-.22-.05-.43-.07-.61-.04-.21.03-.4.12-.57.25-.18.14-.4.39-.68.78l-.14.19-.59.81,1.74,1.27.18-.24c.21-.29.29-.54.23-.75-.05-.22-.26-.45-.61-.71l-.06-.04.58-.79,2.89,2.1-.58.79c-.45-.31-.78-.46-.99-.45-.21,0-.42.15-.63.45l-.18.25,1.97,1.44.82-1.12c.32-.43.51-.75.57-.95.07-.2.07-.39.01-.58-.08-.21-.21-.42-.38-.63-.18-.21-.42-.45-.74-.71l.76-1.04,2.61,1.9-4.87,6.68ZM119.71,92.49c-.18.43-.41.81-.67,1.17-.27.35-.58.68-.94.99l.28.44-.42.98-2.68-1.15.45-1.04c.63.07,1.18-.03,1.67-.29.48-.26.84-.66,1.07-1.2.14-.32.18-.61.13-.87-.05-.26-.19-.43-.42-.53-.34-.15-.82.15-1.41.9-.19.24-.35.43-.46.57-.37.44-.67.78-.9,1.01-.23.23-.41.39-.56.47-.34.2-.67.31-.99.33-.32.02-.65-.04-.99-.18-.72-.31-1.19-.83-1.4-1.55-.21-.73-.13-1.53.25-2.41.19-.45.42-.85.67-1.2.25-.35.55-.67.89-.95l-.28-.35.44-1.03,2.5,1.07-.52,1.21c-.56-.1-1.04-.04-1.43.18-.39.22-.7.61-.94,1.15-.14.32-.18.62-.12.89.06.27.19.45.41.54.32.14.74-.15,1.24-.88.13-.18.22-.32.3-.41.73-1,1.38-1.64,1.95-1.93.57-.28,1.18-.29,1.84,0,.73.31,1.19.83,1.38,1.57s.09,1.57-.31,2.5ZM122.43,77.96c-.13,1.53-.47,2.63-1.03,3.31-.55.67-1.35.97-2.4.88-1.05-.09-1.79-.51-2.22-1.27-.43-.75-.58-1.9-.45-3.44l.18-2.1-2.35-.2c-.42-.04-.69,0-.8.1-.11.1-.18.34-.21.71l-.05.62-1.55-.13.56-6.57,1.55.13-.05.55c-.03.38,0,.63.09.75.09.12.35.19.77.23l5.96.51c.42.04.69,0,.8-.09.11-.1.18-.34.21-.73l.05-.55,1.54.13-.61,7.16ZM115.6,48.4l-.17-.47,1.45-.53,2.11,5.77-5.5,3.99,6.83-.36,2.18,5.96-1.45.53-.19-.51c-.13-.35-.26-.57-.38-.64-.12-.07-.39-.03-.8.12l-5.62,2.05c-.41.15-.65.29-.7.43-.05.14,0,.38.12.73l.19.51-1.46.53-2.06-5.65,1.46-.53.14.38c.13.34.25.56.37.64.12.08.4.04.82-.11l6.26-2.29-9.57.51-.88-2.41,7.68-5.64-6.25,2.28c-.4.15-.63.29-.69.42-.06.14-.02.39.11.75l.14.38-1.46.53-1.69-4.62,1.46-.54.17.47c.13.36.26.57.4.64.13.07.4.03.8-.12l5.62-2.05c.4-.15.63-.29.68-.42.06-.13.02-.38-.12-.75Z"/>
      <polygon class="cls-3" points="84.44 118.57 85.76 118.19 84.42 116.11 84.44 118.57"/>
      <path class="cls-3" d="M117.81,76.19c-.06.75.01,1.3.23,1.63.22.33.62.53,1.2.57.55.05.95-.07,1.21-.34.25-.28.41-.79.48-1.53l.07-.78-3.12-.27-.06.71Z"/>
      <path class="cls-3" d="M95.27,112.82c.08-.24.04-.53-.14-.85-.18-.32-.38-.5-.61-.56-.23-.05-.53.02-.89.22l-.41.23,1.01,1.83.37-.21c.36-.2.59-.42.67-.66Z"/>
      <path class="cls-3" d="M96.18,114.13c-.28-.07-.63,0-1.03.23l-.43.24,1.2,2.18.44-.24c.42-.23.67-.48.75-.75.08-.27.02-.61-.2-1-.2-.36-.44-.58-.73-.65Z"/>
      <polygon class="cls-3" points="70.87 77.95 70.87 77.95 70.87 77.95 70.87 77.95 70.87 77.95"/>
      <path class="cls-3" d="M52.31,57.26c-.05-.05-.09-.09-.09-.09,0,0,0,.01-.01.02-.11.14-.08.31.02.46,2.83,4.59,2.79,8.36,6.11,12.9.16.22.42.48.7.72.52.46,1.09.87,1.09.87l2.95,1.81s0,0,0,0c.36.08,1.3.26,2.19.42,1.04.19,2.01.61,2.87,1.23.08.05.15.11.23.17.05.04.1.07.15.11.03.02.06.04.09.07l1.74,1.51s.27-.22.36-.55c.07-.26.05-.68-.37-1.12-3.2-3.28-16.79-17.23-18.01-18.49,0,0-.01,0-.01-.01Z"/>
      <path class="cls-3" d="M67.92,77.43c-.06,0-.46,0-1.09,0-.28,0-.61,0-.97,0-5.01,0-17.39-.02-17.59-.02,0,0-.01,0-.01,0,.01.15.09.41.41.52,6.85,1.1,10.23,2.98,11.78,3.21.1.02.21.02.33.02.67,0,1.57-.19,1.57-.19l2.63-.5s0,0,0,0l.06-.04c.2-.14.93-.65,1.64-1.14.6-.42,1.19-.83,1.43-.99.18-.11.27-.26.28-.4.02-.24-.17-.46-.47-.46Z"/>
      <path class="cls-3" d="M83.47,73.74c-.7,0-1.21.17-1.53.2h-.07s0,.01,0,.01h0s-1.78.31-1.78.31c-1.08.19-2.09.65-2.95,1.32-.06.05-.13.09-.19.14,0,0-.76.62-1.3,1.07-.24.2-.45.37-.52.43-.14.12-.04.21.06.21.03,0,1.25,0,3.09,0,.29,0,.58,0,.9,0,5.8,0,16.03-.02,17.37-.02h.03c.07,0,.12,0,.12,0,0,0,0,0,0,0,0,0,0,0,0,0,0,0,0,0,0,0,.01-.15-.08-.41-.36-.46-4.79-.96-7.26-1.5-11.53-2.99-.5-.16-.95-.21-1.34-.21Z"/>
      <path class="cls-4" d="M26.66,79.68h-.05c-.77.06-1.38-.06-1.8-.35-.43-.29-.66-.74-.7-1.33l-.03-.48,6.73-.46c.45-.03.72,0,.82.12.1.11.16.35.18.72l.06.85,1.55-.11-.49-7.19-1.55.11.06.91c.03.39,0,.64-.1.76-.1.12-.35.19-.77.22l-6.73.46-.03-.48c-.04-.6.13-1.08.52-1.43.39-.35.96-.55,1.73-.6h.05s-.11-1.6-.11-1.6l-4.14.28.79,11.51,4.14-.28-.11-1.62Z"/>
      <path class="cls-4" d="M27.44,67.25c1.75.45,3.26.26,4.54-.57,1.28-.83,2.17-2.2,2.66-4.11.5-1.93.39-3.57-.32-4.92-.71-1.35-1.94-2.25-3.7-2.7-1.76-.45-3.27-.27-4.55.56-1.28.83-2.17,2.2-2.67,4.12-.5,1.93-.39,3.56.33,4.91.72,1.35,1.95,2.25,3.71,2.71ZM25.02,60.04c.18-.71.64-1.15,1.36-1.3.72-.16,1.79-.06,3.2.31,1.4.36,2.37.79,2.92,1.27.54.49.72,1.09.54,1.81-.18.71-.63,1.15-1.35,1.31-.72.16-1.79.06-3.21-.31-1.4-.36-2.37-.79-2.91-1.28-.55-.49-.73-1.09-.54-1.81Z"/>
      <path class="cls-4" d="M31.47,50.63l-.04-.03c-.65-.42-1.06-.88-1.22-1.37-.17-.49-.09-.99.24-1.49l.26-.4,5.65,3.69c.38.25.57.44.58.59,0,.15-.09.37-.29.68l-.47.72,1.3.85,3.94-6.04-1.3-.85-.5.77c-.21.32-.39.51-.54.54-.15.04-.4-.06-.75-.29l-5.65-3.69.26-.4c.33-.51.76-.78,1.28-.83.52-.05,1.1.14,1.75.56l.04.03.88-1.34-3.47-2.27-6.3,9.66,3.47,2.27.88-1.36Z"/>
      <path class="cls-4" d="M43,43.1c-.04.25-.17.47-.39.64l-.32.25.96,1.22,3.86-3.02-.96-1.22-.43.33c-.19.15-.36.25-.5.29-.14.04-.24.02-.29-.05-.05-.06-.09-.13-.13-.21-.04-.08-.08-.21-.14-.37l-.37-1.03,2.32-1.82,1.03.68c.06.04.12.09.18.15.06.05.11.11.17.18.08.1.1.2.05.29-.04.09-.23.27-.56.52l-.39.31.96,1.22,5.24-4.1-.96-1.22-.45.35c-.25.2-.47.29-.65.29-.18,0-.51-.16-.98-.48l-7.11-4.91-3.12,2.44,2.84,8.29c.14.4.19.73.14.98ZM45.24,37.18l-1.52,1.19-1.31-3.19,2.83,2Z"/>
      <path class="cls-4" d="M53.05,27.33c.37-.12.62-.15.75-.08.13.06.26.29.39.7l1.81,5.7c.13.41.16.67.08.8-.07.13-.29.25-.66.37l-.53.17.47,1.48,9.84-3.12-1.38-4.36-1.62.51c.17.65.26,1.18.27,1.58.01.4-.04.73-.17,1.01-.1.22-.28.41-.52.56-.24.15-.69.33-1.34.54l-.7.22-2.08-6.57-.02-.08c-.12-.38-.14-.63-.06-.74.08-.12.29-.23.64-.34l.59-.19-.47-1.48-6.29,2,.47,1.47.53-.17Z"/>
      <path class="cls-4" d="M86.54,33.94l-.17-.07c-.3-.11-.48-.24-.54-.38-.06-.14-.01-.4.13-.79l.88-2.3,2.84,1.09-.88,2.3c-.15.39-.29.61-.43.67-.14.06-.36.03-.66-.08l-.16-.06-.55,1.45,5.68,2.17.55-1.45-.52-.2c-.36-.14-.57-.27-.64-.4-.07-.13-.02-.4.13-.8l2.14-5.59c.15-.4.3-.62.43-.68.14-.05.38-.01.74.13l.52.2.55-1.45-5.68-2.17-.55,1.44.16.06c.31.12.49.24.55.38.06.13.02.4-.13.78l-.71,1.85-2.84-1.09.71-1.85c.15-.39.29-.61.42-.67.13-.06.35-.03.66.09l.17.07.55-1.45-5.68-2.17-.55,1.44.51.2c.36.14.58.27.64.4.06.13.02.39-.13.8l-2.14,5.59c-.16.42-.31.65-.45.69-.14.04-.38,0-.72-.14l-.51-.2-.56,1.45,5.68,2.17.56-1.45Z"/>
      <path class="cls-4" d="M104.12,48.4l3.2-3.2-1.27-1.28c-.43.38-.8.67-1.14.86-.33.19-.65.32-.96.39-.26.04-.53,0-.79-.14-.26-.14-.66-.47-1.19-1l-1.37-1.37,2.42-2.41.31.31c.36.36.52.68.48.97-.04.29-.32.71-.85,1.27l.97.97,3.54-3.53-.97-.97-.07.07c-.43.43-.8.66-1.11.69-.31.03-.64-.13-.99-.48l-.3-.3,2.13-2.13.99.99.23.23c.47.47.78.84.93,1.11.15.27.22.56.22.85,0,.26-.06.53-.18.83-.12.3-.33.68-.63,1.13l1.23,1.23,2.89-2.89-8.13-8.14-1.1,1.09.38.38c.27.27.41.48.42.63,0,.15-.14.37-.44.67l-4.23,4.23-.06.06c-.29.29-.5.42-.64.4-.14-.02-.34-.16-.59-.41l-.39-.39-1.1,1.1,8.18,8.18Z"/>
      <path class="cls-4" d="M115.03,49.56l-5.62,2.05c-.4.15-.67.19-.8.12-.13-.07-.26-.28-.4-.64l-.17-.47-1.46.54,1.69,4.62,1.46-.53-.14-.38c-.13-.36-.17-.61-.11-.75.06-.14.29-.28.69-.42l6.25-2.28-7.68,5.64.88,2.41,9.57-.51-6.26,2.29c-.42.16-.7.19-.82.11-.12-.08-.25-.29-.37-.64l-.14-.38-1.46.53,2.06,5.65,1.46-.53-.19-.51c-.13-.35-.17-.59-.12-.73.05-.14.28-.28.7-.43l5.62-2.05c.41-.15.68-.19.8-.12.13.07.25.28.38.64l.19.51,1.45-.53-2.18-5.96-6.83.36,5.5-3.99-2.11-5.77-1.45.53.17.47c.13.36.17.61.12.75-.06.13-.28.27-.68.42Z"/>
      <path class="cls-4" d="M121.46,71.22c-.03.39-.1.63-.21.73-.11.1-.37.13-.8.09l-5.96-.51c-.43-.04-.68-.11-.77-.23-.09-.12-.12-.37-.09-.75l.05-.55-1.55-.13-.56,6.57,1.55.13.05-.62c.03-.38.1-.61.21-.71.11-.1.38-.13.8-.1l2.35.2-.18,2.1c-.13,1.54.02,2.68.45,3.44.43.75,1.17,1.18,2.22,1.27,1.04.09,1.84-.2,2.4-.88.55-.67.9-1.78,1.03-3.31l.61-7.16-1.54-.13-.05.55ZM120.93,76.52c-.06.74-.22,1.25-.48,1.53-.25.28-.66.39-1.21.34-.58-.05-.98-.24-1.2-.57-.22-.33-.3-.88-.23-1.63l.06-.71,3.12.27-.07.78Z"/>
      <path class="cls-4" d="M27.64,93.95c-.48-.16-.82-.49-1.03-.97-.23-.54-.17-1.01.15-1.43.33-.42.98-.84,1.96-1.25.95-.4,1.68-.58,2.21-.53s.9.33,1.11.84c.19.44.18.85-.03,1.24-.2.39-.62.8-1.26,1.22l.55,1.29,2.97-1.26-.5-1.17-.48-.02c.04-.38.03-.75-.03-1.12-.06-.37-.17-.75-.34-1.14-.49-1.16-1.23-1.94-2.22-2.34-.99-.4-2.06-.35-3.22.14-1.22.52-2.02,1.25-2.4,2.2-.38.95-.3,2.05.23,3.29.45,1.06,1.06,1.78,1.82,2.14.77.36,1.64.35,2.61-.03l-.49-1.16c-.61.21-1.15.24-1.63.07Z"/>
      <path class="cls-4" d="M38.99,101.6c.11-1.08-.25-2.19-1.09-3.33-.85-1.14-1.8-1.82-2.88-2.02-1.07-.21-2.13.07-3.17.84-1.03.77-1.61,1.69-1.72,2.78-.11,1.08.25,2.19,1.09,3.32.85,1.14,1.81,1.82,2.87,2.03,1.07.21,2.12-.07,3.16-.84,1.04-.77,1.62-1.7,1.73-2.78ZM37.06,100.32c-.24.47-.77,1.02-1.61,1.64-.83.62-1.5.96-2.02,1.05-.51.08-.93-.09-1.25-.52-.31-.42-.35-.87-.12-1.34.23-.47.77-1.02,1.61-1.64.83-.61,1.5-.96,2.02-1.04.52-.08.93.09,1.25.51.31.42.35.87.11,1.34Z"/>
      <path class="cls-4" d="M47.11,109.39c.1,0,.26.08.47.25l.22.18.7-.85-2.66-2.19-.7.85.34.28c.21.17.32.3.34.41.02.1-.07.27-.27.52l-2.23,2.7,1.13-5.9-2.99-2.46-.7.85.3.24c.22.18.33.32.35.43.01.11-.08.27-.26.5l-2.72,3.3c-.19.23-.34.35-.45.36-.11,0-.27-.08-.48-.26l-.29-.24-.71.86,2.66,2.2.71-.86-.27-.22c-.21-.17-.32-.31-.34-.42-.01-.11.08-.28.27-.51l2.44-2.96-1.22,6.27,2.07,1.71,3.85-4.67c.19-.23.34-.35.45-.36Z"/>
      <path class="cls-4" d="M54.96,112.66c-.27-.35-.57-.67-.9-.94-.34-.27-.72-.52-1.16-.73-.86-.43-1.65-.55-2.39-.38-.74.17-1.28.61-1.63,1.32-.16.33-.24.65-.23.98,0,.32.1.66.28,1.01.07.15.22.35.43.58.22.24.54.56.96.95.13.12.31.29.54.49.71.64.99,1.13.82,1.46-.11.22-.29.35-.55.39-.26.04-.54-.02-.86-.18-.52-.26-.9-.64-1.14-1.13-.23-.5-.3-1.06-.2-1.68l-1.01-.5-1.3,2.61.96.48.45-.26c.28.38.59.71.93.99.34.28.71.53,1.13.74.91.45,1.74.6,2.48.44.74-.15,1.29-.58,1.64-1.29.32-.64.35-1.25.1-1.83s-.86-1.27-1.82-2.06c-.09-.08-.23-.18-.4-.32-.7-.54-.97-.97-.81-1.29.1-.21.29-.33.56-.37.27-.04.57.01.88.17.53.27.9.6,1.1,1,.2.4.23.88.1,1.43l1.18.59,1.21-2.43-1-.5-.36.26Z"/>
      <path class="cls-4" d="M62.88,115.99l.39.09c.27.06.43.14.49.22.06.08.05.28-.02.58l-.83,3.45c-.13.53-.33.89-.61,1.07-.28.18-.68.21-1.2.08-.44-.1-.72-.3-.84-.58-.13-.28-.12-.71.02-1.3l.8-3.36c.07-.29.15-.46.24-.51.09-.05.28-.05.55.02l.42.1.26-1.08-4.59-1.1-.26,1.07.39.09c.27.06.44.14.5.23.06.09.06.28-.01.57l-.89,3.74c-.18.76-.04,1.42.43,1.97s1.21.95,2.24,1.2c1.13.27,2.05.27,2.73-.02.69-.28,1.13-.83,1.32-1.64l.88-3.67c.06-.27.14-.44.24-.49.09-.05.27-.04.54.02l.35.08.26-1.08-3.53-.84-.26,1.07Z"/>
      <path class="cls-4" d="M79.62,122.4c-.27,0-.44-.02-.52-.08-.08-.06-.13-.25-.14-.57l-.15-4.27c-.01-.31.02-.5.1-.57.08-.07.25-.11.52-.12h.39s-.04-1.12-.04-1.12l-4.53.16-1.27,4.71-1.49-4.62-4.39.15.04,1.1h.36c.28-.02.46,0,.53.08.08.07.12.25.13.56l.15,4.27c.01.3-.02.49-.1.57-.08.08-.25.12-.52.13h-.36s.04,1.12.04,1.12l3.51-.12-.04-1.11h-.29c-.27.02-.45-.01-.53-.08-.08-.07-.12-.26-.14-.56l-.16-4.75,2.13,6.47,1.83-.06,1.78-6.61.16,4.76c.01.32-.02.52-.11.58-.08.07-.25.1-.52.11h-.29s.04,1.12.04,1.12l4.29-.15-.04-1.11h-.39Z"/>
      <path class="cls-4" d="M90.35,119.5c-.22.06-.39.07-.51.02-.12-.05-.3-.24-.52-.58l-3.4-5.15-2.72.79-.33,6.25c-.02.3-.07.53-.17.69-.09.16-.24.26-.43.32l-.28.08.31,1.07,3.36-.97-.31-1.07-.37.11c-.17.05-.3.07-.4.06-.1,0-.16-.05-.18-.11-.01-.05-.02-.11-.03-.18,0-.07,0-.16,0-.28l.03-.79,2.03-.59.5.73s.06.09.08.15c.02.05.04.1.06.16.03.09.01.16-.04.21-.06.05-.23.12-.51.2l-.34.1.31,1.07,4.57-1.32-.31-1.07-.39.11ZM84.44,118.57l-.02-2.46,1.34,2.08-1.32.38Z"/>
      <path class="cls-4" d="M98.27,112.82c-.45-.13-1.01-.09-1.67.11.38-.4.61-.8.71-1.21.09-.41.03-.8-.18-1.18-.31-.56-.74-.85-1.3-.88-.56-.03-1.29.2-2.18.69l-4.13,2.27.53.97.34-.18c.24-.13.41-.19.52-.16.1.03.22.17.37.44l2.06,3.74.03.05c.14.25.19.43.14.52-.04.09-.18.2-.4.32l-.34.19.54.97,4.02-2.21c1.1-.61,1.81-1.18,2.11-1.73.31-.55.28-1.16-.09-1.83-.25-.46-.61-.76-1.05-.88ZM94.23,113.69l-1.01-1.83.41-.23c.36-.2.66-.27.89-.22.23.05.43.24.61.56.18.32.22.61.14.85-.08.24-.31.46-.67.66l-.37.21ZM97.11,115.78c-.08.27-.34.52-.75.75l-.44.24-1.2-2.18.43-.24c.4-.22.75-.3,1.03-.23.28.07.53.28.73.65.22.4.28.73.2,1Z"/>
      <path class="cls-4" d="M105.65,107.08c.3.38.51.7.63.95.12.26.18.49.18.71,0,.18-.06.35-.18.52-.12.17-.36.42-.72.74l-.39.35-3.25-3.7-.04-.04c-.19-.21-.27-.37-.25-.47.02-.1.13-.23.32-.4l.33-.29-.73-.83-3.54,3.11.73.83.3-.26c.21-.18.36-.27.47-.27.1,0,.26.12.46.35l2.82,3.21c.2.23.3.4.28.5-.01.1-.12.25-.33.43l-.3.26.73.84,5.54-4.87-2.15-2.45-.91.8Z"/>
      <path class="cls-4" d="M112.6,98.73c.32.26.56.49.74.71.17.22.3.43.38.63.06.18.06.37-.01.58-.07.2-.26.52-.57.95l-.82,1.12-1.97-1.44.18-.25c.21-.29.42-.44.63-.45.21,0,.54.14.99.45l.58-.79-2.89-2.1-.58.79.06.04c.35.26.56.49.61.71.05.22-.02.47-.23.75l-.18.24-1.74-1.27.59-.81.14-.19c.28-.38.51-.64.68-.78.18-.13.37-.22.57-.25.18-.03.38-.02.61.04.22.05.51.16.87.32l.73-1-2.36-1.72-4.84,6.64.89.65.23-.31c.16-.22.3-.35.4-.37.1-.02.28.06.52.24l3.45,2.52.05.03c.23.17.35.31.35.41,0,.1-.08.26-.23.47l-.23.32.9.66,4.87-6.68-2.61-1.9-.76,1.04Z"/>
      <path class="cls-4" d="M118.64,88.42c-.65-.28-1.26-.28-1.84,0-.57.28-1.22.93-1.95,1.93-.07.1-.17.23-.3.41-.51.73-.92,1.02-1.24.88-.21-.09-.35-.27-.41-.54-.06-.27-.02-.57.12-.89.24-.55.55-.93.94-1.15.39-.22.86-.28,1.43-.18l.52-1.21-2.5-1.07-.44,1.03.28.35c-.34.28-.63.6-.89.95-.25.35-.48.75-.67,1.2-.38.88-.46,1.68-.25,2.41.21.73.68,1.24,1.4,1.55.34.14.66.2.99.18.32-.03.65-.14.99-.33.15-.08.33-.24.56-.47.23-.23.53-.57.9-1.01.12-.14.27-.33.46-.57.6-.75,1.07-1.05,1.41-.9.22.1.36.27.42.53.05.25.01.54-.13.87-.23.54-.59.94-1.07,1.2-.48.26-1.04.36-1.67.29l-.45,1.04,2.68,1.15.42-.98-.28-.44c.36-.3.68-.63.94-.99.27-.35.49-.74.67-1.17.4-.93.5-1.77.31-2.5s-.66-1.26-1.38-1.57Z"/>
      <polygon class="cls-4" points="70.18 100.06 70.18 97.13 70.98 97.13 70.98 96.31 68.41 96.31 68.41 97.13 69.21 97.13 69.21 100.06 70.18 100.06"/>
      <polygon class="cls-4" points="71.25 100.06 72.22 100.06 72.54 97.9 73.38 100.06 73.77 100.06 74.66 97.9 74.98 100.06 75.95 100.06 75.31 96.31 74.35 96.31 73.6 98.31 72.85 96.31 71.88 96.31 71.25 100.06"/>
      <polygon class="cls-4" points="77.23 67.9 77.23 67.9 77.23 67.9 77.23 67.9"/>
      <path class="cls-4" d="M72.85,76.29c-.06.23-.17.44-.35.65l-.17.18-.04.04-.43.48-.15.17h0s0,0,0,0l.15-.17.43-.48.04-.04.17-.18c.18-.21.3-.43.35-.66Z"/>
      <path class="cls-4" d="M65.05,55.71c-.03.21-.06.41-.08.61-.02.15-.04.3-.06.44-.02.19-.04.38-.06.57,0,.07-.01.13-.02.19,0,.07-.02.15-.02.22-.02.18-.03.36-.04.54,0,.13-.02.26-.02.39,0,.17-.01.33-.02.5,0,.12,0,.24,0,.35,0,.16,0,.3.01.45,0,.1,0,.21.01.31,0,.15.03.28.04.41,0,.08.02.18.03.26.02.14.05.26.08.39.01.06.02.13.04.18.05.17.11.33.17.46l-1.8-1.06-14.31-8.42c-.25.49-.34,1.07-.33,1.7.03,2.5,1.96,5.58,2.51,6.78l2.73,5.85,1.89,4.05.25.53.44.95.15.33.08.18c-4.3,1.26-11.02,2.74-11.56,2.85-.02,0-.05.01-.05.01,0,0-.21,3.28,5.02,4.42.26.04,7.73,2.05,8.38,2.2,1.62.39,2.8,1.06,2.12,2.96-.12.42-.84,1.49-.47,4.58l2.05-.68.83-.28c1.54-.51,4.61-1.53,5.26-1.73,1.09-.33,1.94-1.03,2.53-1.65.21-.22,1.09-1.45,1.07-2.46,0-.06,0-.15,0-.28-.03-.77-.12-2.6-.12-2.6v.02s-2.17,3.33-2.17,3.33c-.52.75-1.32,1.48-2.19,1.74-.97.29-2.09.68-4.69,1.51-.05.02-.09.02-.13.02-.1,0-.18-.04-.18-.04,0,0,0,0,0,0h0s0,0,0,0h0s0,0,0,0c-.08-.09-.03-.19,0-.31.52-1.57.54-2.69.84-3.79.46-1.66,1.05-1.76,1.71-2.22l-2.63.5s-.9.19-1.57.19c-.12,0-.23,0-.33-.02-1.55-.24-4.93-2.11-11.78-3.21-.32-.11-.4-.37-.41-.52,0,0,0,0,.01,0h0s0,0,0,0c-.01-.15.08-.41.36-.46,4.79-.96,7.19-1.59,11.46-3.08.43-.13.83-.18,1.2-.19,0,0,0,0,0,0,0,0,.02,0,.02,0,.04,0,.08,0,.12,0,0,0,.01,0,.02,0h0c.77.01,1.36.2,1.6.25.01,0,.03,0,.04,0l-2.95-1.81s-.57-.4-1.09-.87c-.27-.24-.53-.49-.7-.72-3.32-4.54-3.28-8.31-6.11-12.9-.1-.15-.13-.32-.02-.46,0,0,0-.01.01-.02,0,0,.04.04.09.09,0,0,.01,0,.01.01-.06-.06-.1-.1-.1-.1,0,0,0,0,0,0,.13-.14.33-.13.48-.03,5.94,4.13,7.75,4.42,11.79,6.98.55.35,1.71,1.58,1.71,1.58l2.21,3.19-1.1-4.63-.47-2c-.24-1-.25-2.03-.06-3.04,1.33-7.02,4.79-19.3,5.04-21.21.03-.23.19-.42.42-.42h0s0,0,0,0c0,0,0,0,0,0,.23,0,.38.19.42.42.33,1.81,4.48,15.43,5.54,21.43.14.82.15,2.14,0,2.96l-.96,5.41v.04s0-.03,0-.03h0s1.41-2.11,1.41-2.11c0,0,1.16-1.23,1.71-1.58,4.04-2.56,5.85-2.85,11.79-6.98.27-.17.51-.04.58.03,0,0,0,0,0,0h0c.13.14.09.32-.01.48-2.83,4.59-2.79,8.36-6.11,12.9-.48.65-1.79,1.58-1.79,1.58l-2.96,1.82h0s0,0,0,0h.07c.32-.05.83-.21,1.53-.21.39,0,.84.05,1.34.21,4.28,1.49,6.74,2.03,11.53,2.99.28.06.38.31.36.46,0,0,0,0,0,0,0,0,0,0,0,0-.01.15-.09.41-.41.52-6.85,1.1-10.23,2.98-11.78,3.21-.64.1-1.9-.17-1.9-.17l-2.59-.63s-.14-.07-.35-.19c-.37-.2-.96-.53-1.57-.86-.57-.31-1.14-.63-1.52-.83-.29-.16-.62-.24-.95-.24h-.69s-.05,0-.07,0h0s0,0,0,0c.03,0,.05,0,.07,0h.69c.33,0,.66.08.95.24.38.21.95.52,1.52.83.61.33,1.21.66,1.57.86l.46.32c.67.47,1.26.56,1.71,2.23.3,1.1.32,2.23.84,3.79.04.12.09.22,0,.31h0s0,0,0,0c-.08.09-.19.05-.3.02-2.6-.83-3.72-1.21-4.69-1.51-.87-.26-1.67-1-2.19-1.74l-2.35-3.64c-.15.21-.25.46-.25.76,0,.07,0,.12,0,.18,0,.79-.03.66-.04,1.59,0,.07,0,.32,0,.64h0c.19.64.46,1.32.9,1.97.06.09.12.19.19.28.59.67,1.5,1.48,2.7,1.84.65.2,3.73,1.22,5.26,1.73l2.31.77s0,0,0,0l.57.19c.17-1.41.11-2.38-.02-3.08-.01-.08-.03-.15-.04-.23-.15-.69-.35-1.06-.41-1.26-.21-.59-.23-1.05-.12-1.43.07-.26.19-.48.38-.66.42-.42,1.09-.68,1.87-.86.64-.16,8.12-2.17,8.38-2.2,4.9-1.06,5.02-4.01,5.02-4.38,0,0,0,0,0,0,0-.02,0-.03,0-.03,0,0,0,0,0,0,0,0-7.32-1.81-11.61-3.06,0,0,.05-.03.12-.07l.09-.2,1.76-3.77,3.54-7.57.04-.08s.07-.11.11-.17c.06-.09.12-.19.19-.3.02-.03.03-.05.05-.08.02-.03.03-.05.05-.08.84-1.39,2.08-4.03,2.11-6.15,0-.62-.09-1.19-.32-1.67,0,0,0-.01,0-.02,0,0,0,0,0,0l-2.72,1.6s0,0,0,0l-13.38,7.87h0c.06-.12.11-.27.16-.42,1.53-5.11-5.06-26.51-7.22-28.79,0,0,0,0,0,0-.06-.06-.12-.12-.17-.15-.05-.03-.11-.06-.15-.06-.05,0-.1.03-.15.06-.05.04-.11.09-.17.15,0,0,0,0,0,0t0,0c-.07.07-.14.17-.22.28,0,0,0,0,0,0-.08.11-.16.24-.24.38,0,0,0,0,0,0-.08.14-.17.31-.26.48h0c-.09.19-.19.38-.28.59,0,0,0,.01,0,.02-.1.21-.2.43-.3.67,0,0,0,0,0,.01-.1.24-.21.49-.32.76,0,0,0,0,0,0-.11.27-.22.55-.33.84,0,0,0,0,0,0-.41,1.05-.83,2.25-1.26,3.54-.49,1.49-.99,3.09-1.46,4.75-.04.13-.08.26-.11.39-.07.24-.13.47-.2.71-.05.18-.1.35-.14.53,0,0,0,.01,0,.02-.06.21-.11.43-.17.64-.05.21-.11.42-.16.62-.05.2-.1.39-.15.59-.06.22-.11.45-.17.67-.05.19-.09.38-.13.56-.05.23-.11.46-.16.68-.04.18-.08.36-.12.54-.05.23-.1.46-.15.69-.04.18-.07.35-.11.52-.05.23-.09.45-.14.68-.03.17-.07.34-.1.5-.04.22-.08.45-.12.66-.03.16-.06.32-.08.48-.04.22-.07.43-.11.64-.02.16-.05.31-.07.46ZM52.46,57.06s0,0,0,0c0,0,0,0,0,0,0,0-.01,0-.02,0ZM82.69,86.8s0,0,0,0c0,0,0,0,0,0-.04.04-.08.06-.13.06,0,0,0,0,0,0,.05,0,.1-.01.14-.06Z"/>
      <path class="cls-5" d="M75.86,69.88l1.38-1.98h0s0,0,0,0v-.06s.02-.04.02-.04l.96-5.41c.14-.82.14-2.14,0-2.96-1.06-6-5.2-19.61-5.54-21.43-.04-.23-.19-.42-.42-.42,0,0,0,0,0,0h0v32.71c0,.72.26,1.42.73,1.97l.67.78,2.21-3.18Z"/>
      <path class="cls-5" d="M75.51,79.87c-.12-.12-.26-.21-.41-.29,0,0-.02,0-.02-.01-.13-.07-.26-.12-.4-.16,0,0,0,0,0,0-.52-.12-1.07,0-1.45.44-.02.02-.04.04-.06.06,0,0,0,0-.01.01h0s2.35,3.65,2.35,3.65c.52.75,1.32,1.48,2.19,1.74.97.29,2.09.68,4.69,1.51.11.04.22.07.3-.02,0,0,0,0,0,0,0,0,0,0,0,0h0s-6.54-6.3-7.18-6.93Z"/>
      <path class="cls-5" d="M72.7,75.15c-.05-.1-.1-.2-.16-.3-.02-.04-.05-.07-.07-.11,0-.01-.02-.03-.03-.04-.04-.06-.07-.11-.11-.17l-.1-.14-.45-.64-.7-1.01-2.68-3.86h0s-2.21-3.19-2.21-3.19c0,0-1.16-1.23-1.71-1.58-4.04-2.56-5.85-2.85-11.79-6.98-.15-.1-.35-.11-.48.03,0,0,0,0,0,0,0,0,.04.04.1.1,1.23,1.26,14.82,15.21,18.01,18.49.43.44.44.86.37,1.12-.09.34-.36.55-.36.55l-1.74-1.51s-.06-.04-.09-.07c-.05-.04-.1-.07-.15-.11-.07-.06-.15-.11-.23-.17-.85-.61-1.83-1.04-2.87-1.23-.89-.16-1.84-.33-2.19-.42,0,0,0,0,0,0-.01,0-.03,0-.04,0-.24-.05-.83-.24-1.6-.25h0s-.01,0-.02,0c-.04,0-.08,0-.12,0,0,0-.02,0-.02,0,0,0,0,0,0,0-.37,0-.77.05-1.2.19-4.28,1.49-6.67,2.12-11.46,3.08-.28.06-.38.31-.36.46,0,0,0,0,0,0h0c.2,0,12.58.02,17.59.02.37,0,.69,0,.97,0,.63,0,1.02,0,1.09,0,.3,0,.49.22.47.46-.01.14-.1.29-.28.4-.23.16-.82.57-1.43.99-.71.5-1.44,1-1.64,1.14l-.06.04s0,0,0,0c-.66.47-1.25.56-1.71,2.22-.3,1.1-.32,2.23-.84,3.79-.04.12-.09.22,0,.31h0s0,0,0,0l7.78-7.51,1.25-1.21.26-.27h0s.15-.17.15-.17l.43-.48.04-.04.17-.18c.18-.21.3-.43.35-.65.06-.23.05-.46,0-.7-.03-.14-.08-.29-.15-.43ZM70.87,77.95s0,0,0,0h0s0,0,0,0h0s0,0,0,0Z"/>
      <path class="cls-5" d="M96.55,77.41c-1.34,0-11.57.01-17.37.02-.31,0-.61,0-.9,0-1.84,0-3.07,0-3.09,0-.11,0-.21-.09-.06-.21.07-.06.27-.23.52-.43.54-.45,1.3-1.07,1.3-1.07.06-.05.13-.09.19-.14.86-.68,1.87-1.14,2.95-1.32l1.78-.31h0s2.96-1.82,2.96-1.82c0,0,1.31-.93,1.79-1.58,3.32-4.54,3.28-8.31,6.11-12.9.1-.16.14-.34.01-.48,0,0,0,0,0,0l-3.16,3.24-14.79,15.18-.54.55-.23.23c-.29.28-.39.53-.4.75,0,.06,0,.12.02.18,0,.04,0,.07,0,.11,0,.04.02.07.04.1.2.64.87.69,1.14.69.01,0,.03,0,.04,0h0s.05,0,.07,0h.69c.33,0,.66.08.95.24.38.21.95.52,1.52.83.61.33,1.21.66,1.57.86.22.12.35.19.35.19l2.59.63s1.26.27,1.9.17c1.55-.24,4.93-2.11,11.78-3.21.31-.11.39-.37.41-.52,0,0,0,0,0,0,0,0-.04,0-.12,0h-.03Z"/>
      <path class="cls-4" d="M35.01,80.07c.3-.07.52.21.58.19.1-.02.29-.22.21-.56-.06-.29-.39-.56-.8-.47-.74.17-1.16,1.57-.83,3.05.34,1.51,1.14,2.48,2.04,2.28,1.49-.33.94-4.54,1.88-4.74.46-.1,1.09.96,1.45,2.53.1.45.03.73-.14.77-.15.03-.28-.17-.36-.15-.11.02-.14.19-.09.42.11.47.75,1.22,1.4,1.07.63-.14.96-.81.65-2.17-.48-2.16-1.79-3.71-2.93-3.46-1.46.33-.92,4.32-1.92,4.54-.57.13-1.12-.63-1.4-1.85-.17-.77-.07-1.38.27-1.46Z"/>
      <path class="cls-4" d="M39.95,92.61c.16-.09.5-.24.76-.33,1.03-.1,2.45-.4,3-.71.28-.16.42-.69.26-.97-.16-.28-1.79.3-2.83.71.02-.22.01-.45-.08-.61-.21-.36-.97-.63-1.68-.56,0,0,0,0,0,0-.81-.03-1.64-.46-1.84-.9-.13-.29.06-.57.28-.73.02.1.05.2.09.29.23.51.98.95,1.55.7.36-.16.53-.86.31-1.34-.19-.42-1.06-.67-1.77-.53-.72-.15-1.39-.59-1.54-1-.11-.29.1-.56.34-.7.02.1.04.21.07.3.19.52.9,1.02,1.49.81.37-.13.59-.82.41-1.31-.19-.51-1.33-.86-2.08-.59-.8.29-1.01.94-.79,1.56.24.66,1.02,1.01,1.56,1.16-.6.37-.73.95-.48,1.49.29.64,1.11.94,1.66,1.04-.48.3-.74.91-.47,1.39.16.28.64.36,1.03.36-.25.31-.4.74-.19,1.12.31.55,1.83.54,2.01.44.17-.1.21-.29.21-.29-.81.04-1.58-.12-1.71-.35-.05-.09.06-.24.42-.44ZM39.4,88.6c.03.07,0,.17-.13.23-.24.11-.87.03-1.01-.28-.03-.06-.05-.11-.06-.18.43-.06,1.12.04,1.2.23ZM38.37,86.13c.03.08-.02.17-.15.22-.25.09-.87-.04-.99-.36-.02-.06-.04-.12-.05-.18.44-.03,1.11.12,1.18.32ZM38.65,91.41c-.05-.09.06-.21.21-.29.51-.29,1.61-.21,1.71-.03.04.08,0,.26-.23.55-.04.01-.07.03-.07.03-.07.02-.18.04-.3.04-.47.02-1.21-.08-1.33-.3Z"/>
      <path class="cls-4" d="M43.25,98.99c.52.58,1.74.46,2.33-.07.15-.14.16-.42.14-.65.21-.31.1-.97-.21-1.31-.24-.26-1.07-.37-1.79,0-.74.11-1.43.04-1.58-.16-.05-.06-.07-.23.16-.41.48-.37,1-.66,1.49-.87l.46.47c.19.2.24.29.34.21.11-.08.34-.47.16-.7-.04-.06-.15-.15-.29-.25.38-.12.7-.2.89-.2.11,0,.16-.01.2-.04.16-.13.16-.75-.04-1-.08-.11-.23-.09-.45-.03-.35.11-.9.33-1.52.66l-.44-.26c-.13-.06-.25-.03-.31.01-.07.05-.01.13.02.17.04.05.15.16.3.31-.43.25-.88.54-1.31.87-.44.34-.4,1.03-.14,1.37.25.32.97.34,1.49.28-.4.5-.27,1.21.08,1.61ZM43.69,97.93c.36-.32,1.33-.48,1.6-.18,0,0-.02.07-.1.14-.09.08-.14.07-.18.1-.01.01-.02.06.09.18.03.03.07.07.11.11-.04.04-.08.08-.12.12-.32.29-1.24.54-1.53.22-.2-.22-.1-.48.13-.68Z"/>
      <path class="cls-4" d="M51.89,101.26c-.07.09,0,.24.2.39.38.3,1.35.48,1.76-.04.4-.5.24-1.23-.85-2.1-1.73-1.38-3.73-1.77-4.45-.86-.93,1.17,1.99,3.94,1.35,4.74-.36.46-1.27.21-2.25-.57-.62-.49-.92-1.03-.7-1.3.19-.24.53-.16.57-.21.07-.08.09-.35-.18-.57-.23-.18-.66-.19-.92.13-.47.6.08,1.95,1.26,2.9,1.21.97,2.45,1.22,3.01.5.95-1.19-2.11-4.12-1.51-4.87.3-.37,1.45.06,2.71,1.06.36.29.48.55.37.69-.1.12-.32.04-.38.11Z"/>
      <path class="cls-4" d="M59.57,108.1c.07-.18-.02-.36-.02-.36-.6.54-1.5.81-1.95.63-.29-.12-.35-.45-.3-.72.08.05.18.11.27.15.52.21,1.37,0,1.6-.58.15-.37-.21-.98-.71-1.18-.43-.17-1.24.26-1.65.85-.57.39-1.15.6-1.32.52-.13-.06-.09-.32,0-.53.15-.31.34-.63.63-1,.76-.5,1.72-1.39,1.96-1.87.2-.41-.15-.99-.42-1.12-.28-.14-1.51,1.41-2.29,2.52,0,0,0,0,0,0-.22.28-.6.52-.74.59,0,0-.02.01-.03.02-.02,0-.03.01-.05.02-.13.06-.25.12-.37.17,0,0,0,0,0,0-.12.05-.22.08-.32.11-.02,0-.04.01-.05.02-.09.02-.17.04-.24.05-.01,0-.02,0-.03,0-.06,0-.11,0-.14,0-.05-.03-.04-.09.03-.22.2-.35.68-.65.73-.73.07-.12-.04-.32-.17-.44.05-.03.08-.06.11-.09.1-.18-.08-.98-.49-1.22-.49-.29-1.76.1-2.22.88-.3.51-.22,1.2.27,1.49.29.17.76,0,1.1-.18-.12.31-.19.72.19.94.46.27,1.48-.24,1.83-.51-.02.03-.03.06-.04.08-.19.4-.22,1.25.35,1.52.36.17.99-.11,1.43-.39-.14.65.19,1.12.73,1.34.95.38,2.22-.54,2.29-.73ZM58.49,106.63c.08.03.11.13.06.26-.1.25-.61.63-.92.5-.06-.02-.12-.05-.17-.09.27-.35.83-.75,1.03-.67ZM51.91,105.49c-.1-.06-.05-.21.04-.36.33-.56,1.31-.97,1.47-.88.08.05.08.19.05.24-.05.09-.19.1-.2.12-.05.08-.03.23.08.35-.32.27-1.18.69-1.43.54Z"/>
      <path class="cls-4" d="M64.02,109.28c-.08.44.3.68.6.73.46.09.99-.24,1.08-.72.07-.36-.16-.64-.51-.7-.51-.1-1.09.24-1.18.69Z"/>
      <path class="cls-4" d="M71.56,110.77c-.07,0-.21.06-.2.26.03.44.87,1.13,1.39,1.09.06,0,.13-.15.19-.38.41.12.92.18,1.2.16,2.56-.19,4.19-2.54,4.1-3.79-.12-1.64-2.22-3.02-4.98-2.81-1.97.15-3.33,1.02-3.26,1.96.02.28.11.41.29.39.33-.59,1.86-1.19,3.07-1.28,2.79-.21,3.88.75,3.93,1.35.11,1.44-1.93,3.25-3.62,3.38-.21.02-.41,0-.61-.02.14-1.16.21-2.98.16-3.71-.02-.31-.71-.67-.9-.66-.09,0-.23.02-.22.24,0,.03.01.05.02.08.1.42.17,1.03.22,1.68.06.74.08,1.55.04,2.23-.35-.09-.63-.18-.8-.16Z"/>
      <path class="cls-4" d="M79.2,106.02c-.3.07-.58.52-.49.88.09.36.46.41.69.35.37-.09.75-.58.66-.97-.06-.23-.58-.33-.86-.26Z"/>
      <path class="cls-4" d="M82.69,109.8c.71-.22,1.01-1.31,1.05-1.76.04.12.08.24.13.37.2.52.88.68,1.27.53.58-.23.8-1.73.72-1.92-.07-.18-.26-.25-.26-.25-.08.81-.38,1.54-.62,1.64-.08.03-.24,0-.35-.27-.22-.56-.35-1.14-.42-1.67l.58-.3c.25-.13.34-.15.3-.27-.05-.13-.36-.46-.63-.35-.07.03-.18.1-.32.2-.01-.4,0-.73.06-.92.03-.11.04-.16.02-.21-.07-.19-.67-.36-.97-.25-.13.05-.16.19-.15.42,0,.36.06.96.2,1.64l-.37.35c-.09.11-.1.23-.08.3.03.08.12.05.17.03.06-.02.19-.1.38-.2.03.14.08.28.12.42,0,0,0,0,0,0,.01.11,0,.23-.02.33,0,.06-.02.11-.02.13,0,.01,0,.02,0,.04-.03.16-.07.31-.12.45,0,.02-.02.04-.02.07-.05.14-.1.27-.16.38,0,.02-.02.03-.02.05-.06.11-.12.21-.18.28,0,0-.01.01-.02.02-.06.07-.12.12-.18.14-.04.01-.12,0-.15-.09-.08-.27-.04-.7.02-1.02.07-.11.12-.32.1-.39-.04-.15-.62-.37-.79-.32-.13.04-.19.54-.2.71l-.3.02c0-.25.02-.64-.02-.76-.06-.19-.3-.46-.52-.39-.21.07-.32.91-.23,1.18.05.17.15.28.26.37-.19.74-.56,1.37-.81,1.43-.08.02-.18-.08-.22-.22-.12-.51-.09-1.08-.02-1.37.02-.11.1-.24.08-.32-.05-.2-.57-.45-.88-.38-.16.04-.21,1.21.05,2.31.12.51.67.63,1.08.53.61-.15,1.02-1.61.97-1.81,0-.01-.01-.02-.02-.04.23.09.47.1.58.09.01.21.03.46.09.64.11.34.55.51.85.42Z"/>
      <path class="cls-4" d="M86.81,105.41c.04.08.13.03.17.01.05-.03.18-.12.36-.24.18.46.39.96.65,1.43.26.49.95.57,1.33.37.35-.19.49-.86.52-1.38.43.45,1.13.43,1.58.15.66-.42.74-1.64.32-2.31-.11-.17-.39-.23-.62-.24-.27-.26-.94-.25-1.32,0-.31.2-.56,1.06-.27,1.85-.03.7-.21,1.32-.42,1.43-.07.04-.24.03-.38-.23-.28-.53-.48-1.09-.62-1.61l.54-.37c.23-.16.32-.19.26-.3-.06-.12-.41-.41-.66-.27-.06.03-.17.12-.3.24-.06-.4-.08-.73-.05-.92.01-.11.02-.16-.01-.21-.1-.18-.71-.28-.99-.13-.12.06-.13.21-.1.44.05.36.18.94.4,1.6l-.33.39c-.08.12-.07.24-.04.31ZM90.52,103.54s.06.03.12.12c.06.1.04.15.07.19,0,.01.06.03.2-.06.04-.02.08-.05.12-.09.04.04.07.09.1.14.23.36.33,1.31-.04,1.54-.25.16-.49.02-.65-.24-.26-.41-.26-1.39.08-1.61Z"/>
      <path class="cls-4" d="M98.02,96.36c-1.11-1.2-3.61-.99-5.65.9-1.44,1.34-1.97,2.87-1.32,3.56.19.2.34.25.47.13-.11-.67.71-2.09,1.6-2.91,2.05-1.9,3.5-1.83,3.91-1.39.98,1.06.52,3.75-.72,4.9-.16.15-.32.26-.49.37-.61-1-1.69-2.46-2.19-3-.21-.23-.98-.08-1.12.05-.07.06-.17.16-.02.32.02.02.04.03.06.05.33.27.77.7,1.22,1.18.51.55,1.03,1.16,1.42,1.71-.33.15-.61.26-.73.37-.05.05-.13.18,0,.32.3.32,1.38.34,1.76-.01.05-.04,0-.2-.09-.42.39-.16.84-.43,1.04-.62,1.88-1.74,1.69-4.6.85-5.51Z"/>
      <path class="cls-4" d="M101.04,91.06c.19-.33.1-.94-.24-1.15-.21-.12-.64.19-.79.44-.16.27-.02.77.3.96.32.18.61-.05.73-.26Z"/>
      <path class="cls-4" d="M109.48,83.59c.41.08,1.18-.56,1.33-1.37.12-.64-.55-1.17-1.42-1.56.05-.19.09-.27.11-.36.01-.06-.03-.12-.09-.13-.22-.04-.44.05-.61.24-.69-.25-1.42-.43-1.95-.54-.1-.07-.19-.14-.23-.17-.09-.06-.25-.15-.34-.16-.2-.04-.62.18-.68.49-.03.15.03.23.3.36.31.15.75.26,1.22.35.33.35.53.7.48.94-.02.08-.11.12-.33.09-.4-.07-.95-.3-1.21-.52-.09-.06-.2-.16-.29-.18-.2-.04-.63.32-.68.64-.02.09.28.32.74.53,0,0,0,0,.02.01.21.09.28.2.28.2.11.1.21.21.31.32.02.02.03.04.05.07.04.05.07.09.11.14.07.09.13.18.19.26.03.04.06.09.08.13.05.08.08.16.11.23.01.03.03.07.04.1.03.1.04.18.03.24-.01.04-.06.1-.15.08-.27-.08-.61-.35-.84-.58-.06-.12-.2-.27-.27-.29-.15-.04-.65.31-.7.48-.04.13.34.45.48.56l-.15.26c-.2-.14-.53-.37-.65-.4-.19-.06-.55,0-.61.21-.07.21.58.77.85.85.16.05.31.04.44,0,.02.02.03.04.05.07.07.1.14.2.17.24.03.05.06.11.09.16.04.07.08.13.11.2.05.11.09.21.13.32.02.06.05.13.06.19.03.11.04.22.05.32,0,.05.02.11.02.15,0,.15-.02.28-.06.38-.11.26-.39.33-.64.3.34-1.04.05-1.68-.46-1.9-.36-.16-.99.18-1.2.67-.2.45.29,1.36.91,1.75-.13.14-.27.22-.42.27-.21-.23-.45-.43-.71-.54-.25-.11-.68.19-.8.47-.1.24.26.48.47.58.2.09.45.17.68.18.46.38.96.98.86,1.21-.07.16-.74-.02-1.24-.23-.56-.24-.53-.58-.59-.61-.14-.06-.53.08-.73.53-.06.14.13.41.53.67h0c.11.1.18.2.24.29.07.12.12.21.15.26.03.05.05.1.07.15.03.06.06.13.09.19.04.1.08.19.11.28.02.06.04.11.06.17.03.09.04.18.05.26,0,.04.02.08.02.12,0,.11,0,.19-.03.25-.04.07-.18.08-.31,0-.45-.26-.85-.68-1.01-.93-.06-.09-.1-.24-.18-.28-.18-.1-.72.1-.88.38-.05.08.25.43.69.82,0,0,0,0,0,0,.13.14.19.3.23.36.32.64.44,1.25.34,1.41-.08.12-.33.05-.53-.08-.29-.19-.58-.42-.91-.76-.39-.82-1.14-1.9-1.58-2.2-.38-.25-1,.01-1.16.26-.02.04-.02.1.02.18.01.03.04.07.06.1.03.06.06.12.11.19.03.05.08.1.11.15.05.07.11.14.17.22.05.06.1.12.16.18.07.08.14.16.22.25.06.07.12.13.18.2.08.09.16.17.25.26.07.07.13.13.2.2.08.08.17.17.25.25.07.07.13.13.2.19.08.08.16.15.24.22.06.06.12.11.18.17,0,0,0,0,0,0,.08.08.17.24.22.36.03.05.05.1.05.11.29.68.26,1.5-.01,1.85-.19.25-.53.22-.77.09.07-.07.15-.14.21-.22.34-.44.38-1.31-.12-1.7-.31-.24-1-.06-1.33.36-.33.43-.01,1.59.62,2.07.67.52,1.34.35,1.74-.17.51-.66.24-1.74.04-2.19.01,0,.03.02.04.03.37.25,1.21.39,1.56-.14.26-.39-.06-1.23-.3-1.69.11.07.22.14.34.21.46.27.92-.05,1.13-.41.04-.06.06-.14.07-.22,0-.03,0-.05,0-.08,0-.06,0-.12,0-.18,0-.03,0-.07-.02-.1-.01-.06-.03-.13-.05-.19,0-.03-.02-.07-.03-.1-.02-.07-.05-.15-.08-.22,0-.02-.02-.04-.03-.07-.04-.09-.08-.18-.13-.27-.01-.02-.02-.04-.03-.06-.03-.06-.07-.12-.1-.17-.01-.02-.03-.04-.04-.07-.02-.02-.03-.05-.05-.07-.03-.04-.09-.12-.14-.19.61.25,1.54.49,1.96-.47.07-.16-.21-.96-.69-1.65.19-.13.37-.31.49-.49.67.19,1.18-.13,1.42-.68.05-.12.08-.25.1-.38,0-.05,0-.09,0-.14,0-.09,0-.17,0-.26,0-.05-.02-.11-.03-.16-.02-.08-.03-.15-.05-.23-.02-.06-.04-.11-.06-.16-.03-.07-.05-.14-.08-.2,0-.01-.01-.03-.02-.05-.07-.15-.29-.61-.55-.99.15-.13.26-.29.31-.37.18.11.4.23.58.28.34.1.73-.18.82-.48.04-.13.04-.26.02-.39,0-.02,0-.05,0-.07-.02-.12-.06-.25-.11-.37-.01-.02-.02-.05-.03-.07-.06-.12-.12-.23-.19-.33,0,0,0-.01-.01-.02-.08-.11-.16-.21-.24-.3,0,0-.02-.02-.02-.03-.03-.03-.1-.11-.19-.2.1.03.21.05.31.07.68.13,1-.21,1.08-.63.08-.41-.16-.82-.45-1.13.29.07.58.16.85.26-.15,1.22.58,2.42.96,2.49ZM109.26,81.41c.54.28.91.62.85.96-.06.35-.24.61-.39.58-.15-.03-.49-.74-.46-1.54ZM99.85,96.17s-.08.1-.13.14c-.26-.36-.5-1-.36-1.17.05-.06.16-.07.26.01.21.16.44.75.23,1.02ZM105,87.23c-.34-.27-.76-.87-.67-1.07.03-.07.13-.11.26-.05.19.08.61.37.41,1.12Z"/>
    </g>
  </g>
</svg>