<?xml version="1.0" encoding="UTF-8"?>
<svg id="Layer_2" data-name="Layer 2" xmlns="http://www.w3.org/2000/svg" xmlns:xlink="http://www.w3.org/1999/xlink" viewBox="0 0 76.44 76.83">
  <defs>
    <style>
      .cls-1 {
        fill: none;
      }

      .cls-2 {
        fill: #474747;
      }

      .cls-3 {
        fill: #030303;
      }

      .cls-4 {
        fill: #fff;
      }

      .cls-5 {
        fill: #9f9f9f;
      }

      .cls-6 {
        clip-path: url(#clippath);
      }
    </style>
    <clipPath id="clippath">
      <rect class="cls-1" width="76.44" height="76.83"/>
    </clipPath>
  </defs>
  <g class="cls-6">
    <g>
      <path class="cls-2" d="M20.45,53.77c4.12.6,8.52,1.69,8.52,1.69.79.15-.38,1.72-.15,3.62l.24,2.75s1.98-.61,3.89-1.2c1.66-.51,3.25-1.01,3.44-1.06.49-.15,1.29-.9,1.41-1.66,0-.07,0-.14,0-.19.02-.41.01-.81.02-1.22,0-.32.02-.64.01-.95,0-.43-.01-.85-.02-1.26-.07.66-.59,1.39-.72,1.53-.23.24-.52.5-.86.72-.26.17-.55.32-.88.42-.45.14-2.57.84-3.63,1.19l-.57.19-1.42.47c-.26-2.13.24-2.86.32-3.16.47-1.31-.34-1.77-1.46-2.04-.44-.11-5.6-1.49-5.78-1.52-3.61-.78-3.46-3.05-3.46-3.05,0,0,.02,0,.04,0,.35-.08,4.41-.97,7.36-1.79.21-.06.41-.12.61-.17l-.06-.12-.1-.22-.09-.18-.22-.47-.17-.36-1.3-2.79-1.89-4.04c-.38-.83-1.71-2.95-1.73-4.67,0-.43.06-.83.23-1.17l8.89,5.23.97.57,1.24.73c-.05-.09-.09-.2-.12-.32-.01-.04-.02-.08-.03-.13-.02-.09-.04-.17-.06-.27,0-.06-.01-.12-.02-.18-.01-.09-.02-.18-.03-.29,0-.07,0-.14,0-.21,0-.1,0-.2,0-.31,0-.08,0-.16,0-.24,0-.06,0-.12,0-.18,0-.05,0-.11,0-.16,0-.09.01-.18.02-.27,0-.12.02-.24.03-.37,0-.05.01-.1.02-.15,0-.04,0-.09.01-.13.01-.13.03-.26.04-.39.01-.1.03-.2.04-.31.02-.14.04-.28.06-.42.02-.11.03-.21.05-.32.02-.15.05-.29.07-.44.02-.11.04-.22.06-.33.03-.15.06-.3.08-.46.02-.12.04-.23.07-.35.03-.15.06-.31.09-.47.02-.12.05-.24.08-.36.03-.16.07-.32.1-.47.03-.12.05-.25.08-.37.04-.16.07-.31.11-.47.03-.13.06-.26.09-.39.04-.15.08-.31.11-.46.03-.14.07-.27.1-.41.04-.14.07-.29.11-.43.04-.15.08-.29.12-.44,0,0,0,0,0-.01.03-.12.07-.24.1-.36.04-.16.09-.33.13-.49.03-.09.05-.18.08-.27.21-.74.43-1.46.65-2.16.12-.38.24-.76.36-1.11.03-.09.06-.17.09-.26.26-.79.53-1.53.78-2.18,0,0,0,0,0,0,.08-.2.15-.39.23-.58,0,0,0,0,0,0,.07-.18.15-.36.22-.52,0,0,0,0,0,0,.07-.16.14-.32.21-.46,0,0,0,0,0-.01.07-.14.13-.28.19-.4,0,0,0,0,0,0,.06-.12.12-.23.18-.33,0,0,0,0,0,0,.06-.1.11-.19.17-.26,0,0,0,0,0,0,.05-.08.1-.14.15-.19,0,0,0,0,0,0,0,0,0,0,0,0,.04-.04.08-.08.12-.11.04-.02.07-.04.11-.04.03,0,.07.02.11.04.04.03.08.06.12.11,0,0,0,0,0,0,.35.37.86,1.45,1.43,2.94.24.62.48,1.3.73,2.03,1.57,4.66,3.22,11.26,2.95,14.16-.03.27-.07.52-.13.72-.03.11-.07.21-.11.29h0s.46-.27.46-.27l8.76-5.16s0,0,0,0l1.88-1.11s0,0,0,0c0,0,0,0,0,.01.16.33.23.73.22,1.15-.02,1.47-.87,3.28-1.45,4.24-.01.02-.02.04-.03.06-.01.02-.02.04-.03.05-.05.08-.09.14-.13.2-.03.04-.05.08-.08.11l-.02.05-2.44,5.22-1.16,2.49-.05.11-.06.14s-.08.05-.08.05c.38.11.8.23,1.24.35,2.94.82,6.77,1.76,6.77,1.76,0,0,0,0,0,0,0,0,0,0,0,.02,0,0,0,0,0,0,0,.24-.07,2.01-2.81,2.85-.2.06-.42.12-.66.17-.18.03-5.33,1.41-5.78,1.52-.54.13-1,.31-1.29.6-.06.06-.11.12-.15.19-.05.08-.09.17-.11.26-.07.26-.06.58.09.99.04.14.18.4.28.87,0,.05.02.1.03.16.09.48.13,1.15.01,2.13l-.39-.13s0,0,0,0l-1.6-.53c-1.06-.35-3.18-1.06-3.63-1.19-.28-.09-.54-.22-.77-.36-.45-.27-.83-.61-1.09-.91-.05-.06-.09-.13-.13-.19-.31-.45-.49-.91-.62-1.36,0,.15,0,.32,0,.5h0c0,.18.01,1.07.03,1.88.01.51.02,1,.03,1.25,0,.84.94,1.64,1.5,1.81.19.06,1.78.55,3.44,1.06,1.91.59,3.89,1.2,3.89,1.2l.24-2.75c.23-1.9-.94-3.47-.15-3.62,0,0,4.4-1.09,8.52-1.69,4.12-.6,4.71-5,4.71-5l-1.62-.39-7.65-2,2.78-6.47c.29-.77,2.13-4.55,2.35-7.67.07-1.03-.02-1.98-.38-2.69,0,0-7.37,4.1-10.87,6.17,0-5.12-7.08-24.52-7.08-24.52,0,0-6.11,16.76-6.98,23.23-.07.49-.1.93-.1,1.29-3.5-2.08-10.87-6.18-10.87-6.18-.36.71-.45,1.66-.38,2.69.22,3.12,2.06,6.9,2.35,7.67l2.86,6.57-.3.07-7.44,1.82-1.62.39s.59,4.4,4.71,5Z"/>
      <polygon class="cls-2" points="37.11 50.56 37.11 50.56 37.11 50.56 37.11 50.56"/>
      <path class="cls-4" d="M22.81,52.08c.18.03,5.33,1.41,5.78,1.52,1.12.27,1.93.73,1.46,2.04-.08.29-.58,1.03-.32,3.16l1.42-.47.57-.19c1.06-.35,3.18-1.06,3.63-1.19.33-.1.62-.25.88-.42.34-.22.63-.47.86-.72.14-.14.65-.87.72-1.53,0-.06,0-.11,0-.17,0-.18-.01-.36-.02-.54-.02-.42-.04-.94-.07-1.4,0,0,0,0,0-.01l-1.48,2.29c-.36.51-.91,1.02-1.51,1.2-.67.2-1.44.47-3.23,1.04-.03.01-.06.01-.09.01,0,0,0,0-.01,0-.01,0-.02,0-.03,0-.05,0-.08-.02-.08-.02,0,0,0,0,0,0h0s0,0,0,0h0s0,0,0,0c-.06-.06-.02-.13,0-.21.36-1.08.37-1.86.58-2.62.32-1.15.72-1.21,1.18-1.53l-1.81.35s-.62.13-1.08.13c-.08,0-.16,0-.23-.01-1.07-.16-3.4-1.46-8.12-2.21-.22-.08-.27-.26-.28-.36,0,0,0,0,0,0h0s0,0,0,0c0-.1.06-.28.25-.32,3.3-.66,4.96-1.09,7.91-2.12.96-.3,1.79,0,2.04.05,0,0,.02,0,.03,0l-2.03-1.24s-.39-.28-.75-.6c-.19-.17-.37-.34-.48-.49-2.29-3.13-2.26-5.73-4.22-8.9-.07-.11-.09-.22-.02-.32,0,0,0,0,0-.01,0,0,.02.02.06.06,0,0,0,0,.01,0-.04-.04-.07-.07-.07-.07,0,0,0,0,0,0,.09-.1.23-.09.33-.02,4.1,2.85,5.34,3.05,8.13,4.81.38.24,1.18,1.09,1.18,1.09l1.5,2.16-1.07-4.49c-.16-.69-.17-1.4-.04-2.09,0,0,0-.02,0-.03,0,0,0-.01,0-.02.85-4.51,2.98-12.18,3.41-14.26.02-.11.04-.21.05-.28,0,0,0,0,0,0,0-.02.01-.06.01-.08.02-.16.13-.29.29-.29h0s0,0,0,0c0,0,0,0,0,0,.16,0,.26.13.29.29.23,1.25,3.09,10.64,3.82,14.77.1.56.1,1.48,0,2.04l-.66,3.71.94-1.4s.05-.06.14-.14c.23-.23.78-.79,1.07-.97,1.26-.8,2.21-1.28,3.25-1.83.52-.28,1.07-.57,1.69-.93.87-.51,1.88-1.14,3.19-2.05.19-.12.35-.03.4.02,0,0,0,0,0,0h0c.09.1.06.22,0,.33-1.95,3.17-1.93,5.77-4.22,8.9-.33.45-1.23,1.09-1.23,1.09l-2.04,1.26h0s0,0,0,0h.05c.22-.03.57-.15,1.05-.15.27,0,.58.04.92.14,2.95,1.03,4.65,1.4,7.95,2.06.19.04.26.22.25.32,0,0,0,0,0,0,0,0,0,0,0,0,0,.1-.06.28-.28.36-4.72.76-7.06,2.05-8.12,2.21-.44.07-1.31-.12-1.31-.12l-1.78-.44s-.09-.05-.24-.13c-.25-.14-.67-.36-1.08-.59-.39-.22-.79-.43-1.05-.58-.2-.11-.43-.17-.66-.17h-.48s-.03,0-.05,0c0,0,0,0,0,0,.02,0,.03,0,.05,0h.48c.23,0,.46.06.66.17.26.14.65.36,1.05.58.42.23.83.46,1.08.59l.32.22c.46.32.87.39,1.18,1.54.21.76.22,1.54.58,2.62.03.08.06.15,0,.21h0s0,0,0,0c-.06.06-.13.04-.21.01-1.79-.57-2.57-.84-3.23-1.04-.6-.18-1.15-.69-1.51-1.2l-1.62-2.51c-.1.14-.17.32-.17.53,0,.05,0,.08,0,.13,0,.55-.02.45-.03,1.1,0,.05,0,.22,0,.44h0c.13.44.31.91.62,1.36.04.06.08.13.13.19.27.3.64.64,1.09.91.24.14.49.27.77.36.45.14,2.57.84,3.63,1.19l1.6.53s0,0,0,0l.39.13c.12-.97.07-1.64-.01-2.13,0-.05-.02-.1-.03-.16-.1-.47-.24-.73-.28-.87-.15-.41-.16-.72-.09-.99.03-.09.06-.18.11-.26.04-.07.09-.14.15-.19.29-.29.75-.47,1.29-.6.44-.11,5.6-1.49,5.78-1.52.24-.05.45-.11.66-.17,2.73-.84,2.81-2.61,2.81-2.85,0,0,0,0,0,0,0-.01,0-.02,0-.02,0,0,0,0,0,0,0,0-3.82-.94-6.77-1.76-.44-.12-.86-.24-1.24-.35,0,0,.03-.02.08-.05l.06-.14.05-.11,1.16-2.49,2.44-5.22.02-.05s.05-.07.08-.11c.04-.06.09-.13.13-.2.01-.02.02-.03.03-.05.01-.02.02-.04.03-.06.58-.96,1.44-2.78,1.45-4.24,0-.42-.06-.82-.22-1.15,0,0,0,0,0-.01,0,0,0,0,0,0l-1.88,1.11s0,0,0,0l-8.76,5.16-.46.27h0c.04-.08.08-.18.11-.29.06-.2.1-.45.13-.72.27-2.9-1.38-9.5-2.95-14.16-.25-.73-.49-1.42-.73-2.03-.57-1.49-1.08-2.57-1.43-2.94,0,0,0,0,0,0-.04-.04-.08-.08-.12-.11-.04-.02-.07-.04-.11-.04-.03,0-.07.02-.11.04-.04.03-.08.06-.12.11,0,0,0,0,0,0,0,0,0,0,0,0-.05.05-.1.11-.15.19,0,0,0,0,0,0-.05.08-.11.16-.17.26,0,0,0,0,0,0-.06.1-.12.21-.18.33,0,0,0,0,0,0-.06.12-.13.26-.19.4,0,0,0,0,0,.01-.07.14-.14.3-.21.46,0,0,0,0,0,0-.07.16-.14.34-.22.52,0,0,0,0,0,0-.07.18-.15.38-.23.58,0,0,0,0,0,0-.25.65-.51,1.39-.78,2.18-.03.09-.06.17-.09.26-.12.36-.24.74-.36,1.11-.22.7-.44,1.42-.65,2.16-.03.09-.05.18-.08.27-.05.16-.09.33-.13.49-.03.12-.07.24-.1.36,0,0,0,0,0,.01-.04.15-.08.29-.12.44-.04.14-.08.29-.11.43-.03.14-.07.27-.1.41-.04.15-.08.31-.11.46-.03.13-.06.26-.09.39-.04.16-.07.31-.11.47-.03.12-.06.25-.08.37-.04.16-.07.32-.1.47-.03.12-.05.24-.08.36-.03.16-.06.31-.09.47-.02.12-.05.23-.07.35-.03.15-.06.31-.08.46-.02.11-.04.22-.06.33-.03.15-.05.3-.07.44-.02.11-.03.21-.05.32-.02.14-.04.28-.06.42-.01.1-.03.21-.04.31-.02.13-.03.26-.04.39,0,.04,0,.09-.01.13,0,.05-.01.1-.02.15-.01.13-.02.25-.03.37,0,.09-.01.18-.02.27,0,.06,0,.11,0,.16,0,.06,0,.12,0,.18,0,.08,0,.16,0,.24,0,.11,0,.21,0,.31,0,.07,0,.15,0,.21,0,.1.02.19.03.29,0,.06.01.12.02.18.01.1.04.18.06.27,0,.04.02.09.03.13.03.12.07.23.12.32l-1.24-.73-.97-.57-8.89-5.23c-.17.34-.24.74-.23,1.17.02,1.73,1.35,3.85,1.73,4.67l1.89,4.04,1.3,2.79.17.36.22.47.09.18.1.22.06.12c-.2.06-.4.12-.61.17-2.95.82-7.02,1.72-7.36,1.79-.01,0-.04,0-.04,0,0,0-.15,2.26,3.46,3.05Z"/>
      <path class="cls-5" d="M39.02,47.19l1.5-2.16.95-1.36v-.03s.01-.04.01-.04l.03-.05.66-3.71c.1-.56.1-1.48,0-2.04-.73-4.13-3.59-13.52-3.82-14.77-.03-.16-.13-.29-.29-.29,0,0,0,0,0,0h0v22.56c0,.5.18.98.5,1.36l.46.53Z"/>
      <path class="cls-5" d="M45.22,56.64s0,.01,0,.02h0s-4.99-4.82-4.99-4.82l-.1-.1s-.07-.04-.1-.05c0,0-.01,0-.02,0-.09-.05-.18-.08-.28-.11,0,0,0,0,0,0-.36-.08-.74,0-1,.31-.01.01-.03.03-.04.04,0,0,0,0,0,0h0s1.62,2.51,1.62,2.51c.36.51.91,1.02,1.51,1.2.67.2,1.44.47,3.23,1.04.08.02.15.05.21-.01,0,0,0,0,0,0,0,0,0,0,0,0h0s-.02-.02-.03-.03c0,0,0,0,0,0Z"/>
      <path class="cls-5" d="M21.52,50.19c.07,0,8.66.01,12.13.02.25,0,.48,0,.67,0,.43,0,.7,0,.75,0,.21,0,.34.15.32.31,0,.1-.07.2-.2.28-.16.11-.57.39-.98.69-.49.34-.99.69-1.13.79l-.04.03s0,0,0,0c-.46.32-.86.39-1.18,1.53-.21.76-.22,1.54-.58,2.62-.03.08-.06.15,0,.21h0s0,0,0,0h0s0,0,0,0c0,0,0,0,0,0,0,0,0,0,0,0h0s.04-.04.04-.04l5.31-5.13.86-.83.18-.18h0s.1-.11.1-.11l.3-.33.03-.03.11-.13c.25-.29.32-.6.24-.93-.02-.1-.06-.2-.1-.3-.03-.07-.07-.14-.11-.21-.01-.02-.03-.05-.05-.07,0,0-.01-.02-.02-.03-.03-.04-.05-.08-.08-.12l-.07-.09-.31-.44v-.02s-.48-.67-.48-.67l-1.84-2.66v-.06s-1.52-2.16-1.52-2.16c0,0-.8-.85-1.18-1.09-2.79-1.77-4.03-1.96-8.13-4.81-.1-.07-.24-.08-.33.02,0,0,0,0,0,0,0,0,.03.03.07.07.85.87,10.22,10.49,12.42,12.75.29.3.31.59.26.77-.06.23-.25.38-.25.38l-1.2-1.04s-.04-.03-.06-.05c-.03-.03-.07-.05-.1-.07-.05-.04-.1-.08-.16-.12-.59-.42-1.26-.72-1.98-.85-.61-.11-1.27-.23-1.51-.29,0,0,0,0,0,0,0,0-.02,0-.03,0-.25-.05-1.08-.35-2.04-.05-2.95,1.03-4.6,1.46-7.91,2.12-.19.04-.26.22-.25.32,0,0,0,0,0,0h0ZM37.11,50.56s0,0,0,0h0s0,0,0,0h0s0,0,0,0Z"/>
      <path class="cls-5" d="M39.44,49.31l-.16.16c-.2.19-.27.36-.28.52,0,.04,0,.08.01.12,0,.03,0,.05,0,.07,0,.03.02.05.02.07.14.44.6.47.79.47,0,0,.02,0,.02,0,.02,0,.03,0,.05,0h.48c.23,0,.46.06.66.17.26.14.65.36,1.05.58.42.23.83.46,1.08.59.15.08.24.13.24.13l1.78.44s.87.18,1.31.12c1.07-.16,3.4-1.46,8.12-2.21.22-.08.27-.25.28-.36,0,0,0,0,0,0,0,0-.03,0-.08,0h-.02c-.93,0-7.98,0-11.98.01-.22,0-.42,0-.62,0-1.27,0-2.11,0-2.13,0-.08,0-.14-.06-.04-.14.05-.04.19-.16.36-.29.38-.31.9-.74.9-.74.04-.04.09-.06.13-.1.59-.47,1.29-.78,2.03-.91l1.23-.21h0s2.04-1.26,2.04-1.26c0,0,.9-.64,1.23-1.09,2.29-3.13,2.26-5.73,4.22-8.9.07-.11.1-.23,0-.33,0,0,0,0,0,0l-2.18,2.23-10.2,10.46-.37.38Z"/>
      <polygon class="cls-3" points="37.11 50.56 37.11 50.56 37.11 50.56 37.11 50.56 37.11 50.56"/>
      <path class="cls-3" d="M28.48,45.46c.11.15.29.33.48.49.36.32.75.6.75.6l2.03,1.24s0,0,0,0c.25.06.9.18,1.51.29.72.13,1.39.42,1.98.85.05.04.1.08.16.12.03.03.07.05.1.07.02.02.04.03.06.05l1.2,1.04s.19-.15.25-.38c.05-.18.04-.47-.26-.77-2.2-2.26-11.57-11.88-12.42-12.75,0,0,0,0-.01,0-.04-.04-.06-.06-.06-.06,0,0,0,0,0,.01-.08.09-.05.21.02.32,1.95,3.17,1.93,5.77,4.22,8.9Z"/>
      <path class="cls-3" d="M21.8,50.55c4.72.76,7.06,2.05,8.12,2.21.07.01.15.01.23.01.46,0,1.08-.13,1.08-.13l1.81-.35s0,0,0,0l.04-.03c.14-.1.64-.45,1.13-.79.42-.29.82-.57.98-.69.13-.08.19-.18.2-.28.02-.16-.11-.31-.32-.31-.04,0-.32,0-.75,0-.19,0-.42,0-.67,0-3.47,0-12.05-.02-12.13-.02,0,0,0,0,0,0,0,.1.06.28.28.36Z"/>
      <path class="cls-3" d="M45.79,47.66c-.48,0-.84.11-1.05.14h-.05s0,0,0,0h0s-1.23.21-1.23.21c-.74.13-1.44.45-2.03.91-.04.03-.09.06-.13.1,0,0-.52.43-.9.74-.17.14-.31.26-.36.29-.1.08-.03.14.04.14.02,0,.86,0,2.13,0,.2,0,.4,0,.62,0,4,0,11.06-.01,11.98-.01h.02c.05,0,.08,0,.08,0,0,0,0,0,0,0,0,0,0,0,0,0,0,0,0,0,0,0,0-.1-.06-.28-.25-.32-3.3-.66-5-1.03-7.95-2.06-.35-.11-.65-.14-.92-.14Z"/>
      <path class="cls-3" d="M35.39,44.28v.06s1.86,2.66,1.86,2.66l.47.67v.02s.31.44.31.44l.07.09s.05.08.08.12c0,0,.01.02.02.03.02.02.03.05.05.07.04.07.08.14.11.21.05.1.08.2.1.3.08.33,0,.64-.24.93l-.11.13-.03.03-.3.33-.1.11h0s-.18.19-.18.19l-.86.83-5.31,5.13-.04.03h0s0,0,0,0c0,0,0,0,0,0,0,0,0,0,0,0h0s0,0,0,0h0s0,0,0,0c0,0,.03.01.08.02,0,0,.02,0,.03,0,0,0,0,0,.01,0,.03,0,.06,0,.09-.01,1.79-.57,2.57-.84,3.23-1.04.6-.18,1.15-.69,1.51-1.2l1.48-2.29s0,0,0,.01c.03.46.05.97.07,1.4,0,.18.01.36.02.54,0,.05,0,.11,0,.17.01.41.02.83.02,1.26,0,.31-.01.63-.01.95,0,.41,0,.81-.02,1.22,0,.05,0,.12,0,.19-.03,1.19-.09,5.13-.19,5.92,0,.03,0,.06,0,.09,0,.22,0,.41.01.59.13,1.43,1,1.47,1.17.32.04-.26.04-.57-.01-.95-.12-.63-.17-5.07-.22-6.12-.02-.4-.04-1.25-.03-1.25-.02-.81-.03-1.7-.03-1.89h0c0-.17,0-.34,0-.49h0c0-.22,0-.39,0-.44,0-.64.02-.55.03-1.1,0-.04,0-.08,0-.13,0-.21.07-.38.17-.53h0s0,0,0-.01c.01-.02.03-.03.04-.04.26-.31.64-.39,1-.31,0,0,0,0,0,0,.1.02.19.06.28.11,0,0,.01,0,.02,0,.03.02.07.03.1.05l.1.1,4.99,4.82h0s0-.01,0-.02c0,0,0,0,0,0,.01.01.03.03.03.03h0s0,0,0,0c0,0,0,0,0,0h0s0,0,0,0c.06-.06.02-.13,0-.21-.36-1.08-.37-1.86-.58-2.62-.32-1.15-.72-1.21-1.18-1.54l-.32-.22c-.25-.14-.67-.36-1.08-.59-.39-.22-.79-.43-1.05-.58-.2-.11-.43-.17-.66-.17h-.48s-.03,0-.05,0c0,0,0,0,0,0,0,0-.02,0-.02,0-.19,0-.65-.03-.79-.47,0-.02-.02-.04-.02-.07,0-.02,0-.05,0-.07,0-.04-.01-.08-.01-.12.01-.15.08-.33.28-.52l.16-.16.37-.38,10.2-10.46,2.18-2.23s0,0,0,0h0s0,0,0,0c-.04-.05-.21-.14-.4-.02-1.31.91-2.32,1.55-3.19,2.05-.02.01-.03.03-.05.04-.55.32-1.04.59-1.51.84-.04.02-.09.04-.13.05-1.04.55-1.99,1.03-3.25,1.83-.3.19-.84.74-1.07.97-.08.09-.14.14-.14.14l-.94,1.4-.03.05v.04s-.01.03-.01.03l-.95,1.36-1.5,2.16-.46-.53c-.33-.38-.5-.86-.5-1.36v-22.55h0c-.16,0-.27.13-.29.29,0,.02-.01.06-.01.08,0,0,0,0,0,0,0,.07-.03.17-.05.28-.43,2.08-2.56,9.74-3.41,14.26,0,0,0,.01,0,.02,0,0,0,.02,0,.03-.13.69-.12,1.4.04,2.09l1.07,4.49Z"/>
    </g>
  </g>
</svg>